G75*
%MOIN*%
%OFA0B0*%
%FSLAX25Y25*%
%IPPOS*%
%LPD*%
%AMOC8*
5,1,8,0,0,1.08239X$1,22.5*
%
%ADD10C,0.02756*%
%ADD11C,0.02165*%
%ADD12C,0.04724*%
%ADD13C,0.02039*%
%ADD14OC8,0.07150*%
%ADD15C,0.07287*%
D10*
X0000000Y0001969D03*
X-0003937Y0001969D03*
X-0003937Y-0005906D03*
X0000000Y-0005906D03*
X0003937Y-0005906D03*
X0003937Y0001969D03*
X0007874Y0001969D03*
X0007874Y-0005906D03*
X-0007874Y-0005906D03*
X-0007874Y0001969D03*
D11*
X-0007973Y0120374D02*
X-0006201Y0120374D01*
X-0007973Y0120374D02*
X-0007973Y0124902D01*
X-0006201Y0124902D01*
X-0006201Y0120374D01*
X-0006201Y0122538D02*
X-0007973Y0122538D01*
X-0007973Y0124702D02*
X-0006201Y0124702D01*
X-0003248Y0120374D02*
X-0001476Y0120374D01*
X-0003248Y0120374D02*
X-0003248Y0124902D01*
X-0001476Y0124902D01*
X-0001476Y0120374D01*
X-0001476Y0122538D02*
X-0003248Y0122538D01*
X-0003248Y0124702D02*
X-0001476Y0124702D01*
X0001476Y0120374D02*
X0003248Y0120374D01*
X0001476Y0120374D02*
X0001476Y0124902D01*
X0003248Y0124902D01*
X0003248Y0120374D01*
X0003248Y0122538D02*
X0001476Y0122538D01*
X0001476Y0124702D02*
X0003248Y0124702D01*
X0006201Y0120374D02*
X0007973Y0120374D01*
X0006201Y0120374D02*
X0006201Y0124902D01*
X0007973Y0124902D01*
X0007973Y0120374D01*
X0007973Y0122538D02*
X0006201Y0122538D01*
X0006201Y0124702D02*
X0007973Y0124702D01*
X0010925Y0120374D02*
X0012697Y0120374D01*
X0010925Y0120374D02*
X0010925Y0124902D01*
X0012697Y0124902D01*
X0012697Y0120374D01*
X0012697Y0122538D02*
X0010925Y0122538D01*
X0010925Y0124702D02*
X0012697Y0124702D01*
X0019390Y0130610D02*
X0019390Y0132382D01*
X0023918Y0132382D01*
X0023918Y0130610D01*
X0019390Y0130610D01*
X0019390Y0135334D02*
X0019390Y0137106D01*
X0023918Y0137106D01*
X0023918Y0135334D01*
X0019390Y0135334D01*
X0019390Y0140059D02*
X0019390Y0141831D01*
X0023918Y0141831D01*
X0023918Y0140059D01*
X0019390Y0140059D01*
X0019390Y0144783D02*
X0019390Y0146555D01*
X0023918Y0146555D01*
X0023918Y0144783D01*
X0019390Y0144783D01*
X0019390Y0149508D02*
X0019390Y0151280D01*
X0023918Y0151280D01*
X0023918Y0149508D01*
X0019390Y0149508D01*
X0019390Y0154232D02*
X0019390Y0156004D01*
X0023918Y0156004D01*
X0023918Y0154232D01*
X0019390Y0154232D01*
X0019390Y0158957D02*
X0019390Y0160729D01*
X0023918Y0160729D01*
X0023918Y0158957D01*
X0019390Y0158957D01*
X0019390Y0163681D02*
X0019390Y0165453D01*
X0023918Y0165453D01*
X0023918Y0163681D01*
X0019390Y0163681D01*
X0030414Y0165256D02*
X0030414Y0167028D01*
X0030414Y0165256D02*
X0027854Y0165256D01*
X0027854Y0167028D01*
X0030414Y0167028D01*
X0030414Y0160729D02*
X0030414Y0158957D01*
X0027854Y0158957D01*
X0027854Y0160729D01*
X0030414Y0160729D01*
X-0010925Y0120374D02*
X-0012697Y0120374D01*
X-0012697Y0124902D01*
X-0010925Y0124902D01*
X-0010925Y0120374D01*
X-0010925Y0122538D02*
X-0012697Y0122538D01*
X-0012697Y0124702D02*
X-0010925Y0124702D01*
X-0023918Y0130610D02*
X-0023918Y0132382D01*
X-0019390Y0132382D01*
X-0019390Y0130610D01*
X-0023918Y0130610D01*
X-0023918Y0135334D02*
X-0023918Y0137106D01*
X-0019390Y0137106D01*
X-0019390Y0135334D01*
X-0023918Y0135334D01*
X-0023918Y0140059D02*
X-0023918Y0141831D01*
X-0019390Y0141831D01*
X-0019390Y0140059D01*
X-0023918Y0140059D01*
X-0023918Y0144783D02*
X-0023918Y0146555D01*
X-0019390Y0146555D01*
X-0019390Y0144783D01*
X-0023918Y0144783D01*
X-0023918Y0149508D02*
X-0023918Y0151280D01*
X-0019390Y0151280D01*
X-0019390Y0149508D01*
X-0023918Y0149508D01*
X-0023918Y0154232D02*
X-0023918Y0156004D01*
X-0019390Y0156004D01*
X-0019390Y0154232D01*
X-0023918Y0154232D01*
X-0023918Y0158957D02*
X-0023918Y0160729D01*
X-0019390Y0160729D01*
X-0019390Y0158957D01*
X-0023918Y0158957D01*
X-0023918Y0163681D02*
X-0023918Y0165453D01*
X-0019390Y0165453D01*
X-0019390Y0163681D01*
X-0023918Y0163681D01*
D12*
X-0022638Y0121654D03*
X0022638Y0121654D03*
D13*
X0017948Y0122870D02*
X0017948Y0127524D01*
X0021422Y0127524D01*
X0021422Y0122870D01*
X0017948Y0122870D01*
X0017948Y0124908D02*
X0021422Y0124908D01*
X0021422Y0126946D02*
X0017948Y0126946D01*
X-0021422Y0127524D02*
X-0021422Y0122870D01*
X-0021422Y0127524D02*
X-0017948Y0127524D01*
X-0017948Y0122870D01*
X-0021422Y0122870D01*
X-0021422Y0124908D02*
X-0017948Y0124908D01*
X-0017948Y0126946D02*
X-0021422Y0126946D01*
D14*
X-0005000Y0042953D03*
X-0005000Y0032953D03*
X-0005000Y0022953D03*
X-0005000Y0012953D03*
X-0005000Y-0014921D03*
X-0005000Y-0024921D03*
X-0005000Y-0034921D03*
X-0005000Y-0044921D03*
X0005000Y-0044921D03*
X0005000Y-0034921D03*
X0005000Y-0024921D03*
X0005000Y-0014921D03*
X0005000Y0012953D03*
X0005000Y0022953D03*
X0005000Y0032953D03*
X0005000Y0042953D03*
D15*
X0005000Y-0086281D02*
X0005000Y-0109781D01*
X0005000Y-0109781D01*
X0005000Y-0086281D01*
X0005000Y-0086281D01*
X0005000Y-0102495D02*
X0005000Y-0102495D01*
X0005000Y-0095209D02*
X0005000Y-0095209D01*
X0005000Y-0087923D02*
X0005000Y-0087923D01*
X-0005000Y-0086281D02*
X-0005000Y-0109781D01*
X-0005000Y-0109781D01*
X-0005000Y-0086281D01*
X-0005000Y-0086281D01*
X-0005000Y-0102495D02*
X-0005000Y-0102495D01*
X-0005000Y-0095209D02*
X-0005000Y-0095209D01*
X-0005000Y-0087923D02*
X-0005000Y-0087923D01*
X-0015000Y-0086281D02*
X-0015000Y-0109781D01*
X-0015000Y-0109781D01*
X-0015000Y-0086281D01*
X-0015000Y-0086281D01*
X-0015000Y-0102495D02*
X-0015000Y-0102495D01*
X-0015000Y-0095209D02*
X-0015000Y-0095209D01*
X-0015000Y-0087923D02*
X-0015000Y-0087923D01*
X0015000Y-0086281D02*
X0015000Y-0109781D01*
X0015000Y-0109781D01*
X0015000Y-0086281D01*
X0015000Y-0086281D01*
X0015000Y-0102495D02*
X0015000Y-0102495D01*
X0015000Y-0095209D02*
X0015000Y-0095209D01*
X0015000Y-0087923D02*
X0015000Y-0087923D01*
M02*
