G75*
%MOIN*%
%OFA0B0*%
%FSLAX25Y25*%
%IPPOS*%
%LPD*%
%AMOC8*
5,1,8,0,0,1.08239X$1,22.5*
%
%ADD10C,0.00000*%
%ADD11C,0.01732*%
%ADD12C,0.03937*%
%ADD13C,0.01748*%
%ADD14OC8,0.06362*%
%ADD15C,0.06500*%
%ADD16C,0.00787*%
%ADD17C,0.03150*%
%ADD18C,0.04331*%
%ADD19C,0.02362*%
%ADD20C,0.01575*%
D10*
X-0000984Y0001969D02*
X-0000982Y0002031D01*
X-0000976Y0002094D01*
X-0000966Y0002155D01*
X-0000952Y0002216D01*
X-0000935Y0002276D01*
X-0000914Y0002335D01*
X-0000888Y0002392D01*
X-0000860Y0002447D01*
X-0000828Y0002501D01*
X-0000792Y0002552D01*
X-0000754Y0002602D01*
X-0000712Y0002648D01*
X-0000668Y0002692D01*
X-0000620Y0002733D01*
X-0000571Y0002771D01*
X-0000519Y0002805D01*
X-0000465Y0002836D01*
X-0000409Y0002864D01*
X-0000351Y0002888D01*
X-0000292Y0002909D01*
X-0000232Y0002925D01*
X-0000171Y0002938D01*
X-0000109Y0002947D01*
X-0000047Y0002952D01*
X0000016Y0002953D01*
X0000078Y0002950D01*
X0000140Y0002943D01*
X0000202Y0002932D01*
X0000262Y0002917D01*
X0000322Y0002899D01*
X0000380Y0002877D01*
X0000437Y0002851D01*
X0000492Y0002821D01*
X0000545Y0002788D01*
X0000596Y0002752D01*
X0000644Y0002713D01*
X0000690Y0002670D01*
X0000733Y0002625D01*
X0000773Y0002577D01*
X0000810Y0002527D01*
X0000844Y0002474D01*
X0000875Y0002420D01*
X0000901Y0002364D01*
X0000925Y0002306D01*
X0000944Y0002246D01*
X0000960Y0002186D01*
X0000972Y0002124D01*
X0000980Y0002063D01*
X0000984Y0002000D01*
X0000984Y0001938D01*
X0000980Y0001875D01*
X0000972Y0001814D01*
X0000960Y0001752D01*
X0000944Y0001692D01*
X0000925Y0001632D01*
X0000901Y0001574D01*
X0000875Y0001518D01*
X0000844Y0001464D01*
X0000810Y0001411D01*
X0000773Y0001361D01*
X0000733Y0001313D01*
X0000690Y0001268D01*
X0000644Y0001225D01*
X0000596Y0001186D01*
X0000545Y0001150D01*
X0000492Y0001117D01*
X0000437Y0001087D01*
X0000380Y0001061D01*
X0000322Y0001039D01*
X0000262Y0001021D01*
X0000202Y0001006D01*
X0000140Y0000995D01*
X0000078Y0000988D01*
X0000016Y0000985D01*
X-0000047Y0000986D01*
X-0000109Y0000991D01*
X-0000171Y0001000D01*
X-0000232Y0001013D01*
X-0000292Y0001029D01*
X-0000351Y0001050D01*
X-0000409Y0001074D01*
X-0000465Y0001102D01*
X-0000519Y0001133D01*
X-0000571Y0001167D01*
X-0000620Y0001205D01*
X-0000668Y0001246D01*
X-0000712Y0001290D01*
X-0000754Y0001336D01*
X-0000792Y0001386D01*
X-0000828Y0001437D01*
X-0000860Y0001491D01*
X-0000888Y0001546D01*
X-0000914Y0001603D01*
X-0000935Y0001662D01*
X-0000952Y0001722D01*
X-0000966Y0001783D01*
X-0000976Y0001844D01*
X-0000982Y0001907D01*
X-0000984Y0001969D01*
X-0004921Y0001969D02*
X-0004919Y0002031D01*
X-0004913Y0002094D01*
X-0004903Y0002155D01*
X-0004889Y0002216D01*
X-0004872Y0002276D01*
X-0004851Y0002335D01*
X-0004825Y0002392D01*
X-0004797Y0002447D01*
X-0004765Y0002501D01*
X-0004729Y0002552D01*
X-0004691Y0002602D01*
X-0004649Y0002648D01*
X-0004605Y0002692D01*
X-0004557Y0002733D01*
X-0004508Y0002771D01*
X-0004456Y0002805D01*
X-0004402Y0002836D01*
X-0004346Y0002864D01*
X-0004288Y0002888D01*
X-0004229Y0002909D01*
X-0004169Y0002925D01*
X-0004108Y0002938D01*
X-0004046Y0002947D01*
X-0003984Y0002952D01*
X-0003921Y0002953D01*
X-0003859Y0002950D01*
X-0003797Y0002943D01*
X-0003735Y0002932D01*
X-0003675Y0002917D01*
X-0003615Y0002899D01*
X-0003557Y0002877D01*
X-0003500Y0002851D01*
X-0003445Y0002821D01*
X-0003392Y0002788D01*
X-0003341Y0002752D01*
X-0003293Y0002713D01*
X-0003247Y0002670D01*
X-0003204Y0002625D01*
X-0003164Y0002577D01*
X-0003127Y0002527D01*
X-0003093Y0002474D01*
X-0003062Y0002420D01*
X-0003036Y0002364D01*
X-0003012Y0002306D01*
X-0002993Y0002246D01*
X-0002977Y0002186D01*
X-0002965Y0002124D01*
X-0002957Y0002063D01*
X-0002953Y0002000D01*
X-0002953Y0001938D01*
X-0002957Y0001875D01*
X-0002965Y0001814D01*
X-0002977Y0001752D01*
X-0002993Y0001692D01*
X-0003012Y0001632D01*
X-0003036Y0001574D01*
X-0003062Y0001518D01*
X-0003093Y0001464D01*
X-0003127Y0001411D01*
X-0003164Y0001361D01*
X-0003204Y0001313D01*
X-0003247Y0001268D01*
X-0003293Y0001225D01*
X-0003341Y0001186D01*
X-0003392Y0001150D01*
X-0003445Y0001117D01*
X-0003500Y0001087D01*
X-0003557Y0001061D01*
X-0003615Y0001039D01*
X-0003675Y0001021D01*
X-0003735Y0001006D01*
X-0003797Y0000995D01*
X-0003859Y0000988D01*
X-0003921Y0000985D01*
X-0003984Y0000986D01*
X-0004046Y0000991D01*
X-0004108Y0001000D01*
X-0004169Y0001013D01*
X-0004229Y0001029D01*
X-0004288Y0001050D01*
X-0004346Y0001074D01*
X-0004402Y0001102D01*
X-0004456Y0001133D01*
X-0004508Y0001167D01*
X-0004557Y0001205D01*
X-0004605Y0001246D01*
X-0004649Y0001290D01*
X-0004691Y0001336D01*
X-0004729Y0001386D01*
X-0004765Y0001437D01*
X-0004797Y0001491D01*
X-0004825Y0001546D01*
X-0004851Y0001603D01*
X-0004872Y0001662D01*
X-0004889Y0001722D01*
X-0004903Y0001783D01*
X-0004913Y0001844D01*
X-0004919Y0001907D01*
X-0004921Y0001969D01*
X-0008858Y0001969D02*
X-0008856Y0002031D01*
X-0008850Y0002094D01*
X-0008840Y0002155D01*
X-0008826Y0002216D01*
X-0008809Y0002276D01*
X-0008788Y0002335D01*
X-0008762Y0002392D01*
X-0008734Y0002447D01*
X-0008702Y0002501D01*
X-0008666Y0002552D01*
X-0008628Y0002602D01*
X-0008586Y0002648D01*
X-0008542Y0002692D01*
X-0008494Y0002733D01*
X-0008445Y0002771D01*
X-0008393Y0002805D01*
X-0008339Y0002836D01*
X-0008283Y0002864D01*
X-0008225Y0002888D01*
X-0008166Y0002909D01*
X-0008106Y0002925D01*
X-0008045Y0002938D01*
X-0007983Y0002947D01*
X-0007921Y0002952D01*
X-0007858Y0002953D01*
X-0007796Y0002950D01*
X-0007734Y0002943D01*
X-0007672Y0002932D01*
X-0007612Y0002917D01*
X-0007552Y0002899D01*
X-0007494Y0002877D01*
X-0007437Y0002851D01*
X-0007382Y0002821D01*
X-0007329Y0002788D01*
X-0007278Y0002752D01*
X-0007230Y0002713D01*
X-0007184Y0002670D01*
X-0007141Y0002625D01*
X-0007101Y0002577D01*
X-0007064Y0002527D01*
X-0007030Y0002474D01*
X-0006999Y0002420D01*
X-0006973Y0002364D01*
X-0006949Y0002306D01*
X-0006930Y0002246D01*
X-0006914Y0002186D01*
X-0006902Y0002124D01*
X-0006894Y0002063D01*
X-0006890Y0002000D01*
X-0006890Y0001938D01*
X-0006894Y0001875D01*
X-0006902Y0001814D01*
X-0006914Y0001752D01*
X-0006930Y0001692D01*
X-0006949Y0001632D01*
X-0006973Y0001574D01*
X-0006999Y0001518D01*
X-0007030Y0001464D01*
X-0007064Y0001411D01*
X-0007101Y0001361D01*
X-0007141Y0001313D01*
X-0007184Y0001268D01*
X-0007230Y0001225D01*
X-0007278Y0001186D01*
X-0007329Y0001150D01*
X-0007382Y0001117D01*
X-0007437Y0001087D01*
X-0007494Y0001061D01*
X-0007552Y0001039D01*
X-0007612Y0001021D01*
X-0007672Y0001006D01*
X-0007734Y0000995D01*
X-0007796Y0000988D01*
X-0007858Y0000985D01*
X-0007921Y0000986D01*
X-0007983Y0000991D01*
X-0008045Y0001000D01*
X-0008106Y0001013D01*
X-0008166Y0001029D01*
X-0008225Y0001050D01*
X-0008283Y0001074D01*
X-0008339Y0001102D01*
X-0008393Y0001133D01*
X-0008445Y0001167D01*
X-0008494Y0001205D01*
X-0008542Y0001246D01*
X-0008586Y0001290D01*
X-0008628Y0001336D01*
X-0008666Y0001386D01*
X-0008702Y0001437D01*
X-0008734Y0001491D01*
X-0008762Y0001546D01*
X-0008788Y0001603D01*
X-0008809Y0001662D01*
X-0008826Y0001722D01*
X-0008840Y0001783D01*
X-0008850Y0001844D01*
X-0008856Y0001907D01*
X-0008858Y0001969D01*
X-0008858Y-0005906D02*
X-0008856Y-0005844D01*
X-0008850Y-0005781D01*
X-0008840Y-0005720D01*
X-0008826Y-0005659D01*
X-0008809Y-0005599D01*
X-0008788Y-0005540D01*
X-0008762Y-0005483D01*
X-0008734Y-0005428D01*
X-0008702Y-0005374D01*
X-0008666Y-0005323D01*
X-0008628Y-0005273D01*
X-0008586Y-0005227D01*
X-0008542Y-0005183D01*
X-0008494Y-0005142D01*
X-0008445Y-0005104D01*
X-0008393Y-0005070D01*
X-0008339Y-0005039D01*
X-0008283Y-0005011D01*
X-0008225Y-0004987D01*
X-0008166Y-0004966D01*
X-0008106Y-0004950D01*
X-0008045Y-0004937D01*
X-0007983Y-0004928D01*
X-0007921Y-0004923D01*
X-0007858Y-0004922D01*
X-0007796Y-0004925D01*
X-0007734Y-0004932D01*
X-0007672Y-0004943D01*
X-0007612Y-0004958D01*
X-0007552Y-0004976D01*
X-0007494Y-0004998D01*
X-0007437Y-0005024D01*
X-0007382Y-0005054D01*
X-0007329Y-0005087D01*
X-0007278Y-0005123D01*
X-0007230Y-0005162D01*
X-0007184Y-0005205D01*
X-0007141Y-0005250D01*
X-0007101Y-0005298D01*
X-0007064Y-0005348D01*
X-0007030Y-0005401D01*
X-0006999Y-0005455D01*
X-0006973Y-0005511D01*
X-0006949Y-0005569D01*
X-0006930Y-0005629D01*
X-0006914Y-0005689D01*
X-0006902Y-0005751D01*
X-0006894Y-0005812D01*
X-0006890Y-0005875D01*
X-0006890Y-0005937D01*
X-0006894Y-0006000D01*
X-0006902Y-0006061D01*
X-0006914Y-0006123D01*
X-0006930Y-0006183D01*
X-0006949Y-0006243D01*
X-0006973Y-0006301D01*
X-0006999Y-0006357D01*
X-0007030Y-0006411D01*
X-0007064Y-0006464D01*
X-0007101Y-0006514D01*
X-0007141Y-0006562D01*
X-0007184Y-0006607D01*
X-0007230Y-0006650D01*
X-0007278Y-0006689D01*
X-0007329Y-0006725D01*
X-0007382Y-0006758D01*
X-0007437Y-0006788D01*
X-0007494Y-0006814D01*
X-0007552Y-0006836D01*
X-0007612Y-0006854D01*
X-0007672Y-0006869D01*
X-0007734Y-0006880D01*
X-0007796Y-0006887D01*
X-0007858Y-0006890D01*
X-0007921Y-0006889D01*
X-0007983Y-0006884D01*
X-0008045Y-0006875D01*
X-0008106Y-0006862D01*
X-0008166Y-0006846D01*
X-0008225Y-0006825D01*
X-0008283Y-0006801D01*
X-0008339Y-0006773D01*
X-0008393Y-0006742D01*
X-0008445Y-0006708D01*
X-0008494Y-0006670D01*
X-0008542Y-0006629D01*
X-0008586Y-0006585D01*
X-0008628Y-0006539D01*
X-0008666Y-0006489D01*
X-0008702Y-0006438D01*
X-0008734Y-0006384D01*
X-0008762Y-0006329D01*
X-0008788Y-0006272D01*
X-0008809Y-0006213D01*
X-0008826Y-0006153D01*
X-0008840Y-0006092D01*
X-0008850Y-0006031D01*
X-0008856Y-0005968D01*
X-0008858Y-0005906D01*
X-0013780Y-0005905D02*
X-0013882Y-0005907D01*
X-0013983Y-0005913D01*
X-0014084Y-0005922D01*
X-0014185Y-0005935D01*
X-0014285Y-0005952D01*
X-0014385Y-0005973D01*
X-0014483Y-0005998D01*
X-0014581Y-0006026D01*
X-0014677Y-0006057D01*
X-0014773Y-0006093D01*
X-0014867Y-0006132D01*
X-0014959Y-0006174D01*
X-0015050Y-0006220D01*
X-0015138Y-0006269D01*
X-0015226Y-0006321D01*
X-0015311Y-0006377D01*
X-0015393Y-0006436D01*
X-0015474Y-0006498D01*
X-0015552Y-0006563D01*
X-0015628Y-0006630D01*
X-0015701Y-0006701D01*
X-0015772Y-0006774D01*
X-0015839Y-0006850D01*
X-0015904Y-0006928D01*
X-0015966Y-0007009D01*
X-0016025Y-0007091D01*
X-0016081Y-0007176D01*
X-0016133Y-0007264D01*
X-0016182Y-0007352D01*
X-0016228Y-0007443D01*
X-0016270Y-0007535D01*
X-0016309Y-0007629D01*
X-0016345Y-0007725D01*
X-0016376Y-0007821D01*
X-0016404Y-0007919D01*
X-0016429Y-0008017D01*
X-0016450Y-0008117D01*
X-0016467Y-0008217D01*
X-0016480Y-0008318D01*
X-0016489Y-0008419D01*
X-0016495Y-0008520D01*
X-0016497Y-0008622D01*
X-0016496Y-0008622D02*
X-0016496Y-0013780D01*
X-0014961Y-0013780D01*
X-0014961Y-0017717D01*
X-0016496Y-0017717D01*
X-0016496Y-0064961D01*
X-0016498Y-0065085D01*
X-0016504Y-0065208D01*
X-0016513Y-0065332D01*
X-0016527Y-0065454D01*
X-0016544Y-0065577D01*
X-0016566Y-0065699D01*
X-0016591Y-0065820D01*
X-0016620Y-0065940D01*
X-0016652Y-0066059D01*
X-0016689Y-0066178D01*
X-0016729Y-0066295D01*
X-0016772Y-0066410D01*
X-0016820Y-0066525D01*
X-0016871Y-0066637D01*
X-0016925Y-0066748D01*
X-0016983Y-0066858D01*
X-0017044Y-0066965D01*
X-0017109Y-0067071D01*
X-0017177Y-0067174D01*
X-0017248Y-0067275D01*
X-0017322Y-0067374D01*
X-0017399Y-0067471D01*
X-0017480Y-0067565D01*
X-0017563Y-0067656D01*
X-0017649Y-0067745D01*
X-0017738Y-0067831D01*
X-0017829Y-0067914D01*
X-0017923Y-0067995D01*
X-0018020Y-0068072D01*
X-0018119Y-0068146D01*
X-0018220Y-0068217D01*
X-0018323Y-0068285D01*
X-0018429Y-0068350D01*
X-0018536Y-0068411D01*
X-0018646Y-0068469D01*
X-0018757Y-0068523D01*
X-0018869Y-0068574D01*
X-0018984Y-0068622D01*
X-0019099Y-0068665D01*
X-0019216Y-0068705D01*
X-0019335Y-0068742D01*
X-0019454Y-0068774D01*
X-0019574Y-0068803D01*
X-0019695Y-0068828D01*
X-0019817Y-0068850D01*
X-0019940Y-0068867D01*
X-0020062Y-0068881D01*
X-0020186Y-0068890D01*
X-0020309Y-0068896D01*
X-0020433Y-0068898D01*
X-0021063Y-0068898D01*
X-0021187Y-0068900D01*
X-0021310Y-0068906D01*
X-0021434Y-0068915D01*
X-0021556Y-0068929D01*
X-0021679Y-0068946D01*
X-0021801Y-0068968D01*
X-0021922Y-0068993D01*
X-0022042Y-0069022D01*
X-0022161Y-0069054D01*
X-0022280Y-0069091D01*
X-0022397Y-0069131D01*
X-0022512Y-0069174D01*
X-0022627Y-0069222D01*
X-0022739Y-0069273D01*
X-0022850Y-0069327D01*
X-0022960Y-0069385D01*
X-0023067Y-0069446D01*
X-0023173Y-0069511D01*
X-0023276Y-0069579D01*
X-0023377Y-0069650D01*
X-0023476Y-0069724D01*
X-0023573Y-0069801D01*
X-0023667Y-0069882D01*
X-0023758Y-0069965D01*
X-0023847Y-0070051D01*
X-0023933Y-0070140D01*
X-0024016Y-0070231D01*
X-0024097Y-0070325D01*
X-0024174Y-0070422D01*
X-0024248Y-0070521D01*
X-0024319Y-0070622D01*
X-0024387Y-0070725D01*
X-0024452Y-0070831D01*
X-0024513Y-0070938D01*
X-0024571Y-0071048D01*
X-0024625Y-0071159D01*
X-0024676Y-0071271D01*
X-0024724Y-0071386D01*
X-0024767Y-0071501D01*
X-0024807Y-0071618D01*
X-0024844Y-0071737D01*
X-0024876Y-0071856D01*
X-0024905Y-0071976D01*
X-0024930Y-0072097D01*
X-0024952Y-0072219D01*
X-0024969Y-0072342D01*
X-0024983Y-0072464D01*
X-0024992Y-0072588D01*
X-0024998Y-0072711D01*
X-0025000Y-0072835D01*
X-0025000Y-0115945D01*
X0025000Y-0115945D01*
X0025000Y-0072835D01*
X0024998Y-0072711D01*
X0024992Y-0072588D01*
X0024983Y-0072464D01*
X0024969Y-0072342D01*
X0024952Y-0072219D01*
X0024930Y-0072097D01*
X0024905Y-0071976D01*
X0024876Y-0071856D01*
X0024844Y-0071737D01*
X0024807Y-0071618D01*
X0024767Y-0071501D01*
X0024724Y-0071386D01*
X0024676Y-0071271D01*
X0024625Y-0071159D01*
X0024571Y-0071048D01*
X0024513Y-0070938D01*
X0024452Y-0070831D01*
X0024387Y-0070725D01*
X0024319Y-0070622D01*
X0024248Y-0070521D01*
X0024174Y-0070422D01*
X0024097Y-0070325D01*
X0024016Y-0070231D01*
X0023933Y-0070140D01*
X0023847Y-0070051D01*
X0023758Y-0069965D01*
X0023667Y-0069882D01*
X0023573Y-0069801D01*
X0023476Y-0069724D01*
X0023377Y-0069650D01*
X0023276Y-0069579D01*
X0023173Y-0069511D01*
X0023067Y-0069446D01*
X0022960Y-0069385D01*
X0022850Y-0069327D01*
X0022739Y-0069273D01*
X0022627Y-0069222D01*
X0022512Y-0069174D01*
X0022397Y-0069131D01*
X0022280Y-0069091D01*
X0022161Y-0069054D01*
X0022042Y-0069022D01*
X0021922Y-0068993D01*
X0021801Y-0068968D01*
X0021679Y-0068946D01*
X0021556Y-0068929D01*
X0021434Y-0068915D01*
X0021310Y-0068906D01*
X0021187Y-0068900D01*
X0021063Y-0068898D01*
X0020433Y-0068898D01*
X0020309Y-0068896D01*
X0020186Y-0068890D01*
X0020062Y-0068881D01*
X0019940Y-0068867D01*
X0019817Y-0068850D01*
X0019695Y-0068828D01*
X0019574Y-0068803D01*
X0019454Y-0068774D01*
X0019335Y-0068742D01*
X0019216Y-0068705D01*
X0019099Y-0068665D01*
X0018984Y-0068622D01*
X0018869Y-0068574D01*
X0018757Y-0068523D01*
X0018646Y-0068469D01*
X0018536Y-0068411D01*
X0018429Y-0068350D01*
X0018323Y-0068285D01*
X0018220Y-0068217D01*
X0018119Y-0068146D01*
X0018020Y-0068072D01*
X0017923Y-0067995D01*
X0017829Y-0067914D01*
X0017738Y-0067831D01*
X0017649Y-0067745D01*
X0017563Y-0067656D01*
X0017480Y-0067565D01*
X0017399Y-0067471D01*
X0017322Y-0067374D01*
X0017248Y-0067275D01*
X0017177Y-0067174D01*
X0017109Y-0067071D01*
X0017044Y-0066965D01*
X0016983Y-0066858D01*
X0016925Y-0066748D01*
X0016871Y-0066637D01*
X0016820Y-0066525D01*
X0016772Y-0066410D01*
X0016729Y-0066295D01*
X0016689Y-0066178D01*
X0016652Y-0066059D01*
X0016620Y-0065940D01*
X0016591Y-0065820D01*
X0016566Y-0065699D01*
X0016544Y-0065577D01*
X0016527Y-0065454D01*
X0016513Y-0065332D01*
X0016504Y-0065208D01*
X0016498Y-0065085D01*
X0016496Y-0064961D01*
X0016496Y-0017717D01*
X0014961Y-0017717D01*
X0014961Y-0013780D01*
X0016496Y-0013780D01*
X0016496Y-0008622D01*
X0016497Y-0008622D02*
X0016495Y-0008520D01*
X0016489Y-0008419D01*
X0016480Y-0008318D01*
X0016467Y-0008217D01*
X0016450Y-0008117D01*
X0016429Y-0008017D01*
X0016404Y-0007919D01*
X0016376Y-0007821D01*
X0016345Y-0007725D01*
X0016309Y-0007629D01*
X0016270Y-0007535D01*
X0016228Y-0007443D01*
X0016182Y-0007352D01*
X0016133Y-0007264D01*
X0016081Y-0007176D01*
X0016025Y-0007091D01*
X0015966Y-0007009D01*
X0015904Y-0006928D01*
X0015839Y-0006850D01*
X0015772Y-0006774D01*
X0015701Y-0006701D01*
X0015628Y-0006630D01*
X0015552Y-0006563D01*
X0015474Y-0006498D01*
X0015393Y-0006436D01*
X0015311Y-0006377D01*
X0015226Y-0006321D01*
X0015139Y-0006269D01*
X0015050Y-0006220D01*
X0014959Y-0006174D01*
X0014867Y-0006132D01*
X0014773Y-0006093D01*
X0014677Y-0006057D01*
X0014581Y-0006026D01*
X0014483Y-0005998D01*
X0014385Y-0005973D01*
X0014285Y-0005952D01*
X0014185Y-0005935D01*
X0014084Y-0005922D01*
X0013983Y-0005913D01*
X0013882Y-0005907D01*
X0013780Y-0005905D01*
X0013780Y-0005906D02*
X0013656Y-0005904D01*
X0013533Y-0005898D01*
X0013409Y-0005889D01*
X0013287Y-0005875D01*
X0013164Y-0005858D01*
X0013042Y-0005836D01*
X0012921Y-0005811D01*
X0012801Y-0005782D01*
X0012682Y-0005750D01*
X0012563Y-0005713D01*
X0012446Y-0005673D01*
X0012331Y-0005630D01*
X0012216Y-0005582D01*
X0012104Y-0005531D01*
X0011993Y-0005477D01*
X0011883Y-0005419D01*
X0011776Y-0005358D01*
X0011670Y-0005293D01*
X0011567Y-0005225D01*
X0011466Y-0005154D01*
X0011367Y-0005080D01*
X0011270Y-0005003D01*
X0011176Y-0004922D01*
X0011085Y-0004839D01*
X0010996Y-0004753D01*
X0010910Y-0004664D01*
X0010827Y-0004573D01*
X0010746Y-0004479D01*
X0010669Y-0004382D01*
X0010595Y-0004283D01*
X0010524Y-0004182D01*
X0010456Y-0004079D01*
X0010391Y-0003973D01*
X0010330Y-0003866D01*
X0010272Y-0003756D01*
X0010218Y-0003645D01*
X0010167Y-0003533D01*
X0010119Y-0003418D01*
X0010076Y-0003303D01*
X0010036Y-0003186D01*
X0009999Y-0003067D01*
X0009967Y-0002948D01*
X0009938Y-0002828D01*
X0009913Y-0002707D01*
X0009891Y-0002585D01*
X0009874Y-0002462D01*
X0009860Y-0002340D01*
X0009851Y-0002216D01*
X0009845Y-0002093D01*
X0009843Y-0001969D01*
X0006890Y-0005906D02*
X0006892Y-0005844D01*
X0006898Y-0005781D01*
X0006908Y-0005720D01*
X0006922Y-0005659D01*
X0006939Y-0005599D01*
X0006960Y-0005540D01*
X0006986Y-0005483D01*
X0007014Y-0005428D01*
X0007046Y-0005374D01*
X0007082Y-0005323D01*
X0007120Y-0005273D01*
X0007162Y-0005227D01*
X0007206Y-0005183D01*
X0007254Y-0005142D01*
X0007303Y-0005104D01*
X0007355Y-0005070D01*
X0007409Y-0005039D01*
X0007465Y-0005011D01*
X0007523Y-0004987D01*
X0007582Y-0004966D01*
X0007642Y-0004950D01*
X0007703Y-0004937D01*
X0007765Y-0004928D01*
X0007827Y-0004923D01*
X0007890Y-0004922D01*
X0007952Y-0004925D01*
X0008014Y-0004932D01*
X0008076Y-0004943D01*
X0008136Y-0004958D01*
X0008196Y-0004976D01*
X0008254Y-0004998D01*
X0008311Y-0005024D01*
X0008366Y-0005054D01*
X0008419Y-0005087D01*
X0008470Y-0005123D01*
X0008518Y-0005162D01*
X0008564Y-0005205D01*
X0008607Y-0005250D01*
X0008647Y-0005298D01*
X0008684Y-0005348D01*
X0008718Y-0005401D01*
X0008749Y-0005455D01*
X0008775Y-0005511D01*
X0008799Y-0005569D01*
X0008818Y-0005629D01*
X0008834Y-0005689D01*
X0008846Y-0005751D01*
X0008854Y-0005812D01*
X0008858Y-0005875D01*
X0008858Y-0005937D01*
X0008854Y-0006000D01*
X0008846Y-0006061D01*
X0008834Y-0006123D01*
X0008818Y-0006183D01*
X0008799Y-0006243D01*
X0008775Y-0006301D01*
X0008749Y-0006357D01*
X0008718Y-0006411D01*
X0008684Y-0006464D01*
X0008647Y-0006514D01*
X0008607Y-0006562D01*
X0008564Y-0006607D01*
X0008518Y-0006650D01*
X0008470Y-0006689D01*
X0008419Y-0006725D01*
X0008366Y-0006758D01*
X0008311Y-0006788D01*
X0008254Y-0006814D01*
X0008196Y-0006836D01*
X0008136Y-0006854D01*
X0008076Y-0006869D01*
X0008014Y-0006880D01*
X0007952Y-0006887D01*
X0007890Y-0006890D01*
X0007827Y-0006889D01*
X0007765Y-0006884D01*
X0007703Y-0006875D01*
X0007642Y-0006862D01*
X0007582Y-0006846D01*
X0007523Y-0006825D01*
X0007465Y-0006801D01*
X0007409Y-0006773D01*
X0007355Y-0006742D01*
X0007303Y-0006708D01*
X0007254Y-0006670D01*
X0007206Y-0006629D01*
X0007162Y-0006585D01*
X0007120Y-0006539D01*
X0007082Y-0006489D01*
X0007046Y-0006438D01*
X0007014Y-0006384D01*
X0006986Y-0006329D01*
X0006960Y-0006272D01*
X0006939Y-0006213D01*
X0006922Y-0006153D01*
X0006908Y-0006092D01*
X0006898Y-0006031D01*
X0006892Y-0005968D01*
X0006890Y-0005906D01*
X0002953Y-0005906D02*
X0002955Y-0005844D01*
X0002961Y-0005781D01*
X0002971Y-0005720D01*
X0002985Y-0005659D01*
X0003002Y-0005599D01*
X0003023Y-0005540D01*
X0003049Y-0005483D01*
X0003077Y-0005428D01*
X0003109Y-0005374D01*
X0003145Y-0005323D01*
X0003183Y-0005273D01*
X0003225Y-0005227D01*
X0003269Y-0005183D01*
X0003317Y-0005142D01*
X0003366Y-0005104D01*
X0003418Y-0005070D01*
X0003472Y-0005039D01*
X0003528Y-0005011D01*
X0003586Y-0004987D01*
X0003645Y-0004966D01*
X0003705Y-0004950D01*
X0003766Y-0004937D01*
X0003828Y-0004928D01*
X0003890Y-0004923D01*
X0003953Y-0004922D01*
X0004015Y-0004925D01*
X0004077Y-0004932D01*
X0004139Y-0004943D01*
X0004199Y-0004958D01*
X0004259Y-0004976D01*
X0004317Y-0004998D01*
X0004374Y-0005024D01*
X0004429Y-0005054D01*
X0004482Y-0005087D01*
X0004533Y-0005123D01*
X0004581Y-0005162D01*
X0004627Y-0005205D01*
X0004670Y-0005250D01*
X0004710Y-0005298D01*
X0004747Y-0005348D01*
X0004781Y-0005401D01*
X0004812Y-0005455D01*
X0004838Y-0005511D01*
X0004862Y-0005569D01*
X0004881Y-0005629D01*
X0004897Y-0005689D01*
X0004909Y-0005751D01*
X0004917Y-0005812D01*
X0004921Y-0005875D01*
X0004921Y-0005937D01*
X0004917Y-0006000D01*
X0004909Y-0006061D01*
X0004897Y-0006123D01*
X0004881Y-0006183D01*
X0004862Y-0006243D01*
X0004838Y-0006301D01*
X0004812Y-0006357D01*
X0004781Y-0006411D01*
X0004747Y-0006464D01*
X0004710Y-0006514D01*
X0004670Y-0006562D01*
X0004627Y-0006607D01*
X0004581Y-0006650D01*
X0004533Y-0006689D01*
X0004482Y-0006725D01*
X0004429Y-0006758D01*
X0004374Y-0006788D01*
X0004317Y-0006814D01*
X0004259Y-0006836D01*
X0004199Y-0006854D01*
X0004139Y-0006869D01*
X0004077Y-0006880D01*
X0004015Y-0006887D01*
X0003953Y-0006890D01*
X0003890Y-0006889D01*
X0003828Y-0006884D01*
X0003766Y-0006875D01*
X0003705Y-0006862D01*
X0003645Y-0006846D01*
X0003586Y-0006825D01*
X0003528Y-0006801D01*
X0003472Y-0006773D01*
X0003418Y-0006742D01*
X0003366Y-0006708D01*
X0003317Y-0006670D01*
X0003269Y-0006629D01*
X0003225Y-0006585D01*
X0003183Y-0006539D01*
X0003145Y-0006489D01*
X0003109Y-0006438D01*
X0003077Y-0006384D01*
X0003049Y-0006329D01*
X0003023Y-0006272D01*
X0003002Y-0006213D01*
X0002985Y-0006153D01*
X0002971Y-0006092D01*
X0002961Y-0006031D01*
X0002955Y-0005968D01*
X0002953Y-0005906D01*
X0002953Y0001969D02*
X0002955Y0002031D01*
X0002961Y0002094D01*
X0002971Y0002155D01*
X0002985Y0002216D01*
X0003002Y0002276D01*
X0003023Y0002335D01*
X0003049Y0002392D01*
X0003077Y0002447D01*
X0003109Y0002501D01*
X0003145Y0002552D01*
X0003183Y0002602D01*
X0003225Y0002648D01*
X0003269Y0002692D01*
X0003317Y0002733D01*
X0003366Y0002771D01*
X0003418Y0002805D01*
X0003472Y0002836D01*
X0003528Y0002864D01*
X0003586Y0002888D01*
X0003645Y0002909D01*
X0003705Y0002925D01*
X0003766Y0002938D01*
X0003828Y0002947D01*
X0003890Y0002952D01*
X0003953Y0002953D01*
X0004015Y0002950D01*
X0004077Y0002943D01*
X0004139Y0002932D01*
X0004199Y0002917D01*
X0004259Y0002899D01*
X0004317Y0002877D01*
X0004374Y0002851D01*
X0004429Y0002821D01*
X0004482Y0002788D01*
X0004533Y0002752D01*
X0004581Y0002713D01*
X0004627Y0002670D01*
X0004670Y0002625D01*
X0004710Y0002577D01*
X0004747Y0002527D01*
X0004781Y0002474D01*
X0004812Y0002420D01*
X0004838Y0002364D01*
X0004862Y0002306D01*
X0004881Y0002246D01*
X0004897Y0002186D01*
X0004909Y0002124D01*
X0004917Y0002063D01*
X0004921Y0002000D01*
X0004921Y0001938D01*
X0004917Y0001875D01*
X0004909Y0001814D01*
X0004897Y0001752D01*
X0004881Y0001692D01*
X0004862Y0001632D01*
X0004838Y0001574D01*
X0004812Y0001518D01*
X0004781Y0001464D01*
X0004747Y0001411D01*
X0004710Y0001361D01*
X0004670Y0001313D01*
X0004627Y0001268D01*
X0004581Y0001225D01*
X0004533Y0001186D01*
X0004482Y0001150D01*
X0004429Y0001117D01*
X0004374Y0001087D01*
X0004317Y0001061D01*
X0004259Y0001039D01*
X0004199Y0001021D01*
X0004139Y0001006D01*
X0004077Y0000995D01*
X0004015Y0000988D01*
X0003953Y0000985D01*
X0003890Y0000986D01*
X0003828Y0000991D01*
X0003766Y0001000D01*
X0003705Y0001013D01*
X0003645Y0001029D01*
X0003586Y0001050D01*
X0003528Y0001074D01*
X0003472Y0001102D01*
X0003418Y0001133D01*
X0003366Y0001167D01*
X0003317Y0001205D01*
X0003269Y0001246D01*
X0003225Y0001290D01*
X0003183Y0001336D01*
X0003145Y0001386D01*
X0003109Y0001437D01*
X0003077Y0001491D01*
X0003049Y0001546D01*
X0003023Y0001603D01*
X0003002Y0001662D01*
X0002985Y0001722D01*
X0002971Y0001783D01*
X0002961Y0001844D01*
X0002955Y0001907D01*
X0002953Y0001969D01*
X0006890Y0001969D02*
X0006892Y0002031D01*
X0006898Y0002094D01*
X0006908Y0002155D01*
X0006922Y0002216D01*
X0006939Y0002276D01*
X0006960Y0002335D01*
X0006986Y0002392D01*
X0007014Y0002447D01*
X0007046Y0002501D01*
X0007082Y0002552D01*
X0007120Y0002602D01*
X0007162Y0002648D01*
X0007206Y0002692D01*
X0007254Y0002733D01*
X0007303Y0002771D01*
X0007355Y0002805D01*
X0007409Y0002836D01*
X0007465Y0002864D01*
X0007523Y0002888D01*
X0007582Y0002909D01*
X0007642Y0002925D01*
X0007703Y0002938D01*
X0007765Y0002947D01*
X0007827Y0002952D01*
X0007890Y0002953D01*
X0007952Y0002950D01*
X0008014Y0002943D01*
X0008076Y0002932D01*
X0008136Y0002917D01*
X0008196Y0002899D01*
X0008254Y0002877D01*
X0008311Y0002851D01*
X0008366Y0002821D01*
X0008419Y0002788D01*
X0008470Y0002752D01*
X0008518Y0002713D01*
X0008564Y0002670D01*
X0008607Y0002625D01*
X0008647Y0002577D01*
X0008684Y0002527D01*
X0008718Y0002474D01*
X0008749Y0002420D01*
X0008775Y0002364D01*
X0008799Y0002306D01*
X0008818Y0002246D01*
X0008834Y0002186D01*
X0008846Y0002124D01*
X0008854Y0002063D01*
X0008858Y0002000D01*
X0008858Y0001938D01*
X0008854Y0001875D01*
X0008846Y0001814D01*
X0008834Y0001752D01*
X0008818Y0001692D01*
X0008799Y0001632D01*
X0008775Y0001574D01*
X0008749Y0001518D01*
X0008718Y0001464D01*
X0008684Y0001411D01*
X0008647Y0001361D01*
X0008607Y0001313D01*
X0008564Y0001268D01*
X0008518Y0001225D01*
X0008470Y0001186D01*
X0008419Y0001150D01*
X0008366Y0001117D01*
X0008311Y0001087D01*
X0008254Y0001061D01*
X0008196Y0001039D01*
X0008136Y0001021D01*
X0008076Y0001006D01*
X0008014Y0000995D01*
X0007952Y0000988D01*
X0007890Y0000985D01*
X0007827Y0000986D01*
X0007765Y0000991D01*
X0007703Y0001000D01*
X0007642Y0001013D01*
X0007582Y0001029D01*
X0007523Y0001050D01*
X0007465Y0001074D01*
X0007409Y0001102D01*
X0007355Y0001133D01*
X0007303Y0001167D01*
X0007254Y0001205D01*
X0007206Y0001246D01*
X0007162Y0001290D01*
X0007120Y0001336D01*
X0007082Y0001386D01*
X0007046Y0001437D01*
X0007014Y0001491D01*
X0006986Y0001546D01*
X0006960Y0001603D01*
X0006939Y0001662D01*
X0006922Y0001722D01*
X0006908Y0001783D01*
X0006898Y0001844D01*
X0006892Y0001907D01*
X0006890Y0001969D01*
X0013780Y0001968D02*
X0013882Y0001970D01*
X0013983Y0001976D01*
X0014084Y0001985D01*
X0014185Y0001998D01*
X0014285Y0002015D01*
X0014385Y0002036D01*
X0014483Y0002061D01*
X0014581Y0002089D01*
X0014677Y0002120D01*
X0014773Y0002156D01*
X0014867Y0002195D01*
X0014959Y0002237D01*
X0015050Y0002283D01*
X0015138Y0002332D01*
X0015226Y0002384D01*
X0015311Y0002440D01*
X0015393Y0002499D01*
X0015474Y0002561D01*
X0015552Y0002626D01*
X0015628Y0002693D01*
X0015701Y0002764D01*
X0015772Y0002837D01*
X0015839Y0002913D01*
X0015904Y0002991D01*
X0015966Y0003072D01*
X0016025Y0003154D01*
X0016081Y0003239D01*
X0016133Y0003326D01*
X0016182Y0003415D01*
X0016228Y0003506D01*
X0016270Y0003598D01*
X0016309Y0003692D01*
X0016345Y0003788D01*
X0016376Y0003884D01*
X0016404Y0003982D01*
X0016429Y0004080D01*
X0016450Y0004180D01*
X0016467Y0004280D01*
X0016480Y0004381D01*
X0016489Y0004482D01*
X0016495Y0004583D01*
X0016497Y0004685D01*
X0016496Y0004685D02*
X0016496Y0111811D01*
X0016498Y0111935D01*
X0016504Y0112058D01*
X0016513Y0112182D01*
X0016527Y0112304D01*
X0016544Y0112427D01*
X0016566Y0112549D01*
X0016591Y0112670D01*
X0016620Y0112790D01*
X0016652Y0112909D01*
X0016689Y0113028D01*
X0016729Y0113145D01*
X0016772Y0113260D01*
X0016820Y0113375D01*
X0016871Y0113487D01*
X0016925Y0113598D01*
X0016983Y0113708D01*
X0017044Y0113815D01*
X0017109Y0113921D01*
X0017177Y0114024D01*
X0017248Y0114125D01*
X0017322Y0114224D01*
X0017399Y0114321D01*
X0017480Y0114415D01*
X0017563Y0114506D01*
X0017649Y0114595D01*
X0017738Y0114681D01*
X0017829Y0114764D01*
X0017923Y0114845D01*
X0018020Y0114922D01*
X0018119Y0114996D01*
X0018220Y0115067D01*
X0018323Y0115135D01*
X0018429Y0115200D01*
X0018536Y0115261D01*
X0018646Y0115319D01*
X0018757Y0115373D01*
X0018869Y0115424D01*
X0018984Y0115472D01*
X0019099Y0115515D01*
X0019216Y0115555D01*
X0019335Y0115592D01*
X0019454Y0115624D01*
X0019574Y0115653D01*
X0019695Y0115678D01*
X0019817Y0115700D01*
X0019940Y0115717D01*
X0020062Y0115731D01*
X0020186Y0115740D01*
X0020309Y0115746D01*
X0020433Y0115748D01*
X0029331Y0115748D01*
X0029455Y0115750D01*
X0029578Y0115756D01*
X0029702Y0115765D01*
X0029824Y0115779D01*
X0029947Y0115796D01*
X0030069Y0115818D01*
X0030190Y0115843D01*
X0030310Y0115872D01*
X0030429Y0115904D01*
X0030548Y0115941D01*
X0030665Y0115981D01*
X0030780Y0116024D01*
X0030895Y0116072D01*
X0031007Y0116123D01*
X0031118Y0116177D01*
X0031228Y0116235D01*
X0031335Y0116296D01*
X0031441Y0116361D01*
X0031544Y0116429D01*
X0031645Y0116500D01*
X0031744Y0116574D01*
X0031841Y0116651D01*
X0031935Y0116732D01*
X0032026Y0116815D01*
X0032115Y0116901D01*
X0032201Y0116990D01*
X0032284Y0117081D01*
X0032365Y0117175D01*
X0032442Y0117272D01*
X0032516Y0117371D01*
X0032587Y0117472D01*
X0032655Y0117575D01*
X0032720Y0117681D01*
X0032781Y0117788D01*
X0032839Y0117898D01*
X0032893Y0118009D01*
X0032944Y0118121D01*
X0032992Y0118236D01*
X0033035Y0118351D01*
X0033075Y0118468D01*
X0033112Y0118587D01*
X0033144Y0118706D01*
X0033173Y0118826D01*
X0033198Y0118947D01*
X0033220Y0119069D01*
X0033237Y0119192D01*
X0033251Y0119314D01*
X0033260Y0119438D01*
X0033266Y0119561D01*
X0033268Y0119685D01*
X0033268Y0175197D01*
X0033266Y0175321D01*
X0033260Y0175444D01*
X0033251Y0175568D01*
X0033237Y0175690D01*
X0033220Y0175813D01*
X0033198Y0175935D01*
X0033173Y0176056D01*
X0033144Y0176176D01*
X0033112Y0176295D01*
X0033075Y0176414D01*
X0033035Y0176531D01*
X0032992Y0176646D01*
X0032944Y0176761D01*
X0032893Y0176873D01*
X0032839Y0176984D01*
X0032781Y0177094D01*
X0032720Y0177201D01*
X0032655Y0177307D01*
X0032587Y0177410D01*
X0032516Y0177511D01*
X0032442Y0177610D01*
X0032365Y0177707D01*
X0032284Y0177801D01*
X0032201Y0177892D01*
X0032115Y0177981D01*
X0032026Y0178067D01*
X0031935Y0178150D01*
X0031841Y0178231D01*
X0031744Y0178308D01*
X0031645Y0178382D01*
X0031544Y0178453D01*
X0031441Y0178521D01*
X0031335Y0178586D01*
X0031228Y0178647D01*
X0031118Y0178705D01*
X0031007Y0178759D01*
X0030895Y0178810D01*
X0030780Y0178858D01*
X0030665Y0178901D01*
X0030548Y0178941D01*
X0030429Y0178978D01*
X0030310Y0179010D01*
X0030190Y0179039D01*
X0030069Y0179064D01*
X0029947Y0179086D01*
X0029824Y0179103D01*
X0029702Y0179117D01*
X0029578Y0179126D01*
X0029455Y0179132D01*
X0029331Y0179134D01*
X-0029331Y0179134D01*
X-0029455Y0179132D01*
X-0029578Y0179126D01*
X-0029702Y0179117D01*
X-0029824Y0179103D01*
X-0029947Y0179086D01*
X-0030069Y0179064D01*
X-0030190Y0179039D01*
X-0030310Y0179010D01*
X-0030429Y0178978D01*
X-0030548Y0178941D01*
X-0030665Y0178901D01*
X-0030780Y0178858D01*
X-0030895Y0178810D01*
X-0031007Y0178759D01*
X-0031118Y0178705D01*
X-0031228Y0178647D01*
X-0031335Y0178586D01*
X-0031441Y0178521D01*
X-0031544Y0178453D01*
X-0031645Y0178382D01*
X-0031744Y0178308D01*
X-0031841Y0178231D01*
X-0031935Y0178150D01*
X-0032026Y0178067D01*
X-0032115Y0177981D01*
X-0032201Y0177892D01*
X-0032284Y0177801D01*
X-0032365Y0177707D01*
X-0032442Y0177610D01*
X-0032516Y0177511D01*
X-0032587Y0177410D01*
X-0032655Y0177307D01*
X-0032720Y0177201D01*
X-0032781Y0177094D01*
X-0032839Y0176984D01*
X-0032893Y0176873D01*
X-0032944Y0176761D01*
X-0032992Y0176646D01*
X-0033035Y0176531D01*
X-0033075Y0176414D01*
X-0033112Y0176295D01*
X-0033144Y0176176D01*
X-0033173Y0176056D01*
X-0033198Y0175935D01*
X-0033220Y0175813D01*
X-0033237Y0175690D01*
X-0033251Y0175568D01*
X-0033260Y0175444D01*
X-0033266Y0175321D01*
X-0033268Y0175197D01*
X-0033268Y0119685D01*
X-0033266Y0119561D01*
X-0033260Y0119438D01*
X-0033251Y0119314D01*
X-0033237Y0119192D01*
X-0033220Y0119069D01*
X-0033198Y0118947D01*
X-0033173Y0118826D01*
X-0033144Y0118706D01*
X-0033112Y0118587D01*
X-0033075Y0118468D01*
X-0033035Y0118351D01*
X-0032992Y0118236D01*
X-0032944Y0118121D01*
X-0032893Y0118009D01*
X-0032839Y0117898D01*
X-0032781Y0117788D01*
X-0032720Y0117681D01*
X-0032655Y0117575D01*
X-0032587Y0117472D01*
X-0032516Y0117371D01*
X-0032442Y0117272D01*
X-0032365Y0117175D01*
X-0032284Y0117081D01*
X-0032201Y0116990D01*
X-0032115Y0116901D01*
X-0032026Y0116815D01*
X-0031935Y0116732D01*
X-0031841Y0116651D01*
X-0031744Y0116574D01*
X-0031645Y0116500D01*
X-0031544Y0116429D01*
X-0031441Y0116361D01*
X-0031335Y0116296D01*
X-0031228Y0116235D01*
X-0031118Y0116177D01*
X-0031007Y0116123D01*
X-0030895Y0116072D01*
X-0030780Y0116024D01*
X-0030665Y0115981D01*
X-0030548Y0115941D01*
X-0030429Y0115904D01*
X-0030310Y0115872D01*
X-0030190Y0115843D01*
X-0030069Y0115818D01*
X-0029947Y0115796D01*
X-0029824Y0115779D01*
X-0029702Y0115765D01*
X-0029578Y0115756D01*
X-0029455Y0115750D01*
X-0029331Y0115748D01*
X-0020433Y0115748D01*
X-0020309Y0115746D01*
X-0020186Y0115740D01*
X-0020062Y0115731D01*
X-0019940Y0115717D01*
X-0019817Y0115700D01*
X-0019695Y0115678D01*
X-0019574Y0115653D01*
X-0019454Y0115624D01*
X-0019335Y0115592D01*
X-0019216Y0115555D01*
X-0019099Y0115515D01*
X-0018984Y0115472D01*
X-0018869Y0115424D01*
X-0018757Y0115373D01*
X-0018646Y0115319D01*
X-0018536Y0115261D01*
X-0018429Y0115200D01*
X-0018323Y0115135D01*
X-0018220Y0115067D01*
X-0018119Y0114996D01*
X-0018020Y0114922D01*
X-0017923Y0114845D01*
X-0017829Y0114764D01*
X-0017738Y0114681D01*
X-0017649Y0114595D01*
X-0017563Y0114506D01*
X-0017480Y0114415D01*
X-0017399Y0114321D01*
X-0017322Y0114224D01*
X-0017248Y0114125D01*
X-0017177Y0114024D01*
X-0017109Y0113921D01*
X-0017044Y0113815D01*
X-0016983Y0113708D01*
X-0016925Y0113598D01*
X-0016871Y0113487D01*
X-0016820Y0113375D01*
X-0016772Y0113260D01*
X-0016729Y0113145D01*
X-0016689Y0113028D01*
X-0016652Y0112909D01*
X-0016620Y0112790D01*
X-0016591Y0112670D01*
X-0016566Y0112549D01*
X-0016544Y0112427D01*
X-0016527Y0112304D01*
X-0016513Y0112182D01*
X-0016504Y0112058D01*
X-0016498Y0111935D01*
X-0016496Y0111811D01*
X-0016496Y0004685D01*
X-0016497Y0004685D02*
X-0016495Y0004583D01*
X-0016489Y0004482D01*
X-0016480Y0004381D01*
X-0016467Y0004280D01*
X-0016450Y0004180D01*
X-0016429Y0004080D01*
X-0016404Y0003982D01*
X-0016376Y0003884D01*
X-0016345Y0003788D01*
X-0016309Y0003692D01*
X-0016270Y0003598D01*
X-0016228Y0003506D01*
X-0016182Y0003415D01*
X-0016133Y0003326D01*
X-0016081Y0003239D01*
X-0016025Y0003154D01*
X-0015966Y0003072D01*
X-0015904Y0002991D01*
X-0015839Y0002913D01*
X-0015772Y0002837D01*
X-0015701Y0002764D01*
X-0015628Y0002693D01*
X-0015552Y0002626D01*
X-0015474Y0002561D01*
X-0015393Y0002499D01*
X-0015311Y0002440D01*
X-0015226Y0002384D01*
X-0015138Y0002332D01*
X-0015050Y0002283D01*
X-0014959Y0002237D01*
X-0014867Y0002195D01*
X-0014773Y0002156D01*
X-0014677Y0002120D01*
X-0014581Y0002089D01*
X-0014483Y0002061D01*
X-0014385Y0002036D01*
X-0014285Y0002015D01*
X-0014185Y0001998D01*
X-0014084Y0001985D01*
X-0013983Y0001976D01*
X-0013882Y0001970D01*
X-0013780Y0001968D01*
X-0013780Y0001969D02*
X-0013656Y0001967D01*
X-0013533Y0001961D01*
X-0013409Y0001952D01*
X-0013287Y0001938D01*
X-0013164Y0001921D01*
X-0013042Y0001899D01*
X-0012921Y0001874D01*
X-0012801Y0001845D01*
X-0012682Y0001813D01*
X-0012563Y0001776D01*
X-0012446Y0001736D01*
X-0012331Y0001693D01*
X-0012216Y0001645D01*
X-0012104Y0001594D01*
X-0011993Y0001540D01*
X-0011883Y0001482D01*
X-0011776Y0001421D01*
X-0011670Y0001356D01*
X-0011567Y0001288D01*
X-0011466Y0001217D01*
X-0011367Y0001143D01*
X-0011270Y0001066D01*
X-0011176Y0000985D01*
X-0011085Y0000902D01*
X-0010996Y0000816D01*
X-0010910Y0000727D01*
X-0010827Y0000636D01*
X-0010746Y0000542D01*
X-0010669Y0000445D01*
X-0010595Y0000346D01*
X-0010524Y0000245D01*
X-0010456Y0000142D01*
X-0010391Y0000036D01*
X-0010330Y-0000071D01*
X-0010272Y-0000181D01*
X-0010218Y-0000292D01*
X-0010167Y-0000404D01*
X-0010119Y-0000519D01*
X-0010076Y-0000634D01*
X-0010036Y-0000751D01*
X-0009999Y-0000870D01*
X-0009967Y-0000989D01*
X-0009938Y-0001109D01*
X-0009913Y-0001230D01*
X-0009891Y-0001352D01*
X-0009874Y-0001475D01*
X-0009860Y-0001597D01*
X-0009851Y-0001721D01*
X-0009845Y-0001844D01*
X-0009843Y-0001968D01*
X-0009843Y-0001969D02*
X-0009845Y-0002093D01*
X-0009851Y-0002216D01*
X-0009860Y-0002340D01*
X-0009874Y-0002462D01*
X-0009891Y-0002585D01*
X-0009913Y-0002707D01*
X-0009938Y-0002828D01*
X-0009967Y-0002948D01*
X-0009999Y-0003067D01*
X-0010036Y-0003186D01*
X-0010076Y-0003303D01*
X-0010119Y-0003418D01*
X-0010167Y-0003533D01*
X-0010218Y-0003645D01*
X-0010272Y-0003756D01*
X-0010330Y-0003866D01*
X-0010391Y-0003973D01*
X-0010456Y-0004079D01*
X-0010524Y-0004182D01*
X-0010595Y-0004283D01*
X-0010669Y-0004382D01*
X-0010746Y-0004479D01*
X-0010827Y-0004573D01*
X-0010910Y-0004664D01*
X-0010996Y-0004753D01*
X-0011085Y-0004839D01*
X-0011176Y-0004922D01*
X-0011270Y-0005003D01*
X-0011367Y-0005080D01*
X-0011466Y-0005154D01*
X-0011567Y-0005225D01*
X-0011670Y-0005293D01*
X-0011776Y-0005358D01*
X-0011883Y-0005419D01*
X-0011993Y-0005477D01*
X-0012104Y-0005531D01*
X-0012216Y-0005582D01*
X-0012331Y-0005630D01*
X-0012446Y-0005673D01*
X-0012563Y-0005713D01*
X-0012682Y-0005750D01*
X-0012801Y-0005782D01*
X-0012921Y-0005811D01*
X-0013042Y-0005836D01*
X-0013164Y-0005858D01*
X-0013287Y-0005875D01*
X-0013409Y-0005889D01*
X-0013533Y-0005898D01*
X-0013656Y-0005904D01*
X-0013780Y-0005906D01*
X-0004921Y-0005906D02*
X-0004919Y-0005844D01*
X-0004913Y-0005781D01*
X-0004903Y-0005720D01*
X-0004889Y-0005659D01*
X-0004872Y-0005599D01*
X-0004851Y-0005540D01*
X-0004825Y-0005483D01*
X-0004797Y-0005428D01*
X-0004765Y-0005374D01*
X-0004729Y-0005323D01*
X-0004691Y-0005273D01*
X-0004649Y-0005227D01*
X-0004605Y-0005183D01*
X-0004557Y-0005142D01*
X-0004508Y-0005104D01*
X-0004456Y-0005070D01*
X-0004402Y-0005039D01*
X-0004346Y-0005011D01*
X-0004288Y-0004987D01*
X-0004229Y-0004966D01*
X-0004169Y-0004950D01*
X-0004108Y-0004937D01*
X-0004046Y-0004928D01*
X-0003984Y-0004923D01*
X-0003921Y-0004922D01*
X-0003859Y-0004925D01*
X-0003797Y-0004932D01*
X-0003735Y-0004943D01*
X-0003675Y-0004958D01*
X-0003615Y-0004976D01*
X-0003557Y-0004998D01*
X-0003500Y-0005024D01*
X-0003445Y-0005054D01*
X-0003392Y-0005087D01*
X-0003341Y-0005123D01*
X-0003293Y-0005162D01*
X-0003247Y-0005205D01*
X-0003204Y-0005250D01*
X-0003164Y-0005298D01*
X-0003127Y-0005348D01*
X-0003093Y-0005401D01*
X-0003062Y-0005455D01*
X-0003036Y-0005511D01*
X-0003012Y-0005569D01*
X-0002993Y-0005629D01*
X-0002977Y-0005689D01*
X-0002965Y-0005751D01*
X-0002957Y-0005812D01*
X-0002953Y-0005875D01*
X-0002953Y-0005937D01*
X-0002957Y-0006000D01*
X-0002965Y-0006061D01*
X-0002977Y-0006123D01*
X-0002993Y-0006183D01*
X-0003012Y-0006243D01*
X-0003036Y-0006301D01*
X-0003062Y-0006357D01*
X-0003093Y-0006411D01*
X-0003127Y-0006464D01*
X-0003164Y-0006514D01*
X-0003204Y-0006562D01*
X-0003247Y-0006607D01*
X-0003293Y-0006650D01*
X-0003341Y-0006689D01*
X-0003392Y-0006725D01*
X-0003445Y-0006758D01*
X-0003500Y-0006788D01*
X-0003557Y-0006814D01*
X-0003615Y-0006836D01*
X-0003675Y-0006854D01*
X-0003735Y-0006869D01*
X-0003797Y-0006880D01*
X-0003859Y-0006887D01*
X-0003921Y-0006890D01*
X-0003984Y-0006889D01*
X-0004046Y-0006884D01*
X-0004108Y-0006875D01*
X-0004169Y-0006862D01*
X-0004229Y-0006846D01*
X-0004288Y-0006825D01*
X-0004346Y-0006801D01*
X-0004402Y-0006773D01*
X-0004456Y-0006742D01*
X-0004508Y-0006708D01*
X-0004557Y-0006670D01*
X-0004605Y-0006629D01*
X-0004649Y-0006585D01*
X-0004691Y-0006539D01*
X-0004729Y-0006489D01*
X-0004765Y-0006438D01*
X-0004797Y-0006384D01*
X-0004825Y-0006329D01*
X-0004851Y-0006272D01*
X-0004872Y-0006213D01*
X-0004889Y-0006153D01*
X-0004903Y-0006092D01*
X-0004913Y-0006031D01*
X-0004919Y-0005968D01*
X-0004921Y-0005906D01*
X-0000984Y-0005906D02*
X-0000982Y-0005844D01*
X-0000976Y-0005781D01*
X-0000966Y-0005720D01*
X-0000952Y-0005659D01*
X-0000935Y-0005599D01*
X-0000914Y-0005540D01*
X-0000888Y-0005483D01*
X-0000860Y-0005428D01*
X-0000828Y-0005374D01*
X-0000792Y-0005323D01*
X-0000754Y-0005273D01*
X-0000712Y-0005227D01*
X-0000668Y-0005183D01*
X-0000620Y-0005142D01*
X-0000571Y-0005104D01*
X-0000519Y-0005070D01*
X-0000465Y-0005039D01*
X-0000409Y-0005011D01*
X-0000351Y-0004987D01*
X-0000292Y-0004966D01*
X-0000232Y-0004950D01*
X-0000171Y-0004937D01*
X-0000109Y-0004928D01*
X-0000047Y-0004923D01*
X0000016Y-0004922D01*
X0000078Y-0004925D01*
X0000140Y-0004932D01*
X0000202Y-0004943D01*
X0000262Y-0004958D01*
X0000322Y-0004976D01*
X0000380Y-0004998D01*
X0000437Y-0005024D01*
X0000492Y-0005054D01*
X0000545Y-0005087D01*
X0000596Y-0005123D01*
X0000644Y-0005162D01*
X0000690Y-0005205D01*
X0000733Y-0005250D01*
X0000773Y-0005298D01*
X0000810Y-0005348D01*
X0000844Y-0005401D01*
X0000875Y-0005455D01*
X0000901Y-0005511D01*
X0000925Y-0005569D01*
X0000944Y-0005629D01*
X0000960Y-0005689D01*
X0000972Y-0005751D01*
X0000980Y-0005812D01*
X0000984Y-0005875D01*
X0000984Y-0005937D01*
X0000980Y-0006000D01*
X0000972Y-0006061D01*
X0000960Y-0006123D01*
X0000944Y-0006183D01*
X0000925Y-0006243D01*
X0000901Y-0006301D01*
X0000875Y-0006357D01*
X0000844Y-0006411D01*
X0000810Y-0006464D01*
X0000773Y-0006514D01*
X0000733Y-0006562D01*
X0000690Y-0006607D01*
X0000644Y-0006650D01*
X0000596Y-0006689D01*
X0000545Y-0006725D01*
X0000492Y-0006758D01*
X0000437Y-0006788D01*
X0000380Y-0006814D01*
X0000322Y-0006836D01*
X0000262Y-0006854D01*
X0000202Y-0006869D01*
X0000140Y-0006880D01*
X0000078Y-0006887D01*
X0000016Y-0006890D01*
X-0000047Y-0006889D01*
X-0000109Y-0006884D01*
X-0000171Y-0006875D01*
X-0000232Y-0006862D01*
X-0000292Y-0006846D01*
X-0000351Y-0006825D01*
X-0000409Y-0006801D01*
X-0000465Y-0006773D01*
X-0000519Y-0006742D01*
X-0000571Y-0006708D01*
X-0000620Y-0006670D01*
X-0000668Y-0006629D01*
X-0000712Y-0006585D01*
X-0000754Y-0006539D01*
X-0000792Y-0006489D01*
X-0000828Y-0006438D01*
X-0000860Y-0006384D01*
X-0000888Y-0006329D01*
X-0000914Y-0006272D01*
X-0000935Y-0006213D01*
X-0000952Y-0006153D01*
X-0000966Y-0006092D01*
X-0000976Y-0006031D01*
X-0000982Y-0005968D01*
X-0000984Y-0005906D01*
X0009843Y-0001968D02*
X0009845Y-0001844D01*
X0009851Y-0001721D01*
X0009860Y-0001597D01*
X0009874Y-0001475D01*
X0009891Y-0001352D01*
X0009913Y-0001230D01*
X0009938Y-0001109D01*
X0009967Y-0000989D01*
X0009999Y-0000870D01*
X0010036Y-0000751D01*
X0010076Y-0000634D01*
X0010119Y-0000519D01*
X0010167Y-0000404D01*
X0010218Y-0000292D01*
X0010272Y-0000181D01*
X0010330Y-0000071D01*
X0010391Y0000036D01*
X0010456Y0000142D01*
X0010524Y0000245D01*
X0010595Y0000346D01*
X0010669Y0000445D01*
X0010746Y0000542D01*
X0010827Y0000636D01*
X0010910Y0000727D01*
X0010996Y0000816D01*
X0011085Y0000902D01*
X0011176Y0000985D01*
X0011270Y0001066D01*
X0011367Y0001143D01*
X0011466Y0001217D01*
X0011567Y0001288D01*
X0011670Y0001356D01*
X0011776Y0001421D01*
X0011883Y0001482D01*
X0011993Y0001540D01*
X0012104Y0001594D01*
X0012216Y0001645D01*
X0012331Y0001693D01*
X0012446Y0001736D01*
X0012563Y0001776D01*
X0012682Y0001813D01*
X0012801Y0001845D01*
X0012921Y0001874D01*
X0013042Y0001899D01*
X0013164Y0001921D01*
X0013287Y0001938D01*
X0013409Y0001952D01*
X0013533Y0001961D01*
X0013656Y0001967D01*
X0013780Y0001969D01*
D11*
X0012520Y0120551D02*
X0011102Y0120551D01*
X0011102Y0124725D01*
X0012520Y0124725D01*
X0012520Y0120551D01*
X0012520Y0122282D02*
X0011102Y0122282D01*
X0011102Y0124013D02*
X0012520Y0124013D01*
X0007796Y0120551D02*
X0006378Y0120551D01*
X0006378Y0124725D01*
X0007796Y0124725D01*
X0007796Y0120551D01*
X0007796Y0122282D02*
X0006378Y0122282D01*
X0006378Y0124013D02*
X0007796Y0124013D01*
X0003071Y0120551D02*
X0001653Y0120551D01*
X0001653Y0124725D01*
X0003071Y0124725D01*
X0003071Y0120551D01*
X0003071Y0122282D02*
X0001653Y0122282D01*
X0001653Y0124013D02*
X0003071Y0124013D01*
X-0001653Y0120551D02*
X-0003071Y0120551D01*
X-0003071Y0124725D01*
X-0001653Y0124725D01*
X-0001653Y0120551D01*
X-0001653Y0122282D02*
X-0003071Y0122282D01*
X-0003071Y0124013D02*
X-0001653Y0124013D01*
X-0006378Y0120551D02*
X-0007796Y0120551D01*
X-0007796Y0124725D01*
X-0006378Y0124725D01*
X-0006378Y0120551D01*
X-0006378Y0122282D02*
X-0007796Y0122282D01*
X-0007796Y0124013D02*
X-0006378Y0124013D01*
X-0011102Y0120551D02*
X-0012520Y0120551D01*
X-0012520Y0124725D01*
X-0011102Y0124725D01*
X-0011102Y0120551D01*
X-0011102Y0122282D02*
X-0012520Y0122282D01*
X-0012520Y0124013D02*
X-0011102Y0124013D01*
X-0023741Y0130787D02*
X-0023741Y0132205D01*
X-0019567Y0132205D01*
X-0019567Y0130787D01*
X-0023741Y0130787D01*
X-0023741Y0135511D02*
X-0023741Y0136929D01*
X-0019567Y0136929D01*
X-0019567Y0135511D01*
X-0023741Y0135511D01*
X-0023741Y0140236D02*
X-0023741Y0141654D01*
X-0019567Y0141654D01*
X-0019567Y0140236D01*
X-0023741Y0140236D01*
X-0023741Y0144960D02*
X-0023741Y0146378D01*
X-0019567Y0146378D01*
X-0019567Y0144960D01*
X-0023741Y0144960D01*
X-0023741Y0149685D02*
X-0023741Y0151103D01*
X-0019567Y0151103D01*
X-0019567Y0149685D01*
X-0023741Y0149685D01*
X-0023741Y0154409D02*
X-0023741Y0155827D01*
X-0019567Y0155827D01*
X-0019567Y0154409D01*
X-0023741Y0154409D01*
X-0023741Y0159134D02*
X-0023741Y0160552D01*
X-0019567Y0160552D01*
X-0019567Y0159134D01*
X-0023741Y0159134D01*
X-0023741Y0163858D02*
X-0023741Y0165276D01*
X-0019567Y0165276D01*
X-0019567Y0163858D01*
X-0023741Y0163858D01*
X0019567Y0163858D02*
X0019567Y0165276D01*
X0023741Y0165276D01*
X0023741Y0163858D01*
X0019567Y0163858D01*
X0019567Y0160552D02*
X0019567Y0159134D01*
X0019567Y0160552D02*
X0023741Y0160552D01*
X0023741Y0159134D01*
X0019567Y0159134D01*
X0019567Y0155827D02*
X0019567Y0154409D01*
X0019567Y0155827D02*
X0023741Y0155827D01*
X0023741Y0154409D01*
X0019567Y0154409D01*
X0019567Y0151103D02*
X0019567Y0149685D01*
X0019567Y0151103D02*
X0023741Y0151103D01*
X0023741Y0149685D01*
X0019567Y0149685D01*
X0019567Y0146378D02*
X0019567Y0144960D01*
X0019567Y0146378D02*
X0023741Y0146378D01*
X0023741Y0144960D01*
X0019567Y0144960D01*
X0019567Y0141654D02*
X0019567Y0140236D01*
X0019567Y0141654D02*
X0023741Y0141654D01*
X0023741Y0140236D01*
X0019567Y0140236D01*
X0019567Y0136929D02*
X0019567Y0135511D01*
X0019567Y0136929D02*
X0023741Y0136929D01*
X0023741Y0135511D01*
X0019567Y0135511D01*
X0019567Y0132205D02*
X0019567Y0130787D01*
X0019567Y0132205D02*
X0023741Y0132205D01*
X0023741Y0130787D01*
X0019567Y0130787D01*
X0030236Y0159134D02*
X0030236Y0160552D01*
X0030236Y0159134D02*
X0028032Y0159134D01*
X0028032Y0160552D01*
X0030236Y0160552D01*
X0030236Y0165433D02*
X0030236Y0166851D01*
X0030236Y0165433D02*
X0028032Y0165433D01*
X0028032Y0166851D01*
X0030236Y0166851D01*
D12*
X0022638Y0121654D03*
X-0022638Y0121654D03*
D13*
X-0021173Y0123118D02*
X-0021173Y0127276D01*
X-0018197Y0127276D01*
X-0018197Y0123118D01*
X-0021173Y0123118D01*
X-0021173Y0124865D02*
X-0018197Y0124865D01*
X-0018197Y0126612D02*
X-0021173Y0126612D01*
X0018197Y0127276D02*
X0018197Y0123118D01*
X0018197Y0127276D02*
X0021173Y0127276D01*
X0021173Y0123118D01*
X0018197Y0123118D01*
X0018197Y0124865D02*
X0021173Y0124865D01*
X0021173Y0126612D02*
X0018197Y0126612D01*
D14*
X0005000Y0042953D03*
X0005000Y0032953D03*
X0005000Y0022953D03*
X0005000Y0012953D03*
X0005000Y-0014921D03*
X0005000Y-0024921D03*
X0005000Y-0034921D03*
X0005000Y-0044921D03*
X-0005000Y-0044921D03*
X-0005000Y-0034921D03*
X-0005000Y-0024921D03*
X-0005000Y-0014921D03*
X-0005000Y0012953D03*
X-0005000Y0022953D03*
X-0005000Y0032953D03*
X-0005000Y0042953D03*
D15*
X-0005000Y-0086281D02*
X-0005000Y-0109781D01*
X-0015000Y-0109781D02*
X-0015000Y-0086281D01*
X0005000Y-0086281D02*
X0005000Y-0109781D01*
X0015000Y-0109781D02*
X0015000Y-0086281D01*
D16*
X0015000Y-0098031D02*
X0015000Y-0073661D01*
X0012703Y-0071364D01*
X0012703Y-0062205D01*
X0007812Y-0055450D02*
X0002632Y-0060630D01*
X0000394Y-0060630D01*
X-0002244Y-0065506D02*
X-0002604Y-0065506D01*
X-0011522Y-0056589D01*
X-0011522Y-0031443D01*
X-0005000Y-0024921D01*
X-0014134Y0005906D02*
X-0014134Y0022827D01*
X-0012473Y0021165D01*
X-0009575Y0021165D01*
X-0009575Y0021058D01*
X-0006895Y0018378D01*
X-0003105Y0018378D01*
X-0000425Y0021058D01*
X-0000425Y0024848D01*
X-0003105Y0027528D01*
X-0006895Y0027528D01*
X-0009575Y0024848D01*
X-0009575Y0024740D01*
X-0010992Y0024740D01*
X-0012346Y0026095D01*
X-0012346Y0031165D01*
X-0009575Y0031165D01*
X-0009575Y0031058D01*
X-0006895Y0028378D01*
X-0003105Y0028378D01*
X-0000425Y0031058D01*
X-0000425Y0034848D01*
X-0001782Y0036205D01*
X-0000780Y0036205D01*
X0000501Y0034924D01*
X0000425Y0034848D01*
X0000425Y0031058D01*
X0003105Y0028378D01*
X0006895Y0028378D01*
X0009575Y0031058D01*
X0009575Y0034848D01*
X0006895Y0037528D01*
X0003105Y0037528D01*
X0003029Y0037451D01*
X0000701Y0039780D01*
X-0001726Y0039780D01*
X-0000441Y0041064D01*
X-0000441Y0042559D01*
X-0004606Y0042559D01*
X-0004606Y0043346D01*
X-0000441Y0043346D01*
X-0000441Y0044841D01*
X-0003112Y0047512D01*
X-0004606Y0047512D01*
X-0004606Y0043347D01*
X-0005394Y0043347D01*
X-0005394Y0047512D01*
X-0006888Y0047512D01*
X-0009197Y0045203D01*
X-0009197Y0092203D01*
X-0008965Y0091972D01*
X-0007874Y0091520D01*
X-0006693Y0091520D01*
X-0005602Y0091972D01*
X-0004767Y0092807D01*
X-0004315Y0093898D01*
X-0004315Y0095079D01*
X-0004744Y0096114D01*
X-0004315Y0096543D01*
X-0004315Y0105032D01*
X-0010024Y0110740D01*
X-0010024Y0118434D01*
X-0009449Y0119009D01*
X-0008731Y0118291D01*
X-0005442Y0118291D01*
X-0004724Y0119009D01*
X-0004007Y0118291D01*
X-0000717Y0118291D01*
X0000000Y0119009D01*
X0000717Y0118291D01*
X0004007Y0118291D01*
X0004724Y0119009D01*
X0005442Y0118291D01*
X0008731Y0118291D01*
X0009449Y0119009D01*
X0010166Y0118291D01*
X0013456Y0118291D01*
X0014780Y0119615D01*
X0014780Y0125660D01*
X0013456Y0126984D01*
X0010166Y0126984D01*
X0009449Y0126267D01*
X0008731Y0126984D01*
X0005442Y0126984D01*
X0004724Y0126267D01*
X0004007Y0126984D01*
X0000717Y0126984D01*
X0000000Y0126267D01*
X-0000717Y0126984D01*
X-0004007Y0126984D01*
X-0004724Y0126267D01*
X-0005442Y0126984D01*
X-0008731Y0126984D01*
X-0009449Y0126267D01*
X-0010166Y0126984D01*
X-0013456Y0126984D01*
X-0014780Y0125660D01*
X-0014780Y0119615D01*
X-0013598Y0118434D01*
X-0013598Y0109259D01*
X-0013311Y0108972D01*
X-0013689Y0108816D01*
X-0014134Y0108371D01*
X-0014134Y0113064D01*
X-0015093Y0115379D01*
X-0015093Y0115379D01*
X-0016865Y0117151D01*
X-0019180Y0118110D01*
X-0029331Y0118110D01*
X-0029638Y0118140D01*
X-0030206Y0118376D01*
X-0030640Y0118810D01*
X-0030875Y0119378D01*
X-0030906Y0119685D01*
X-0030906Y0175197D01*
X-0030875Y0175504D01*
X-0030640Y0176072D01*
X-0030206Y0176506D01*
X-0029638Y0176741D01*
X-0029331Y0176772D01*
X-0016748Y0176772D01*
X-0016748Y0174849D01*
X-0017584Y0175685D01*
X-0018819Y0176197D01*
X-0020157Y0176197D01*
X-0021393Y0175685D01*
X-0022339Y0174739D01*
X-0022850Y0173503D01*
X-0022850Y0170000D01*
X-0022339Y0168765D01*
X-0021393Y0167819D01*
X-0020670Y0167520D01*
X-0021260Y0167520D01*
X-0021260Y0164961D01*
X-0022047Y0164961D01*
X-0022047Y0167520D01*
X-0024036Y0167520D01*
X-0024606Y0167367D01*
X-0025118Y0167071D01*
X-0025536Y0166653D01*
X-0025831Y0166142D01*
X-0025984Y0165571D01*
X-0025984Y0164961D01*
X-0022047Y0164961D01*
X-0022047Y0164173D01*
X-0025984Y0164173D01*
X-0025984Y0163563D01*
X-0025831Y0162992D01*
X-0025536Y0162480D01*
X-0025271Y0162216D01*
X-0026000Y0161487D01*
X-0026000Y0158198D01*
X-0025282Y0157480D01*
X-0026000Y0156763D01*
X-0026000Y0153473D01*
X-0025282Y0152756D01*
X-0026000Y0152038D01*
X-0026000Y0148749D01*
X-0025282Y0148031D01*
X-0026000Y0147314D01*
X-0026000Y0144025D01*
X-0025282Y0143307D01*
X-0026000Y0142590D01*
X-0026000Y0139300D01*
X-0025282Y0138583D01*
X-0026000Y0137865D01*
X-0026000Y0134576D01*
X-0025282Y0133858D01*
X-0026000Y0133141D01*
X-0026000Y0129851D01*
X-0024676Y0128528D01*
X-0023051Y0128528D01*
X-0023272Y0128145D01*
X-0023425Y0127572D01*
X-0023425Y0125591D01*
X-0020079Y0125591D01*
X-0020079Y0124803D01*
X-0021497Y0124803D01*
X-0021662Y0124871D01*
X-0022244Y0124987D01*
X-0022244Y0124803D01*
X-0023031Y0124803D01*
X-0023031Y0124987D01*
X-0023614Y0124871D01*
X-0024223Y0124619D01*
X-0024771Y0124253D01*
X-0025237Y0123787D01*
X-0025603Y0123239D01*
X-0025856Y0122630D01*
X-0025971Y0122047D01*
X-0023155Y0122047D01*
X-0023032Y0121833D01*
X-0023032Y0121260D01*
X-0025971Y0121260D01*
X-0025856Y0120677D01*
X-0025603Y0120068D01*
X-0025237Y0119520D01*
X-0024771Y0119054D01*
X-0024223Y0118688D01*
X-0023614Y0118436D01*
X-0023031Y0118320D01*
X-0023031Y0121260D01*
X-0022458Y0121260D01*
X-0022244Y0121136D01*
X-0022244Y0118320D01*
X-0021662Y0118436D01*
X-0021053Y0118688D01*
X-0020505Y0119054D01*
X-0020038Y0119520D01*
X-0019672Y0120068D01*
X-0019420Y0120677D01*
X-0019304Y0121260D01*
X-0020079Y0121260D01*
X-0020079Y0122047D01*
X-0019304Y0122047D01*
X-0019420Y0122630D01*
X-0019672Y0123239D01*
X-0020038Y0123787D01*
X-0020079Y0123827D01*
X-0020079Y0124803D01*
X-0019291Y0124803D01*
X-0019291Y0125591D01*
X-0015945Y0125591D01*
X-0015945Y0127572D01*
X-0016098Y0128145D01*
X-0016395Y0128658D01*
X-0016814Y0129078D01*
X-0017328Y0129374D01*
X-0017688Y0129471D01*
X-0017307Y0129851D01*
X-0017307Y0133141D01*
X-0018025Y0133858D01*
X-0017450Y0134433D01*
X-0016387Y0134433D01*
X-0015658Y0133704D01*
X-0014567Y0133252D01*
X-0013386Y0133252D01*
X-0012295Y0133704D01*
X-0011460Y0134539D01*
X-0011008Y0135630D01*
X-0011008Y0136811D01*
X-0011460Y0137902D01*
X-0011895Y0138337D01*
X-0011024Y0137976D01*
X-0009843Y0137976D01*
X-0008752Y0138428D01*
X-0007916Y0139263D01*
X-0007465Y0140354D01*
X-0007465Y0141535D01*
X-0007916Y0142626D01*
X-0008752Y0143461D01*
X-0009843Y0143913D01*
X-0011024Y0143913D01*
X-0011895Y0143552D01*
X-0011460Y0143988D01*
X-0011008Y0145079D01*
X-0011008Y0146260D01*
X-0011460Y0147351D01*
X-0012295Y0148186D01*
X-0013386Y0148638D01*
X-0014567Y0148638D01*
X-0015658Y0148186D01*
X-0016387Y0147457D01*
X-0017450Y0147457D01*
X-0018025Y0148031D01*
X-0017307Y0148749D01*
X-0017307Y0152038D01*
X-0018025Y0152756D01*
X-0017307Y0153473D01*
X-0017307Y0156763D01*
X-0018025Y0157480D01*
X-0017307Y0158198D01*
X-0017307Y0161487D01*
X-0018036Y0162216D01*
X-0017771Y0162480D01*
X-0017476Y0162992D01*
X-0017323Y0163563D01*
X-0017323Y0164173D01*
X-0021260Y0164173D01*
X-0021260Y0164961D01*
X-0017323Y0164961D01*
X-0017323Y0165571D01*
X-0017476Y0166142D01*
X-0017771Y0166653D01*
X-0018189Y0167071D01*
X-0018690Y0167361D01*
X-0017584Y0167819D01*
X-0016638Y0168765D01*
X-0016126Y0170000D01*
X-0016126Y0170454D01*
X-0015932Y0170260D01*
X-0006116Y0170260D01*
X-0005299Y0171076D01*
X-0005299Y0176772D01*
X0029331Y0176772D01*
X0029638Y0176741D01*
X0030206Y0176506D01*
X0030640Y0176072D01*
X0030875Y0175504D01*
X0030906Y0175197D01*
X0030906Y0168994D01*
X0030532Y0169094D01*
X0029528Y0169094D01*
X0029528Y0166535D01*
X0028740Y0166535D01*
X0028740Y0165748D01*
X0025937Y0165748D01*
X0025831Y0166142D01*
X0025536Y0166653D01*
X0025118Y0167071D01*
X0024606Y0167367D01*
X0024036Y0167520D01*
X0022047Y0167520D01*
X0022047Y0164961D01*
X0021260Y0164961D01*
X0021260Y0167520D01*
X0020670Y0167520D01*
X0021393Y0167819D01*
X0022339Y0168765D01*
X0022850Y0170000D01*
X0022850Y0173503D01*
X0022339Y0174739D01*
X0021393Y0175685D01*
X0020157Y0176197D01*
X0018819Y0176197D01*
X0017584Y0175685D01*
X0016638Y0174739D01*
X0016126Y0173503D01*
X0016126Y0170000D01*
X0016638Y0168765D01*
X0017584Y0167819D01*
X0018690Y0167361D01*
X0018189Y0167071D01*
X0017771Y0166653D01*
X0017476Y0166142D01*
X0017323Y0165571D01*
X0017323Y0164961D01*
X0021260Y0164961D01*
X0021260Y0164173D01*
X0017323Y0164173D01*
X0017323Y0163563D01*
X0017476Y0162992D01*
X0017771Y0162480D01*
X0018036Y0162216D01*
X0017307Y0161487D01*
X0017307Y0158198D01*
X0018025Y0157480D01*
X0017307Y0156763D01*
X0017307Y0153473D01*
X0018025Y0152756D01*
X0017307Y0152038D01*
X0017307Y0148749D01*
X0018025Y0148031D01*
X0017307Y0147314D01*
X0017307Y0144025D01*
X0018025Y0143307D01*
X0017307Y0142590D01*
X0017307Y0139300D01*
X0018025Y0138583D01*
X0017450Y0138008D01*
X0017174Y0138008D01*
X0016445Y0138737D01*
X0015354Y0139189D01*
X0014173Y0139189D01*
X0013082Y0138737D01*
X0012247Y0137902D01*
X0011795Y0136811D01*
X0011795Y0135630D01*
X0012247Y0134539D01*
X0013082Y0133704D01*
X0014173Y0133252D01*
X0015354Y0133252D01*
X0016445Y0133704D01*
X0017174Y0134433D01*
X0017450Y0134433D01*
X0018025Y0133858D01*
X0017307Y0133141D01*
X0017307Y0129851D01*
X0017688Y0129471D01*
X0017328Y0129374D01*
X0016814Y0129078D01*
X0016395Y0128658D01*
X0016098Y0128145D01*
X0015945Y0127572D01*
X0015945Y0125591D01*
X0019291Y0125591D01*
X0019291Y0124803D01*
X0015945Y0124803D01*
X0015945Y0122822D01*
X0016098Y0122249D01*
X0016395Y0121735D01*
X0016814Y0121316D01*
X0017328Y0121020D01*
X0017900Y0120866D01*
X0019291Y0120866D01*
X0019291Y0124803D01*
X0020079Y0124803D01*
X0020079Y0125591D01*
X0023425Y0125591D01*
X0023425Y0127572D01*
X0023272Y0128145D01*
X0023051Y0128528D01*
X0024676Y0128528D01*
X0026000Y0129851D01*
X0026000Y0133141D01*
X0025282Y0133858D01*
X0026000Y0134576D01*
X0026000Y0137865D01*
X0025282Y0138583D01*
X0026000Y0139300D01*
X0026000Y0142590D01*
X0025282Y0143307D01*
X0026000Y0144025D01*
X0026000Y0147314D01*
X0025282Y0148031D01*
X0026000Y0148749D01*
X0026000Y0150628D01*
X0026117Y0150346D01*
X0027118Y0149345D01*
X0028426Y0148803D01*
X0029842Y0148803D01*
X0030906Y0149244D01*
X0030906Y0119685D01*
X0030875Y0119378D01*
X0030640Y0118810D01*
X0030206Y0118376D01*
X0029638Y0118140D01*
X0029331Y0118110D01*
X0019180Y0118110D01*
X0016865Y0117151D01*
X0016865Y0117151D01*
X0015093Y0115379D01*
X0014134Y0113064D01*
X0014134Y0005906D01*
X-0014134Y0005906D01*
X-0014134Y0006287D02*
X0014134Y0006287D01*
X0014134Y0007073D02*
X-0014134Y0007073D01*
X-0014134Y0007859D02*
X0014134Y0007859D01*
X0014134Y0008645D02*
X0007162Y0008645D01*
X0006895Y0008378D02*
X0009575Y0011058D01*
X0009575Y0014848D01*
X0006895Y0017528D01*
X0003105Y0017528D01*
X0000425Y0014848D01*
X0000425Y0011058D01*
X0003105Y0008378D01*
X0006895Y0008378D01*
X0007948Y0009431D02*
X0014134Y0009431D01*
X0014134Y0010217D02*
X0008734Y0010217D01*
X0009520Y0011003D02*
X0014134Y0011003D01*
X0014134Y0011789D02*
X0009575Y0011789D01*
X0009575Y0012575D02*
X0014134Y0012575D01*
X0014134Y0013361D02*
X0009575Y0013361D01*
X0009575Y0014146D02*
X0014134Y0014146D01*
X0014134Y0014932D02*
X0009490Y0014932D01*
X0008704Y0015718D02*
X0014134Y0015718D01*
X0014134Y0016504D02*
X0007918Y0016504D01*
X0007132Y0017290D02*
X0014134Y0017290D01*
X0014134Y0018076D02*
X-0014134Y0018076D01*
X-0014134Y0017290D02*
X-0007132Y0017290D01*
X-0006895Y0017528D02*
X-0009575Y0014848D01*
X-0009575Y0011058D01*
X-0006895Y0008378D01*
X-0003105Y0008378D01*
X-0000425Y0011058D01*
X-0000425Y0014848D01*
X-0003105Y0017528D01*
X-0006895Y0017528D01*
X-0007379Y0018862D02*
X-0014134Y0018862D01*
X-0014134Y0019648D02*
X-0008165Y0019648D01*
X-0008951Y0020434D02*
X-0014134Y0020434D01*
X-0014134Y0021220D02*
X-0012527Y0021220D01*
X-0013313Y0022006D02*
X-0014134Y0022006D01*
X-0014134Y0022791D02*
X-0014099Y0022791D01*
X-0011732Y0022953D02*
X-0014134Y0025354D01*
X-0014134Y0104173D01*
X-0012008Y0106299D01*
X-0014049Y0108456D02*
X-0014134Y0108456D01*
X-0014134Y0109242D02*
X-0013581Y0109242D01*
X-0013598Y0110028D02*
X-0014134Y0110028D01*
X-0014134Y0110814D02*
X-0013598Y0110814D01*
X-0013598Y0111600D02*
X-0014134Y0111600D01*
X-0014134Y0112386D02*
X-0013598Y0112386D01*
X-0013598Y0113171D02*
X-0014178Y0113171D01*
X-0014504Y0113957D02*
X-0013598Y0113957D01*
X-0013598Y0114743D02*
X-0014829Y0114743D01*
X-0015243Y0115529D02*
X-0013598Y0115529D01*
X-0013598Y0116315D02*
X-0016029Y0116315D01*
X-0016815Y0117101D02*
X-0013598Y0117101D01*
X-0013598Y0117887D02*
X-0018641Y0117887D01*
X-0016865Y0117151D02*
X-0016865Y0117151D01*
X-0014780Y0120245D02*
X-0019599Y0120245D01*
X-0019291Y0120866D02*
X-0017900Y0120866D01*
X-0017328Y0121020D01*
X-0016814Y0121316D01*
X-0016395Y0121735D01*
X-0016098Y0122249D01*
X-0015945Y0122822D01*
X-0015945Y0124803D01*
X-0019291Y0124803D01*
X-0019291Y0120866D01*
X-0019291Y0121031D02*
X-0019350Y0121031D01*
X-0019291Y0121816D02*
X-0020079Y0121816D01*
X-0019415Y0122602D02*
X-0019291Y0122602D01*
X-0019291Y0123388D02*
X-0019772Y0123388D01*
X-0020079Y0124174D02*
X-0019291Y0124174D01*
X-0019291Y0124960D02*
X-0014780Y0124960D01*
X-0014780Y0124174D02*
X-0015945Y0124174D01*
X-0015945Y0123388D02*
X-0014780Y0123388D01*
X-0014780Y0122602D02*
X-0016004Y0122602D01*
X-0016348Y0121816D02*
X-0014780Y0121816D01*
X-0014780Y0121031D02*
X-0017309Y0121031D01*
X-0015945Y0125746D02*
X-0014694Y0125746D01*
X-0013908Y0126532D02*
X-0015945Y0126532D01*
X-0015945Y0127318D02*
X0015945Y0127318D01*
X0015945Y0126532D02*
X0013908Y0126532D01*
X0014694Y0125746D02*
X0015945Y0125746D01*
X0014780Y0124960D02*
X0019291Y0124960D01*
X0019291Y0124174D02*
X0020079Y0124174D01*
X0020079Y0123827D02*
X0020038Y0123787D01*
X0019672Y0123239D01*
X0019420Y0122630D01*
X0019304Y0122047D01*
X0020079Y0122047D01*
X0020079Y0121260D01*
X0019304Y0121260D01*
X0019420Y0120677D01*
X0019672Y0120068D01*
X0020038Y0119520D01*
X0020505Y0119054D01*
X0021053Y0118688D01*
X0021662Y0118436D01*
X0022244Y0118320D01*
X0022244Y0121136D01*
X0022458Y0121260D01*
X0023031Y0121260D01*
X0023031Y0118320D01*
X0023614Y0118436D01*
X0024223Y0118688D01*
X0024771Y0119054D01*
X0025237Y0119520D01*
X0025603Y0120068D01*
X0025856Y0120677D01*
X0025971Y0121260D01*
X0023032Y0121260D01*
X0023032Y0121833D01*
X0023155Y0122047D01*
X0025971Y0122047D01*
X0025856Y0122630D01*
X0025603Y0123239D01*
X0025237Y0123787D01*
X0024771Y0124253D01*
X0024223Y0124619D01*
X0023614Y0124871D01*
X0023031Y0124987D01*
X0023031Y0124803D01*
X0022244Y0124803D01*
X0022244Y0124987D01*
X0021662Y0124871D01*
X0021497Y0124803D01*
X0020079Y0124803D01*
X0020079Y0123827D01*
X0019772Y0123388D02*
X0019291Y0123388D01*
X0019291Y0122602D02*
X0019415Y0122602D01*
X0019291Y0121816D02*
X0020079Y0121816D01*
X0019350Y0121031D02*
X0019291Y0121031D01*
X0019599Y0120245D02*
X0014780Y0120245D01*
X0014780Y0121031D02*
X0017309Y0121031D01*
X0016348Y0121816D02*
X0014780Y0121816D01*
X0014780Y0122602D02*
X0016004Y0122602D01*
X0015945Y0123388D02*
X0014780Y0123388D01*
X0014780Y0124174D02*
X0015945Y0124174D01*
X0016087Y0128104D02*
X-0016087Y0128104D01*
X-0016626Y0128890D02*
X0016626Y0128890D01*
X0017483Y0129676D02*
X-0017483Y0129676D01*
X-0017307Y0130462D02*
X0017307Y0130462D01*
X0017307Y0131247D02*
X-0017307Y0131247D01*
X-0017307Y0132033D02*
X0017307Y0132033D01*
X0017307Y0132819D02*
X-0017307Y0132819D01*
X-0017772Y0133605D02*
X-0015420Y0133605D01*
X-0016345Y0134391D02*
X-0017492Y0134391D01*
X-0013976Y0136220D02*
X-0021654Y0136220D01*
X-0021654Y0140945D02*
X-0010433Y0140945D01*
X-0009011Y0138321D02*
X0012666Y0138321D01*
X0012095Y0137535D02*
X-0011308Y0137535D01*
X-0011008Y0136749D02*
X0011795Y0136749D01*
X0011795Y0135963D02*
X-0011008Y0135963D01*
X-0011196Y0135177D02*
X0011983Y0135177D01*
X0012395Y0134391D02*
X-0011608Y0134391D01*
X-0012533Y0133605D02*
X0013321Y0133605D01*
X0014764Y0136220D02*
X0021654Y0136220D01*
X0017763Y0138321D02*
X0016862Y0138321D01*
X0017501Y0139107D02*
X0015553Y0139107D01*
X0013974Y0139107D02*
X-0008073Y0139107D01*
X-0007656Y0139892D02*
X0017307Y0139892D01*
X0017307Y0140678D02*
X-0007465Y0140678D01*
X-0007465Y0141464D02*
X0017307Y0141464D01*
X0017307Y0142250D02*
X-0007761Y0142250D01*
X-0008326Y0143036D02*
X0017754Y0143036D01*
X0017510Y0143822D02*
X-0009622Y0143822D01*
X-0011244Y0143822D02*
X-0011626Y0143822D01*
X-0011203Y0144608D02*
X0017307Y0144608D01*
X0017307Y0145394D02*
X-0011008Y0145394D01*
X-0011008Y0146180D02*
X0017307Y0146180D01*
X0017307Y0146966D02*
X-0011300Y0146966D01*
X-0011861Y0147752D02*
X0017745Y0147752D01*
X0017519Y0148538D02*
X-0013144Y0148538D01*
X-0013976Y0145669D02*
X-0021654Y0145669D01*
X-0017745Y0147752D02*
X-0016092Y0147752D01*
X-0014809Y0148538D02*
X-0017519Y0148538D01*
X-0017307Y0149323D02*
X0017307Y0149323D01*
X0017307Y0150109D02*
X-0017307Y0150109D01*
X-0017307Y0150895D02*
X0017307Y0150895D01*
X0017307Y0151681D02*
X-0017307Y0151681D01*
X-0017736Y0152467D02*
X0017736Y0152467D01*
X0017527Y0153253D02*
X-0017527Y0153253D01*
X-0017307Y0154039D02*
X0017307Y0154039D01*
X0017307Y0154825D02*
X-0017307Y0154825D01*
X-0017307Y0155611D02*
X0017307Y0155611D01*
X0017307Y0156397D02*
X-0017307Y0156397D01*
X-0017727Y0157183D02*
X0017727Y0157183D01*
X0017536Y0157968D02*
X-0017536Y0157968D01*
X-0017307Y0158754D02*
X0017307Y0158754D01*
X0017307Y0159540D02*
X-0017307Y0159540D01*
X-0017307Y0160326D02*
X0017307Y0160326D01*
X0017307Y0161112D02*
X-0017307Y0161112D01*
X-0017718Y0161898D02*
X0017718Y0161898D01*
X0017654Y0162684D02*
X-0017654Y0162684D01*
X-0017348Y0163470D02*
X0017348Y0163470D01*
X0017323Y0165042D02*
X-0017323Y0165042D01*
X-0017392Y0165828D02*
X0017392Y0165828D01*
X0017748Y0166614D02*
X-0017748Y0166614D01*
X-0018596Y0167399D02*
X0018596Y0167399D01*
X0017217Y0168185D02*
X-0017217Y0168185D01*
X-0016552Y0168971D02*
X0016552Y0168971D01*
X0016227Y0169757D02*
X-0016227Y0169757D01*
X-0016748Y0175259D02*
X-0017157Y0175259D01*
X-0016748Y0176044D02*
X-0018452Y0176044D01*
X-0020525Y0176044D02*
X-0030651Y0176044D01*
X-0030899Y0175259D02*
X-0021819Y0175259D01*
X-0022449Y0174473D02*
X-0030906Y0174473D01*
X-0030906Y0173687D02*
X-0022774Y0173687D01*
X-0022850Y0172901D02*
X-0030906Y0172901D01*
X-0030906Y0172115D02*
X-0022850Y0172115D01*
X-0022850Y0171329D02*
X-0030906Y0171329D01*
X-0030906Y0170543D02*
X-0022850Y0170543D01*
X-0022750Y0169757D02*
X-0030906Y0169757D01*
X-0030906Y0168971D02*
X-0022424Y0168971D01*
X-0021759Y0168185D02*
X-0030906Y0168185D01*
X-0030906Y0167399D02*
X-0024484Y0167399D01*
X-0025559Y0166614D02*
X-0030906Y0166614D01*
X-0030906Y0165828D02*
X-0025915Y0165828D01*
X-0025984Y0165042D02*
X-0030906Y0165042D01*
X-0030906Y0164256D02*
X-0022047Y0164256D01*
X-0022047Y0165042D02*
X-0021260Y0165042D01*
X-0021260Y0165828D02*
X-0022047Y0165828D01*
X-0022047Y0166614D02*
X-0021260Y0166614D01*
X-0021260Y0167399D02*
X-0022047Y0167399D01*
X-0021260Y0164256D02*
X0021260Y0164256D01*
X0021260Y0165042D02*
X0022047Y0165042D01*
X0022047Y0164961D02*
X0025835Y0164961D01*
X0025940Y0164567D01*
X0026236Y0164055D01*
X0026654Y0163637D01*
X0027165Y0163342D01*
X0027736Y0163189D01*
X0028740Y0163189D01*
X0028740Y0165748D01*
X0029528Y0165748D01*
X0029528Y0163189D01*
X0030532Y0163189D01*
X0030906Y0163289D01*
X0030906Y0162811D01*
X0027095Y0162811D01*
X0026308Y0162024D01*
X0025464Y0162024D01*
X0025271Y0162216D01*
X0025536Y0162480D01*
X0025831Y0162992D01*
X0025984Y0163563D01*
X0025984Y0164173D01*
X0022047Y0164173D01*
X0022047Y0164961D01*
X0022047Y0164256D02*
X0026120Y0164256D01*
X0025959Y0163470D02*
X0026944Y0163470D01*
X0026968Y0162684D02*
X0025653Y0162684D01*
X0025915Y0165828D02*
X0028740Y0165828D01*
X0028740Y0166535D02*
X0025787Y0166535D01*
X0025787Y0167146D01*
X0025940Y0167717D01*
X0026236Y0168228D01*
X0026654Y0168646D01*
X0027165Y0168942D01*
X0027736Y0169094D01*
X0028740Y0169094D01*
X0028740Y0166535D01*
X0028740Y0166614D02*
X0029528Y0166614D01*
X0029528Y0167399D02*
X0028740Y0167399D01*
X0028740Y0168185D02*
X0029528Y0168185D01*
X0029528Y0168971D02*
X0028740Y0168971D01*
X0027276Y0168971D02*
X0022424Y0168971D01*
X0022750Y0169757D02*
X0030906Y0169757D01*
X0030906Y0170543D02*
X0022850Y0170543D01*
X0022850Y0171329D02*
X0030906Y0171329D01*
X0030906Y0172115D02*
X0022850Y0172115D01*
X0022850Y0172901D02*
X0030906Y0172901D01*
X0030906Y0173687D02*
X0022774Y0173687D01*
X0022449Y0174473D02*
X0030906Y0174473D01*
X0030899Y0175259D02*
X0021819Y0175259D01*
X0020525Y0176044D02*
X0030651Y0176044D01*
X0029528Y0165042D02*
X0028740Y0165042D01*
X0028740Y0164256D02*
X0029528Y0164256D01*
X0029528Y0163470D02*
X0028740Y0163470D01*
X0025787Y0166614D02*
X0025559Y0166614D01*
X0025855Y0167399D02*
X0024484Y0167399D01*
X0026211Y0168185D02*
X0021759Y0168185D01*
X0022047Y0167399D02*
X0021260Y0167399D01*
X0021260Y0166614D02*
X0022047Y0166614D01*
X0022047Y0165828D02*
X0021260Y0165828D01*
X0018452Y0176044D02*
X-0005299Y0176044D01*
X-0005299Y0175259D02*
X0017157Y0175259D01*
X0016527Y0174473D02*
X-0005299Y0174473D01*
X-0005299Y0173687D02*
X0016202Y0173687D01*
X0016126Y0172901D02*
X-0005299Y0172901D01*
X-0005299Y0172115D02*
X0016126Y0172115D01*
X0016126Y0171329D02*
X-0005299Y0171329D01*
X-0005832Y0170543D02*
X0016126Y0170543D01*
X0026000Y0150109D02*
X0026353Y0150109D01*
X0026000Y0149323D02*
X0027170Y0149323D01*
X0025789Y0148538D02*
X0030906Y0148538D01*
X0030906Y0147752D02*
X0025562Y0147752D01*
X0026000Y0146966D02*
X0030906Y0146966D01*
X0030906Y0146180D02*
X0026000Y0146180D01*
X0026000Y0145394D02*
X0030906Y0145394D01*
X0030906Y0144608D02*
X0026000Y0144608D01*
X0025797Y0143822D02*
X0030906Y0143822D01*
X0030906Y0143036D02*
X0025553Y0143036D01*
X0026000Y0142250D02*
X0030906Y0142250D01*
X0030906Y0141464D02*
X0026000Y0141464D01*
X0026000Y0140678D02*
X0030906Y0140678D01*
X0030906Y0139892D02*
X0026000Y0139892D01*
X0025806Y0139107D02*
X0030906Y0139107D01*
X0030906Y0138321D02*
X0025545Y0138321D01*
X0026000Y0137535D02*
X0030906Y0137535D01*
X0030906Y0136749D02*
X0026000Y0136749D01*
X0026000Y0135963D02*
X0030906Y0135963D01*
X0030906Y0135177D02*
X0026000Y0135177D01*
X0025815Y0134391D02*
X0030906Y0134391D01*
X0030906Y0133605D02*
X0025536Y0133605D01*
X0026000Y0132819D02*
X0030906Y0132819D01*
X0030906Y0132033D02*
X0026000Y0132033D01*
X0026000Y0131247D02*
X0030906Y0131247D01*
X0030906Y0130462D02*
X0026000Y0130462D01*
X0025824Y0129676D02*
X0030906Y0129676D01*
X0030906Y0128890D02*
X0025038Y0128890D01*
X0024850Y0124174D02*
X0030906Y0124174D01*
X0030906Y0123388D02*
X0025503Y0123388D01*
X0025861Y0122602D02*
X0030906Y0122602D01*
X0030906Y0121816D02*
X0023032Y0121816D01*
X0023031Y0121031D02*
X0022244Y0121031D01*
X0022244Y0120245D02*
X0023031Y0120245D01*
X0023031Y0119459D02*
X0022244Y0119459D01*
X0022244Y0118673D02*
X0023031Y0118673D01*
X0024186Y0118673D02*
X0030503Y0118673D01*
X0030883Y0119459D02*
X0025176Y0119459D01*
X0025676Y0120245D02*
X0030906Y0120245D01*
X0030906Y0121031D02*
X0025926Y0121031D01*
X0023168Y0124960D02*
X0030906Y0124960D01*
X0030906Y0125746D02*
X0023425Y0125746D01*
X0023425Y0126532D02*
X0030906Y0126532D01*
X0030906Y0127318D02*
X0023425Y0127318D01*
X0023283Y0128104D02*
X0030906Y0128104D01*
X0023031Y0124960D02*
X0022244Y0124960D01*
X0022108Y0124960D02*
X0020079Y0124960D01*
X0020100Y0119459D02*
X0014623Y0119459D01*
X0013837Y0118673D02*
X0021089Y0118673D01*
X0018641Y0117887D02*
X-0010024Y0117887D01*
X-0010024Y0117101D02*
X0016815Y0117101D01*
X0016029Y0116315D02*
X-0010024Y0116315D01*
X-0010024Y0115529D02*
X0015243Y0115529D01*
X0015093Y0115379D02*
X0015093Y0115379D01*
X0014829Y0114743D02*
X-0010024Y0114743D01*
X-0010024Y0113957D02*
X0014504Y0113957D01*
X0014178Y0113171D02*
X-0010024Y0113171D01*
X-0010024Y0112386D02*
X0014134Y0112386D01*
X0014134Y0111600D02*
X-0010024Y0111600D01*
X-0010024Y0110814D02*
X0014134Y0110814D01*
X0014134Y0110028D02*
X-0009311Y0110028D01*
X-0008525Y0109242D02*
X0003815Y0109242D01*
X0003889Y0109316D02*
X0002888Y0108315D01*
X0002346Y0107007D01*
X0002346Y0105591D01*
X0002787Y0104528D01*
X0002346Y0103464D01*
X0002346Y0102048D01*
X0002425Y0101858D01*
X0002425Y0046848D01*
X0000425Y0044848D01*
X0000425Y0041058D01*
X0003105Y0038378D01*
X0006895Y0038378D01*
X0009575Y0041058D01*
X0009575Y0044848D01*
X0007575Y0046848D01*
X0007575Y0099595D01*
X0007922Y0099739D01*
X0008923Y0100740D01*
X0009465Y0102048D01*
X0009465Y0103464D01*
X0009024Y0104528D01*
X0009465Y0105591D01*
X0009465Y0107007D01*
X0008923Y0108315D01*
X0007922Y0109316D01*
X0006613Y0109858D01*
X0005198Y0109858D01*
X0003889Y0109316D01*
X0003029Y0108456D02*
X-0007739Y0108456D01*
X-0006954Y0107670D02*
X0002621Y0107670D01*
X0002346Y0106884D02*
X-0006168Y0106884D01*
X-0005382Y0106098D02*
X0002346Y0106098D01*
X0002462Y0105312D02*
X-0004596Y0105312D01*
X-0004315Y0104526D02*
X0002787Y0104526D01*
X0002461Y0103741D02*
X-0004315Y0103741D01*
X-0004315Y0102955D02*
X0002346Y0102955D01*
X0002346Y0102169D02*
X-0004315Y0102169D01*
X-0004315Y0101383D02*
X0002425Y0101383D01*
X0002425Y0100597D02*
X-0004315Y0100597D01*
X-0004315Y0099811D02*
X0002425Y0099811D01*
X0002425Y0099025D02*
X-0004315Y0099025D01*
X-0004315Y0098239D02*
X0002425Y0098239D01*
X0002425Y0097453D02*
X-0004315Y0097453D01*
X-0004315Y0096667D02*
X0002425Y0096667D01*
X0002425Y0095881D02*
X-0004647Y0095881D01*
X-0004322Y0095095D02*
X0002425Y0095095D01*
X0002425Y0094310D02*
X-0004315Y0094310D01*
X-0004470Y0093524D02*
X0002425Y0093524D01*
X0002425Y0092738D02*
X-0004836Y0092738D01*
X-0005650Y0091952D02*
X0002425Y0091952D01*
X0002425Y0091166D02*
X-0009197Y0091166D01*
X-0009197Y0091952D02*
X-0008917Y0091952D01*
X-0009197Y0090380D02*
X0002425Y0090380D01*
X0002425Y0089594D02*
X-0009197Y0089594D01*
X-0009197Y0088808D02*
X0002425Y0088808D01*
X0002425Y0088022D02*
X-0009197Y0088022D01*
X-0009197Y0087236D02*
X0002425Y0087236D01*
X0002425Y0086450D02*
X-0009197Y0086450D01*
X-0009197Y0085665D02*
X0002425Y0085665D01*
X0002425Y0084879D02*
X-0009197Y0084879D01*
X-0009197Y0084093D02*
X0002425Y0084093D01*
X0002425Y0083307D02*
X-0009197Y0083307D01*
X-0009197Y0082521D02*
X0002425Y0082521D01*
X0002425Y0081735D02*
X-0009197Y0081735D01*
X-0009197Y0080949D02*
X0002425Y0080949D01*
X0002425Y0080163D02*
X-0009197Y0080163D01*
X-0009197Y0079377D02*
X0002425Y0079377D01*
X0002425Y0078591D02*
X-0009197Y0078591D01*
X-0009197Y0077805D02*
X0002425Y0077805D01*
X0002425Y0077019D02*
X-0009197Y0077019D01*
X-0009197Y0076234D02*
X0002425Y0076234D01*
X0002425Y0075448D02*
X-0009197Y0075448D01*
X-0009197Y0074662D02*
X0002425Y0074662D01*
X0002425Y0073876D02*
X-0009197Y0073876D01*
X-0009197Y0073090D02*
X0002425Y0073090D01*
X0002425Y0072304D02*
X-0009197Y0072304D01*
X-0009197Y0071518D02*
X0002425Y0071518D01*
X0002425Y0070732D02*
X-0009197Y0070732D01*
X-0009197Y0069946D02*
X0002425Y0069946D01*
X0002425Y0069160D02*
X-0009197Y0069160D01*
X-0009197Y0068374D02*
X0002425Y0068374D01*
X0002425Y0067589D02*
X-0009197Y0067589D01*
X-0009197Y0066803D02*
X0002425Y0066803D01*
X0002425Y0066017D02*
X-0009197Y0066017D01*
X-0009197Y0065231D02*
X0002425Y0065231D01*
X0002425Y0064445D02*
X-0009197Y0064445D01*
X-0009197Y0063659D02*
X0002425Y0063659D01*
X0002425Y0062873D02*
X-0009197Y0062873D01*
X-0009197Y0062087D02*
X0002425Y0062087D01*
X0002425Y0061301D02*
X-0009197Y0061301D01*
X-0009197Y0060515D02*
X0002425Y0060515D01*
X0002425Y0059729D02*
X-0009197Y0059729D01*
X-0009197Y0058943D02*
X0002425Y0058943D01*
X0002425Y0058158D02*
X-0009197Y0058158D01*
X-0009197Y0057372D02*
X0002425Y0057372D01*
X0002425Y0056586D02*
X-0009197Y0056586D01*
X-0009197Y0055800D02*
X0002425Y0055800D01*
X0002425Y0055014D02*
X-0009197Y0055014D01*
X-0009197Y0054228D02*
X0002425Y0054228D01*
X0002425Y0053442D02*
X-0009197Y0053442D01*
X-0009197Y0052656D02*
X0002425Y0052656D01*
X0002425Y0051870D02*
X-0009197Y0051870D01*
X-0009197Y0051084D02*
X0002425Y0051084D01*
X0002425Y0050298D02*
X-0009197Y0050298D01*
X-0009197Y0049513D02*
X0002425Y0049513D01*
X0002425Y0048727D02*
X-0009197Y0048727D01*
X-0009197Y0047941D02*
X0002425Y0047941D01*
X0002425Y0047155D02*
X-0002755Y0047155D01*
X-0001969Y0046369D02*
X0001946Y0046369D01*
X0001160Y0045583D02*
X-0001183Y0045583D01*
X-0000441Y0044797D02*
X0000425Y0044797D01*
X0000425Y0044011D02*
X-0000441Y0044011D01*
X0000425Y0043225D02*
X-0004606Y0043225D01*
X-0004606Y0044011D02*
X-0005394Y0044011D01*
X-0005394Y0044797D02*
X-0004606Y0044797D01*
X-0004606Y0045583D02*
X-0005394Y0045583D01*
X-0005394Y0046369D02*
X-0004606Y0046369D01*
X-0004606Y0047155D02*
X-0005394Y0047155D01*
X-0007245Y0047155D02*
X-0009197Y0047155D01*
X-0009197Y0046369D02*
X-0008031Y0046369D01*
X-0008817Y0045583D02*
X-0009197Y0045583D01*
X-0010984Y0040512D02*
X-0010984Y0096299D01*
X-0008858Y0098425D01*
X-0012559Y0100236D02*
X-0010433Y0102362D01*
X-0012559Y0100236D02*
X-0012559Y0033819D01*
X-0011693Y0032953D01*
X-0005000Y0032953D01*
X-0006916Y0027507D02*
X-0012346Y0027507D01*
X-0012346Y0028293D02*
X0014134Y0028293D01*
X0014134Y0029079D02*
X0007596Y0029079D01*
X0008382Y0029865D02*
X0014134Y0029865D01*
X0014134Y0030651D02*
X0009168Y0030651D01*
X0009575Y0031437D02*
X0014134Y0031437D01*
X0014134Y0032222D02*
X0009575Y0032222D01*
X0009575Y0033008D02*
X0014134Y0033008D01*
X0014134Y0033794D02*
X0009575Y0033794D01*
X0009575Y0034580D02*
X0014134Y0034580D01*
X0014134Y0035366D02*
X0009056Y0035366D01*
X0008270Y0036152D02*
X0014134Y0036152D01*
X0014134Y0036938D02*
X0007485Y0036938D01*
X0007027Y0038510D02*
X0014134Y0038510D01*
X0014134Y0039296D02*
X0007813Y0039296D01*
X0008599Y0040082D02*
X0014134Y0040082D01*
X0014134Y0040867D02*
X0009384Y0040867D01*
X0009575Y0041653D02*
X0014134Y0041653D01*
X0014134Y0042439D02*
X0009575Y0042439D01*
X0009575Y0043225D02*
X0014134Y0043225D01*
X0014134Y0044011D02*
X0009575Y0044011D01*
X0009575Y0044797D02*
X0014134Y0044797D01*
X0014134Y0045583D02*
X0008840Y0045583D01*
X0008054Y0046369D02*
X0014134Y0046369D01*
X0014134Y0047155D02*
X0007575Y0047155D01*
X0007575Y0047941D02*
X0014134Y0047941D01*
X0014134Y0048727D02*
X0007575Y0048727D01*
X0007575Y0049513D02*
X0014134Y0049513D01*
X0014134Y0050298D02*
X0007575Y0050298D01*
X0007575Y0051084D02*
X0014134Y0051084D01*
X0014134Y0051870D02*
X0007575Y0051870D01*
X0007575Y0052656D02*
X0014134Y0052656D01*
X0014134Y0053442D02*
X0007575Y0053442D01*
X0007575Y0054228D02*
X0014134Y0054228D01*
X0014134Y0055014D02*
X0007575Y0055014D01*
X0007575Y0055800D02*
X0014134Y0055800D01*
X0014134Y0056586D02*
X0007575Y0056586D01*
X0007575Y0057372D02*
X0014134Y0057372D01*
X0014134Y0058158D02*
X0007575Y0058158D01*
X0007575Y0058943D02*
X0014134Y0058943D01*
X0014134Y0059729D02*
X0007575Y0059729D01*
X0007575Y0060515D02*
X0014134Y0060515D01*
X0014134Y0061301D02*
X0007575Y0061301D01*
X0007575Y0062087D02*
X0014134Y0062087D01*
X0014134Y0062873D02*
X0007575Y0062873D01*
X0007575Y0063659D02*
X0014134Y0063659D01*
X0014134Y0064445D02*
X0007575Y0064445D01*
X0007575Y0065231D02*
X0014134Y0065231D01*
X0014134Y0066017D02*
X0007575Y0066017D01*
X0007575Y0066803D02*
X0014134Y0066803D01*
X0014134Y0067589D02*
X0007575Y0067589D01*
X0007575Y0068374D02*
X0014134Y0068374D01*
X0014134Y0069160D02*
X0007575Y0069160D01*
X0007575Y0069946D02*
X0014134Y0069946D01*
X0014134Y0070732D02*
X0007575Y0070732D01*
X0007575Y0071518D02*
X0014134Y0071518D01*
X0014134Y0072304D02*
X0007575Y0072304D01*
X0007575Y0073090D02*
X0014134Y0073090D01*
X0014134Y0073876D02*
X0007575Y0073876D01*
X0007575Y0074662D02*
X0014134Y0074662D01*
X0014134Y0075448D02*
X0007575Y0075448D01*
X0007575Y0076234D02*
X0014134Y0076234D01*
X0014134Y0077019D02*
X0007575Y0077019D01*
X0007575Y0077805D02*
X0014134Y0077805D01*
X0014134Y0078591D02*
X0007575Y0078591D01*
X0007575Y0079377D02*
X0014134Y0079377D01*
X0014134Y0080163D02*
X0007575Y0080163D01*
X0007575Y0080949D02*
X0014134Y0080949D01*
X0014134Y0081735D02*
X0007575Y0081735D01*
X0007575Y0082521D02*
X0014134Y0082521D01*
X0014134Y0083307D02*
X0007575Y0083307D01*
X0007575Y0084093D02*
X0014134Y0084093D01*
X0014134Y0084879D02*
X0007575Y0084879D01*
X0007575Y0085665D02*
X0014134Y0085665D01*
X0014134Y0086450D02*
X0007575Y0086450D01*
X0007575Y0087236D02*
X0014134Y0087236D01*
X0014134Y0088022D02*
X0007575Y0088022D01*
X0007575Y0088808D02*
X0014134Y0088808D01*
X0014134Y0089594D02*
X0007575Y0089594D01*
X0007575Y0090380D02*
X0014134Y0090380D01*
X0014134Y0091166D02*
X0007575Y0091166D01*
X0007575Y0091952D02*
X0014134Y0091952D01*
X0014134Y0092738D02*
X0007575Y0092738D01*
X0007575Y0093524D02*
X0014134Y0093524D01*
X0014134Y0094310D02*
X0007575Y0094310D01*
X0007575Y0095095D02*
X0014134Y0095095D01*
X0014134Y0095881D02*
X0007575Y0095881D01*
X0007575Y0096667D02*
X0014134Y0096667D01*
X0014134Y0097453D02*
X0007575Y0097453D01*
X0007575Y0098239D02*
X0014134Y0098239D01*
X0014134Y0099025D02*
X0007575Y0099025D01*
X0007994Y0099811D02*
X0014134Y0099811D01*
X0014134Y0100597D02*
X0008780Y0100597D01*
X0009189Y0101383D02*
X0014134Y0101383D01*
X0014134Y0102169D02*
X0009465Y0102169D01*
X0009465Y0102955D02*
X0014134Y0102955D01*
X0014134Y0103741D02*
X0009350Y0103741D01*
X0009024Y0104526D02*
X0014134Y0104526D01*
X0014134Y0105312D02*
X0009349Y0105312D01*
X0009465Y0106098D02*
X0014134Y0106098D01*
X0014134Y0106884D02*
X0009465Y0106884D01*
X0009190Y0107670D02*
X0014134Y0107670D01*
X0014134Y0108456D02*
X0008782Y0108456D01*
X0007996Y0109242D02*
X0014134Y0109242D01*
X0009785Y0118673D02*
X0009113Y0118673D01*
X0009184Y0126532D02*
X0009714Y0126532D01*
X0004990Y0126532D02*
X0004459Y0126532D01*
X0004388Y0118673D02*
X0005060Y0118673D01*
X0000336Y0118673D02*
X-0000336Y0118673D01*
X-0004388Y0118673D02*
X-0005060Y0118673D01*
X-0004990Y0126532D02*
X-0004459Y0126532D01*
X-0000265Y0126532D02*
X0000265Y0126532D01*
X-0011811Y0110000D02*
X-0006102Y0104291D01*
X-0006102Y0097284D01*
X-0007283Y0096103D01*
X-0007283Y0094488D01*
X-0011811Y0110000D02*
X-0011811Y0122638D01*
X-0014623Y0119459D02*
X-0020100Y0119459D01*
X-0021089Y0118673D02*
X-0013837Y0118673D01*
X-0009785Y0118673D02*
X-0009113Y0118673D01*
X-0009184Y0126532D02*
X-0009714Y0126532D01*
X-0011855Y0138321D02*
X-0011878Y0138321D01*
X-0020079Y0124960D02*
X-0022108Y0124960D01*
X-0022244Y0124960D02*
X-0023031Y0124960D01*
X-0023168Y0124960D02*
X-0030906Y0124960D01*
X-0030906Y0124174D02*
X-0024850Y0124174D01*
X-0025503Y0123388D02*
X-0030906Y0123388D01*
X-0030906Y0122602D02*
X-0025861Y0122602D01*
X-0025926Y0121031D02*
X-0030906Y0121031D01*
X-0030906Y0121816D02*
X-0023032Y0121816D01*
X-0023031Y0121031D02*
X-0022244Y0121031D01*
X-0022244Y0120245D02*
X-0023031Y0120245D01*
X-0023031Y0119459D02*
X-0022244Y0119459D01*
X-0022244Y0118673D02*
X-0023031Y0118673D01*
X-0024186Y0118673D02*
X-0030503Y0118673D01*
X-0030883Y0119459D02*
X-0025176Y0119459D01*
X-0025676Y0120245D02*
X-0030906Y0120245D01*
X-0030906Y0125746D02*
X-0023425Y0125746D01*
X-0023425Y0126532D02*
X-0030906Y0126532D01*
X-0030906Y0127318D02*
X-0023425Y0127318D01*
X-0023283Y0128104D02*
X-0030906Y0128104D01*
X-0030906Y0128890D02*
X-0025038Y0128890D01*
X-0025824Y0129676D02*
X-0030906Y0129676D01*
X-0030906Y0130462D02*
X-0026000Y0130462D01*
X-0026000Y0131247D02*
X-0030906Y0131247D01*
X-0030906Y0132033D02*
X-0026000Y0132033D01*
X-0026000Y0132819D02*
X-0030906Y0132819D01*
X-0030906Y0133605D02*
X-0025536Y0133605D01*
X-0025815Y0134391D02*
X-0030906Y0134391D01*
X-0030906Y0135177D02*
X-0026000Y0135177D01*
X-0026000Y0135963D02*
X-0030906Y0135963D01*
X-0030906Y0136749D02*
X-0026000Y0136749D01*
X-0026000Y0137535D02*
X-0030906Y0137535D01*
X-0030906Y0138321D02*
X-0025544Y0138321D01*
X-0025806Y0139107D02*
X-0030906Y0139107D01*
X-0030906Y0139892D02*
X-0026000Y0139892D01*
X-0026000Y0140678D02*
X-0030906Y0140678D01*
X-0030906Y0141464D02*
X-0026000Y0141464D01*
X-0026000Y0142250D02*
X-0030906Y0142250D01*
X-0030906Y0143036D02*
X-0025553Y0143036D01*
X-0025797Y0143822D02*
X-0030906Y0143822D01*
X-0030906Y0144608D02*
X-0026000Y0144608D01*
X-0026000Y0145394D02*
X-0030906Y0145394D01*
X-0030906Y0146180D02*
X-0026000Y0146180D01*
X-0026000Y0146966D02*
X-0030906Y0146966D01*
X-0030906Y0147752D02*
X-0025562Y0147752D01*
X-0025789Y0148538D02*
X-0030906Y0148538D01*
X-0030906Y0149323D02*
X-0026000Y0149323D01*
X-0026000Y0150109D02*
X-0030906Y0150109D01*
X-0030906Y0150895D02*
X-0026000Y0150895D01*
X-0026000Y0151681D02*
X-0030906Y0151681D01*
X-0030906Y0152467D02*
X-0025571Y0152467D01*
X-0025780Y0153253D02*
X-0030906Y0153253D01*
X-0030906Y0154039D02*
X-0026000Y0154039D01*
X-0026000Y0154825D02*
X-0030906Y0154825D01*
X-0030906Y0155611D02*
X-0026000Y0155611D01*
X-0026000Y0156397D02*
X-0030906Y0156397D01*
X-0030906Y0157183D02*
X-0025580Y0157183D01*
X-0025771Y0157968D02*
X-0030906Y0157968D01*
X-0030906Y0158754D02*
X-0026000Y0158754D01*
X-0026000Y0159540D02*
X-0030906Y0159540D01*
X-0030906Y0160326D02*
X-0026000Y0160326D01*
X-0026000Y0161112D02*
X-0030906Y0161112D01*
X-0030906Y0161898D02*
X-0025589Y0161898D01*
X-0025653Y0162684D02*
X-0030906Y0162684D01*
X-0030906Y0163470D02*
X-0025959Y0163470D01*
X-0000441Y0042439D02*
X0000425Y0042439D01*
X0000425Y0041653D02*
X-0000441Y0041653D01*
X-0000638Y0040867D02*
X0000616Y0040867D01*
X0001401Y0040082D02*
X-0001424Y0040082D01*
X-0000039Y0037992D02*
X0005000Y0032953D01*
X0003105Y0027528D02*
X0000425Y0024848D01*
X0000425Y0021058D01*
X0003105Y0018378D01*
X0006895Y0018378D01*
X0009575Y0021058D01*
X0009575Y0024848D01*
X0006895Y0027528D01*
X0003105Y0027528D01*
X0003084Y0027507D02*
X-0003084Y0027507D01*
X-0002299Y0026721D02*
X0002299Y0026721D01*
X0001513Y0025935D02*
X-0001513Y0025935D01*
X-0000727Y0025149D02*
X0000727Y0025149D01*
X0000425Y0024363D02*
X-0000425Y0024363D01*
X-0000425Y0023577D02*
X0000425Y0023577D01*
X0000425Y0022791D02*
X-0000425Y0022791D01*
X-0000425Y0022006D02*
X0000425Y0022006D01*
X0000425Y0021220D02*
X-0000425Y0021220D01*
X-0001049Y0020434D02*
X0001049Y0020434D01*
X0001835Y0019648D02*
X-0001835Y0019648D01*
X-0002621Y0018862D02*
X0002621Y0018862D01*
X0002868Y0017290D02*
X-0002868Y0017290D01*
X-0002082Y0016504D02*
X0002082Y0016504D01*
X0001296Y0015718D02*
X-0001296Y0015718D01*
X-0000510Y0014932D02*
X0000510Y0014932D01*
X0000425Y0014146D02*
X-0000425Y0014146D01*
X-0000425Y0013361D02*
X0000425Y0013361D01*
X0000425Y0012575D02*
X-0000425Y0012575D01*
X-0000425Y0011789D02*
X0000425Y0011789D01*
X0000480Y0011003D02*
X-0000480Y0011003D01*
X-0001266Y0010217D02*
X0001266Y0010217D01*
X0002052Y0009431D02*
X-0002052Y0009431D01*
X-0002838Y0008645D02*
X0002838Y0008645D01*
X0007379Y0018862D02*
X0014134Y0018862D01*
X0014134Y0019648D02*
X0008165Y0019648D01*
X0008951Y0020434D02*
X0014134Y0020434D01*
X0014134Y0021220D02*
X0009575Y0021220D01*
X0009575Y0022006D02*
X0014134Y0022006D01*
X0014134Y0022791D02*
X0009575Y0022791D01*
X0009575Y0023577D02*
X0014134Y0023577D01*
X0014134Y0024363D02*
X0009575Y0024363D01*
X0009273Y0025149D02*
X0014134Y0025149D01*
X0014134Y0025935D02*
X0008487Y0025935D01*
X0007701Y0026721D02*
X0014134Y0026721D01*
X0014134Y0027507D02*
X0006916Y0027507D01*
X0002973Y0038510D02*
X0001971Y0038510D01*
X0002187Y0039296D02*
X0001185Y0039296D01*
X-0000039Y0037992D02*
X-0008465Y0037992D01*
X-0010984Y0040512D01*
X-0012346Y0030651D02*
X-0009168Y0030651D01*
X-0008382Y0029865D02*
X-0012346Y0029865D01*
X-0012346Y0029079D02*
X-0007596Y0029079D01*
X-0007701Y0026721D02*
X-0012346Y0026721D01*
X-0012187Y0025935D02*
X-0008487Y0025935D01*
X-0009273Y0025149D02*
X-0011401Y0025149D01*
X-0011732Y0022953D02*
X-0005000Y0022953D01*
X-0002404Y0029079D02*
X0002404Y0029079D01*
X0001618Y0029865D02*
X-0001618Y0029865D01*
X-0000832Y0030651D02*
X0000832Y0030651D01*
X0000425Y0031437D02*
X-0000425Y0031437D01*
X-0000425Y0032222D02*
X0000425Y0032222D01*
X0000425Y0033008D02*
X-0000425Y0033008D01*
X-0000425Y0033794D02*
X0000425Y0033794D01*
X0000425Y0034580D02*
X-0000425Y0034580D01*
X0000059Y0035366D02*
X-0000944Y0035366D01*
X-0000727Y0036152D02*
X-0001730Y0036152D01*
X0002757Y0037724D02*
X0014134Y0037724D01*
X-0007162Y0008645D02*
X-0014134Y0008645D01*
X-0014134Y0009431D02*
X-0007948Y0009431D01*
X-0008734Y0010217D02*
X-0014134Y0010217D01*
X-0014134Y0011003D02*
X-0009520Y0011003D01*
X-0009575Y0011789D02*
X-0014134Y0011789D01*
X-0014134Y0012575D02*
X-0009575Y0012575D01*
X-0009575Y0013361D02*
X-0014134Y0013361D01*
X-0014134Y0014146D02*
X-0009575Y0014146D01*
X-0009490Y0014932D02*
X-0014134Y0014932D01*
X-0014134Y0015718D02*
X-0008704Y0015718D01*
X-0007918Y0016504D02*
X-0014134Y0016504D01*
X0002244Y-0070472D02*
X0005000Y-0073228D01*
X0005000Y-0098031D01*
X0016207Y0133605D02*
X0017772Y0133605D01*
X0017492Y0134391D02*
X0017133Y0134391D01*
D17*
X0014764Y0136220D03*
X0010630Y0129921D03*
X0010630Y0115157D03*
X0010236Y0089567D03*
X0000394Y0089567D03*
X-0007283Y0094488D03*
X-0008858Y0098425D03*
X-0010433Y0102362D03*
X-0012008Y0106299D03*
X-0013976Y0136220D03*
X-0010433Y0140945D03*
X-0013976Y0145669D03*
X-0014370Y0150591D03*
X-0014370Y0164370D03*
X-0027559Y0164370D03*
X-0027559Y0174213D03*
X-0027559Y0125000D03*
X-0027559Y0120079D03*
X0000787Y0115157D03*
X0000787Y0129921D03*
X0000787Y0145669D03*
X0005709Y0154528D03*
X0010630Y0145669D03*
X0015551Y0147638D03*
X0015551Y0157480D03*
X0015551Y0164370D03*
X0029331Y0170276D03*
X0029331Y0174213D03*
X0028346Y0125000D03*
X0028346Y0120079D03*
X0007812Y-0055450D03*
X0012703Y-0062205D03*
X0002244Y-0070472D03*
X0000394Y-0060630D03*
X-0002244Y-0065506D03*
D18*
X0005906Y0102756D03*
X0005906Y0106299D03*
X0029134Y0152362D03*
D19*
X0029134Y0159843D01*
X0005906Y0106299D02*
X0005906Y0102756D01*
X0005000Y0101850D01*
X0005000Y0042953D01*
D20*
X0005000Y-0014921D02*
X0013490Y-0023411D01*
X0013490Y-0054226D01*
X-0005000Y-0072717D01*
X-0005000Y-0098031D01*
X-0015000Y-0071653D02*
X-0013490Y-0070143D01*
X-0013490Y-0023411D01*
X-0005000Y-0014921D01*
X-0015000Y-0071653D02*
X-0015000Y-0098031D01*
X0021654Y0159843D02*
X0029134Y0159843D01*
M02*
