G75*
%MOIN*%
%OFA0B0*%
%FSLAX25Y25*%
%IPPOS*%
%LPD*%
%AMOC8*
5,1,8,0,0,1.08239X$1,22.5*
%
%ADD10C,0.00400*%
%ADD11C,0.00787*%
D10*
X-0021957Y-0073571D02*
X-0021957Y-0071702D01*
X-0021490Y-0071235D01*
X-0020089Y-0071235D01*
X-0020089Y-0074038D01*
X-0021490Y-0074038D01*
X-0021957Y-0073571D01*
X-0019011Y-0074038D02*
X-0018077Y-0073104D01*
X-0018544Y-0073104D02*
X-0017142Y-0073104D01*
X-0017142Y-0074038D02*
X-0017142Y-0071235D01*
X-0018544Y-0071235D01*
X-0019011Y-0071702D01*
X-0019011Y-0072637D01*
X-0018544Y-0073104D01*
X-0016064Y-0073104D02*
X-0016064Y-0073571D01*
X-0015597Y-0074038D01*
X-0014196Y-0074038D01*
X-0014196Y-0071235D01*
X-0015597Y-0071235D01*
X-0016064Y-0071702D01*
X-0016064Y-0072170D01*
X-0015597Y-0072637D01*
X-0014196Y-0072637D01*
X-0015597Y-0072637D02*
X-0016064Y-0073104D01*
X-0013609Y-0069238D02*
X-0013609Y-0067837D01*
X-0013142Y-0067370D01*
X-0012208Y-0067370D01*
X-0011741Y-0067837D01*
X-0010662Y-0067370D02*
X-0009261Y-0067370D01*
X-0008794Y-0067837D01*
X-0008794Y-0068771D01*
X-0009261Y-0069238D01*
X-0010662Y-0069238D01*
X-0011741Y-0069238D02*
X-0011741Y-0066435D01*
X-0010195Y-0072170D02*
X-0009728Y-0072170D01*
X-0008794Y-0073104D01*
X-0008794Y-0074038D02*
X-0008794Y-0072170D01*
X-0007716Y-0072637D02*
X-0007249Y-0072170D01*
X-0006315Y-0072170D01*
X-0005848Y-0072637D01*
X-0005848Y-0073571D01*
X-0006315Y-0074038D01*
X-0007249Y-0074038D01*
X-0007716Y-0073571D01*
X-0007716Y-0072637D01*
X-0007249Y-0069238D02*
X-0006315Y-0069238D01*
X-0005847Y-0068771D01*
X-0005847Y-0067837D01*
X-0006315Y-0067370D01*
X-0007249Y-0067370D01*
X-0007716Y-0067837D01*
X-0007716Y-0068304D01*
X-0005847Y-0068304D01*
X-0004769Y-0066435D02*
X-0002901Y-0066435D01*
X-0003835Y-0066435D02*
X-0003835Y-0069238D01*
X-0004350Y-0071702D02*
X-0004350Y-0073571D01*
X-0004817Y-0074038D01*
X-0004817Y-0072170D02*
X-0003883Y-0072170D01*
X-0002805Y-0072170D02*
X-0001404Y-0072170D01*
X-0000937Y-0072637D01*
X-0000937Y-0073571D01*
X-0001404Y-0074038D01*
X-0002805Y-0074038D01*
X-0001871Y-0076035D02*
X-0001871Y-0078838D01*
X-0000937Y-0078838D02*
X-0002805Y-0078838D01*
X-0003883Y-0078838D02*
X-0004350Y-0078838D01*
X-0004350Y-0078371D01*
X-0003883Y-0078371D01*
X-0003883Y-0078838D01*
X-0005356Y-0078371D02*
X-0005356Y-0076502D01*
X-0005823Y-0076035D01*
X-0006758Y-0076035D01*
X-0007225Y-0076502D01*
X-0005356Y-0078371D01*
X-0005823Y-0078838D01*
X-0006758Y-0078838D01*
X-0007225Y-0078371D01*
X-0007225Y-0076502D01*
X-0001871Y-0076035D02*
X-0000937Y-0076970D01*
X0000142Y-0076970D02*
X0001076Y-0078838D01*
X0002010Y-0076970D01*
X0003088Y-0077437D02*
X0003088Y-0077904D01*
X0004956Y-0077904D01*
X0004956Y-0078371D02*
X0004956Y-0077437D01*
X0004489Y-0076970D01*
X0003555Y-0076970D01*
X0003088Y-0077437D01*
X0003555Y-0078838D02*
X0004489Y-0078838D01*
X0004956Y-0078371D01*
X0006035Y-0078838D02*
X0006969Y-0077904D01*
X0006502Y-0077904D02*
X0007903Y-0077904D01*
X0007903Y-0078838D02*
X0007903Y-0076035D01*
X0006502Y-0076035D01*
X0006035Y-0076502D01*
X0006035Y-0077437D01*
X0006502Y-0077904D01*
X0006035Y-0074038D02*
X0006035Y-0072637D01*
X0006502Y-0072170D01*
X0007903Y-0072170D01*
X0007903Y-0074038D01*
X0008981Y-0073571D02*
X0008981Y-0072637D01*
X0009448Y-0072170D01*
X0010382Y-0072170D01*
X0010849Y-0072637D01*
X0010849Y-0073571D01*
X0010382Y-0074038D01*
X0009448Y-0074038D01*
X0008981Y-0073571D01*
X0009472Y-0069238D02*
X0011341Y-0069238D01*
X0011341Y-0066435D01*
X0012419Y-0067837D02*
X0012419Y-0068304D01*
X0014287Y-0068304D01*
X0014287Y-0068771D02*
X0014287Y-0067837D01*
X0013820Y-0067370D01*
X0012886Y-0067370D01*
X0012419Y-0067837D01*
X0012886Y-0069238D02*
X0013820Y-0069238D01*
X0014287Y-0068771D01*
X0013329Y-0071235D02*
X0013796Y-0071702D01*
X0013796Y-0073571D01*
X0013329Y-0074038D01*
X0012395Y-0074038D01*
X0011928Y-0073571D01*
X0011928Y-0071702D02*
X0012395Y-0071235D01*
X0013329Y-0071235D01*
X0017821Y-0071235D02*
X0019689Y-0071235D01*
X0018755Y-0071235D02*
X0018755Y-0074038D01*
X0020767Y-0073571D02*
X0021234Y-0074038D01*
X0022636Y-0074038D01*
X0022636Y-0071235D01*
X0021234Y-0071235D01*
X0020767Y-0071702D01*
X0020767Y-0072170D01*
X0021234Y-0072637D01*
X0022636Y-0072637D01*
X0021234Y-0072637D02*
X0020767Y-0073104D01*
X0020767Y-0073571D01*
X0008394Y-0068771D02*
X0007927Y-0069238D01*
X0006993Y-0069238D01*
X0006526Y-0068771D01*
X0006526Y-0067837D01*
X0006993Y-0067370D01*
X0007927Y-0067370D01*
X0008394Y-0067837D01*
X0008394Y-0068771D01*
X0005447Y-0068771D02*
X0004980Y-0069238D01*
X0003579Y-0069238D01*
X0002501Y-0069238D02*
X0002501Y-0066435D01*
X0003579Y-0067370D02*
X0004980Y-0067370D01*
X0005447Y-0067837D01*
X0005447Y-0068771D01*
X0004956Y-0072170D02*
X0003555Y-0072170D01*
X0003088Y-0072637D01*
X0003088Y-0074038D01*
X0002010Y-0073571D02*
X0002010Y-0072637D01*
X0001543Y-0072170D01*
X0000609Y-0072170D01*
X0000142Y-0072637D01*
X0000142Y-0073104D01*
X0002010Y-0073104D01*
X0002010Y-0073571D02*
X0001543Y-0074038D01*
X0000609Y-0074038D01*
X0001100Y-0069238D02*
X0002501Y-0068304D01*
X0001100Y-0067370D01*
X0004956Y-0072170D02*
X0004956Y-0074038D01*
X0004343Y0164076D02*
X0005277Y0164076D01*
X0005744Y0164543D01*
X0005744Y0165477D01*
X0005277Y0165944D01*
X0004343Y0165944D01*
X0003876Y0165477D01*
X0003876Y0165010D01*
X0005744Y0165010D01*
X0006822Y0165477D02*
X0007289Y0165010D01*
X0008690Y0165010D01*
X0007756Y0165010D02*
X0006822Y0164076D01*
X0006822Y0165477D02*
X0006822Y0166411D01*
X0007289Y0166878D01*
X0008690Y0166878D01*
X0008690Y0164076D01*
X0009032Y0168876D02*
X0010433Y0168876D01*
X0010900Y0169343D01*
X0010433Y0169810D01*
X0009032Y0169810D01*
X0009032Y0170277D02*
X0009032Y0168876D01*
X0007954Y0168876D02*
X0007954Y0170744D01*
X0007954Y0169810D02*
X0007020Y0170744D01*
X0006553Y0170744D01*
X0005498Y0170744D02*
X0005498Y0168876D01*
X0005498Y0169810D02*
X0004564Y0170744D01*
X0004097Y0170744D01*
X0003043Y0170744D02*
X0002576Y0170744D01*
X0002576Y0168876D01*
X0003043Y0168876D02*
X0002109Y0168876D01*
X0001079Y0169343D02*
X0001079Y0170277D01*
X0000611Y0170744D01*
X-0000323Y0170744D01*
X-0000790Y0170277D01*
X-0000790Y0169810D01*
X0001079Y0169810D01*
X0001079Y0169343D02*
X0000611Y0168876D01*
X-0000323Y0168876D01*
X-0001868Y0168876D02*
X-0001868Y0170744D01*
X-0002802Y0170744D02*
X-0003269Y0170744D01*
X-0002802Y0170744D02*
X-0001868Y0169810D01*
X-0001083Y0166878D02*
X-0001083Y0164076D01*
X-0000149Y0164076D02*
X-0002017Y0164076D01*
X-0003096Y0164076D02*
X-0003563Y0164076D01*
X-0003563Y0164543D01*
X-0003096Y0164543D01*
X-0003096Y0164076D01*
X-0004569Y0164543D02*
X-0004569Y0166411D01*
X-0005036Y0166878D01*
X-0005970Y0166878D01*
X-0006437Y0166411D01*
X-0004569Y0164543D01*
X-0005036Y0164076D01*
X-0005970Y0164076D01*
X-0006437Y0164543D01*
X-0006437Y0166411D01*
X-0007270Y0168876D02*
X-0008671Y0168876D01*
X-0009138Y0169343D01*
X-0009138Y0169810D01*
X-0008671Y0170277D01*
X-0007270Y0170277D01*
X-0007270Y0171678D02*
X-0008671Y0171678D01*
X-0009138Y0171211D01*
X-0009138Y0170744D01*
X-0008671Y0170277D01*
X-0010216Y0170277D02*
X-0010216Y0169343D01*
X-0010684Y0168876D01*
X-0011618Y0168876D01*
X-0012085Y0169343D01*
X-0012085Y0170277D01*
X-0011618Y0170744D01*
X-0010684Y0170744D01*
X-0010216Y0170277D01*
X-0009923Y0173676D02*
X-0008989Y0173676D01*
X-0009456Y0173676D02*
X-0009456Y0176478D01*
X-0008989Y0176478D01*
X-0007911Y0175077D02*
X-0007443Y0175544D01*
X-0006509Y0175544D01*
X-0006042Y0175077D01*
X-0006042Y0174143D01*
X-0006509Y0173676D01*
X-0007443Y0173676D01*
X-0007911Y0174143D01*
X-0007911Y0175077D01*
X-0007270Y0171678D02*
X-0007270Y0168876D01*
X-0004964Y0173676D02*
X-0004964Y0175077D01*
X-0004497Y0175544D01*
X-0003096Y0175544D01*
X-0003096Y0173676D01*
X-0002017Y0173676D02*
X-0002017Y0175077D01*
X-0001550Y0175544D01*
X-0000616Y0175544D01*
X-0000149Y0175077D01*
X0000929Y0175544D02*
X0002330Y0175544D01*
X0002797Y0175077D01*
X0002797Y0174143D01*
X0002330Y0173676D01*
X0000929Y0173676D01*
X-0000149Y0173676D02*
X-0000149Y0176478D01*
X0002576Y0172145D02*
X0002576Y0171678D01*
X0004343Y0173676D02*
X0005277Y0173676D01*
X0005744Y0174143D01*
X0005744Y0175077D01*
X0005277Y0175544D01*
X0004343Y0175544D01*
X0003876Y0175077D01*
X0003876Y0174610D01*
X0005744Y0174610D01*
X0006822Y0176478D02*
X0008690Y0176478D01*
X0007756Y0176478D02*
X0007756Y0173676D01*
X0009499Y0170744D02*
X0009032Y0170277D01*
X0009499Y0170744D02*
X0010433Y0170744D01*
X0011978Y0171211D02*
X0012446Y0171678D01*
X0013380Y0171678D01*
X0013847Y0171211D01*
X0013847Y0169343D01*
X0013380Y0168876D01*
X0012446Y0168876D01*
X0011978Y0169343D01*
X0012691Y0173676D02*
X0014092Y0174610D01*
X0012691Y0175544D01*
X0014092Y0176478D02*
X0014092Y0173676D01*
X0015171Y0173676D02*
X0016572Y0173676D01*
X0017039Y0174143D01*
X0017039Y0175077D01*
X0016572Y0175544D01*
X0015171Y0175544D01*
X0018117Y0175077D02*
X0018584Y0175544D01*
X0019518Y0175544D01*
X0019985Y0175077D01*
X0019985Y0174143D01*
X0019518Y0173676D01*
X0018584Y0173676D01*
X0018117Y0174143D01*
X0018117Y0175077D01*
X0017872Y0171678D02*
X0019740Y0171678D01*
X0018806Y0171678D02*
X0018806Y0168876D01*
X0020818Y0169343D02*
X0021285Y0168876D01*
X0022686Y0168876D01*
X0022686Y0171678D01*
X0021285Y0171678D01*
X0020818Y0171211D01*
X0020818Y0170744D01*
X0021285Y0170277D01*
X0022686Y0170277D01*
X0021285Y0170277D02*
X0020818Y0169810D01*
X0020818Y0169343D01*
X0021064Y0173676D02*
X0022932Y0173676D01*
X0022932Y0176478D01*
X0024010Y0175077D02*
X0024010Y0174610D01*
X0025878Y0174610D01*
X0025878Y0175077D02*
X0025411Y0175544D01*
X0024477Y0175544D01*
X0024010Y0175077D01*
X0024477Y0173676D02*
X0025411Y0173676D01*
X0025878Y0174143D01*
X0025878Y0175077D01*
X0002797Y0165944D02*
X0001863Y0164076D01*
X0000929Y0165944D01*
X-0000149Y0165944D02*
X-0001083Y0166878D01*
X-0010953Y0174143D02*
X-0011420Y0173676D01*
X-0012354Y0173676D01*
X-0012821Y0174143D01*
X-0012821Y0175077D01*
X-0012354Y0175544D01*
X-0011420Y0175544D01*
X-0010953Y0175077D01*
X-0010953Y0174143D01*
X-0013630Y0169810D02*
X-0013163Y0169343D01*
X-0013630Y0168876D01*
X-0015031Y0168876D01*
X-0015031Y0170277D01*
X-0014564Y0170744D01*
X-0013630Y0170744D01*
X-0013630Y0169810D02*
X-0015031Y0169810D01*
X-0016110Y0169810D02*
X-0017044Y0170744D01*
X-0017511Y0170744D01*
X-0018565Y0170277D02*
X-0019032Y0170744D01*
X-0020433Y0170744D01*
X-0020433Y0171678D02*
X-0020433Y0168876D01*
X-0019032Y0168876D01*
X-0018565Y0169343D01*
X-0018565Y0170277D01*
X-0019278Y0173676D02*
X-0018811Y0174143D01*
X-0018811Y0175077D01*
X-0019278Y0175544D01*
X-0020212Y0175544D01*
X-0020679Y0175077D01*
X-0020679Y0174610D01*
X-0018811Y0174610D01*
X-0019278Y0173676D02*
X-0020212Y0173676D01*
X-0021757Y0173676D02*
X-0023158Y0173676D01*
X-0023625Y0174143D01*
X-0023158Y0174610D01*
X-0022224Y0174610D01*
X-0021757Y0175077D01*
X-0022224Y0175544D01*
X-0023625Y0175544D01*
X-0017780Y0173676D02*
X-0016846Y0173676D01*
X-0017313Y0173676D02*
X-0017313Y0175544D01*
X-0016846Y0175544D01*
X-0017313Y0176478D02*
X-0017313Y0176945D01*
X-0015768Y0175544D02*
X-0015768Y0173209D01*
X-0015301Y0172741D01*
X-0014834Y0172741D01*
X-0014367Y0173676D02*
X-0015768Y0173676D01*
X-0014367Y0173676D02*
X-0013900Y0174143D01*
X-0013900Y0175077D01*
X-0014367Y0175544D01*
X-0015768Y0175544D01*
X-0016110Y0170744D02*
X-0016110Y0168876D01*
D11*
X-0013780Y-0011417D02*
X-0010236Y-0014961D01*
X-0013780Y-0018504D01*
X-0013780Y-0011417D01*
X-0013780Y-0011789D02*
X-0013408Y-0011789D01*
X-0013780Y-0012575D02*
X-0012622Y-0012575D01*
X-0011836Y-0013361D02*
X-0013780Y-0013361D01*
X-0013780Y-0014146D02*
X-0011050Y-0014146D01*
X-0010265Y-0014932D02*
X-0013780Y-0014932D01*
X-0013780Y-0015718D02*
X-0010994Y-0015718D01*
X-0011780Y-0016504D02*
X-0013780Y-0016504D01*
X-0013780Y-0017290D02*
X-0012566Y-0017290D01*
X-0013352Y-0018076D02*
X-0013780Y-0018076D01*
X-0014173Y0039370D02*
X-0014173Y0046457D01*
X-0010630Y0042913D01*
X-0014173Y0039370D01*
X-0014173Y0040082D02*
X-0013462Y0040082D01*
X-0014173Y0040867D02*
X-0012676Y0040867D01*
X-0011890Y0041653D02*
X-0014173Y0041653D01*
X-0014173Y0042439D02*
X-0011104Y0042439D01*
X-0010942Y0043225D02*
X-0014173Y0043225D01*
X-0014173Y0044011D02*
X-0011728Y0044011D01*
X-0012514Y0044797D02*
X-0014173Y0044797D01*
X-0014173Y0045583D02*
X-0013299Y0045583D01*
X-0014085Y0046369D02*
X-0014173Y0046369D01*
M02*
