%
M48
M72
T01C0.01181
T02C0.01969
T03C0.02362
T04C0.04000
%
T01
X-2244Y-65506
X394Y-60630
X2244Y-70472
X7812Y-55450
X12703Y-62205
X10236Y89567
X394Y89567
X-7283Y94488
X-8858Y98425
X-10433Y102362
X-12008Y106299
X-13976Y136220
X-10433Y140945
X-13976Y145669
X-14370Y150591
X-14370Y164370
X-27559Y164370
X-27559Y174213
X-27559Y125000
X-27559Y120079
X787Y115157
X787Y129921
X787Y145669
X5709Y154528
X10630Y145669
X15551Y147638
X15551Y157480
X15551Y164370
X14764Y136220
X10630Y129921
X10630Y115157
X28346Y120079
X28346Y125000
X29331Y170276
X29331Y174213
T02
X0Y1969
X-3937Y1969
X-3937Y-5906
X0Y-5906
X3937Y-5906
X3937Y1969
X7874Y1969
X7874Y-5906
X-7874Y-5906
X-7874Y1969
T03
X5906Y102756
X5906Y106299
X29134Y152362
T04
X5000Y42953
X5000Y32953
X5000Y22953
X5000Y12953
X5000Y-14921
X5000Y-24921
X5000Y-34921
X5000Y-44921
X-5000Y-44921
X-5000Y-34921
X-5000Y-24921
X-5000Y-14921
X-5000Y12953
X-5000Y22953
X-5000Y32953
X-5000Y42953
M30
