G75*
%MOIN*%
%OFA0B0*%
%FSLAX25Y25*%
%IPPOS*%
%LPD*%
%AMOC8*
5,1,8,0,0,1.08239X$1,22.5*
%
%ADD10OC8,0.06362*%
%ADD11C,0.06500*%
%ADD12C,0.03150*%
%ADD13C,0.00787*%
%ADD14C,0.02362*%
%ADD15C,0.04331*%
D10*
X-0005000Y-0044921D03*
X-0005000Y-0034921D03*
X-0005000Y-0024921D03*
X-0005000Y-0014921D03*
X-0005000Y0012953D03*
X-0005000Y0022953D03*
X-0005000Y0032953D03*
X-0005000Y0042953D03*
X0005000Y0042953D03*
X0005000Y0032953D03*
X0005000Y0022953D03*
X0005000Y0012953D03*
X0005000Y-0014921D03*
X0005000Y-0024921D03*
X0005000Y-0034921D03*
X0005000Y-0044921D03*
D11*
X0005000Y-0086281D02*
X0005000Y-0109781D01*
X-0005000Y-0109781D02*
X-0005000Y-0086281D01*
X-0015000Y-0086281D02*
X-0015000Y-0109781D01*
X0015000Y-0109781D02*
X0015000Y-0086281D01*
D12*
X0012703Y-0062205D03*
X0007812Y-0055450D03*
X0002244Y-0070472D03*
X0000394Y-0060630D03*
X-0002244Y-0065506D03*
X0000394Y0089567D03*
X-0007283Y0094488D03*
X-0008858Y0098425D03*
X-0010433Y0102362D03*
X-0012008Y0106299D03*
X-0013976Y0136220D03*
X-0010433Y0140945D03*
X-0013976Y0145669D03*
X-0014370Y0150591D03*
X-0014370Y0164370D03*
X-0027559Y0164370D03*
X-0027559Y0174213D03*
X-0027559Y0125000D03*
X-0027559Y0120079D03*
X0000787Y0115157D03*
X0000787Y0129921D03*
X0000787Y0145669D03*
X0005709Y0154528D03*
X0010630Y0145669D03*
X0015551Y0147638D03*
X0015551Y0157480D03*
X0015551Y0164370D03*
X0014764Y0136220D03*
X0010630Y0129921D03*
X0010630Y0115157D03*
X0010236Y0089567D03*
X0028346Y0120079D03*
X0028346Y0125000D03*
X0029331Y0170276D03*
X0029331Y0174213D03*
D13*
X0009843Y0007874D02*
X0000079Y0007874D01*
X-0005000Y0012953D01*
X-0001507Y0015929D02*
X0000504Y0015929D01*
X0001551Y0016976D01*
X0003029Y0018454D01*
X0003105Y0018378D01*
X0006895Y0018378D01*
X0009575Y0021058D01*
X0009575Y0024848D01*
X0006895Y0027528D01*
X0003105Y0027528D01*
X0000425Y0024848D01*
X0000425Y0021058D01*
X0000501Y0020982D01*
X-0000977Y0019504D01*
X-0001979Y0019504D01*
X-0000425Y0021058D01*
X-0000425Y0024848D01*
X-0003105Y0027528D01*
X-0006895Y0027528D01*
X-0009575Y0024848D01*
X-0009575Y0021058D01*
X-0008021Y0019504D01*
X-0010677Y0019504D01*
X-0012346Y0021173D01*
X-0012346Y0086897D01*
X-0007724Y0091520D01*
X-0006693Y0091520D01*
X-0005602Y0091972D01*
X-0004767Y0092807D01*
X-0004315Y0093898D01*
X-0004315Y0095079D01*
X-0004767Y0096170D01*
X-0005602Y0097005D01*
X-0006141Y0097228D01*
X-0005890Y0097835D01*
X-0005890Y0099016D01*
X-0006319Y0100051D01*
X-0005890Y0100480D01*
X-0005890Y0116218D01*
X-0006937Y0117265D01*
X-0009039Y0119368D01*
X-0009039Y0132505D01*
X-0007858Y0133686D01*
X-0007858Y0138755D01*
X-0008142Y0139038D01*
X-0007916Y0139263D01*
X-0007465Y0140354D01*
X-0007465Y0141535D01*
X-0007916Y0142626D01*
X-0008752Y0143461D01*
X-0009843Y0143913D01*
X-0011024Y0143913D01*
X-0011895Y0143552D01*
X-0011460Y0143988D01*
X-0011008Y0145079D01*
X-0011008Y0146260D01*
X-0011460Y0147351D01*
X-0012295Y0148186D01*
X-0013386Y0148638D01*
X-0014567Y0148638D01*
X-0015658Y0148186D01*
X-0016493Y0147351D01*
X-0016945Y0146260D01*
X-0016945Y0145079D01*
X-0016493Y0143988D01*
X-0015764Y0143259D01*
X-0015764Y0139378D01*
X-0015280Y0138894D01*
X-0015658Y0138737D01*
X-0016493Y0137902D01*
X-0016945Y0136811D01*
X-0016945Y0135630D01*
X-0016493Y0134539D01*
X-0015764Y0133810D01*
X-0015764Y0116582D01*
X-0013795Y0114614D01*
X-0013795Y0108710D01*
X-0014134Y0108371D01*
X-0014134Y0113064D01*
X-0015093Y0115379D01*
X-0015093Y0115379D01*
X-0016865Y0117151D01*
X-0019180Y0118110D01*
X-0029331Y0118110D01*
X-0029638Y0118140D01*
X-0030206Y0118376D01*
X-0030640Y0118810D01*
X-0030875Y0119378D01*
X-0030906Y0119685D01*
X-0030906Y0175197D01*
X-0030875Y0175504D01*
X-0030640Y0176072D01*
X-0030206Y0176506D01*
X-0029638Y0176741D01*
X-0029331Y0176772D01*
X0029331Y0176772D01*
X0029638Y0176741D01*
X0030206Y0176506D01*
X0030640Y0176072D01*
X0030875Y0175504D01*
X0030906Y0175197D01*
X0030906Y0155481D01*
X0029842Y0155921D01*
X0028426Y0155921D01*
X0027118Y0155379D01*
X0026675Y0154937D01*
X0009921Y0154937D01*
X0008975Y0154545D01*
X0008250Y0153821D01*
X0004250Y0149821D01*
X0003526Y0149096D01*
X0003134Y0148150D01*
X0003134Y0108561D01*
X0002888Y0108315D01*
X0002346Y0107007D01*
X0002346Y0105591D01*
X0002787Y0104528D01*
X0002346Y0103464D01*
X0002346Y0102048D01*
X0002888Y0100740D01*
X0003889Y0099739D01*
X0005198Y0099197D01*
X0006613Y0099197D01*
X0007922Y0099739D01*
X0008923Y0100740D01*
X0009465Y0102048D01*
X0009465Y0103464D01*
X0009024Y0104528D01*
X0009465Y0105591D01*
X0009465Y0107007D01*
X0008923Y0108315D01*
X0008283Y0108955D01*
X0008283Y0146571D01*
X0011500Y0149787D01*
X0026675Y0149787D01*
X0027118Y0149345D01*
X0028426Y0148803D01*
X0029842Y0148803D01*
X0030906Y0149244D01*
X0030906Y0119685D01*
X0030875Y0119378D01*
X0030640Y0118810D01*
X0030206Y0118376D01*
X0029638Y0118140D01*
X0029331Y0118110D01*
X0019180Y0118110D01*
X0016865Y0117151D01*
X0016865Y0117151D01*
X0015921Y0116208D01*
X0015921Y0133487D01*
X0016445Y0133704D01*
X0017280Y0134539D01*
X0017732Y0135630D01*
X0017732Y0136811D01*
X0017280Y0137902D01*
X0016445Y0138737D01*
X0015354Y0139189D01*
X0014173Y0139189D01*
X0013082Y0138737D01*
X0012247Y0137902D01*
X0011795Y0136811D01*
X0011795Y0135630D01*
X0012247Y0134539D01*
X0012346Y0134440D01*
X0012346Y0012906D01*
X0009102Y0009661D01*
X0008178Y0009661D01*
X0009575Y0011058D01*
X0009575Y0014848D01*
X0006895Y0017528D01*
X0003105Y0017528D01*
X0000425Y0014848D01*
X0000425Y0011058D01*
X0001822Y0009661D01*
X0000819Y0009661D01*
X-0000501Y0010982D01*
X-0000425Y0011058D01*
X-0000425Y0014848D01*
X-0001507Y0015929D01*
X-0001296Y0015718D02*
X0001296Y0015718D01*
X0001079Y0016504D02*
X0002082Y0016504D01*
X0001865Y0017290D02*
X0002868Y0017290D01*
X0002651Y0018076D02*
X0012346Y0018076D01*
X0012346Y0017290D02*
X0007132Y0017290D01*
X0007918Y0016504D02*
X0012346Y0016504D01*
X0012346Y0015718D02*
X0008704Y0015718D01*
X0009490Y0014932D02*
X0012346Y0014932D01*
X0012346Y0014146D02*
X0009575Y0014146D01*
X0009575Y0013361D02*
X0012346Y0013361D01*
X0012015Y0012575D02*
X0009575Y0012575D01*
X0009575Y0011789D02*
X0011229Y0011789D01*
X0010444Y0011003D02*
X0009520Y0011003D01*
X0009658Y0010217D02*
X0008734Y0010217D01*
X0009843Y0007874D02*
X0014134Y0012165D01*
X0014134Y0135591D01*
X0014764Y0136220D01*
X0016862Y0138321D02*
X0030906Y0138321D01*
X0030906Y0139107D02*
X0015553Y0139107D01*
X0013974Y0139107D02*
X0008283Y0139107D01*
X0008283Y0139892D02*
X0030906Y0139892D01*
X0030906Y0140678D02*
X0008283Y0140678D01*
X0008283Y0141464D02*
X0030906Y0141464D01*
X0030906Y0142250D02*
X0008283Y0142250D01*
X0008283Y0143036D02*
X0030906Y0143036D01*
X0030906Y0143822D02*
X0008283Y0143822D01*
X0008283Y0144608D02*
X0030906Y0144608D01*
X0030906Y0145394D02*
X0008283Y0145394D01*
X0008283Y0146180D02*
X0030906Y0146180D01*
X0030906Y0146966D02*
X0008678Y0146966D01*
X0009464Y0147752D02*
X0030906Y0147752D01*
X0030906Y0148538D02*
X0010250Y0148538D01*
X0011036Y0149323D02*
X0027170Y0149323D01*
X0027676Y0155611D02*
X-0030906Y0155611D01*
X-0030906Y0156397D02*
X0030906Y0156397D01*
X0030906Y0157183D02*
X-0030906Y0157183D01*
X-0030906Y0157968D02*
X0030906Y0157968D01*
X0030906Y0158754D02*
X-0030906Y0158754D01*
X-0030906Y0159540D02*
X0030906Y0159540D01*
X0030906Y0160326D02*
X-0030906Y0160326D01*
X-0030906Y0161112D02*
X0030906Y0161112D01*
X0030906Y0161898D02*
X-0030906Y0161898D01*
X-0030906Y0162684D02*
X0030906Y0162684D01*
X0030906Y0163470D02*
X-0030906Y0163470D01*
X-0030906Y0164256D02*
X0030906Y0164256D01*
X0030906Y0165042D02*
X-0030906Y0165042D01*
X-0030906Y0165828D02*
X0030906Y0165828D01*
X0030906Y0166614D02*
X-0030906Y0166614D01*
X-0030906Y0167399D02*
X0030906Y0167399D01*
X0030906Y0168185D02*
X-0030906Y0168185D01*
X-0030906Y0168971D02*
X0030906Y0168971D01*
X0030906Y0169757D02*
X-0030906Y0169757D01*
X-0030906Y0170543D02*
X0030906Y0170543D01*
X0030906Y0171329D02*
X-0030906Y0171329D01*
X-0030906Y0172115D02*
X0030906Y0172115D01*
X0030906Y0172901D02*
X-0030906Y0172901D01*
X-0030906Y0173687D02*
X0030906Y0173687D01*
X0030906Y0174473D02*
X-0030906Y0174473D01*
X-0030899Y0175259D02*
X0030899Y0175259D01*
X0030651Y0176044D02*
X-0030651Y0176044D01*
X-0030906Y0154825D02*
X0009650Y0154825D01*
X0008468Y0154039D02*
X-0030906Y0154039D01*
X-0030906Y0153253D02*
X0007683Y0153253D01*
X0006897Y0152467D02*
X-0030906Y0152467D01*
X-0030906Y0151681D02*
X0006111Y0151681D01*
X0005325Y0150895D02*
X-0030906Y0150895D01*
X-0030906Y0150109D02*
X0004539Y0150109D01*
X0003753Y0149323D02*
X-0030906Y0149323D01*
X-0030906Y0148538D02*
X-0014809Y0148538D01*
X-0016092Y0147752D02*
X-0030906Y0147752D01*
X-0030906Y0146966D02*
X-0016652Y0146966D01*
X-0016945Y0146180D02*
X-0030906Y0146180D01*
X-0030906Y0145394D02*
X-0016945Y0145394D01*
X-0016750Y0144608D02*
X-0030906Y0144608D01*
X-0030906Y0143822D02*
X-0016327Y0143822D01*
X-0015764Y0143036D02*
X-0030906Y0143036D01*
X-0030906Y0142250D02*
X-0015764Y0142250D01*
X-0015764Y0141464D02*
X-0030906Y0141464D01*
X-0030906Y0140678D02*
X-0015764Y0140678D01*
X-0015764Y0139892D02*
X-0030906Y0139892D01*
X-0030906Y0139107D02*
X-0015493Y0139107D01*
X-0016074Y0138321D02*
X-0030906Y0138321D01*
X-0030906Y0137535D02*
X-0016645Y0137535D01*
X-0016945Y0136749D02*
X-0030906Y0136749D01*
X-0030906Y0135963D02*
X-0016945Y0135963D01*
X-0016757Y0135177D02*
X-0030906Y0135177D01*
X-0030906Y0134391D02*
X-0016345Y0134391D01*
X-0015764Y0133605D02*
X-0030906Y0133605D01*
X-0030906Y0132819D02*
X-0015764Y0132819D01*
X-0015764Y0132033D02*
X-0030906Y0132033D01*
X-0030906Y0131247D02*
X-0015764Y0131247D01*
X-0015764Y0130462D02*
X-0030906Y0130462D01*
X-0030906Y0129676D02*
X-0015764Y0129676D01*
X-0015764Y0128890D02*
X-0030906Y0128890D01*
X-0030906Y0128104D02*
X-0015764Y0128104D01*
X-0015764Y0127318D02*
X-0030906Y0127318D01*
X-0030906Y0126532D02*
X-0015764Y0126532D01*
X-0015764Y0125746D02*
X-0030906Y0125746D01*
X-0030906Y0124960D02*
X-0015764Y0124960D01*
X-0015764Y0124174D02*
X-0030906Y0124174D01*
X-0030906Y0123388D02*
X-0015764Y0123388D01*
X-0015764Y0122602D02*
X-0030906Y0122602D01*
X-0030906Y0121816D02*
X-0015764Y0121816D01*
X-0015764Y0121031D02*
X-0030906Y0121031D01*
X-0030906Y0120245D02*
X-0015764Y0120245D01*
X-0015764Y0119459D02*
X-0030883Y0119459D01*
X-0030503Y0118673D02*
X-0015764Y0118673D01*
X-0015764Y0117887D02*
X-0018641Y0117887D01*
X-0016865Y0117151D02*
X-0016865Y0117151D01*
X-0016815Y0117101D02*
X-0015764Y0117101D01*
X-0016029Y0116315D02*
X-0015496Y0116315D01*
X-0015243Y0115529D02*
X-0014711Y0115529D01*
X-0014829Y0114743D02*
X-0013925Y0114743D01*
X-0013795Y0113957D02*
X-0014504Y0113957D01*
X-0014178Y0113171D02*
X-0013795Y0113171D01*
X-0013795Y0112386D02*
X-0014134Y0112386D01*
X-0014134Y0111600D02*
X-0013795Y0111600D01*
X-0013795Y0110814D02*
X-0014134Y0110814D01*
X-0014134Y0110028D02*
X-0013795Y0110028D01*
X-0013795Y0109242D02*
X-0014134Y0109242D01*
X-0014134Y0108456D02*
X-0014049Y0108456D01*
X-0012008Y0106299D02*
X-0012008Y0115354D01*
X-0013976Y0117323D01*
X-0013976Y0136220D01*
X-0012402Y0133898D02*
X-0012402Y0117975D01*
X-0010433Y0116007D01*
X-0010433Y0108622D01*
X-0009252Y0107441D01*
X-0009252Y0105158D01*
X-0010433Y0103977D01*
X-0010433Y0102362D01*
X-0008858Y0100040D02*
X-0008858Y0098425D01*
X-0008858Y0100040D02*
X-0007677Y0101221D01*
X-0007677Y0115478D01*
X-0010827Y0118627D01*
X-0010827Y0133246D01*
X-0009646Y0134427D01*
X-0009646Y0138014D01*
X-0010433Y0138802D01*
X-0010433Y0140945D01*
X-0009622Y0143822D02*
X0003134Y0143822D01*
X0003134Y0143036D02*
X-0008326Y0143036D01*
X-0007761Y0142250D02*
X0003134Y0142250D01*
X0003134Y0141464D02*
X-0007465Y0141464D01*
X-0007465Y0140678D02*
X0003134Y0140678D01*
X0003134Y0139892D02*
X-0007656Y0139892D01*
X-0008073Y0139107D02*
X0003134Y0139107D01*
X0003134Y0138321D02*
X-0007858Y0138321D01*
X-0007858Y0137535D02*
X0003134Y0137535D01*
X0003134Y0136749D02*
X-0007858Y0136749D01*
X-0007858Y0135963D02*
X0003134Y0135963D01*
X0003134Y0135177D02*
X-0007858Y0135177D01*
X-0007858Y0134391D02*
X0003134Y0134391D01*
X0003134Y0133605D02*
X-0007939Y0133605D01*
X-0008725Y0132819D02*
X0003134Y0132819D01*
X0003134Y0132033D02*
X-0009039Y0132033D01*
X-0009039Y0131247D02*
X0003134Y0131247D01*
X0003134Y0130462D02*
X-0009039Y0130462D01*
X-0009039Y0129676D02*
X0003134Y0129676D01*
X0003134Y0128890D02*
X-0009039Y0128890D01*
X-0009039Y0128104D02*
X0003134Y0128104D01*
X0003134Y0127318D02*
X-0009039Y0127318D01*
X-0009039Y0126532D02*
X0003134Y0126532D01*
X0003134Y0125746D02*
X-0009039Y0125746D01*
X-0009039Y0124960D02*
X0003134Y0124960D01*
X0003134Y0124174D02*
X-0009039Y0124174D01*
X-0009039Y0123388D02*
X0003134Y0123388D01*
X0003134Y0122602D02*
X-0009039Y0122602D01*
X-0009039Y0121816D02*
X0003134Y0121816D01*
X0003134Y0121031D02*
X-0009039Y0121031D01*
X-0009039Y0120245D02*
X0003134Y0120245D01*
X0003134Y0119459D02*
X-0009039Y0119459D01*
X-0008344Y0118673D02*
X0003134Y0118673D01*
X0003134Y0117887D02*
X-0007558Y0117887D01*
X-0006773Y0117101D02*
X0003134Y0117101D01*
X0003134Y0116315D02*
X-0005987Y0116315D01*
X-0005890Y0115529D02*
X0003134Y0115529D01*
X0003134Y0114743D02*
X-0005890Y0114743D01*
X-0005890Y0113957D02*
X0003134Y0113957D01*
X0003134Y0113171D02*
X-0005890Y0113171D01*
X-0005890Y0112386D02*
X0003134Y0112386D01*
X0003134Y0111600D02*
X-0005890Y0111600D01*
X-0005890Y0110814D02*
X0003134Y0110814D01*
X0003134Y0110028D02*
X-0005890Y0110028D01*
X-0005890Y0109242D02*
X0003134Y0109242D01*
X0003029Y0108456D02*
X-0005890Y0108456D01*
X-0005890Y0107670D02*
X0002621Y0107670D01*
X0002346Y0106884D02*
X-0005890Y0106884D01*
X-0005890Y0106098D02*
X0002346Y0106098D01*
X0002462Y0105312D02*
X-0005890Y0105312D01*
X-0005890Y0104526D02*
X0002787Y0104526D01*
X0002461Y0103741D02*
X-0005890Y0103741D01*
X-0005890Y0102955D02*
X0002346Y0102955D01*
X0002346Y0102169D02*
X-0005890Y0102169D01*
X-0005890Y0101383D02*
X0002622Y0101383D01*
X0003031Y0100597D02*
X-0005890Y0100597D01*
X-0006219Y0099811D02*
X0003817Y0099811D01*
X0007994Y0099811D02*
X0012346Y0099811D01*
X0012346Y0100597D02*
X0008780Y0100597D01*
X0009189Y0101383D02*
X0012346Y0101383D01*
X0012346Y0102169D02*
X0009465Y0102169D01*
X0009465Y0102955D02*
X0012346Y0102955D01*
X0012346Y0103741D02*
X0009350Y0103741D01*
X0009024Y0104526D02*
X0012346Y0104526D01*
X0012346Y0105312D02*
X0009349Y0105312D01*
X0009465Y0106098D02*
X0012346Y0106098D01*
X0012346Y0106884D02*
X0009465Y0106884D01*
X0009190Y0107670D02*
X0012346Y0107670D01*
X0012346Y0108456D02*
X0008782Y0108456D01*
X0008283Y0109242D02*
X0012346Y0109242D01*
X0012346Y0110028D02*
X0008283Y0110028D01*
X0008283Y0110814D02*
X0012346Y0110814D01*
X0012346Y0111600D02*
X0008283Y0111600D01*
X0008283Y0112386D02*
X0012346Y0112386D01*
X0012346Y0113171D02*
X0008283Y0113171D01*
X0008283Y0113957D02*
X0012346Y0113957D01*
X0012346Y0114743D02*
X0008283Y0114743D01*
X0008283Y0115529D02*
X0012346Y0115529D01*
X0012346Y0116315D02*
X0008283Y0116315D01*
X0008283Y0117101D02*
X0012346Y0117101D01*
X0012346Y0117887D02*
X0008283Y0117887D01*
X0008283Y0118673D02*
X0012346Y0118673D01*
X0012346Y0119459D02*
X0008283Y0119459D01*
X0008283Y0120245D02*
X0012346Y0120245D01*
X0012346Y0121031D02*
X0008283Y0121031D01*
X0008283Y0121816D02*
X0012346Y0121816D01*
X0012346Y0122602D02*
X0008283Y0122602D01*
X0008283Y0123388D02*
X0012346Y0123388D01*
X0012346Y0124174D02*
X0008283Y0124174D01*
X0008283Y0124960D02*
X0012346Y0124960D01*
X0012346Y0125746D02*
X0008283Y0125746D01*
X0008283Y0126532D02*
X0012346Y0126532D01*
X0012346Y0127318D02*
X0008283Y0127318D01*
X0008283Y0128104D02*
X0012346Y0128104D01*
X0012346Y0128890D02*
X0008283Y0128890D01*
X0008283Y0129676D02*
X0012346Y0129676D01*
X0012346Y0130462D02*
X0008283Y0130462D01*
X0008283Y0131247D02*
X0012346Y0131247D01*
X0012346Y0132033D02*
X0008283Y0132033D01*
X0008283Y0132819D02*
X0012346Y0132819D01*
X0012346Y0133605D02*
X0008283Y0133605D01*
X0008283Y0134391D02*
X0012346Y0134391D01*
X0011983Y0135177D02*
X0008283Y0135177D01*
X0008283Y0135963D02*
X0011795Y0135963D01*
X0011795Y0136749D02*
X0008283Y0136749D01*
X0008283Y0137535D02*
X0012095Y0137535D01*
X0012666Y0138321D02*
X0008283Y0138321D01*
X0003134Y0144608D02*
X-0011203Y0144608D01*
X-0011244Y0143822D02*
X-0011626Y0143822D01*
X-0011008Y0145394D02*
X0003134Y0145394D01*
X0003134Y0146180D02*
X-0011008Y0146180D01*
X-0011300Y0146966D02*
X0003134Y0146966D01*
X0003134Y0147752D02*
X-0011861Y0147752D01*
X-0013144Y0148538D02*
X0003294Y0148538D01*
X0015921Y0132819D02*
X0030906Y0132819D01*
X0030906Y0132033D02*
X0015921Y0132033D01*
X0015921Y0131247D02*
X0030906Y0131247D01*
X0030906Y0130462D02*
X0015921Y0130462D01*
X0015921Y0129676D02*
X0030906Y0129676D01*
X0030906Y0128890D02*
X0015921Y0128890D01*
X0015921Y0128104D02*
X0030906Y0128104D01*
X0030906Y0127318D02*
X0015921Y0127318D01*
X0015921Y0126532D02*
X0030906Y0126532D01*
X0030906Y0125746D02*
X0015921Y0125746D01*
X0015921Y0124960D02*
X0030906Y0124960D01*
X0030906Y0124174D02*
X0015921Y0124174D01*
X0015921Y0123388D02*
X0030906Y0123388D01*
X0030906Y0122602D02*
X0015921Y0122602D01*
X0015921Y0121816D02*
X0030906Y0121816D01*
X0030906Y0121031D02*
X0015921Y0121031D01*
X0015921Y0120245D02*
X0030906Y0120245D01*
X0030883Y0119459D02*
X0015921Y0119459D01*
X0015921Y0118673D02*
X0030503Y0118673D01*
X0030906Y0133605D02*
X0016207Y0133605D01*
X0017133Y0134391D02*
X0030906Y0134391D01*
X0030906Y0135177D02*
X0017545Y0135177D01*
X0017732Y0135963D02*
X0030906Y0135963D01*
X0030906Y0136749D02*
X0017732Y0136749D01*
X0017432Y0137535D02*
X0030906Y0137535D01*
X0030906Y0155611D02*
X0030591Y0155611D01*
X0018641Y0117887D02*
X0015921Y0117887D01*
X0015921Y0117101D02*
X0016815Y0117101D01*
X0016029Y0116315D02*
X0015921Y0116315D01*
X0012346Y0099025D02*
X-0005894Y0099025D01*
X-0005890Y0098239D02*
X0012346Y0098239D01*
X0012346Y0097453D02*
X-0006048Y0097453D01*
X-0005264Y0096667D02*
X0012346Y0096667D01*
X0012346Y0095881D02*
X-0004647Y0095881D01*
X-0004322Y0095095D02*
X0012346Y0095095D01*
X0012346Y0094310D02*
X-0004315Y0094310D01*
X-0004470Y0093524D02*
X0012346Y0093524D01*
X0012346Y0092738D02*
X-0004836Y0092738D01*
X-0005650Y0091952D02*
X0012346Y0091952D01*
X0012346Y0091166D02*
X-0008078Y0091166D01*
X-0008864Y0090380D02*
X0012346Y0090380D01*
X0012346Y0089594D02*
X-0009650Y0089594D01*
X-0010436Y0088808D02*
X0012346Y0088808D01*
X0012346Y0088022D02*
X-0011222Y0088022D01*
X-0012008Y0087236D02*
X0012346Y0087236D01*
X0012346Y0086450D02*
X-0012346Y0086450D01*
X-0012346Y0085665D02*
X0012346Y0085665D01*
X0012346Y0084879D02*
X-0012346Y0084879D01*
X-0012346Y0084093D02*
X0012346Y0084093D01*
X0012346Y0083307D02*
X-0012346Y0083307D01*
X-0012346Y0082521D02*
X0012346Y0082521D01*
X0012346Y0081735D02*
X-0012346Y0081735D01*
X-0012346Y0080949D02*
X0012346Y0080949D01*
X0012346Y0080163D02*
X-0012346Y0080163D01*
X-0012346Y0079377D02*
X0012346Y0079377D01*
X0012346Y0078591D02*
X-0012346Y0078591D01*
X-0012346Y0077805D02*
X0012346Y0077805D01*
X0012346Y0077019D02*
X-0012346Y0077019D01*
X-0012346Y0076234D02*
X0012346Y0076234D01*
X0012346Y0075448D02*
X-0012346Y0075448D01*
X-0012346Y0074662D02*
X0012346Y0074662D01*
X0012346Y0073876D02*
X-0012346Y0073876D01*
X-0012346Y0073090D02*
X0012346Y0073090D01*
X0012346Y0072304D02*
X-0012346Y0072304D01*
X-0012346Y0071518D02*
X0012346Y0071518D01*
X0012346Y0070732D02*
X-0012346Y0070732D01*
X-0012346Y0069946D02*
X0012346Y0069946D01*
X0012346Y0069160D02*
X-0012346Y0069160D01*
X-0012346Y0068374D02*
X0012346Y0068374D01*
X0012346Y0067589D02*
X-0012346Y0067589D01*
X-0012346Y0066803D02*
X0012346Y0066803D01*
X0012346Y0066017D02*
X-0012346Y0066017D01*
X-0012346Y0065231D02*
X0012346Y0065231D01*
X0012346Y0064445D02*
X-0012346Y0064445D01*
X-0012346Y0063659D02*
X0012346Y0063659D01*
X0012346Y0062873D02*
X-0012346Y0062873D01*
X-0012346Y0062087D02*
X0012346Y0062087D01*
X0012346Y0061301D02*
X-0012346Y0061301D01*
X-0012346Y0060515D02*
X0012346Y0060515D01*
X0012346Y0059729D02*
X-0012346Y0059729D01*
X-0012346Y0058943D02*
X0012346Y0058943D01*
X0012346Y0058158D02*
X-0012346Y0058158D01*
X-0012346Y0057372D02*
X0012346Y0057372D01*
X0012346Y0056586D02*
X-0012346Y0056586D01*
X-0012346Y0055800D02*
X0012346Y0055800D01*
X0012346Y0055014D02*
X-0012346Y0055014D01*
X-0012346Y0054228D02*
X0012346Y0054228D01*
X0012346Y0053442D02*
X-0012346Y0053442D01*
X-0012346Y0052656D02*
X0012346Y0052656D01*
X0012346Y0051870D02*
X-0012346Y0051870D01*
X-0012346Y0051084D02*
X0012346Y0051084D01*
X0012346Y0050298D02*
X-0012346Y0050298D01*
X-0012346Y0049513D02*
X0012346Y0049513D01*
X0012346Y0048727D02*
X-0012346Y0048727D01*
X-0012346Y0047941D02*
X0012346Y0047941D01*
X0012346Y0047155D02*
X0007268Y0047155D01*
X0006895Y0047528D02*
X0003105Y0047528D01*
X0000425Y0044848D01*
X0000425Y0041058D01*
X0003105Y0038378D01*
X0006895Y0038378D01*
X0009575Y0041058D01*
X0009575Y0044848D01*
X0006895Y0047528D01*
X0008054Y0046369D02*
X0012346Y0046369D01*
X0012346Y0045583D02*
X0008840Y0045583D01*
X0009575Y0044797D02*
X0012346Y0044797D01*
X0012346Y0044011D02*
X0009575Y0044011D01*
X0009575Y0043225D02*
X0012346Y0043225D01*
X0012346Y0042439D02*
X0009575Y0042439D01*
X0009575Y0041653D02*
X0012346Y0041653D01*
X0012346Y0040867D02*
X0009384Y0040867D01*
X0008599Y0040082D02*
X0012346Y0040082D01*
X0012346Y0039296D02*
X0007813Y0039296D01*
X0007027Y0038510D02*
X0012346Y0038510D01*
X0012346Y0037724D02*
X-0012346Y0037724D01*
X-0012346Y0038510D02*
X-0007004Y0038510D01*
X-0006888Y0038394D02*
X-0009559Y0041064D01*
X-0009559Y0042559D01*
X-0005394Y0042559D01*
X-0005394Y0043346D01*
X-0009559Y0043346D01*
X-0009559Y0044841D01*
X-0006888Y0047512D01*
X-0005394Y0047512D01*
X-0005394Y0043347D01*
X-0004606Y0043347D01*
X-0004606Y0047512D01*
X-0003112Y0047512D01*
X-0000441Y0044841D01*
X-0000441Y0043346D01*
X-0004606Y0043346D01*
X-0004606Y0042559D01*
X-0000441Y0042559D01*
X-0000441Y0041064D01*
X-0003112Y0038394D01*
X-0004606Y0038394D01*
X-0004606Y0042559D01*
X-0005394Y0042559D01*
X-0005394Y0038394D01*
X-0006888Y0038394D01*
X-0006895Y0037528D02*
X-0009575Y0034848D01*
X-0009575Y0031058D01*
X-0006895Y0028378D01*
X-0003105Y0028378D01*
X-0000425Y0031058D01*
X-0000425Y0034848D01*
X-0003105Y0037528D01*
X-0006895Y0037528D01*
X-0007485Y0036938D02*
X-0012346Y0036938D01*
X-0012346Y0036152D02*
X-0008270Y0036152D01*
X-0009056Y0035366D02*
X-0012346Y0035366D01*
X-0012346Y0034580D02*
X-0009575Y0034580D01*
X-0009575Y0033794D02*
X-0012346Y0033794D01*
X-0012346Y0033008D02*
X-0009575Y0033008D01*
X-0009575Y0032222D02*
X-0012346Y0032222D01*
X-0012346Y0031437D02*
X-0009575Y0031437D01*
X-0009168Y0030651D02*
X-0012346Y0030651D01*
X-0012346Y0029865D02*
X-0008382Y0029865D01*
X-0007596Y0029079D02*
X-0012346Y0029079D01*
X-0012346Y0028293D02*
X0012346Y0028293D01*
X0012346Y0029079D02*
X0007596Y0029079D01*
X0006895Y0028378D02*
X0009575Y0031058D01*
X0009575Y0034848D01*
X0006895Y0037528D01*
X0003105Y0037528D01*
X0000425Y0034848D01*
X0000425Y0031058D01*
X0003105Y0028378D01*
X0006895Y0028378D01*
X0006916Y0027507D02*
X0012346Y0027507D01*
X0012346Y0026721D02*
X0007701Y0026721D01*
X0008487Y0025935D02*
X0012346Y0025935D01*
X0012346Y0025149D02*
X0009273Y0025149D01*
X0009575Y0024363D02*
X0012346Y0024363D01*
X0012346Y0023577D02*
X0009575Y0023577D01*
X0009575Y0022791D02*
X0012346Y0022791D01*
X0012346Y0022006D02*
X0009575Y0022006D01*
X0009575Y0021220D02*
X0012346Y0021220D01*
X0012346Y0020434D02*
X0008951Y0020434D01*
X0008165Y0019648D02*
X0012346Y0019648D01*
X0012346Y0018862D02*
X0007379Y0018862D01*
X0005000Y0022953D02*
X-0000236Y0017717D01*
X-0011417Y0017717D01*
X-0014134Y0020433D01*
X-0014134Y0087638D01*
X-0007283Y0094488D01*
X-0012402Y0133898D02*
X-0011220Y0135079D01*
X-0011220Y0137362D01*
X-0013976Y0140118D01*
X-0013976Y0145669D01*
X-0012346Y0047155D02*
X-0007245Y0047155D01*
X-0008031Y0046369D02*
X-0012346Y0046369D01*
X-0012346Y0045583D02*
X-0008817Y0045583D01*
X-0009559Y0044797D02*
X-0012346Y0044797D01*
X-0012346Y0044011D02*
X-0009559Y0044011D01*
X-0009559Y0042439D02*
X-0012346Y0042439D01*
X-0012346Y0041653D02*
X-0009559Y0041653D01*
X-0009362Y0040867D02*
X-0012346Y0040867D01*
X-0012346Y0040082D02*
X-0008576Y0040082D01*
X-0007790Y0039296D02*
X-0012346Y0039296D01*
X-0012346Y0043225D02*
X-0005394Y0043225D01*
X-0005394Y0042439D02*
X-0004606Y0042439D01*
X-0004606Y0041653D02*
X-0005394Y0041653D01*
X-0005394Y0040867D02*
X-0004606Y0040867D01*
X-0004606Y0040082D02*
X-0005394Y0040082D01*
X-0005394Y0039296D02*
X-0004606Y0039296D01*
X-0004606Y0038510D02*
X-0005394Y0038510D01*
X-0002996Y0038510D02*
X0002973Y0038510D01*
X0002187Y0039296D02*
X-0002210Y0039296D01*
X-0001424Y0040082D02*
X0001401Y0040082D01*
X0000616Y0040867D02*
X-0000638Y0040867D01*
X-0000441Y0041653D02*
X0000425Y0041653D01*
X0000425Y0042439D02*
X-0000441Y0042439D01*
X0000425Y0043225D02*
X-0004606Y0043225D01*
X-0004606Y0044011D02*
X-0005394Y0044011D01*
X-0005394Y0044797D02*
X-0004606Y0044797D01*
X-0004606Y0045583D02*
X-0005394Y0045583D01*
X-0005394Y0046369D02*
X-0004606Y0046369D01*
X-0004606Y0047155D02*
X-0005394Y0047155D01*
X-0002755Y0047155D02*
X0002732Y0047155D01*
X0001946Y0046369D02*
X-0001969Y0046369D01*
X-0001183Y0045583D02*
X0001160Y0045583D01*
X0000425Y0044797D02*
X-0000441Y0044797D01*
X-0000441Y0044011D02*
X0000425Y0044011D01*
X0002515Y0036938D02*
X-0002515Y0036938D01*
X-0001730Y0036152D02*
X0001730Y0036152D01*
X0000944Y0035366D02*
X-0000944Y0035366D01*
X-0000425Y0034580D02*
X0000425Y0034580D01*
X0000425Y0033794D02*
X-0000425Y0033794D01*
X-0000425Y0033008D02*
X0000425Y0033008D01*
X0000425Y0032222D02*
X-0000425Y0032222D01*
X-0000425Y0031437D02*
X0000425Y0031437D01*
X0000832Y0030651D02*
X-0000832Y0030651D01*
X-0001618Y0029865D02*
X0001618Y0029865D01*
X0002404Y0029079D02*
X-0002404Y0029079D01*
X-0003084Y0027507D02*
X0003084Y0027507D01*
X0002299Y0026721D02*
X-0002299Y0026721D01*
X-0001513Y0025935D02*
X0001513Y0025935D01*
X0000727Y0025149D02*
X-0000727Y0025149D01*
X-0000425Y0024363D02*
X0000425Y0024363D01*
X0000425Y0023577D02*
X-0000425Y0023577D01*
X-0000425Y0022791D02*
X0000425Y0022791D01*
X0000425Y0022006D02*
X-0000425Y0022006D01*
X-0000425Y0021220D02*
X0000425Y0021220D01*
X-0000047Y0020434D02*
X-0001049Y0020434D01*
X-0000833Y0019648D02*
X-0001835Y0019648D01*
X-0000510Y0014932D02*
X0000510Y0014932D01*
X0000425Y0014146D02*
X-0000425Y0014146D01*
X-0000425Y0013361D02*
X0000425Y0013361D01*
X0000425Y0012575D02*
X-0000425Y0012575D01*
X-0000425Y0011789D02*
X0000425Y0011789D01*
X0000480Y0011003D02*
X-0000480Y0011003D01*
X0000264Y0010217D02*
X0001266Y0010217D01*
X-0006916Y0027507D02*
X-0012346Y0027507D01*
X-0012346Y0026721D02*
X-0007701Y0026721D01*
X-0008487Y0025935D02*
X-0012346Y0025935D01*
X-0012346Y0025149D02*
X-0009273Y0025149D01*
X-0009575Y0024363D02*
X-0012346Y0024363D01*
X-0012346Y0023577D02*
X-0009575Y0023577D01*
X-0009575Y0022791D02*
X-0012346Y0022791D01*
X-0012346Y0022006D02*
X-0009575Y0022006D01*
X-0009575Y0021220D02*
X-0012346Y0021220D01*
X-0011607Y0020434D02*
X-0008951Y0020434D01*
X-0008165Y0019648D02*
X-0010821Y0019648D01*
X0005000Y-0024921D02*
X0012703Y-0032624D01*
X0012703Y-0062205D01*
X0007812Y-0066080D02*
X0015000Y-0073268D01*
X0015000Y-0098031D01*
X0005000Y-0098031D02*
X0005000Y-0068386D01*
X0004331Y-0067717D01*
X0004331Y-0054724D01*
X0006361Y-0052694D01*
X0007936Y-0052694D01*
X0009843Y-0050787D01*
X0009843Y-0039764D01*
X0005000Y-0034921D01*
X0000000Y-0039921D02*
X0000000Y-0060236D01*
X0000394Y-0060630D01*
X-0002244Y-0065506D02*
X0002244Y-0069995D01*
X0002244Y-0070472D01*
X0007812Y-0066080D02*
X0007812Y-0055450D01*
X0000000Y-0039921D02*
X-0005000Y-0034921D01*
X-0005000Y-0044921D02*
X-0005000Y-0098031D01*
X0008382Y0029865D02*
X0012346Y0029865D01*
X0012346Y0030651D02*
X0009168Y0030651D01*
X0009575Y0031437D02*
X0012346Y0031437D01*
X0012346Y0032222D02*
X0009575Y0032222D01*
X0009575Y0033008D02*
X0012346Y0033008D01*
X0012346Y0033794D02*
X0009575Y0033794D01*
X0009575Y0034580D02*
X0012346Y0034580D01*
X0012346Y0035366D02*
X0009056Y0035366D01*
X0008270Y0036152D02*
X0012346Y0036152D01*
X0012346Y0036938D02*
X0007485Y0036938D01*
D14*
X0005906Y0102756D02*
X0005906Y0105906D01*
X0005906Y0106299D02*
X0005709Y0106496D01*
X0005709Y0147638D01*
X0010433Y0152362D01*
X0029134Y0152362D01*
D15*
X0029134Y0152362D03*
X0005906Y0106299D03*
X0005906Y0102756D03*
M02*
