G75*
%MOIN*%
%OFA0B0*%
%FSLAX25Y25*%
%IPPOS*%
%LPD*%
%AMOC8*
5,1,8,0,0,1.08239X$1,22.5*
%
%ADD10C,0.02756*%
%ADD11OC8,0.07150*%
%ADD12C,0.07287*%
D10*
X0000000Y0001969D03*
X-0003937Y0001969D03*
X-0003937Y-0005906D03*
X0000000Y-0005906D03*
X0003937Y-0005906D03*
X0003937Y0001969D03*
X0007874Y0001969D03*
X0007874Y-0005906D03*
X-0007874Y-0005906D03*
X-0007874Y0001969D03*
D11*
X-0005000Y0012953D03*
X-0005000Y0022953D03*
X-0005000Y0032953D03*
X-0005000Y0042953D03*
X0005000Y0042953D03*
X0005000Y0032953D03*
X0005000Y0022953D03*
X0005000Y0012953D03*
X0005000Y-0014921D03*
X0005000Y-0024921D03*
X0005000Y-0034921D03*
X0005000Y-0044921D03*
X-0005000Y-0044921D03*
X-0005000Y-0034921D03*
X-0005000Y-0024921D03*
X-0005000Y-0014921D03*
D12*
X-0005000Y-0086281D02*
X-0005000Y-0109781D01*
X-0005000Y-0109781D01*
X-0005000Y-0086281D01*
X-0005000Y-0086281D01*
X-0005000Y-0102495D02*
X-0005000Y-0102495D01*
X-0005000Y-0095209D02*
X-0005000Y-0095209D01*
X-0005000Y-0087923D02*
X-0005000Y-0087923D01*
X-0015000Y-0086281D02*
X-0015000Y-0109781D01*
X-0015000Y-0109781D01*
X-0015000Y-0086281D01*
X-0015000Y-0086281D01*
X-0015000Y-0102495D02*
X-0015000Y-0102495D01*
X-0015000Y-0095209D02*
X-0015000Y-0095209D01*
X-0015000Y-0087923D02*
X-0015000Y-0087923D01*
X0005000Y-0086281D02*
X0005000Y-0109781D01*
X0005000Y-0109781D01*
X0005000Y-0086281D01*
X0005000Y-0086281D01*
X0005000Y-0102495D02*
X0005000Y-0102495D01*
X0005000Y-0095209D02*
X0005000Y-0095209D01*
X0005000Y-0087923D02*
X0005000Y-0087923D01*
X0015000Y-0086281D02*
X0015000Y-0109781D01*
X0015000Y-0109781D01*
X0015000Y-0086281D01*
X0015000Y-0086281D01*
X0015000Y-0102495D02*
X0015000Y-0102495D01*
X0015000Y-0095209D02*
X0015000Y-0095209D01*
X0015000Y-0087923D02*
X0015000Y-0087923D01*
M02*
