G75*
%MOIN*%
%OFA0B0*%
%FSLAX25Y25*%
%IPPOS*%
%LPD*%
%AMOC8*
5,1,8,0,0,1.08239X$1,22.5*
%
%ADD10C,0.00787*%
%ADD11C,0.00800*%
%ADD12C,0.00591*%
%ADD13C,0.00600*%
%ADD14C,0.00500*%
%ADD15C,0.00400*%
D10*
X-0018504Y-0077165D02*
X-0014961Y-0080709D01*
X-0011417Y-0077165D01*
X-0018504Y-0077165D01*
X-0017864Y-0077805D02*
X-0012057Y-0077805D01*
X-0012843Y-0078591D02*
X-0017078Y-0078591D01*
X-0016292Y-0079377D02*
X-0013629Y-0079377D01*
X-0014415Y-0080163D02*
X-0015506Y-0080163D01*
X-0013780Y-0018504D02*
X-0010236Y-0014961D01*
X-0013780Y-0011417D01*
X-0013780Y-0018504D01*
X-0013780Y-0018076D02*
X-0013352Y-0018076D01*
X-0013780Y-0017290D02*
X-0012566Y-0017290D01*
X-0011780Y-0016504D02*
X-0013780Y-0016504D01*
X-0013780Y-0015718D02*
X-0010994Y-0015718D01*
X-0010265Y-0014932D02*
X-0013780Y-0014932D01*
X-0013780Y-0014146D02*
X-0011050Y-0014146D01*
X-0011836Y-0013361D02*
X-0013780Y-0013361D01*
X-0013780Y-0012575D02*
X-0012622Y-0012575D01*
X-0013408Y-0011789D02*
X-0013780Y-0011789D01*
X-0014173Y0039370D02*
X-0010630Y0042913D01*
X-0014173Y0046457D01*
X-0014173Y0039370D01*
X-0014173Y0040082D02*
X-0013462Y0040082D01*
X-0014173Y0040867D02*
X-0012676Y0040867D01*
X-0011890Y0041653D02*
X-0014173Y0041653D01*
X-0014173Y0042439D02*
X-0011104Y0042439D01*
X-0010942Y0043225D02*
X-0014173Y0043225D01*
X-0014173Y0044011D02*
X-0011728Y0044011D01*
X-0012514Y0044797D02*
X-0014173Y0044797D01*
X-0014173Y0045583D02*
X-0013299Y0045583D01*
X-0014085Y0046369D02*
X-0014173Y0046369D01*
X-0014173Y0121654D02*
X-0015945Y0121654D01*
X-0022638Y0167913D02*
X-0022638Y0178740D01*
X0022638Y0178740D01*
X0022638Y0167913D01*
X0022638Y0178740D02*
X0022638Y0198425D01*
X-0022638Y0198425D01*
X-0022638Y0178740D01*
X0014173Y0121654D02*
X0015945Y0121654D01*
D11*
X-0006214Y0114180D02*
X-0008833Y0114180D01*
X-0007523Y0114180D02*
X-0007523Y0118107D01*
X-0008833Y0116798D01*
X-0010564Y0118107D02*
X-0010564Y0114180D01*
X-0013183Y0114180D02*
X-0013183Y0118107D01*
X-0011873Y0116798D01*
X-0010564Y0118107D01*
D12*
X0026378Y0157480D02*
X0026378Y0168504D01*
X0028346Y0168504D01*
X0029921Y0168504D02*
X0031890Y0168504D01*
X0031890Y0157480D01*
X0029921Y0157480D01*
X0028346Y0157480D02*
X0026378Y0157480D01*
D13*
X0007500Y0007953D02*
X-0007500Y0007953D01*
X-0010000Y0010453D01*
X-0010000Y0015453D01*
X-0007500Y0017953D01*
X0007500Y0017953D01*
X0010000Y0015453D01*
X0010000Y0010453D01*
X0007500Y0007953D01*
X0007500Y0017953D02*
X0010000Y0020453D01*
X0010000Y0025453D01*
X0007500Y0027953D01*
X-0007500Y0027953D01*
X-0010000Y0025453D01*
X-0010000Y0020453D01*
X-0007500Y0017953D01*
X-0007500Y0027953D02*
X-0010000Y0030453D01*
X-0010000Y0035453D01*
X-0007500Y0037953D01*
X0007500Y0037953D01*
X0010000Y0035453D01*
X0010000Y0030453D01*
X0007500Y0027953D01*
X0007500Y0037953D02*
X0010000Y0040453D01*
X0010000Y0045453D01*
X0007500Y0047953D01*
X-0007500Y0047953D01*
X-0010000Y0045453D01*
X-0010000Y0040453D01*
X-0007500Y0037953D01*
X-0007500Y-0009921D02*
X0007500Y-0009921D01*
X0010000Y-0012421D01*
X0010000Y-0017421D01*
X0007500Y-0019921D01*
X-0007500Y-0019921D01*
X-0010000Y-0022421D01*
X-0010000Y-0027421D01*
X-0007500Y-0029921D01*
X0007500Y-0029921D01*
X0010000Y-0032421D01*
X0010000Y-0037421D01*
X0007500Y-0039921D01*
X0010000Y-0042421D01*
X0010000Y-0047421D01*
X0007500Y-0049921D01*
X-0007500Y-0049921D01*
X-0010000Y-0047421D01*
X-0010000Y-0042421D01*
X-0007500Y-0039921D01*
X0007500Y-0039921D01*
X0007500Y-0029921D02*
X0010000Y-0027421D01*
X0010000Y-0022421D01*
X0007500Y-0019921D01*
X-0007500Y-0019921D02*
X-0010000Y-0017421D01*
X-0010000Y-0012421D01*
X-0007500Y-0009921D01*
X-0007500Y-0029921D02*
X-0010000Y-0032421D01*
X-0010000Y-0037421D01*
X-0007500Y-0039921D01*
X0027429Y0143132D02*
X0029655Y0143132D01*
X0030212Y0143688D01*
X0030212Y0144801D01*
X0029655Y0145358D01*
X0030212Y0146757D02*
X0030212Y0148983D01*
X0030212Y0147870D02*
X0026872Y0147870D01*
X0027985Y0146757D01*
X0027429Y0145358D02*
X0026872Y0144801D01*
X0026872Y0143688D01*
X0027429Y0143132D01*
D14*
X0004069Y0053770D02*
X0004069Y0049266D01*
X0002568Y0049266D02*
X0005571Y0049266D01*
X0002568Y0052268D02*
X0004069Y0053770D01*
X0000967Y0053019D02*
X0000967Y0051518D01*
X0000216Y0050767D01*
X-0002036Y0050767D01*
X-0002036Y0049266D02*
X-0002036Y0053770D01*
X0000216Y0053770D01*
X0000967Y0053019D01*
X-0003637Y0053770D02*
X-0005138Y0053770D01*
X-0004388Y0053770D02*
X-0004388Y0050016D01*
X-0005138Y0049266D01*
X-0005889Y0049266D01*
X-0006640Y0050016D01*
X-0004863Y-0051250D02*
X-0003362Y-0051250D01*
X-0004112Y-0051250D02*
X-0004112Y-0055003D01*
X-0004863Y-0055754D01*
X-0005614Y-0055754D01*
X-0006364Y-0055003D01*
X-0001760Y-0054253D02*
X0000492Y-0054253D01*
X0001242Y-0053502D01*
X0001242Y-0052001D01*
X0000492Y-0051250D01*
X-0001760Y-0051250D01*
X-0001760Y-0055754D01*
X0002844Y-0055754D02*
X0005846Y-0052751D01*
X0005846Y-0052001D01*
X0005096Y-0051250D01*
X0003594Y-0051250D01*
X0002844Y-0052001D01*
X0002844Y-0055754D02*
X0005846Y-0055754D01*
X0025039Y-0081890D02*
X0025039Y-0113386D01*
X0025039Y-0115906D01*
X-0025039Y-0115906D01*
X-0025039Y-0113386D01*
X-0025039Y-0081890D01*
X0025039Y-0081890D01*
D15*
X0023894Y-0080115D02*
X0020825Y-0080115D01*
X0022360Y-0080115D02*
X0022360Y-0075511D01*
X0020825Y-0077046D01*
X0019291Y-0075511D02*
X0016221Y-0075511D01*
X0016221Y-0080115D01*
X0016221Y-0077813D02*
X0017756Y-0077813D01*
X0014687Y-0077813D02*
X0013152Y-0077813D01*
X0014687Y-0077813D02*
X0014687Y-0079348D01*
X0013919Y-0080115D01*
X0012385Y-0080115D01*
X0011617Y-0079348D01*
X0011617Y-0076278D01*
X0012385Y-0075511D01*
X0013919Y-0075511D01*
X0014687Y-0076278D01*
M02*
