G75*
%MOIN*%
%OFA0B0*%
%FSLAX25Y25*%
%IPPOS*%
%LPD*%
%AMOC8*
5,1,8,0,0,1.08239X$1,22.5*
%
%ADD10C,0.06693*%
%ADD11C,0.12598*%
%ADD12C,0.26772*%
%ADD13C,0.07874*%
%ADD14C,0.04724*%
%ADD15R,0.07874X0.07874*%
%ADD16R,0.07087X0.07087*%
%ADD17C,0.07087*%
%ADD18C,0.13386*%
%ADD19C,0.02243*%
%ADD20C,0.02061*%
%ADD21C,0.02025*%
%ADD22C,0.01973*%
%ADD23C,0.07087*%
%ADD24R,0.07187X0.07187*%
%ADD25C,0.07187*%
%ADD26R,0.07087X0.07087*%
%ADD27C,0.06299*%
D10*
X0317598Y0474954D03*
X0327598Y0474954D03*
X0337598Y0474954D03*
X0347598Y0474954D03*
X0342598Y0484954D03*
X0332598Y0484954D03*
X0322598Y0484954D03*
X0312598Y0484954D03*
X0317598Y0543852D03*
X0327598Y0543852D03*
X0322598Y0553852D03*
X0332598Y0553852D03*
X0337598Y0543852D03*
X0347598Y0543852D03*
X0342598Y0553852D03*
X0312598Y0553852D03*
D11*
X0307598Y0578852D03*
X0352598Y0578852D03*
X0352598Y0509954D03*
X0307598Y0509954D03*
D12*
X0170295Y0145033D03*
X0306870Y0303261D03*
X0375768Y0175309D03*
X0490295Y0145033D03*
X0490295Y0595033D03*
X0170295Y0595033D03*
D13*
X0269075Y0582789D03*
X0280886Y0582789D03*
X0280886Y0570978D03*
X0280886Y0559167D03*
X0269075Y0559167D03*
X0269075Y0570978D03*
X0278917Y0513616D03*
X0381279Y0523616D03*
X0379311Y0559167D03*
X0391122Y0559167D03*
X0391122Y0570978D03*
X0379311Y0570978D03*
X0379311Y0582789D03*
X0391122Y0582789D03*
X0485295Y0425033D03*
X0175295Y0435033D03*
D14*
X0265335Y0547356D03*
X0265335Y0594600D03*
X0394862Y0594600D03*
X0394862Y0547356D03*
D15*
X0381279Y0513616D03*
X0278917Y0523616D03*
X0175295Y0425033D03*
X0485295Y0435033D03*
D16*
X0183917Y0193458D03*
X0197500Y0141844D03*
D17*
X0207500Y0141844D03*
X0217500Y0141844D03*
X0227500Y0141844D03*
X0237500Y0141844D03*
X0173917Y0193458D03*
X0173917Y0203458D03*
X0183917Y0203458D03*
X0183917Y0213458D03*
X0173917Y0213458D03*
X0173917Y0223458D03*
X0183917Y0223458D03*
X0183917Y0233458D03*
X0173917Y0233458D03*
X0173917Y0243458D03*
X0183917Y0243458D03*
X0183917Y0253458D03*
X0173917Y0253458D03*
X0173917Y0263458D03*
X0183917Y0263458D03*
D18*
X0175295Y0354285D03*
X0175295Y0385781D03*
X0411988Y0144600D03*
X0463957Y0144600D03*
X0485295Y0354285D03*
X0485295Y0385781D03*
D19*
X0174233Y0322200D02*
X0171003Y0322200D01*
X0174233Y0322200D02*
X0174233Y0320938D01*
X0171003Y0320938D01*
X0171003Y0322200D01*
X0171003Y0318459D02*
X0174233Y0318459D01*
X0174233Y0317197D01*
X0171003Y0317197D01*
X0171003Y0318459D01*
X0171003Y0314129D02*
X0174233Y0314129D01*
X0174233Y0312867D01*
X0171003Y0312867D01*
X0171003Y0314129D01*
X0171003Y0309798D02*
X0174233Y0309798D01*
X0174233Y0308536D01*
X0171003Y0308536D01*
X0171003Y0309798D01*
X0171003Y0305467D02*
X0174233Y0305467D01*
X0174233Y0304205D01*
X0171003Y0304205D01*
X0171003Y0305467D01*
X0171003Y0301137D02*
X0174233Y0301137D01*
X0174233Y0299875D01*
X0171003Y0299875D01*
X0171003Y0301137D01*
X0171003Y0296806D02*
X0174233Y0296806D01*
X0174233Y0295544D01*
X0171003Y0295544D01*
X0171003Y0296806D01*
X0171003Y0292475D02*
X0174233Y0292475D01*
X0174233Y0291213D01*
X0171003Y0291213D01*
X0171003Y0292475D01*
X0171003Y0288144D02*
X0174233Y0288144D01*
X0174233Y0286882D01*
X0171003Y0286882D01*
X0171003Y0288144D01*
D20*
X0170912Y0282329D02*
X0174324Y0282329D01*
X0174324Y0279705D01*
X0170912Y0279705D01*
X0170912Y0282329D01*
X0170912Y0281765D02*
X0174324Y0281765D01*
X0213038Y0327408D02*
X0215662Y0327408D01*
X0215662Y0323996D01*
X0213038Y0323996D01*
X0213038Y0327408D01*
X0213038Y0326056D02*
X0215662Y0326056D01*
D21*
X0225421Y0327426D02*
X0235169Y0327426D01*
X0235169Y0323978D01*
X0225421Y0323978D01*
X0225421Y0327426D01*
X0225421Y0326002D02*
X0235169Y0326002D01*
X0191271Y0327426D02*
X0187823Y0327426D01*
X0191271Y0327426D02*
X0191271Y0323978D01*
X0187823Y0323978D01*
X0187823Y0327426D01*
X0187823Y0326002D02*
X0191271Y0326002D01*
D22*
X0235195Y0274302D02*
X0235195Y0269228D01*
X0228939Y0269228D01*
X0228939Y0274302D01*
X0235195Y0274302D01*
X0235195Y0271200D02*
X0228939Y0271200D01*
X0228939Y0273172D02*
X0235195Y0273172D01*
D23*
X0305335Y0398931D03*
X0315335Y0398931D03*
X0325335Y0398931D03*
X0335335Y0398931D03*
X0345335Y0398931D03*
X0355335Y0398931D03*
X0365335Y0398931D03*
X0424193Y0155230D03*
X0434035Y0155230D03*
X0441909Y0155230D03*
X0451752Y0155230D03*
D24*
X0431516Y0542631D03*
D25*
X0441516Y0542631D03*
X0451516Y0542631D03*
D26*
X0375335Y0398931D03*
D27*
X0329311Y0410742D03*
X0296240Y0410742D03*
X0217106Y0333970D03*
X0436791Y0178852D03*
X0442303Y0463498D03*
M02*
