%
M48
M72
T01C0.01181
T02C0.03150
T03C0.03543
T04C0.03937
T05C0.04331
T06C0.09449
T07C0.11811
T08C0.12598
%
T01
X197027Y178852
X195846Y184915
X197027Y193419
X202146Y193419
X211201Y196569
X219075Y198143
X219075Y200506
X230886Y202474
X234823Y202474
X242697Y202868
X245453Y206017
X248602Y208773
X251752Y203261
X258838Y195781
X254901Y187907
X249783Y187907
X243484Y192631
X245059Y194206
X245453Y178458
X252146Y175309
X254901Y175309
X263563Y175309
X269468Y175309
X283642Y175309
X286004Y175309
X289941Y173340
X289941Y162710
X271831Y151293
X264744Y150506
X264744Y156411
X256476Y167041
X241516Y160742
X244665Y152080
X232854Y152080
X230492Y152080
X217500Y150506
X207657Y150112
X230098Y172553
X218681Y183576
X221831Y216254
X223012Y225702
X225768Y229246
X228523Y233380
X231673Y226490
X230098Y222159
X241909Y230820
X223799Y242631
X219862Y242631
X219862Y248537
X229311Y248931
X229311Y252868
X232854Y246569
X243090Y270191
X239547Y273340
X249783Y270191
X255295Y289876
X259626Y289876
X259626Y291844
X268287Y294994
X272618Y302474
X275768Y305624
X276949Y309561
X276949Y313498
X278130Y317435
X280492Y320978
X264744Y313498
X262775Y309954
X257264Y309561
X244272Y309561
X244272Y307198
X232854Y308773
X232460Y314679
X245846Y327671
X251358Y327277
X251752Y333576
X254901Y336726
X258051Y339876
X263169Y339088
X274980Y337513
X280492Y339482
X274586Y348931
X270649Y350506
X263169Y354443
X261988Y366254
X267500Y367828
X270256Y371765
X274586Y370191
X264744Y373340
X259232Y374915
X253720Y376490
X248209Y378065
X242697Y379639
X237185Y381214
X233642Y385939
X239547Y389876
X221437Y374915
X209232Y378458
X206870Y378458
X208051Y383970
X200964Y382002
X198602Y382002
X208051Y396569
X213957Y396569
X231279Y413104
X231279Y415860
X231673Y420191
X230492Y430820
X232067Y432395
X240335Y413891
X242697Y413891
X263957Y399718
X267500Y391450
X269862Y391450
X263169Y389482
X258445Y389876
X256476Y364679
X250964Y363104
X245453Y361529
X239941Y359954
X234429Y358380
X232067Y354443
X224980Y361529
X221437Y357198
X204508Y357986
X203720Y360742
X212775Y339482
X211201Y337120
X208051Y331608
X208445Y323734
X203327Y311135
X192303Y304049
X192303Y299718
X182460Y300506
X177736Y306805
X168681Y313498
X159232Y307198
X178130Y320584
X172618Y324521
X186398Y319403
X189153Y319403
X200571Y287513
X203327Y283970
X206476Y275702
X193484Y280427
X176555Y281214
X198602Y256017
X190728Y251687
X202146Y233380
X206476Y233380
X202146Y223734
X190728Y225702
X261201Y227671
X261201Y235545
X261201Y245781
X276949Y254443
X300571Y254443
X310807Y254443
X310807Y233576
X310807Y218616
X324980Y212710
X333248Y214679
X336791Y216647
X345059Y216254
X340335Y228458
X337185Y232002
X356083Y248143
X341122Y262317
X334429Y283183
X347027Y295781
X357657Y306411
X346634Y312710
X344665Y316254
X346240Y320584
X352146Y328065
X349390Y331214
X340335Y343419
X331673Y345781
X326949Y354443
X340335Y354443
X347421Y366254
X340335Y370191
X326949Y370191
X310413Y370191
X310413Y354443
X305689Y344206
X300964Y344206
X292303Y344206
X297815Y333970
X310413Y341844
X321437Y333970
X336398Y319009
X355295Y345781
X360807Y344994
X360807Y354443
X371043Y354443
X371043Y344994
X385610Y350506
X385610Y354443
X387972Y346962
X395059Y347750
X397815Y344600
X400964Y341844
X395846Y339088
X400571Y335151
X398996Y326096
X395846Y322946
X393090Y326490
X389153Y324915
X389153Y332002
X385216Y333183
X375768Y326883
X371831Y317828
X371831Y313498
X379705Y311135
X407264Y307198
X419075Y303261
X422224Y306411
X428130Y318616
X429311Y323734
X421043Y325702
X417500Y329639
X421437Y331608
X424980Y333576
X424586Y337907
X417894Y340269
X419468Y350506
X422618Y353261
X419075Y356017
X415138Y357592
X411201Y359167
X408051Y361923
X411201Y364679
X415138Y366254
X419075Y367828
X419075Y371765
X415138Y373340
X411201Y374915
X408051Y377671
X411594Y382002
X415531Y383576
X419468Y385151
X423012Y387513
X427342Y389088
X435216Y379639
X439941Y382789
X442697Y395978
X446634Y396175
X449586Y403261
X451752Y408773
X454114Y408773
X441122Y425702
X428917Y428065
X426555Y428065
X426555Y435151
X417500Y439088
X411988Y444600
X393090Y452080
X391909Y448931
X381279Y449718
X363169Y449718
X360413Y432395
X356870Y424128
X356476Y421569
X366712Y417828
X356870Y412710
X340335Y395781
X310335Y395781
X297815Y396175
X293484Y399718
X315925Y421765
X328523Y425309
X338957Y432986
X337185Y447356
X337185Y449718
X337185Y452080
X337185Y454443
X323602Y444797
X293484Y474521
X293484Y476883
X293484Y484364
X293484Y486726
X293878Y500112
X274980Y502868
X253720Y511923
X255295Y520584
X269075Y532395
X251358Y545781
X237579Y546175
X226161Y545781
X213563Y551687
X213563Y556411
X203720Y572159
X202539Y579639
X199390Y582789
X203327Y585545
X199390Y593419
X239941Y594994
X239941Y572159
X254114Y574128
X257264Y574128
X226161Y528458
X218287Y510348
X223012Y507198
X213169Y483576
X216319Y482002
X217894Y478065
X216712Y476096
X201358Y483183
X194272Y483183
X180886Y486332
X180886Y488694
X178917Y506411
X193878Y507986
X197421Y507198
X192697Y526490
X159232Y472553
X201358Y431214
X201358Y428852
X212775Y437907
X215531Y450899
X213957Y452474
X219468Y452474
X220256Y459167
X224586Y459167
X242303Y476490
X259232Y480033
X259232Y482395
X273405Y433183
X268287Y425702
X314350Y494994
X300964Y523734
X350964Y494994
X363957Y498537
X363957Y491450
X382460Y476096
X393090Y475309
X393090Y472553
X389153Y485939
X393878Y511135
X393878Y513498
X385216Y540269
X382854Y540269
X401358Y559561
X403720Y559561
X403720Y570978
X401358Y570978
X402146Y580820
X399783Y580820
X407264Y591844
X400571Y598537
X415925Y585545
X434232Y587907
X440138Y587907
X455295Y589876
X457657Y589876
X465925Y590269
X455689Y600506
X458445Y563104
X472224Y564285
X475374Y564285
X491122Y544994
X473799Y537513
X472224Y535939
X472224Y523340
X473799Y521765
X457264Y519797
X448996Y519009
X446240Y519009
X446240Y507986
X443484Y507986
X448996Y507986
X456870Y505624
X458445Y504049
X447027Y486726
X432775Y486726
X425689Y484364
X464350Y472553
X464350Y467435
X463563Y459561
X469862Y482002
X501358Y472553
X457264Y530820
X430098Y532395
X428917Y530427
X411594Y537907
X411594Y540269
X328523Y586726
X330098Y606017
X377342Y431214
X382067Y412710
X390728Y412710
X400177Y406805
X395846Y395781
X403327Y391450
X404901Y393025
X413563Y406805
X430098Y416254
X456870Y382002
X456083Y379639
X439547Y365072
X451358Y361529
X453720Y361529
X459232Y357986
X461988Y357986
X438366Y346962
X441516Y341057
X441516Y336726
X430492Y345781
X425374Y348931
X413957Y350506
X408445Y352080
X400964Y350112
X399390Y354443
X384429Y370584
X371043Y370584
X360807Y370584
X410807Y318222
X413957Y320978
X452539Y322553
X452539Y328458
X466319Y316254
X466319Y302868
X451752Y302080
X451752Y306411
X474193Y287907
X469075Y278065
X456083Y278065
X456083Y280820
X465531Y262317
X454508Y249718
X447815Y251687
X445846Y251687
X431673Y244994
X421831Y255230
X407657Y256805
X403720Y256805
X400964Y259954
X395453Y261135
X393878Y257198
X392303Y253261
X390728Y249324
X384429Y254836
X399390Y253261
X397421Y271765
X393484Y271765
X388760Y275702
X384429Y274915
X400177Y275702
X432067Y278458
X481279Y250899
X483642Y250899
X487185Y262317
X490728Y285545
X490728Y293025
X486791Y299324
X490728Y306017
X490728Y313891
X501358Y311135
X443484Y230033
X428130Y214679
X424586Y203655
X413957Y203655
X407657Y202474
X404114Y209167
X387185Y196175
X395846Y189876
X376161Y193419
X376949Y208380
X373012Y209561
X373012Y220191
X376949Y222159
X380886Y220191
X409232Y231608
X414744Y231608
X445059Y199324
X437579Y187120
X427342Y178458
X421437Y191844
X389547Y163891
X387185Y159954
X396634Y153655
X383642Y140663
X359232Y148537
X340335Y167435
X347421Y171765
X351752Y172159
X316712Y200899
X308051Y186726
X311201Y183183
X297815Y204836
X287972Y204836
X280098Y204836
X272224Y204836
X270256Y213891
X261201Y216647
X308838Y155230
X330098Y133970
X461594Y211135
X469075Y186332
X470256Y173734
X472618Y173734
X298602Y282789
X294665Y283970
X290728Y280820
X278523Y295781
X280098Y299718
T02
X217106Y333970
X296240Y410742
X329311Y410742
X442303Y463498
X436791Y178852
T03
X347598Y474954
X337598Y474954
X327598Y474954
X317598Y474954
X312598Y484954
X322598Y484954
X332598Y484954
X342598Y484954
X337598Y543852
X347598Y543852
X342598Y553852
X332598Y553852
X322598Y553852
X317598Y543852
X327598Y543852
X312598Y553852
T04
X278917Y523616
X278917Y513616
X265335Y547356
X265335Y594600
X381279Y523616
X381279Y513616
X394862Y547356
X431516Y542631
X441516Y542631
X451516Y542631
X394862Y594600
X485295Y435033
X485295Y425033
X375335Y398931
X365335Y398931
X355335Y398931
X345335Y398931
X335335Y398931
X325335Y398931
X315335Y398931
X305335Y398931
X175295Y425033
X175295Y435033
X173917Y263458
X173917Y253458
X183917Y253458
X183917Y263458
X183917Y243458
X183917Y233458
X173917Y233458
X173917Y243458
X173917Y223458
X173917Y213458
X183917Y213458
X183917Y223458
X183917Y203458
X173917Y203458
X173917Y193458
X183917Y193458
X197500Y141844
X207500Y141844
X217500Y141844
X227500Y141844
X237500Y141844
X424193Y155230
X434035Y155230
X441909Y155230
X451752Y155230
T05
X391122Y559167
X379311Y559167
X379311Y570978
X391122Y570978
X391122Y582789
X379311Y582789
X280886Y582789
X280886Y570978
X280886Y559167
X269075Y559167
X269075Y570978
X269075Y582789
T06
X411988Y144600
X463957Y144600
T07
X306870Y303261
X307598Y509954
X352598Y509954
X352598Y578852
X307598Y578852
T08
X170295Y145033
X375768Y175309
X490295Y145033
X485295Y354285
X485295Y385781
X490295Y595033
X175295Y385781
X175295Y354285
X170295Y595033
M30
