G75*
%MOIN*%
%OFA0B0*%
%FSLAX25Y25*%
%IPPOS*%
%LPD*%
%AMOC8*
5,1,8,0,0,1.08239X$1,22.5*
%
%ADD10C,0.01890*%
%ADD11C,0.02165*%
%ADD12C,0.01969*%
%ADD13C,0.01984*%
%ADD14C,0.02333*%
%ADD15C,0.02025*%
%ADD16C,0.02183*%
%ADD17C,0.02061*%
%ADD18C,0.02283*%
%ADD19C,0.02295*%
%ADD20C,0.04724*%
%ADD21C,0.02323*%
%ADD22C,0.02031*%
%ADD23C,0.02243*%
%ADD24C,0.01843*%
%ADD25C,0.02299*%
%ADD26C,0.02035*%
%ADD27C,0.06693*%
%ADD28C,0.12598*%
%ADD29C,0.26772*%
%ADD30C,0.07874*%
%ADD31R,0.07874X0.07874*%
%ADD32C,0.01924*%
%ADD33C,0.02362*%
%ADD34C,0.02232*%
%ADD35R,0.12205X0.07087*%
%ADD36C,0.01870*%
%ADD37C,0.01879*%
%ADD38C,0.01857*%
%ADD39R,0.07087X0.12205*%
%ADD40R,0.07087X0.07087*%
%ADD41C,0.07087*%
%ADD42C,0.13386*%
%ADD43C,0.01956*%
%ADD44C,0.01973*%
%ADD45C,0.02039*%
%ADD46C,0.07087*%
%ADD47R,0.07187X0.07187*%
%ADD48C,0.07187*%
%ADD49R,0.07087X0.07087*%
%ADD50C,0.06299*%
%ADD51C,0.11811*%
D10*
X0253504Y0206017D02*
X0257874Y0206017D01*
X0257874Y0207986D02*
X0253504Y0207986D01*
X0253504Y0209954D02*
X0257874Y0209954D01*
X0257874Y0211923D02*
X0253504Y0211923D01*
X0253504Y0213891D02*
X0257874Y0213891D01*
X0257874Y0215860D02*
X0253504Y0215860D01*
X0253504Y0217828D02*
X0257874Y0217828D01*
X0257874Y0219797D02*
X0253504Y0219797D01*
X0253504Y0221765D02*
X0257874Y0221765D01*
X0257874Y0223734D02*
X0253504Y0223734D01*
X0253504Y0225702D02*
X0257874Y0225702D01*
X0257874Y0227671D02*
X0253504Y0227671D01*
X0253504Y0229639D02*
X0257874Y0229639D01*
X0257874Y0231608D02*
X0253504Y0231608D01*
X0253504Y0233576D02*
X0257874Y0233576D01*
X0257874Y0235545D02*
X0253504Y0235545D01*
X0253504Y0237513D02*
X0257874Y0237513D01*
X0257874Y0239482D02*
X0253504Y0239482D01*
X0253504Y0241450D02*
X0257874Y0241450D01*
X0257874Y0243419D02*
X0253504Y0243419D01*
X0253504Y0245387D02*
X0257874Y0245387D01*
X0257874Y0247356D02*
X0253504Y0247356D01*
X0253504Y0249324D02*
X0257874Y0249324D01*
X0257874Y0251293D02*
X0253504Y0251293D01*
X0253504Y0253261D02*
X0257874Y0253261D01*
X0262382Y0257769D02*
X0262382Y0262139D01*
X0264350Y0262139D02*
X0264350Y0257769D01*
X0266319Y0257769D02*
X0266319Y0262139D01*
X0268287Y0262139D02*
X0268287Y0257769D01*
X0270256Y0257769D02*
X0270256Y0262139D01*
X0272224Y0262139D02*
X0272224Y0257769D01*
X0274193Y0257769D02*
X0274193Y0262139D01*
X0276161Y0262139D02*
X0276161Y0257769D01*
X0278130Y0257769D02*
X0278130Y0262139D01*
X0280098Y0262139D02*
X0280098Y0257769D01*
X0282067Y0257769D02*
X0282067Y0262139D01*
X0284035Y0262139D02*
X0284035Y0257769D01*
X0286004Y0257769D02*
X0286004Y0262139D01*
X0287972Y0262139D02*
X0287972Y0257769D01*
X0289941Y0257769D02*
X0289941Y0262139D01*
X0291909Y0262139D02*
X0291909Y0257769D01*
X0293878Y0257769D02*
X0293878Y0262139D01*
X0295846Y0262139D02*
X0295846Y0257769D01*
X0297815Y0257769D02*
X0297815Y0262139D01*
X0299783Y0262139D02*
X0299783Y0257769D01*
X0301752Y0257769D02*
X0301752Y0262139D01*
X0303720Y0262139D02*
X0303720Y0257769D01*
X0305689Y0257769D02*
X0305689Y0262139D01*
X0307657Y0262139D02*
X0307657Y0257769D01*
X0309626Y0257769D02*
X0309626Y0262139D01*
X0314134Y0253261D02*
X0318504Y0253261D01*
X0318504Y0251293D02*
X0314134Y0251293D01*
X0314134Y0249324D02*
X0318504Y0249324D01*
X0318504Y0247356D02*
X0314134Y0247356D01*
X0314134Y0245387D02*
X0318504Y0245387D01*
X0318504Y0243419D02*
X0314134Y0243419D01*
X0314134Y0241450D02*
X0318504Y0241450D01*
X0318504Y0239482D02*
X0314134Y0239482D01*
X0314134Y0237513D02*
X0318504Y0237513D01*
X0318504Y0235545D02*
X0314134Y0235545D01*
X0314134Y0233576D02*
X0318504Y0233576D01*
X0318504Y0231608D02*
X0314134Y0231608D01*
X0314134Y0229639D02*
X0318504Y0229639D01*
X0318504Y0227671D02*
X0314134Y0227671D01*
X0314134Y0225702D02*
X0318504Y0225702D01*
X0318504Y0223734D02*
X0314134Y0223734D01*
X0314134Y0221765D02*
X0318504Y0221765D01*
X0318504Y0219797D02*
X0314134Y0219797D01*
X0314134Y0217828D02*
X0318504Y0217828D01*
X0318504Y0215860D02*
X0314134Y0215860D01*
X0314134Y0213891D02*
X0318504Y0213891D01*
X0318504Y0211923D02*
X0314134Y0211923D01*
X0314134Y0209954D02*
X0318504Y0209954D01*
X0318504Y0207986D02*
X0314134Y0207986D01*
X0314134Y0206017D02*
X0318504Y0206017D01*
X0309626Y0201509D02*
X0309626Y0197139D01*
X0307657Y0197139D02*
X0307657Y0201509D01*
X0305689Y0201509D02*
X0305689Y0197139D01*
X0303720Y0197139D02*
X0303720Y0201509D01*
X0301752Y0201509D02*
X0301752Y0197139D01*
X0299783Y0197139D02*
X0299783Y0201509D01*
X0297815Y0201509D02*
X0297815Y0197139D01*
X0295846Y0197139D02*
X0295846Y0201509D01*
X0293878Y0201509D02*
X0293878Y0197139D01*
X0291909Y0197139D02*
X0291909Y0201509D01*
X0289941Y0201509D02*
X0289941Y0197139D01*
X0287972Y0197139D02*
X0287972Y0201509D01*
X0286004Y0201509D02*
X0286004Y0197139D01*
X0284035Y0197139D02*
X0284035Y0201509D01*
X0282067Y0201509D02*
X0282067Y0197139D01*
X0280098Y0197139D02*
X0280098Y0201509D01*
X0278130Y0201509D02*
X0278130Y0197139D01*
X0276161Y0197139D02*
X0276161Y0201509D01*
X0274193Y0201509D02*
X0274193Y0197139D01*
X0272224Y0197139D02*
X0272224Y0201509D01*
X0270256Y0201509D02*
X0270256Y0197139D01*
X0268287Y0197139D02*
X0268287Y0201509D01*
X0266319Y0201509D02*
X0266319Y0197139D01*
X0264350Y0197139D02*
X0264350Y0201509D01*
X0262382Y0201509D02*
X0262382Y0197139D01*
X0443878Y0182631D02*
X0443878Y0178223D01*
X0445846Y0178223D02*
X0445846Y0182631D01*
X0447815Y0182631D02*
X0447815Y0178223D01*
X0449783Y0178223D02*
X0449783Y0182631D01*
X0451752Y0182631D02*
X0451752Y0178223D01*
X0453720Y0178223D02*
X0453720Y0182631D01*
X0455689Y0182631D02*
X0455689Y0178223D01*
X0457657Y0178223D02*
X0457657Y0182631D01*
X0459626Y0182631D02*
X0459626Y0178223D01*
X0461594Y0178223D02*
X0461594Y0182631D01*
X0463563Y0182631D02*
X0463563Y0178223D01*
X0465531Y0178223D02*
X0465531Y0182631D01*
X0467500Y0182631D02*
X0467500Y0178223D01*
X0469468Y0178223D02*
X0469468Y0182631D01*
X0471437Y0182631D02*
X0471437Y0178223D01*
X0473405Y0178223D02*
X0473405Y0182631D01*
X0475374Y0182631D02*
X0475374Y0178223D01*
X0477342Y0178223D02*
X0477342Y0182631D01*
X0479311Y0182631D02*
X0479311Y0178223D01*
X0481279Y0178223D02*
X0481279Y0182631D01*
X0483248Y0182631D02*
X0483248Y0178223D01*
X0485216Y0178223D02*
X0485216Y0182631D01*
X0487185Y0182631D02*
X0487185Y0178223D01*
X0489153Y0178223D02*
X0489153Y0182631D01*
X0489153Y0254601D02*
X0489153Y0259009D01*
X0487185Y0259009D02*
X0487185Y0254601D01*
X0485216Y0254601D02*
X0485216Y0259009D01*
X0483248Y0259009D02*
X0483248Y0254601D01*
X0481279Y0254601D02*
X0481279Y0259009D01*
X0479311Y0259009D02*
X0479311Y0254601D01*
X0477342Y0254601D02*
X0477342Y0259009D01*
X0475374Y0259009D02*
X0475374Y0254601D01*
X0473405Y0254601D02*
X0473405Y0259009D01*
X0471437Y0259009D02*
X0471437Y0254601D01*
X0469468Y0254601D02*
X0469468Y0259009D01*
X0467500Y0259009D02*
X0467500Y0254601D01*
X0465531Y0254601D02*
X0465531Y0259009D01*
X0463563Y0259009D02*
X0463563Y0254601D01*
X0461594Y0254601D02*
X0461594Y0259009D01*
X0459626Y0259009D02*
X0459626Y0254601D01*
X0457657Y0254601D02*
X0457657Y0259009D01*
X0455689Y0259009D02*
X0455689Y0254601D01*
X0453720Y0254601D02*
X0453720Y0259009D01*
X0451752Y0259009D02*
X0451752Y0254601D01*
X0449783Y0254601D02*
X0449783Y0259009D01*
X0447815Y0259009D02*
X0447815Y0254601D01*
X0445846Y0254601D02*
X0445846Y0259009D01*
X0443878Y0259009D02*
X0443878Y0254601D01*
X0292933Y0418379D02*
X0292933Y0435387D01*
X0292933Y0418379D02*
X0279075Y0418379D01*
X0279075Y0435387D01*
X0292933Y0435387D01*
X0292933Y0420268D02*
X0279075Y0420268D01*
X0279075Y0422157D02*
X0292933Y0422157D01*
X0292933Y0424046D02*
X0279075Y0424046D01*
X0279075Y0425935D02*
X0292933Y0425935D01*
X0292933Y0427824D02*
X0279075Y0427824D01*
X0279075Y0429713D02*
X0292933Y0429713D01*
X0292933Y0431602D02*
X0279075Y0431602D01*
X0279075Y0433491D02*
X0292933Y0433491D01*
X0292933Y0435380D02*
X0279075Y0435380D01*
X0292933Y0445939D02*
X0292933Y0462947D01*
X0292933Y0445939D02*
X0279075Y0445939D01*
X0279075Y0462947D01*
X0292933Y0462947D01*
X0292933Y0447828D02*
X0279075Y0447828D01*
X0279075Y0449717D02*
X0292933Y0449717D01*
X0292933Y0451606D02*
X0279075Y0451606D01*
X0279075Y0453495D02*
X0292933Y0453495D01*
X0292933Y0455384D02*
X0279075Y0455384D01*
X0279075Y0457273D02*
X0292933Y0457273D01*
X0292933Y0459162D02*
X0279075Y0459162D01*
X0279075Y0461051D02*
X0292933Y0461051D01*
X0292933Y0462940D02*
X0279075Y0462940D01*
D11*
X0412283Y0257002D02*
X0417205Y0257002D01*
X0412283Y0257002D02*
X0412283Y0257002D01*
X0417205Y0257002D01*
X0417205Y0257002D01*
X0417205Y0254443D02*
X0412283Y0254443D01*
X0412283Y0254443D01*
X0417205Y0254443D01*
X0417205Y0254443D01*
X0417205Y0251883D02*
X0412283Y0251883D01*
X0412283Y0251883D01*
X0417205Y0251883D01*
X0417205Y0251883D01*
X0417205Y0249324D02*
X0412283Y0249324D01*
X0412283Y0249324D01*
X0417205Y0249324D01*
X0417205Y0249324D01*
X0417205Y0246765D02*
X0412283Y0246765D01*
X0412283Y0246765D01*
X0417205Y0246765D01*
X0417205Y0246765D01*
X0417205Y0244206D02*
X0412283Y0244206D01*
X0412283Y0244206D01*
X0417205Y0244206D01*
X0417205Y0244206D01*
X0417205Y0241647D02*
X0412283Y0241647D01*
X0412283Y0241647D01*
X0417205Y0241647D01*
X0417205Y0241647D01*
X0417205Y0239088D02*
X0412283Y0239088D01*
X0412283Y0239088D01*
X0417205Y0239088D01*
X0417205Y0239088D01*
X0417205Y0236529D02*
X0412283Y0236529D01*
X0412283Y0236529D01*
X0417205Y0236529D01*
X0417205Y0236529D01*
X0417205Y0233970D02*
X0412283Y0233970D01*
X0412283Y0233970D01*
X0417205Y0233970D01*
X0417205Y0233970D01*
X0417205Y0229049D02*
X0412283Y0229049D01*
X0412283Y0229049D01*
X0417205Y0229049D01*
X0417205Y0229049D01*
X0417205Y0226490D02*
X0412283Y0226490D01*
X0412283Y0226490D01*
X0417205Y0226490D01*
X0417205Y0226490D01*
X0417205Y0223931D02*
X0412283Y0223931D01*
X0412283Y0223931D01*
X0417205Y0223931D01*
X0417205Y0223931D01*
X0417205Y0221372D02*
X0412283Y0221372D01*
X0412283Y0221372D01*
X0417205Y0221372D01*
X0417205Y0221372D01*
X0417205Y0218813D02*
X0412283Y0218813D01*
X0412283Y0218813D01*
X0417205Y0218813D01*
X0417205Y0218813D01*
X0417205Y0216254D02*
X0412283Y0216254D01*
X0412283Y0216254D01*
X0417205Y0216254D01*
X0417205Y0216254D01*
X0417205Y0213694D02*
X0412283Y0213694D01*
X0412283Y0213694D01*
X0417205Y0213694D01*
X0417205Y0213694D01*
X0417205Y0211135D02*
X0412283Y0211135D01*
X0412283Y0211135D01*
X0417205Y0211135D01*
X0417205Y0211135D01*
X0417205Y0208576D02*
X0412283Y0208576D01*
X0412283Y0208576D01*
X0417205Y0208576D01*
X0417205Y0208576D01*
X0417205Y0206017D02*
X0412283Y0206017D01*
X0412283Y0206017D01*
X0417205Y0206017D01*
X0417205Y0206017D01*
X0435118Y0206017D02*
X0440040Y0206017D01*
X0435118Y0206017D02*
X0435118Y0206017D01*
X0440040Y0206017D01*
X0440040Y0206017D01*
X0440040Y0208576D02*
X0435118Y0208576D01*
X0435118Y0208576D01*
X0440040Y0208576D01*
X0440040Y0208576D01*
X0440040Y0211135D02*
X0435118Y0211135D01*
X0435118Y0211135D01*
X0440040Y0211135D01*
X0440040Y0211135D01*
X0440040Y0213694D02*
X0435118Y0213694D01*
X0435118Y0213694D01*
X0440040Y0213694D01*
X0440040Y0213694D01*
X0440040Y0216254D02*
X0435118Y0216254D01*
X0435118Y0216254D01*
X0440040Y0216254D01*
X0440040Y0216254D01*
X0440040Y0218813D02*
X0435118Y0218813D01*
X0435118Y0218813D01*
X0440040Y0218813D01*
X0440040Y0218813D01*
X0440040Y0221372D02*
X0435118Y0221372D01*
X0435118Y0221372D01*
X0440040Y0221372D01*
X0440040Y0221372D01*
X0440040Y0223931D02*
X0435118Y0223931D01*
X0435118Y0223931D01*
X0440040Y0223931D01*
X0440040Y0223931D01*
X0440040Y0226490D02*
X0435118Y0226490D01*
X0435118Y0226490D01*
X0440040Y0226490D01*
X0440040Y0226490D01*
X0440040Y0229049D02*
X0435118Y0229049D01*
X0435118Y0229049D01*
X0440040Y0229049D01*
X0440040Y0229049D01*
X0440040Y0233970D02*
X0435118Y0233970D01*
X0435118Y0233970D01*
X0440040Y0233970D01*
X0440040Y0233970D01*
X0440040Y0236529D02*
X0435118Y0236529D01*
X0435118Y0236529D01*
X0440040Y0236529D01*
X0440040Y0236529D01*
X0440040Y0239088D02*
X0435118Y0239088D01*
X0435118Y0239088D01*
X0440040Y0239088D01*
X0440040Y0239088D01*
X0440040Y0241647D02*
X0435118Y0241647D01*
X0435118Y0241647D01*
X0440040Y0241647D01*
X0440040Y0241647D01*
X0440040Y0244206D02*
X0435118Y0244206D01*
X0435118Y0244206D01*
X0440040Y0244206D01*
X0440040Y0244206D01*
X0440040Y0246765D02*
X0435118Y0246765D01*
X0435118Y0246765D01*
X0440040Y0246765D01*
X0440040Y0246765D01*
X0440040Y0249324D02*
X0435118Y0249324D01*
X0435118Y0249324D01*
X0440040Y0249324D01*
X0440040Y0249324D01*
X0440040Y0251883D02*
X0435118Y0251883D01*
X0435118Y0251883D01*
X0440040Y0251883D01*
X0440040Y0251883D01*
X0440040Y0254443D02*
X0435118Y0254443D01*
X0435118Y0254443D01*
X0440040Y0254443D01*
X0440040Y0254443D01*
X0440040Y0257002D02*
X0435118Y0257002D01*
X0435118Y0257002D01*
X0440040Y0257002D01*
X0440040Y0257002D01*
D12*
X0443091Y0347356D02*
X0443091Y0347356D01*
X0447815Y0347356D01*
X0447815Y0347356D01*
X0443091Y0347356D01*
X0443091Y0349324D02*
X0443091Y0349324D01*
X0447815Y0349324D01*
X0447815Y0349324D01*
X0443091Y0349324D01*
X0443091Y0351293D02*
X0443091Y0351293D01*
X0447815Y0351293D01*
X0447815Y0351293D01*
X0443091Y0351293D01*
X0443091Y0353261D02*
X0443091Y0353261D01*
X0447815Y0353261D01*
X0447815Y0353261D01*
X0443091Y0353261D01*
X0443091Y0355230D02*
X0443091Y0355230D01*
X0447815Y0355230D01*
X0447815Y0355230D01*
X0443091Y0355230D01*
X0443091Y0357198D02*
X0443091Y0357198D01*
X0447815Y0357198D01*
X0447815Y0357198D01*
X0443091Y0357198D01*
X0443091Y0359167D02*
X0443091Y0359167D01*
X0447815Y0359167D01*
X0447815Y0359167D01*
X0443091Y0359167D01*
X0443091Y0361135D02*
X0443091Y0361135D01*
X0447815Y0361135D01*
X0447815Y0361135D01*
X0443091Y0361135D01*
X0443091Y0363104D02*
X0443091Y0363104D01*
X0447815Y0363104D01*
X0447815Y0363104D01*
X0443091Y0363104D01*
X0443091Y0365072D02*
X0443091Y0365072D01*
X0447815Y0365072D01*
X0447815Y0365072D01*
X0443091Y0365072D01*
X0443091Y0367041D02*
X0443091Y0367041D01*
X0447815Y0367041D01*
X0447815Y0367041D01*
X0443091Y0367041D01*
X0443091Y0369009D02*
X0443091Y0369009D01*
X0447815Y0369009D01*
X0447815Y0369009D01*
X0443091Y0369009D01*
X0443091Y0370978D02*
X0443091Y0370978D01*
X0447815Y0370978D01*
X0447815Y0370978D01*
X0443091Y0370978D01*
X0443091Y0372946D02*
X0443091Y0372946D01*
X0447815Y0372946D01*
X0447815Y0372946D01*
X0443091Y0372946D01*
X0443091Y0374915D02*
X0443091Y0374915D01*
X0447815Y0374915D01*
X0447815Y0374915D01*
X0443091Y0374915D01*
X0443091Y0376883D02*
X0443091Y0376883D01*
X0447815Y0376883D01*
X0447815Y0376883D01*
X0443091Y0376883D01*
X0443091Y0378852D02*
X0443091Y0378852D01*
X0447815Y0378852D01*
X0447815Y0378852D01*
X0443091Y0378852D01*
X0443091Y0380820D02*
X0443091Y0380820D01*
X0447815Y0380820D01*
X0447815Y0380820D01*
X0443091Y0380820D01*
X0443091Y0382789D02*
X0443091Y0382789D01*
X0447815Y0382789D01*
X0447815Y0382789D01*
X0443091Y0382789D01*
X0443091Y0384757D02*
X0443091Y0384757D01*
X0447815Y0384757D01*
X0447815Y0384757D01*
X0443091Y0384757D01*
X0443091Y0386726D02*
X0443091Y0386726D01*
X0447815Y0386726D01*
X0447815Y0386726D01*
X0443091Y0386726D01*
X0443091Y0388694D02*
X0443091Y0388694D01*
X0447815Y0388694D01*
X0447815Y0388694D01*
X0443091Y0388694D01*
X0443091Y0390663D02*
X0443091Y0390663D01*
X0447815Y0390663D01*
X0447815Y0390663D01*
X0443091Y0390663D01*
X0443091Y0392631D02*
X0443091Y0392631D01*
X0447815Y0392631D01*
X0447815Y0392631D01*
X0443091Y0392631D01*
X0439351Y0509561D02*
X0439351Y0509561D01*
X0435807Y0509561D01*
X0435807Y0509561D01*
X0439351Y0509561D01*
X0439351Y0511529D02*
X0439351Y0511529D01*
X0435807Y0511529D01*
X0435807Y0511529D01*
X0439351Y0511529D01*
X0439351Y0513498D02*
X0439351Y0513498D01*
X0435807Y0513498D01*
X0435807Y0513498D01*
X0439351Y0513498D01*
X0439351Y0515466D02*
X0439351Y0515466D01*
X0435807Y0515466D01*
X0435807Y0515466D01*
X0439351Y0515466D01*
X0439351Y0517435D02*
X0439351Y0517435D01*
X0435807Y0517435D01*
X0435807Y0517435D01*
X0439351Y0517435D01*
X0456673Y0517435D02*
X0456673Y0517435D01*
X0453129Y0517435D01*
X0453129Y0517435D01*
X0456673Y0517435D01*
X0453129Y0515466D02*
X0453129Y0515466D01*
X0456673Y0515466D01*
X0456673Y0515466D01*
X0453129Y0515466D01*
X0453129Y0513498D02*
X0453129Y0513498D01*
X0456673Y0513498D01*
X0456673Y0513498D01*
X0453129Y0513498D01*
X0456673Y0511529D02*
X0456673Y0511529D01*
X0453129Y0511529D01*
X0453129Y0511529D01*
X0456673Y0511529D01*
X0456673Y0509561D02*
X0456673Y0509561D01*
X0453129Y0509561D01*
X0453129Y0509561D01*
X0456673Y0509561D01*
X0217500Y0392631D02*
X0217500Y0392631D01*
X0212776Y0392631D01*
X0212776Y0392631D01*
X0217500Y0392631D01*
X0217500Y0390663D02*
X0217500Y0390663D01*
X0212776Y0390663D01*
X0212776Y0390663D01*
X0217500Y0390663D01*
X0217500Y0388694D02*
X0217500Y0388694D01*
X0212776Y0388694D01*
X0212776Y0388694D01*
X0217500Y0388694D01*
X0217500Y0386726D02*
X0217500Y0386726D01*
X0212776Y0386726D01*
X0212776Y0386726D01*
X0217500Y0386726D01*
X0217500Y0384757D02*
X0217500Y0384757D01*
X0212776Y0384757D01*
X0212776Y0384757D01*
X0217500Y0384757D01*
X0217500Y0382789D02*
X0217500Y0382789D01*
X0212776Y0382789D01*
X0212776Y0382789D01*
X0217500Y0382789D01*
X0217500Y0380820D02*
X0217500Y0380820D01*
X0212776Y0380820D01*
X0212776Y0380820D01*
X0217500Y0380820D01*
X0217500Y0378852D02*
X0217500Y0378852D01*
X0212776Y0378852D01*
X0212776Y0378852D01*
X0217500Y0378852D01*
X0217500Y0376883D02*
X0217500Y0376883D01*
X0212776Y0376883D01*
X0212776Y0376883D01*
X0217500Y0376883D01*
X0217500Y0374915D02*
X0217500Y0374915D01*
X0212776Y0374915D01*
X0212776Y0374915D01*
X0217500Y0374915D01*
X0217500Y0372946D02*
X0217500Y0372946D01*
X0212776Y0372946D01*
X0212776Y0372946D01*
X0217500Y0372946D01*
X0217500Y0370978D02*
X0217500Y0370978D01*
X0212776Y0370978D01*
X0212776Y0370978D01*
X0217500Y0370978D01*
X0217500Y0369009D02*
X0217500Y0369009D01*
X0212776Y0369009D01*
X0212776Y0369009D01*
X0217500Y0369009D01*
X0217500Y0367041D02*
X0217500Y0367041D01*
X0212776Y0367041D01*
X0212776Y0367041D01*
X0217500Y0367041D01*
X0217500Y0365072D02*
X0217500Y0365072D01*
X0212776Y0365072D01*
X0212776Y0365072D01*
X0217500Y0365072D01*
X0217500Y0363104D02*
X0217500Y0363104D01*
X0212776Y0363104D01*
X0212776Y0363104D01*
X0217500Y0363104D01*
X0217500Y0361135D02*
X0217500Y0361135D01*
X0212776Y0361135D01*
X0212776Y0361135D01*
X0217500Y0361135D01*
X0217500Y0359167D02*
X0217500Y0359167D01*
X0212776Y0359167D01*
X0212776Y0359167D01*
X0217500Y0359167D01*
X0217500Y0357198D02*
X0217500Y0357198D01*
X0212776Y0357198D01*
X0212776Y0357198D01*
X0217500Y0357198D01*
X0217500Y0355230D02*
X0217500Y0355230D01*
X0212776Y0355230D01*
X0212776Y0355230D01*
X0217500Y0355230D01*
X0217500Y0353261D02*
X0217500Y0353261D01*
X0212776Y0353261D01*
X0212776Y0353261D01*
X0217500Y0353261D01*
X0217500Y0351293D02*
X0217500Y0351293D01*
X0212776Y0351293D01*
X0212776Y0351293D01*
X0217500Y0351293D01*
X0217500Y0349324D02*
X0217500Y0349324D01*
X0212776Y0349324D01*
X0212776Y0349324D01*
X0217500Y0349324D01*
X0217500Y0347356D02*
X0217500Y0347356D01*
X0212776Y0347356D01*
X0212776Y0347356D01*
X0217500Y0347356D01*
D13*
X0230681Y0342427D02*
X0230681Y0336537D01*
X0225579Y0336537D01*
X0225579Y0342427D01*
X0230681Y0342427D01*
X0230681Y0338520D02*
X0225579Y0338520D01*
X0225579Y0340503D02*
X0230681Y0340503D01*
X0230681Y0397561D02*
X0230681Y0403451D01*
X0230681Y0397561D02*
X0225579Y0397561D01*
X0225579Y0403451D01*
X0230681Y0403451D01*
X0230681Y0399544D02*
X0225579Y0399544D01*
X0225579Y0401527D02*
X0230681Y0401527D01*
X0429909Y0403451D02*
X0429909Y0397561D01*
X0429909Y0403451D02*
X0435011Y0403451D01*
X0435011Y0397561D01*
X0429909Y0397561D01*
X0429909Y0399544D02*
X0435011Y0399544D01*
X0435011Y0401527D02*
X0429909Y0401527D01*
X0429909Y0342427D02*
X0429909Y0336537D01*
X0429909Y0342427D02*
X0435011Y0342427D01*
X0435011Y0336537D01*
X0429909Y0336537D01*
X0429909Y0338520D02*
X0435011Y0338520D01*
X0435011Y0340503D02*
X0429909Y0340503D01*
D14*
X0228125Y0426691D02*
X0228125Y0427469D01*
X0228125Y0426691D02*
X0224985Y0426691D01*
X0224985Y0427469D01*
X0228125Y0427469D01*
X0228125Y0430431D02*
X0228125Y0431209D01*
X0228125Y0430431D02*
X0224985Y0430431D01*
X0224985Y0431209D01*
X0228125Y0431209D01*
X0228125Y0434172D02*
X0228125Y0434950D01*
X0228125Y0434172D02*
X0224985Y0434172D01*
X0224985Y0434950D01*
X0228125Y0434950D01*
X0218676Y0434950D02*
X0218676Y0434172D01*
X0215536Y0434172D01*
X0215536Y0434950D01*
X0218676Y0434950D01*
X0218676Y0427469D02*
X0218676Y0426691D01*
X0215536Y0426691D01*
X0215536Y0427469D01*
X0218676Y0427469D01*
D15*
X0211744Y0434119D02*
X0208296Y0434119D01*
X0211744Y0434119D02*
X0211744Y0428309D01*
X0208296Y0428309D01*
X0208296Y0434119D01*
X0208296Y0430333D02*
X0211744Y0430333D01*
X0211744Y0432357D02*
X0208296Y0432357D01*
X0208296Y0425064D02*
X0211744Y0425064D01*
X0211744Y0419254D01*
X0208296Y0419254D01*
X0208296Y0425064D01*
X0208296Y0421278D02*
X0211744Y0421278D01*
X0211744Y0423302D02*
X0208296Y0423302D01*
X0208296Y0416009D02*
X0211744Y0416009D01*
X0211744Y0410199D01*
X0208296Y0410199D01*
X0208296Y0416009D01*
X0208296Y0412223D02*
X0211744Y0412223D01*
X0211744Y0414247D02*
X0208296Y0414247D01*
X0199145Y0416009D02*
X0195697Y0416009D01*
X0199145Y0416009D02*
X0199145Y0410199D01*
X0195697Y0410199D01*
X0195697Y0416009D01*
X0195697Y0412223D02*
X0199145Y0412223D01*
X0199145Y0414247D02*
X0195697Y0414247D01*
X0195697Y0425064D02*
X0199145Y0425064D01*
X0199145Y0419254D01*
X0195697Y0419254D01*
X0195697Y0425064D01*
X0195697Y0421278D02*
X0199145Y0421278D01*
X0199145Y0423302D02*
X0195697Y0423302D01*
X0195697Y0434119D02*
X0199145Y0434119D01*
X0199145Y0428309D01*
X0195697Y0428309D01*
X0195697Y0434119D01*
X0195697Y0430333D02*
X0199145Y0430333D01*
X0199145Y0432357D02*
X0195697Y0432357D01*
X0197666Y0406954D02*
X0197666Y0403506D01*
X0197666Y0406954D02*
X0203476Y0406954D01*
X0203476Y0403506D01*
X0197666Y0403506D01*
X0197666Y0405530D02*
X0203476Y0405530D01*
X0197666Y0394355D02*
X0197666Y0390907D01*
X0197666Y0394355D02*
X0203476Y0394355D01*
X0203476Y0390907D01*
X0197666Y0390907D01*
X0197666Y0392931D02*
X0203476Y0392931D01*
X0203476Y0387663D02*
X0203476Y0384215D01*
X0197666Y0384215D01*
X0197666Y0387663D01*
X0203476Y0387663D01*
X0203476Y0386239D02*
X0197666Y0386239D01*
X0203476Y0375064D02*
X0203476Y0371616D01*
X0197666Y0371616D01*
X0197666Y0375064D01*
X0203476Y0375064D01*
X0203476Y0373640D02*
X0197666Y0373640D01*
X0203476Y0368371D02*
X0203476Y0364923D01*
X0197666Y0364923D01*
X0197666Y0368371D01*
X0203476Y0368371D01*
X0203476Y0366947D02*
X0197666Y0366947D01*
X0203476Y0355773D02*
X0203476Y0352325D01*
X0197666Y0352325D01*
X0197666Y0355773D01*
X0203476Y0355773D01*
X0203476Y0354349D02*
X0197666Y0354349D01*
X0203476Y0349080D02*
X0203476Y0345632D01*
X0197666Y0345632D01*
X0197666Y0349080D01*
X0203476Y0349080D01*
X0203476Y0347656D02*
X0197666Y0347656D01*
X0203476Y0336481D02*
X0203476Y0333033D01*
X0197666Y0333033D01*
X0197666Y0336481D01*
X0203476Y0336481D01*
X0203476Y0335057D02*
X0197666Y0335057D01*
X0220894Y0410199D02*
X0224342Y0410199D01*
X0220894Y0410199D02*
X0220894Y0416009D01*
X0224342Y0416009D01*
X0224342Y0410199D01*
X0224342Y0412223D02*
X0220894Y0412223D01*
X0220894Y0414247D02*
X0224342Y0414247D01*
X0233492Y0410199D02*
X0236940Y0410199D01*
X0233492Y0410199D02*
X0233492Y0416009D01*
X0236940Y0416009D01*
X0236940Y0410199D01*
X0236940Y0412223D02*
X0233492Y0412223D01*
X0233492Y0414247D02*
X0236940Y0414247D01*
X0240185Y0411678D02*
X0240185Y0408230D01*
X0240185Y0411678D02*
X0245995Y0411678D01*
X0245995Y0408230D01*
X0240185Y0408230D01*
X0240185Y0410254D02*
X0245995Y0410254D01*
X0240185Y0420829D02*
X0240185Y0424277D01*
X0245995Y0424277D01*
X0245995Y0420829D01*
X0240185Y0420829D01*
X0240185Y0422853D02*
X0245995Y0422853D01*
X0279162Y0466498D02*
X0282610Y0466498D01*
X0279162Y0466498D02*
X0279162Y0472308D01*
X0282610Y0472308D01*
X0282610Y0466498D01*
X0282610Y0468522D02*
X0279162Y0468522D01*
X0279162Y0470546D02*
X0282610Y0470546D01*
X0291760Y0466498D02*
X0295208Y0466498D01*
X0291760Y0466498D02*
X0291760Y0472308D01*
X0295208Y0472308D01*
X0295208Y0466498D01*
X0295208Y0468522D02*
X0291760Y0468522D01*
X0291760Y0470546D02*
X0295208Y0470546D01*
X0301209Y0451836D02*
X0304657Y0451836D01*
X0304657Y0446026D01*
X0301209Y0446026D01*
X0301209Y0451836D01*
X0301209Y0448050D02*
X0304657Y0448050D01*
X0304657Y0450074D02*
X0301209Y0450074D01*
X0313807Y0451836D02*
X0317255Y0451836D01*
X0317255Y0446026D01*
X0313807Y0446026D01*
X0313807Y0451836D01*
X0313807Y0448050D02*
X0317255Y0448050D01*
X0317255Y0450074D02*
X0313807Y0450074D01*
X0333397Y0449963D02*
X0333397Y0453411D01*
X0333397Y0449963D02*
X0327587Y0449963D01*
X0327587Y0453411D01*
X0333397Y0453411D01*
X0333397Y0451987D02*
X0327587Y0451987D01*
X0333397Y0462561D02*
X0333397Y0466009D01*
X0333397Y0462561D02*
X0327587Y0462561D01*
X0327587Y0466009D01*
X0333397Y0466009D01*
X0333397Y0464585D02*
X0327587Y0464585D01*
X0339398Y0446419D02*
X0342846Y0446419D01*
X0339398Y0446419D02*
X0339398Y0452229D01*
X0342846Y0452229D01*
X0342846Y0446419D01*
X0342846Y0448443D02*
X0339398Y0448443D01*
X0339398Y0450467D02*
X0342846Y0450467D01*
X0351996Y0446419D02*
X0355444Y0446419D01*
X0351996Y0446419D02*
X0351996Y0452229D01*
X0355444Y0452229D01*
X0355444Y0446419D01*
X0355444Y0448443D02*
X0351996Y0448443D01*
X0351996Y0450467D02*
X0355444Y0450467D01*
X0448847Y0435300D02*
X0452295Y0435300D01*
X0452295Y0429490D01*
X0448847Y0429490D01*
X0448847Y0435300D01*
X0448847Y0431514D02*
X0452295Y0431514D01*
X0452295Y0433538D02*
X0448847Y0433538D01*
X0462925Y0426245D02*
X0462925Y0422797D01*
X0457115Y0422797D01*
X0457115Y0426245D01*
X0462925Y0426245D01*
X0462925Y0424821D02*
X0457115Y0424821D01*
X0461445Y0435300D02*
X0464893Y0435300D01*
X0464893Y0429490D01*
X0461445Y0429490D01*
X0461445Y0435300D01*
X0461445Y0431514D02*
X0464893Y0431514D01*
X0464893Y0433538D02*
X0461445Y0433538D01*
X0462925Y0413647D02*
X0462925Y0410199D01*
X0457115Y0410199D01*
X0457115Y0413647D01*
X0462925Y0413647D01*
X0462925Y0412223D02*
X0457115Y0412223D01*
X0457115Y0406954D02*
X0457115Y0403506D01*
X0457115Y0406954D02*
X0462925Y0406954D01*
X0462925Y0403506D01*
X0457115Y0403506D01*
X0457115Y0405530D02*
X0462925Y0405530D01*
X0457115Y0394355D02*
X0457115Y0390907D01*
X0457115Y0394355D02*
X0462925Y0394355D01*
X0462925Y0390907D01*
X0457115Y0390907D01*
X0457115Y0392931D02*
X0462925Y0392931D01*
X0457115Y0387663D02*
X0457115Y0384215D01*
X0457115Y0387663D02*
X0462925Y0387663D01*
X0462925Y0384215D01*
X0457115Y0384215D01*
X0457115Y0386239D02*
X0462925Y0386239D01*
X0457115Y0375064D02*
X0457115Y0371616D01*
X0457115Y0375064D02*
X0462925Y0375064D01*
X0462925Y0371616D01*
X0457115Y0371616D01*
X0457115Y0373640D02*
X0462925Y0373640D01*
X0457115Y0368371D02*
X0457115Y0364923D01*
X0457115Y0368371D02*
X0462925Y0368371D01*
X0462925Y0364923D01*
X0457115Y0364923D01*
X0457115Y0366947D02*
X0462925Y0366947D01*
X0457115Y0355773D02*
X0457115Y0352325D01*
X0457115Y0355773D02*
X0462925Y0355773D01*
X0462925Y0352325D01*
X0457115Y0352325D01*
X0457115Y0354349D02*
X0462925Y0354349D01*
X0457115Y0349080D02*
X0457115Y0345632D01*
X0457115Y0349080D02*
X0462925Y0349080D01*
X0462925Y0345632D01*
X0457115Y0345632D01*
X0457115Y0347656D02*
X0462925Y0347656D01*
X0457115Y0336481D02*
X0457115Y0333033D01*
X0457115Y0336481D02*
X0462925Y0336481D01*
X0462925Y0333033D01*
X0457115Y0333033D01*
X0457115Y0335057D02*
X0462925Y0335057D01*
X0407019Y0227426D02*
X0407019Y0223978D01*
X0401209Y0223978D01*
X0401209Y0227426D01*
X0407019Y0227426D01*
X0407019Y0226002D02*
X0401209Y0226002D01*
X0407019Y0214828D02*
X0407019Y0211380D01*
X0401209Y0211380D01*
X0401209Y0214828D01*
X0407019Y0214828D01*
X0407019Y0213404D02*
X0401209Y0213404D01*
X0301114Y0149569D02*
X0297666Y0149569D01*
X0297666Y0155379D01*
X0301114Y0155379D01*
X0301114Y0149569D01*
X0301114Y0151593D02*
X0297666Y0151593D01*
X0297666Y0153617D02*
X0301114Y0153617D01*
X0288515Y0149569D02*
X0285067Y0149569D01*
X0285067Y0155379D01*
X0288515Y0155379D01*
X0288515Y0149569D01*
X0288515Y0151593D02*
X0285067Y0151593D01*
X0285067Y0153617D02*
X0288515Y0153617D01*
X0274044Y0153017D02*
X0274044Y0149569D01*
X0274044Y0153017D02*
X0279854Y0153017D01*
X0279854Y0149569D01*
X0274044Y0149569D01*
X0274044Y0151593D02*
X0279854Y0151593D01*
X0274044Y0162167D02*
X0274044Y0165615D01*
X0279854Y0165615D01*
X0279854Y0162167D01*
X0274044Y0162167D01*
X0274044Y0164191D02*
X0279854Y0164191D01*
X0297570Y0273585D02*
X0297570Y0277033D01*
X0297570Y0273585D02*
X0291760Y0273585D01*
X0291760Y0277033D01*
X0297570Y0277033D01*
X0297570Y0275609D02*
X0291760Y0275609D01*
X0297570Y0286183D02*
X0297570Y0289631D01*
X0297570Y0286183D02*
X0291760Y0286183D01*
X0291760Y0289631D01*
X0297570Y0289631D01*
X0297570Y0288207D02*
X0291760Y0288207D01*
X0223555Y0480970D02*
X0220107Y0480970D01*
X0223555Y0480970D02*
X0223555Y0475160D01*
X0220107Y0475160D01*
X0220107Y0480970D01*
X0220107Y0477184D02*
X0223555Y0477184D01*
X0223555Y0479208D02*
X0220107Y0479208D01*
X0210956Y0480970D02*
X0207508Y0480970D01*
X0210956Y0480970D02*
X0210956Y0475160D01*
X0207508Y0475160D01*
X0207508Y0480970D01*
X0207508Y0477184D02*
X0210956Y0477184D01*
X0210956Y0479208D02*
X0207508Y0479208D01*
X0283099Y0534215D02*
X0286547Y0534215D01*
X0283099Y0534215D02*
X0283099Y0540025D01*
X0286547Y0540025D01*
X0286547Y0534215D01*
X0286547Y0536239D02*
X0283099Y0536239D01*
X0283099Y0538263D02*
X0286547Y0538263D01*
X0286547Y0543270D02*
X0283099Y0543270D01*
X0283099Y0549080D01*
X0286547Y0549080D01*
X0286547Y0543270D01*
X0286547Y0545294D02*
X0283099Y0545294D01*
X0283099Y0547318D02*
X0286547Y0547318D01*
X0295697Y0543270D02*
X0299145Y0543270D01*
X0295697Y0543270D02*
X0295697Y0549080D01*
X0299145Y0549080D01*
X0299145Y0543270D01*
X0299145Y0545294D02*
X0295697Y0545294D01*
X0295697Y0547318D02*
X0299145Y0547318D01*
X0299145Y0534215D02*
X0295697Y0534215D01*
X0295697Y0540025D01*
X0299145Y0540025D01*
X0299145Y0534215D01*
X0299145Y0536239D02*
X0295697Y0536239D01*
X0295697Y0538263D02*
X0299145Y0538263D01*
X0448453Y0501442D02*
X0451901Y0501442D01*
X0451901Y0495632D01*
X0448453Y0495632D01*
X0448453Y0501442D01*
X0448453Y0497656D02*
X0451901Y0497656D01*
X0451901Y0499680D02*
X0448453Y0499680D01*
X0461051Y0501442D02*
X0464499Y0501442D01*
X0464499Y0495632D01*
X0461051Y0495632D01*
X0461051Y0501442D01*
X0461051Y0497656D02*
X0464499Y0497656D01*
X0464499Y0499680D02*
X0461051Y0499680D01*
X0468043Y0516104D02*
X0468043Y0519552D01*
X0468043Y0516104D02*
X0462233Y0516104D01*
X0462233Y0519552D01*
X0468043Y0519552D01*
X0468043Y0518128D02*
X0462233Y0518128D01*
X0477098Y0519552D02*
X0477098Y0516104D01*
X0471288Y0516104D01*
X0471288Y0519552D01*
X0477098Y0519552D01*
X0477098Y0518128D02*
X0471288Y0518128D01*
X0477098Y0528703D02*
X0477098Y0532151D01*
X0477098Y0528703D02*
X0471288Y0528703D01*
X0471288Y0532151D01*
X0477098Y0532151D01*
X0477098Y0530727D02*
X0471288Y0530727D01*
X0468043Y0532151D02*
X0468043Y0528703D01*
X0462233Y0528703D01*
X0462233Y0532151D01*
X0468043Y0532151D01*
X0468043Y0530727D02*
X0462233Y0530727D01*
D16*
X0460878Y0537977D02*
X0459162Y0537977D01*
X0460878Y0537977D02*
X0460878Y0535475D01*
X0459162Y0535475D01*
X0459162Y0537977D01*
X0459162Y0537657D02*
X0460878Y0537657D01*
X0465461Y0537977D02*
X0467177Y0537977D01*
X0467177Y0535475D01*
X0465461Y0535475D01*
X0465461Y0537977D01*
X0465461Y0537657D02*
X0467177Y0537657D01*
X0451822Y0534040D02*
X0450106Y0534040D01*
X0451822Y0534040D02*
X0451822Y0531538D01*
X0450106Y0531538D01*
X0450106Y0534040D01*
X0450106Y0533720D02*
X0451822Y0533720D01*
X0445523Y0534040D02*
X0443807Y0534040D01*
X0445523Y0534040D02*
X0445523Y0531538D01*
X0443807Y0531538D01*
X0443807Y0534040D01*
X0443807Y0533720D02*
X0445523Y0533720D01*
X0440405Y0531538D02*
X0438689Y0531538D01*
X0438689Y0534040D01*
X0440405Y0534040D01*
X0440405Y0531538D01*
X0440405Y0533720D02*
X0438689Y0533720D01*
X0434106Y0531538D02*
X0432390Y0531538D01*
X0432390Y0534040D01*
X0434106Y0534040D01*
X0434106Y0531538D01*
X0434106Y0533720D02*
X0432390Y0533720D01*
X0432390Y0525632D02*
X0434106Y0525632D01*
X0432390Y0525632D02*
X0432390Y0528134D01*
X0434106Y0528134D01*
X0434106Y0525632D01*
X0434106Y0527814D02*
X0432390Y0527814D01*
X0427807Y0525632D02*
X0426091Y0525632D01*
X0426091Y0528134D01*
X0427807Y0528134D01*
X0427807Y0525632D01*
X0427807Y0527814D02*
X0426091Y0527814D01*
X0428060Y0519474D02*
X0428060Y0517758D01*
X0428060Y0519474D02*
X0430562Y0519474D01*
X0430562Y0517758D01*
X0428060Y0517758D01*
X0428060Y0513175D02*
X0428060Y0511459D01*
X0428060Y0513175D02*
X0430562Y0513175D01*
X0430562Y0511459D01*
X0428060Y0511459D01*
X0430562Y0508056D02*
X0430562Y0506340D01*
X0428060Y0506340D01*
X0428060Y0508056D01*
X0430562Y0508056D01*
X0430562Y0501757D02*
X0430562Y0500041D01*
X0428060Y0500041D01*
X0428060Y0501757D01*
X0430562Y0501757D01*
X0437114Y0498861D02*
X0438830Y0498861D01*
X0437114Y0498861D02*
X0437114Y0501363D01*
X0438830Y0501363D01*
X0438830Y0498861D01*
X0438830Y0501043D02*
X0437114Y0501043D01*
X0443414Y0498861D02*
X0445130Y0498861D01*
X0443414Y0498861D02*
X0443414Y0501363D01*
X0445130Y0501363D01*
X0445130Y0498861D01*
X0445130Y0501043D02*
X0443414Y0501043D01*
X0461918Y0504766D02*
X0461918Y0506482D01*
X0464420Y0506482D01*
X0464420Y0504766D01*
X0461918Y0504766D01*
X0461918Y0511065D02*
X0461918Y0512781D01*
X0464420Y0512781D01*
X0464420Y0511065D01*
X0461918Y0511065D01*
X0445523Y0525632D02*
X0443807Y0525632D01*
X0443807Y0528134D01*
X0445523Y0528134D01*
X0445523Y0525632D01*
X0445523Y0527814D02*
X0443807Y0527814D01*
X0439224Y0525632D02*
X0437508Y0525632D01*
X0437508Y0528134D01*
X0439224Y0528134D01*
X0439224Y0525632D01*
X0439224Y0527814D02*
X0437508Y0527814D01*
X0412845Y0527600D02*
X0412845Y0529316D01*
X0412845Y0527600D02*
X0410343Y0527600D01*
X0410343Y0529316D01*
X0412845Y0529316D01*
X0412845Y0533899D02*
X0412845Y0535615D01*
X0412845Y0533899D02*
X0410343Y0533899D01*
X0410343Y0535615D01*
X0412845Y0535615D01*
X0406941Y0539018D02*
X0405225Y0539018D01*
X0405225Y0541520D01*
X0406941Y0541520D01*
X0406941Y0539018D01*
X0406941Y0541200D02*
X0405225Y0541200D01*
X0400641Y0539018D02*
X0398925Y0539018D01*
X0398925Y0541520D01*
X0400641Y0541520D01*
X0400641Y0539018D01*
X0400641Y0541200D02*
X0398925Y0541200D01*
X0395523Y0541520D02*
X0393807Y0541520D01*
X0395523Y0541520D02*
X0395523Y0539018D01*
X0393807Y0539018D01*
X0393807Y0541520D01*
X0393807Y0541200D02*
X0395523Y0541200D01*
X0395523Y0533113D02*
X0393807Y0533113D01*
X0393807Y0535615D01*
X0395523Y0535615D01*
X0395523Y0533113D01*
X0395523Y0535295D02*
X0393807Y0535295D01*
X0389224Y0533113D02*
X0387508Y0533113D01*
X0387508Y0535615D01*
X0389224Y0535615D01*
X0389224Y0533113D01*
X0389224Y0535295D02*
X0387508Y0535295D01*
X0387508Y0541520D02*
X0389224Y0541520D01*
X0389224Y0539018D01*
X0387508Y0539018D01*
X0387508Y0541520D01*
X0387508Y0541200D02*
X0389224Y0541200D01*
X0392627Y0523804D02*
X0392627Y0522088D01*
X0392627Y0523804D02*
X0395129Y0523804D01*
X0395129Y0522088D01*
X0392627Y0522088D01*
X0392627Y0517505D02*
X0392627Y0515789D01*
X0392627Y0517505D02*
X0395129Y0517505D01*
X0395129Y0515789D01*
X0392627Y0515789D01*
X0393161Y0487190D02*
X0391445Y0487190D01*
X0393161Y0487190D02*
X0393161Y0484688D01*
X0391445Y0484688D01*
X0391445Y0487190D01*
X0391445Y0486870D02*
X0393161Y0486870D01*
X0397744Y0487190D02*
X0399460Y0487190D01*
X0399460Y0484688D01*
X0397744Y0484688D01*
X0397744Y0487190D01*
X0397744Y0486870D02*
X0399460Y0486870D01*
X0404044Y0486797D02*
X0404044Y0485081D01*
X0404044Y0486797D02*
X0406546Y0486797D01*
X0406546Y0485081D01*
X0404044Y0485081D01*
X0404044Y0480497D02*
X0404044Y0478781D01*
X0404044Y0480497D02*
X0406546Y0480497D01*
X0406546Y0478781D01*
X0404044Y0478781D01*
X0399460Y0481284D02*
X0397744Y0481284D01*
X0399460Y0481284D02*
X0399460Y0478782D01*
X0397744Y0478782D01*
X0397744Y0481284D01*
X0397744Y0480964D02*
X0399460Y0480964D01*
X0393161Y0481284D02*
X0391445Y0481284D01*
X0393161Y0481284D02*
X0393161Y0478782D01*
X0391445Y0478782D01*
X0391445Y0481284D01*
X0391445Y0480964D02*
X0393161Y0480964D01*
X0389617Y0473804D02*
X0389617Y0472088D01*
X0387115Y0472088D01*
X0387115Y0473804D01*
X0389617Y0473804D01*
X0383711Y0473804D02*
X0383711Y0472088D01*
X0381209Y0472088D01*
X0381209Y0473804D01*
X0383711Y0473804D01*
X0383711Y0467505D02*
X0383711Y0465789D01*
X0381209Y0465789D01*
X0381209Y0467505D01*
X0383711Y0467505D01*
X0389617Y0467505D02*
X0389617Y0465789D01*
X0387115Y0465789D01*
X0387115Y0467505D01*
X0389617Y0467505D01*
X0389617Y0461206D02*
X0389617Y0459490D01*
X0387115Y0459490D01*
X0387115Y0461206D01*
X0389617Y0461206D01*
X0389617Y0454907D02*
X0389617Y0453191D01*
X0387115Y0453191D01*
X0387115Y0454907D01*
X0389617Y0454907D01*
X0394201Y0449788D02*
X0395917Y0449788D01*
X0395917Y0447286D01*
X0394201Y0447286D01*
X0394201Y0449788D01*
X0394201Y0449468D02*
X0395917Y0449468D01*
X0400500Y0449788D02*
X0402216Y0449788D01*
X0402216Y0447286D01*
X0400500Y0447286D01*
X0400500Y0449788D01*
X0400500Y0449468D02*
X0402216Y0449468D01*
X0405618Y0447286D02*
X0407334Y0447286D01*
X0405618Y0447286D02*
X0405618Y0449788D01*
X0407334Y0449788D01*
X0407334Y0447286D01*
X0407334Y0449468D02*
X0405618Y0449468D01*
X0411917Y0447286D02*
X0413633Y0447286D01*
X0411917Y0447286D02*
X0411917Y0449788D01*
X0413633Y0449788D01*
X0413633Y0447286D01*
X0413633Y0449468D02*
X0411917Y0449468D01*
X0411131Y0454766D02*
X0411131Y0456482D01*
X0413633Y0456482D01*
X0413633Y0454766D01*
X0411131Y0454766D01*
X0411131Y0461065D02*
X0411131Y0462781D01*
X0413633Y0462781D01*
X0413633Y0461065D01*
X0411131Y0461065D01*
X0413633Y0466183D02*
X0413633Y0467899D01*
X0413633Y0466183D02*
X0411131Y0466183D01*
X0411131Y0467899D01*
X0413633Y0467899D01*
X0413633Y0472482D02*
X0413633Y0474198D01*
X0413633Y0472482D02*
X0411131Y0472482D01*
X0411131Y0474198D01*
X0413633Y0474198D01*
X0411131Y0478781D02*
X0411131Y0480497D01*
X0413633Y0480497D01*
X0413633Y0478781D01*
X0411131Y0478781D01*
X0411131Y0485081D02*
X0411131Y0486797D01*
X0413633Y0486797D01*
X0413633Y0485081D01*
X0411131Y0485081D01*
X0428987Y0465143D02*
X0428987Y0463427D01*
X0426485Y0463427D01*
X0426485Y0465143D01*
X0428987Y0465143D01*
X0428987Y0458844D02*
X0428987Y0457128D01*
X0426485Y0457128D01*
X0426485Y0458844D01*
X0428987Y0458844D01*
X0438042Y0449789D02*
X0438042Y0448073D01*
X0435540Y0448073D01*
X0435540Y0449789D01*
X0438042Y0449789D01*
X0443948Y0449789D02*
X0443948Y0448073D01*
X0441446Y0448073D01*
X0441446Y0449789D01*
X0443948Y0449789D01*
X0443948Y0443489D02*
X0443948Y0441773D01*
X0441446Y0441773D01*
X0441446Y0443489D01*
X0443948Y0443489D01*
X0438690Y0438371D02*
X0438690Y0436655D01*
X0438690Y0438371D02*
X0441192Y0438371D01*
X0441192Y0436655D01*
X0438690Y0436655D01*
X0432784Y0436655D02*
X0432784Y0438371D01*
X0435286Y0438371D01*
X0435286Y0436655D01*
X0432784Y0436655D01*
X0432784Y0432072D02*
X0432784Y0430356D01*
X0432784Y0432072D02*
X0435286Y0432072D01*
X0435286Y0430356D01*
X0432784Y0430356D01*
X0427413Y0430357D02*
X0425697Y0430357D01*
X0425697Y0432859D01*
X0427413Y0432859D01*
X0427413Y0430357D01*
X0427413Y0432539D02*
X0425697Y0432539D01*
X0421114Y0430357D02*
X0419398Y0430357D01*
X0419398Y0432859D01*
X0421114Y0432859D01*
X0421114Y0430357D01*
X0421114Y0432539D02*
X0419398Y0432539D01*
X0419005Y0425773D02*
X0419005Y0424057D01*
X0419005Y0425773D02*
X0421507Y0425773D01*
X0421507Y0424057D01*
X0419005Y0424057D01*
X0419005Y0419474D02*
X0419005Y0417758D01*
X0419005Y0419474D02*
X0421507Y0419474D01*
X0421507Y0417758D01*
X0419005Y0417758D01*
X0401035Y0411459D02*
X0399319Y0411459D01*
X0399319Y0413961D01*
X0401035Y0413961D01*
X0401035Y0411459D01*
X0401035Y0413641D02*
X0399319Y0413641D01*
X0394736Y0411459D02*
X0393020Y0411459D01*
X0393020Y0413961D01*
X0394736Y0413961D01*
X0394736Y0411459D01*
X0394736Y0413641D02*
X0393020Y0413641D01*
X0391586Y0405554D02*
X0389870Y0405554D01*
X0389870Y0408056D01*
X0391586Y0408056D01*
X0391586Y0405554D01*
X0391586Y0407736D02*
X0389870Y0407736D01*
X0396169Y0405554D02*
X0397885Y0405554D01*
X0396169Y0405554D02*
X0396169Y0408056D01*
X0397885Y0408056D01*
X0397885Y0405554D01*
X0397885Y0407736D02*
X0396169Y0407736D01*
X0361664Y0420514D02*
X0361664Y0422230D01*
X0361664Y0420514D02*
X0359162Y0420514D01*
X0359162Y0422230D01*
X0361664Y0422230D01*
X0361664Y0426813D02*
X0361664Y0428529D01*
X0361664Y0426813D02*
X0359162Y0426813D01*
X0359162Y0428529D01*
X0361664Y0428529D01*
X0359162Y0434687D02*
X0359162Y0436403D01*
X0361664Y0436403D01*
X0361664Y0434687D01*
X0359162Y0434687D01*
X0359162Y0440986D02*
X0359162Y0442702D01*
X0361664Y0442702D01*
X0361664Y0440986D01*
X0359162Y0440986D01*
X0360343Y0441380D02*
X0360343Y0443096D01*
X0362845Y0443096D01*
X0362845Y0441380D01*
X0360343Y0441380D01*
X0360343Y0447679D02*
X0360343Y0449395D01*
X0362845Y0449395D01*
X0362845Y0447679D01*
X0360343Y0447679D01*
X0343160Y0442702D02*
X0343160Y0440986D01*
X0340658Y0440986D01*
X0340658Y0442702D01*
X0343160Y0442702D01*
X0337255Y0442702D02*
X0337255Y0440986D01*
X0334753Y0440986D01*
X0334753Y0442702D01*
X0337255Y0442702D01*
X0337255Y0436403D02*
X0337255Y0434687D01*
X0334753Y0434687D01*
X0334753Y0436403D01*
X0337255Y0436403D01*
X0343160Y0436403D02*
X0343160Y0434687D01*
X0340658Y0434687D01*
X0340658Y0436403D01*
X0343160Y0436403D01*
X0340658Y0431285D02*
X0340658Y0429569D01*
X0340658Y0431285D02*
X0343160Y0431285D01*
X0343160Y0429569D01*
X0340658Y0429569D01*
X0334753Y0429569D02*
X0334753Y0431285D01*
X0337255Y0431285D01*
X0337255Y0429569D01*
X0334753Y0429569D01*
X0334753Y0424986D02*
X0334753Y0423270D01*
X0334753Y0424986D02*
X0337255Y0424986D01*
X0337255Y0423270D01*
X0334753Y0423270D01*
X0335146Y0419867D02*
X0336862Y0419867D01*
X0336862Y0417365D01*
X0335146Y0417365D01*
X0335146Y0419867D01*
X0335146Y0419547D02*
X0336862Y0419547D01*
X0341445Y0419867D02*
X0343161Y0419867D01*
X0343161Y0417365D01*
X0341445Y0417365D01*
X0341445Y0419867D01*
X0341445Y0419547D02*
X0343161Y0419547D01*
X0346563Y0419867D02*
X0348279Y0419867D01*
X0348279Y0417365D01*
X0346563Y0417365D01*
X0346563Y0419867D01*
X0346563Y0419547D02*
X0348279Y0419547D01*
X0348279Y0425772D02*
X0346563Y0425772D01*
X0348279Y0425772D02*
X0348279Y0423270D01*
X0346563Y0423270D01*
X0346563Y0425772D01*
X0346563Y0425452D02*
X0348279Y0425452D01*
X0352862Y0425772D02*
X0354578Y0425772D01*
X0354578Y0423270D01*
X0352862Y0423270D01*
X0352862Y0425772D01*
X0352862Y0425452D02*
X0354578Y0425452D01*
X0354578Y0419867D02*
X0352862Y0419867D01*
X0354578Y0419867D02*
X0354578Y0417365D01*
X0352862Y0417365D01*
X0352862Y0419867D01*
X0352862Y0419547D02*
X0354578Y0419547D01*
X0354578Y0411459D02*
X0352862Y0411459D01*
X0352862Y0413961D01*
X0354578Y0413961D01*
X0354578Y0411459D01*
X0354578Y0413641D02*
X0352862Y0413641D01*
X0348279Y0411459D02*
X0346563Y0411459D01*
X0346563Y0413961D01*
X0348279Y0413961D01*
X0348279Y0411459D01*
X0348279Y0413641D02*
X0346563Y0413641D01*
X0340658Y0423270D02*
X0340658Y0424986D01*
X0343160Y0424986D01*
X0343160Y0423270D01*
X0340658Y0423270D01*
X0331744Y0419867D02*
X0330028Y0419867D01*
X0331744Y0419867D02*
X0331744Y0417365D01*
X0330028Y0417365D01*
X0330028Y0419867D01*
X0330028Y0419547D02*
X0331744Y0419547D01*
X0325444Y0419867D02*
X0323728Y0419867D01*
X0325444Y0419867D02*
X0325444Y0417365D01*
X0323728Y0417365D01*
X0323728Y0419867D01*
X0323728Y0419547D02*
X0325444Y0419547D01*
X0289618Y0412247D02*
X0287902Y0412247D01*
X0287902Y0414749D01*
X0289618Y0414749D01*
X0289618Y0412247D01*
X0289618Y0414429D02*
X0287902Y0414429D01*
X0283318Y0412247D02*
X0281602Y0412247D01*
X0281602Y0414749D01*
X0283318Y0414749D01*
X0283318Y0412247D01*
X0283318Y0414429D02*
X0281602Y0414429D01*
X0281602Y0406341D02*
X0283318Y0406341D01*
X0281602Y0406341D02*
X0281602Y0408843D01*
X0283318Y0408843D01*
X0283318Y0406341D01*
X0283318Y0408523D02*
X0281602Y0408523D01*
X0287902Y0406341D02*
X0289618Y0406341D01*
X0287902Y0406341D02*
X0287902Y0408843D01*
X0289618Y0408843D01*
X0289618Y0406341D01*
X0289618Y0408523D02*
X0287902Y0408523D01*
X0267036Y0440199D02*
X0267036Y0441915D01*
X0269538Y0441915D01*
X0269538Y0440199D01*
X0267036Y0440199D01*
X0267036Y0446498D02*
X0267036Y0448214D01*
X0269538Y0448214D01*
X0269538Y0446498D01*
X0267036Y0446498D01*
X0241193Y0446638D02*
X0239477Y0446638D01*
X0241193Y0446638D02*
X0241193Y0444136D01*
X0239477Y0444136D01*
X0239477Y0446638D01*
X0239477Y0446318D02*
X0241193Y0446318D01*
X0241193Y0450042D02*
X0239477Y0450042D01*
X0239477Y0452544D01*
X0241193Y0452544D01*
X0241193Y0450042D01*
X0241193Y0452224D02*
X0239477Y0452224D01*
X0234893Y0450042D02*
X0233177Y0450042D01*
X0233177Y0452544D01*
X0234893Y0452544D01*
X0234893Y0450042D01*
X0234893Y0452224D02*
X0233177Y0452224D01*
X0229775Y0450829D02*
X0228059Y0450829D01*
X0228059Y0453331D01*
X0229775Y0453331D01*
X0229775Y0450829D01*
X0229775Y0453011D02*
X0228059Y0453011D01*
X0223476Y0450829D02*
X0221760Y0450829D01*
X0221760Y0453331D01*
X0223476Y0453331D01*
X0223476Y0450829D01*
X0223476Y0453011D02*
X0221760Y0453011D01*
X0233177Y0446638D02*
X0234893Y0446638D01*
X0234893Y0444136D01*
X0233177Y0444136D01*
X0233177Y0446638D01*
X0233177Y0446318D02*
X0234893Y0446318D01*
X0234358Y0433253D02*
X0236074Y0433253D01*
X0236074Y0430751D01*
X0234358Y0430751D01*
X0234358Y0433253D01*
X0234358Y0432933D02*
X0236074Y0432933D01*
X0240658Y0433253D02*
X0242374Y0433253D01*
X0242374Y0430751D01*
X0240658Y0430751D01*
X0240658Y0433253D01*
X0240658Y0432933D02*
X0242374Y0432933D01*
X0234359Y0427348D02*
X0234359Y0425632D01*
X0234359Y0427348D02*
X0236861Y0427348D01*
X0236861Y0425632D01*
X0234359Y0425632D01*
X0234359Y0421049D02*
X0234359Y0419333D01*
X0234359Y0421049D02*
X0236861Y0421049D01*
X0236861Y0419333D01*
X0234359Y0419333D01*
X0228988Y0419333D02*
X0227272Y0419333D01*
X0227272Y0421835D01*
X0228988Y0421835D01*
X0228988Y0419333D01*
X0228988Y0421515D02*
X0227272Y0421515D01*
X0222689Y0419333D02*
X0220973Y0419333D01*
X0220973Y0421835D01*
X0222689Y0421835D01*
X0222689Y0419333D01*
X0222689Y0421515D02*
X0220973Y0421515D01*
X0217570Y0418293D02*
X0217570Y0416577D01*
X0215068Y0416577D01*
X0215068Y0418293D01*
X0217570Y0418293D01*
X0217570Y0411993D02*
X0217570Y0410277D01*
X0215068Y0410277D01*
X0215068Y0411993D01*
X0217570Y0411993D01*
X0215208Y0406875D02*
X0215208Y0405159D01*
X0212706Y0405159D01*
X0212706Y0406875D01*
X0215208Y0406875D01*
X0209302Y0406875D02*
X0209302Y0405159D01*
X0206800Y0405159D01*
X0206800Y0406875D01*
X0209302Y0406875D01*
X0209302Y0400576D02*
X0209302Y0398860D01*
X0206800Y0398860D01*
X0206800Y0400576D01*
X0209302Y0400576D01*
X0215208Y0400576D02*
X0215208Y0398860D01*
X0212706Y0398860D01*
X0212706Y0400576D01*
X0215208Y0400576D01*
X0206800Y0394277D02*
X0206800Y0392561D01*
X0206800Y0394277D02*
X0209302Y0394277D01*
X0209302Y0392561D01*
X0206800Y0392561D01*
X0206800Y0387978D02*
X0206800Y0386262D01*
X0206800Y0387978D02*
X0209302Y0387978D01*
X0209302Y0386262D01*
X0206800Y0386262D01*
X0209302Y0376167D02*
X0209302Y0374451D01*
X0206800Y0374451D01*
X0206800Y0376167D01*
X0209302Y0376167D01*
X0209302Y0369867D02*
X0209302Y0368151D01*
X0206800Y0368151D01*
X0206800Y0369867D01*
X0209302Y0369867D01*
X0209302Y0364749D02*
X0209302Y0363033D01*
X0206800Y0363033D01*
X0206800Y0364749D01*
X0209302Y0364749D01*
X0209302Y0358450D02*
X0209302Y0356734D01*
X0206800Y0356734D01*
X0206800Y0358450D01*
X0209302Y0358450D01*
X0209302Y0353332D02*
X0209302Y0351616D01*
X0206800Y0351616D01*
X0206800Y0353332D01*
X0209302Y0353332D01*
X0209302Y0347033D02*
X0209302Y0345317D01*
X0206800Y0345317D01*
X0206800Y0347033D01*
X0209302Y0347033D01*
X0206800Y0341915D02*
X0206800Y0340199D01*
X0206800Y0341915D02*
X0209302Y0341915D01*
X0209302Y0340199D01*
X0206800Y0340199D01*
X0206800Y0335615D02*
X0206800Y0333899D01*
X0206800Y0335615D02*
X0209302Y0335615D01*
X0209302Y0333899D01*
X0206800Y0333899D01*
X0221366Y0319867D02*
X0223082Y0319867D01*
X0223082Y0317365D01*
X0221366Y0317365D01*
X0221366Y0319867D01*
X0221366Y0319547D02*
X0223082Y0319547D01*
X0227665Y0319867D02*
X0229381Y0319867D01*
X0229381Y0317365D01*
X0227665Y0317365D01*
X0227665Y0319867D01*
X0227665Y0319547D02*
X0229381Y0319547D01*
X0190011Y0314609D02*
X0188295Y0314609D01*
X0188295Y0317111D01*
X0190011Y0317111D01*
X0190011Y0314609D01*
X0190011Y0316791D02*
X0188295Y0316791D01*
X0183712Y0314609D02*
X0181996Y0314609D01*
X0181996Y0317111D01*
X0183712Y0317111D01*
X0183712Y0314609D01*
X0183712Y0316791D02*
X0181996Y0316791D01*
X0178593Y0316577D02*
X0178593Y0318293D01*
X0178593Y0316577D02*
X0176091Y0316577D01*
X0176091Y0318293D01*
X0178593Y0318293D01*
X0178593Y0311993D02*
X0178593Y0310277D01*
X0176091Y0310277D01*
X0176091Y0311993D01*
X0178593Y0311993D01*
X0181602Y0279176D02*
X0183318Y0279176D01*
X0181602Y0279176D02*
X0181602Y0281678D01*
X0183318Y0281678D01*
X0183318Y0279176D01*
X0183318Y0281358D02*
X0181602Y0281358D01*
X0187902Y0279176D02*
X0189618Y0279176D01*
X0187902Y0279176D02*
X0187902Y0281678D01*
X0189618Y0281678D01*
X0189618Y0279176D01*
X0189618Y0281358D02*
X0187902Y0281358D01*
X0196169Y0281678D02*
X0197885Y0281678D01*
X0197885Y0279176D01*
X0196169Y0279176D01*
X0196169Y0281678D01*
X0196169Y0281358D02*
X0197885Y0281358D01*
X0202469Y0281678D02*
X0204185Y0281678D01*
X0204185Y0279176D01*
X0202469Y0279176D01*
X0202469Y0281678D01*
X0202469Y0281358D02*
X0204185Y0281358D01*
X0218357Y0278529D02*
X0218357Y0276813D01*
X0215855Y0276813D01*
X0215855Y0278529D01*
X0218357Y0278529D01*
X0218357Y0272230D02*
X0218357Y0270514D01*
X0215855Y0270514D01*
X0215855Y0272230D01*
X0218357Y0272230D01*
X0220186Y0261206D02*
X0220186Y0259490D01*
X0220186Y0261206D02*
X0222688Y0261206D01*
X0222688Y0259490D01*
X0220186Y0259490D01*
X0220186Y0254907D02*
X0220186Y0253191D01*
X0220186Y0254907D02*
X0222688Y0254907D01*
X0222688Y0253191D01*
X0220186Y0253191D01*
X0230028Y0237583D02*
X0231744Y0237583D01*
X0231744Y0235081D01*
X0230028Y0235081D01*
X0230028Y0237583D01*
X0230028Y0237263D02*
X0231744Y0237263D01*
X0236327Y0237583D02*
X0238043Y0237583D01*
X0238043Y0235081D01*
X0236327Y0235081D01*
X0236327Y0237583D01*
X0236327Y0237263D02*
X0238043Y0237263D01*
X0238043Y0231678D02*
X0236327Y0231678D01*
X0238043Y0231678D02*
X0238043Y0229176D01*
X0236327Y0229176D01*
X0236327Y0231678D01*
X0236327Y0231358D02*
X0238043Y0231358D01*
X0231744Y0231678D02*
X0230028Y0231678D01*
X0231744Y0231678D02*
X0231744Y0229176D01*
X0230028Y0229176D01*
X0230028Y0231678D01*
X0230028Y0231358D02*
X0231744Y0231358D01*
X0233965Y0225772D02*
X0235681Y0225772D01*
X0235681Y0223270D01*
X0233965Y0223270D01*
X0233965Y0225772D01*
X0233965Y0225452D02*
X0235681Y0225452D01*
X0240264Y0225772D02*
X0241980Y0225772D01*
X0241980Y0223270D01*
X0240264Y0223270D01*
X0240264Y0225772D01*
X0240264Y0225452D02*
X0241980Y0225452D01*
X0221367Y0201364D02*
X0221367Y0199648D01*
X0221367Y0201364D02*
X0223869Y0201364D01*
X0223869Y0199648D01*
X0221367Y0199648D01*
X0221367Y0195064D02*
X0221367Y0193348D01*
X0221367Y0195064D02*
X0223869Y0195064D01*
X0223869Y0193348D01*
X0221367Y0193348D01*
X0222154Y0189945D02*
X0223870Y0189945D01*
X0223870Y0187443D01*
X0222154Y0187443D01*
X0222154Y0189945D01*
X0222154Y0189625D02*
X0223870Y0189625D01*
X0217570Y0189945D02*
X0215854Y0189945D01*
X0217570Y0189945D02*
X0217570Y0187443D01*
X0215854Y0187443D01*
X0215854Y0189945D01*
X0215854Y0189625D02*
X0217570Y0189625D01*
X0214280Y0193348D02*
X0214280Y0195064D01*
X0216782Y0195064D01*
X0216782Y0193348D01*
X0214280Y0193348D01*
X0214280Y0199648D02*
X0214280Y0201364D01*
X0216782Y0201364D01*
X0216782Y0199648D01*
X0214280Y0199648D01*
X0247745Y0185615D02*
X0247745Y0183899D01*
X0247745Y0185615D02*
X0250247Y0185615D01*
X0250247Y0183899D01*
X0247745Y0183899D01*
X0247745Y0179316D02*
X0247745Y0177600D01*
X0247745Y0179316D02*
X0250247Y0179316D01*
X0250247Y0177600D01*
X0247745Y0177600D01*
X0244989Y0174198D02*
X0244989Y0172482D01*
X0244989Y0174198D02*
X0247491Y0174198D01*
X0247491Y0172482D01*
X0244989Y0172482D01*
X0244989Y0167899D02*
X0244989Y0166183D01*
X0244989Y0167899D02*
X0247491Y0167899D01*
X0247491Y0166183D01*
X0244989Y0166183D01*
X0254437Y0155160D02*
X0256153Y0155160D01*
X0254437Y0155160D02*
X0254437Y0157662D01*
X0256153Y0157662D01*
X0256153Y0155160D01*
X0256153Y0157342D02*
X0254437Y0157342D01*
X0254437Y0149255D02*
X0256153Y0149255D01*
X0254437Y0149255D02*
X0254437Y0151757D01*
X0256153Y0151757D01*
X0256153Y0149255D01*
X0256153Y0151437D02*
X0254437Y0151437D01*
X0260736Y0149255D02*
X0262452Y0149255D01*
X0260736Y0149255D02*
X0260736Y0151757D01*
X0262452Y0151757D01*
X0262452Y0149255D01*
X0262452Y0151437D02*
X0260736Y0151437D01*
X0260736Y0155160D02*
X0262452Y0155160D01*
X0260736Y0155160D02*
X0260736Y0157662D01*
X0262452Y0157662D01*
X0262452Y0155160D01*
X0262452Y0157342D02*
X0260736Y0157342D01*
X0270719Y0163033D02*
X0270719Y0164749D01*
X0270719Y0163033D02*
X0268217Y0163033D01*
X0268217Y0164749D01*
X0270719Y0164749D01*
X0270719Y0169333D02*
X0270719Y0171049D01*
X0270719Y0169333D02*
X0268217Y0169333D01*
X0268217Y0171049D01*
X0270719Y0171049D01*
X0268217Y0177600D02*
X0268217Y0179316D01*
X0270719Y0179316D01*
X0270719Y0177600D01*
X0268217Y0177600D01*
X0262312Y0177600D02*
X0262312Y0179316D01*
X0264814Y0179316D01*
X0264814Y0177600D01*
X0262312Y0177600D01*
X0262312Y0183899D02*
X0262312Y0185615D01*
X0264814Y0185615D01*
X0264814Y0183899D01*
X0262312Y0183899D01*
X0268217Y0183899D02*
X0268217Y0185615D01*
X0270719Y0185615D01*
X0270719Y0183899D01*
X0268217Y0183899D01*
X0253650Y0183899D02*
X0253650Y0185615D01*
X0256152Y0185615D01*
X0256152Y0183899D01*
X0253650Y0183899D01*
X0253650Y0179316D02*
X0253650Y0177600D01*
X0253650Y0179316D02*
X0256152Y0179316D01*
X0256152Y0177600D01*
X0253650Y0177600D01*
X0232137Y0165790D02*
X0230421Y0165790D01*
X0230421Y0168292D01*
X0232137Y0168292D01*
X0232137Y0165790D01*
X0232137Y0167972D02*
X0230421Y0167972D01*
X0225838Y0165790D02*
X0224122Y0165790D01*
X0224122Y0168292D01*
X0225838Y0168292D01*
X0225838Y0165790D01*
X0225838Y0167972D02*
X0224122Y0167972D01*
X0226625Y0162387D02*
X0226625Y0160671D01*
X0224123Y0160671D01*
X0224123Y0162387D01*
X0226625Y0162387D01*
X0232530Y0162387D02*
X0232530Y0160671D01*
X0230028Y0160671D01*
X0230028Y0162387D01*
X0232530Y0162387D01*
X0232530Y0156088D02*
X0232530Y0154372D01*
X0230028Y0154372D01*
X0230028Y0156088D01*
X0232530Y0156088D01*
X0226625Y0156088D02*
X0226625Y0154372D01*
X0224123Y0154372D01*
X0224123Y0156088D01*
X0226625Y0156088D01*
X0203791Y0152010D02*
X0202075Y0152010D01*
X0202075Y0154512D01*
X0203791Y0154512D01*
X0203791Y0152010D01*
X0203791Y0154192D02*
X0202075Y0154192D01*
X0202075Y0157916D02*
X0203791Y0157916D01*
X0202075Y0157916D02*
X0202075Y0160418D01*
X0203791Y0160418D01*
X0203791Y0157916D01*
X0203791Y0160098D02*
X0202075Y0160098D01*
X0197492Y0157916D02*
X0195776Y0157916D01*
X0195776Y0160418D01*
X0197492Y0160418D01*
X0197492Y0157916D01*
X0197492Y0160098D02*
X0195776Y0160098D01*
X0192373Y0160025D02*
X0192373Y0158309D01*
X0189871Y0158309D01*
X0189871Y0160025D01*
X0192373Y0160025D01*
X0192373Y0164608D02*
X0192373Y0166324D01*
X0192373Y0164608D02*
X0189871Y0164608D01*
X0189871Y0166324D01*
X0192373Y0166324D01*
X0195776Y0152010D02*
X0197492Y0152010D01*
X0195776Y0152010D02*
X0195776Y0154512D01*
X0197492Y0154512D01*
X0197492Y0152010D01*
X0197492Y0154192D02*
X0195776Y0154192D01*
X0282391Y0177600D02*
X0282391Y0179316D01*
X0284893Y0179316D01*
X0284893Y0177600D01*
X0282391Y0177600D01*
X0282391Y0183899D02*
X0282391Y0185615D01*
X0284893Y0185615D01*
X0284893Y0183899D01*
X0282391Y0183899D01*
X0300894Y0181932D02*
X0302610Y0181932D01*
X0300894Y0181932D02*
X0300894Y0184434D01*
X0302610Y0184434D01*
X0302610Y0181932D01*
X0302610Y0184114D02*
X0300894Y0184114D01*
X0307193Y0181932D02*
X0308909Y0181932D01*
X0307193Y0181932D02*
X0307193Y0184434D01*
X0308909Y0184434D01*
X0308909Y0181932D01*
X0308909Y0184114D02*
X0307193Y0184114D01*
X0301035Y0161205D02*
X0299319Y0161205D01*
X0301035Y0161205D02*
X0301035Y0158703D01*
X0299319Y0158703D01*
X0299319Y0161205D01*
X0299319Y0160885D02*
X0301035Y0160885D01*
X0294736Y0161205D02*
X0293020Y0161205D01*
X0294736Y0161205D02*
X0294736Y0158703D01*
X0293020Y0158703D01*
X0293020Y0161205D01*
X0293020Y0160885D02*
X0294736Y0160885D01*
X0341586Y0160671D02*
X0341586Y0162387D01*
X0341586Y0160671D02*
X0339084Y0160671D01*
X0339084Y0162387D01*
X0341586Y0162387D01*
X0341586Y0156088D02*
X0341586Y0154372D01*
X0339084Y0154372D01*
X0339084Y0156088D01*
X0341586Y0156088D01*
X0391839Y0165142D02*
X0393555Y0165142D01*
X0393555Y0162640D01*
X0391839Y0162640D01*
X0391839Y0165142D01*
X0391839Y0164822D02*
X0393555Y0164822D01*
X0398138Y0165142D02*
X0399854Y0165142D01*
X0399854Y0162640D01*
X0398138Y0162640D01*
X0398138Y0165142D01*
X0398138Y0164822D02*
X0399854Y0164822D01*
X0427272Y0188371D02*
X0428988Y0188371D01*
X0428988Y0185869D01*
X0427272Y0185869D01*
X0427272Y0188371D01*
X0427272Y0188051D02*
X0428988Y0188051D01*
X0430421Y0191774D02*
X0432137Y0191774D01*
X0430421Y0191774D02*
X0430421Y0194276D01*
X0432137Y0194276D01*
X0432137Y0191774D01*
X0432137Y0193956D02*
X0430421Y0193956D01*
X0423335Y0193348D02*
X0423335Y0195064D01*
X0425837Y0195064D01*
X0425837Y0193348D01*
X0423335Y0193348D01*
X0419538Y0193348D02*
X0419538Y0195064D01*
X0419538Y0193348D02*
X0417036Y0193348D01*
X0417036Y0195064D01*
X0419538Y0195064D01*
X0419538Y0199648D02*
X0419538Y0201364D01*
X0419538Y0199648D02*
X0417036Y0199648D01*
X0417036Y0201364D01*
X0419538Y0201364D01*
X0423335Y0201364D02*
X0423335Y0199648D01*
X0423335Y0201364D02*
X0425837Y0201364D01*
X0425837Y0199648D01*
X0423335Y0199648D01*
X0429240Y0198861D02*
X0430956Y0198861D01*
X0429240Y0198861D02*
X0429240Y0201363D01*
X0430956Y0201363D01*
X0430956Y0198861D01*
X0430956Y0201043D02*
X0429240Y0201043D01*
X0435540Y0198861D02*
X0437256Y0198861D01*
X0435540Y0198861D02*
X0435540Y0201363D01*
X0437256Y0201363D01*
X0437256Y0198861D01*
X0437256Y0201043D02*
X0435540Y0201043D01*
X0436721Y0191774D02*
X0438437Y0191774D01*
X0436721Y0191774D02*
X0436721Y0194276D01*
X0438437Y0194276D01*
X0438437Y0191774D01*
X0438437Y0193956D02*
X0436721Y0193956D01*
X0435287Y0188371D02*
X0433571Y0188371D01*
X0435287Y0188371D02*
X0435287Y0185869D01*
X0433571Y0185869D01*
X0433571Y0188371D01*
X0433571Y0188051D02*
X0435287Y0188051D01*
X0464673Y0169473D02*
X0466389Y0169473D01*
X0466389Y0166971D01*
X0464673Y0166971D01*
X0464673Y0169473D01*
X0464673Y0169153D02*
X0466389Y0169153D01*
X0470973Y0169473D02*
X0472689Y0169473D01*
X0472689Y0166971D01*
X0470973Y0166971D01*
X0470973Y0169473D01*
X0470973Y0169153D02*
X0472689Y0169153D01*
X0397885Y0214608D02*
X0397885Y0216324D01*
X0397885Y0214608D02*
X0395383Y0214608D01*
X0395383Y0216324D01*
X0397885Y0216324D01*
X0397885Y0220907D02*
X0397885Y0222623D01*
X0397885Y0220907D02*
X0395383Y0220907D01*
X0395383Y0222623D01*
X0397885Y0222623D01*
X0353004Y0231538D02*
X0351288Y0231538D01*
X0351288Y0234040D01*
X0353004Y0234040D01*
X0353004Y0231538D01*
X0353004Y0233720D02*
X0351288Y0233720D01*
X0346704Y0231538D02*
X0344988Y0231538D01*
X0344988Y0234040D01*
X0346704Y0234040D01*
X0346704Y0231538D01*
X0346704Y0233720D02*
X0344988Y0233720D01*
X0338043Y0227207D02*
X0336327Y0227207D01*
X0336327Y0229709D01*
X0338043Y0229709D01*
X0338043Y0227207D01*
X0338043Y0229389D02*
X0336327Y0229389D01*
X0331744Y0227207D02*
X0330028Y0227207D01*
X0330028Y0229709D01*
X0331744Y0229709D01*
X0331744Y0227207D01*
X0331744Y0229389D02*
X0330028Y0229389D01*
X0346169Y0262247D02*
X0347885Y0262247D01*
X0346169Y0262247D02*
X0346169Y0264749D01*
X0347885Y0264749D01*
X0347885Y0262247D01*
X0347885Y0264429D02*
X0346169Y0264429D01*
X0352469Y0262247D02*
X0354185Y0262247D01*
X0352469Y0262247D02*
X0352469Y0264749D01*
X0354185Y0264749D01*
X0354185Y0262247D01*
X0354185Y0264429D02*
X0352469Y0264429D01*
X0303397Y0277994D02*
X0303397Y0279710D01*
X0303397Y0277994D02*
X0300895Y0277994D01*
X0300895Y0279710D01*
X0303397Y0279710D01*
X0303397Y0284293D02*
X0303397Y0286009D01*
X0303397Y0284293D02*
X0300895Y0284293D01*
X0300895Y0286009D01*
X0303397Y0286009D01*
X0288436Y0281678D02*
X0288436Y0279962D01*
X0285934Y0279962D01*
X0285934Y0281678D01*
X0288436Y0281678D01*
X0288436Y0275379D02*
X0288436Y0273663D01*
X0285934Y0273663D01*
X0285934Y0275379D01*
X0288436Y0275379D01*
X0240798Y0271049D02*
X0240798Y0269333D01*
X0238296Y0269333D01*
X0238296Y0271049D01*
X0240798Y0271049D01*
X0240798Y0264749D02*
X0240798Y0263033D01*
X0238296Y0263033D01*
X0238296Y0264749D01*
X0240798Y0264749D01*
X0207981Y0437443D02*
X0207981Y0439159D01*
X0210483Y0439159D01*
X0210483Y0437443D01*
X0207981Y0437443D01*
X0204578Y0437443D02*
X0202862Y0437443D01*
X0202862Y0439945D01*
X0204578Y0439945D01*
X0204578Y0437443D01*
X0204578Y0439625D02*
X0202862Y0439625D01*
X0202862Y0443349D02*
X0204578Y0443349D01*
X0202862Y0443349D02*
X0202862Y0445851D01*
X0204578Y0445851D01*
X0204578Y0443349D01*
X0204578Y0445531D02*
X0202862Y0445531D01*
X0198279Y0443349D02*
X0196563Y0443349D01*
X0196563Y0445851D01*
X0198279Y0445851D01*
X0198279Y0443349D01*
X0198279Y0445531D02*
X0196563Y0445531D01*
X0196563Y0437443D02*
X0198279Y0437443D01*
X0196563Y0437443D02*
X0196563Y0439945D01*
X0198279Y0439945D01*
X0198279Y0437443D01*
X0198279Y0439625D02*
X0196563Y0439625D01*
X0187255Y0447285D02*
X0187255Y0449001D01*
X0187255Y0447285D02*
X0184753Y0447285D01*
X0184753Y0449001D01*
X0187255Y0449001D01*
X0187255Y0453585D02*
X0187255Y0455301D01*
X0187255Y0453585D02*
X0184753Y0453585D01*
X0184753Y0455301D01*
X0187255Y0455301D01*
X0187255Y0458703D02*
X0187255Y0460419D01*
X0187255Y0458703D02*
X0184753Y0458703D01*
X0184753Y0460419D01*
X0187255Y0460419D01*
X0193160Y0460419D02*
X0193160Y0458703D01*
X0190658Y0458703D01*
X0190658Y0460419D01*
X0193160Y0460419D01*
X0193160Y0465002D02*
X0193160Y0466718D01*
X0193160Y0465002D02*
X0190658Y0465002D01*
X0190658Y0466718D01*
X0193160Y0466718D01*
X0193160Y0470120D02*
X0193160Y0471836D01*
X0193160Y0470120D02*
X0190658Y0470120D01*
X0190658Y0471836D01*
X0193160Y0471836D01*
X0193160Y0476419D02*
X0193160Y0478135D01*
X0193160Y0476419D02*
X0190658Y0476419D01*
X0190658Y0478135D01*
X0193160Y0478135D01*
X0187255Y0478135D02*
X0187255Y0476419D01*
X0184753Y0476419D01*
X0184753Y0478135D01*
X0187255Y0478135D01*
X0187255Y0471836D02*
X0187255Y0470120D01*
X0184753Y0470120D01*
X0184753Y0471836D01*
X0187255Y0471836D01*
X0187255Y0466718D02*
X0187255Y0465002D01*
X0184753Y0465002D01*
X0184753Y0466718D01*
X0187255Y0466718D01*
X0180169Y0492168D02*
X0178453Y0492168D01*
X0178453Y0494670D01*
X0180169Y0494670D01*
X0180169Y0492168D01*
X0180169Y0494350D02*
X0178453Y0494350D01*
X0178453Y0498073D02*
X0180169Y0498073D01*
X0178453Y0498073D02*
X0178453Y0500575D01*
X0180169Y0500575D01*
X0180169Y0498073D01*
X0180169Y0500255D02*
X0178453Y0500255D01*
X0173870Y0498073D02*
X0172154Y0498073D01*
X0172154Y0500575D01*
X0173870Y0500575D01*
X0173870Y0498073D01*
X0173870Y0500255D02*
X0172154Y0500255D01*
X0172154Y0492168D02*
X0173870Y0492168D01*
X0172154Y0492168D02*
X0172154Y0494670D01*
X0173870Y0494670D01*
X0173870Y0492168D01*
X0173870Y0494350D02*
X0172154Y0494350D01*
X0171761Y0507128D02*
X0171761Y0508844D01*
X0174263Y0508844D01*
X0174263Y0507128D01*
X0171761Y0507128D01*
X0171761Y0513427D02*
X0171761Y0515143D01*
X0174263Y0515143D01*
X0174263Y0513427D01*
X0171761Y0513427D01*
X0192627Y0511993D02*
X0192627Y0510277D01*
X0192627Y0511993D02*
X0195129Y0511993D01*
X0195129Y0510277D01*
X0192627Y0510277D01*
X0202469Y0501364D02*
X0202469Y0499648D01*
X0202469Y0501364D02*
X0204971Y0501364D01*
X0204971Y0499648D01*
X0202469Y0499648D01*
X0202469Y0495064D02*
X0202469Y0493348D01*
X0202469Y0495064D02*
X0204971Y0495064D01*
X0204971Y0493348D01*
X0202469Y0493348D01*
X0212058Y0493348D02*
X0212058Y0495064D01*
X0212058Y0493348D02*
X0209556Y0493348D01*
X0209556Y0495064D01*
X0212058Y0495064D01*
X0212058Y0499648D02*
X0212058Y0501364D01*
X0212058Y0499648D02*
X0209556Y0499648D01*
X0209556Y0501364D01*
X0212058Y0501364D01*
X0215461Y0486796D02*
X0217177Y0486796D01*
X0217177Y0484294D01*
X0215461Y0484294D01*
X0215461Y0486796D01*
X0215461Y0486476D02*
X0217177Y0486476D01*
X0221760Y0486796D02*
X0223476Y0486796D01*
X0223476Y0484294D01*
X0221760Y0484294D01*
X0221760Y0486796D01*
X0221760Y0486476D02*
X0223476Y0486476D01*
X0226878Y0484294D02*
X0228594Y0484294D01*
X0226878Y0484294D02*
X0226878Y0486796D01*
X0228594Y0486796D01*
X0228594Y0484294D01*
X0228594Y0486476D02*
X0226878Y0486476D01*
X0226878Y0480890D02*
X0228594Y0480890D01*
X0228594Y0478388D01*
X0226878Y0478388D01*
X0226878Y0480890D01*
X0226878Y0480570D02*
X0228594Y0480570D01*
X0233177Y0480890D02*
X0234893Y0480890D01*
X0234893Y0478388D01*
X0233177Y0478388D01*
X0233177Y0480890D01*
X0233177Y0480570D02*
X0234893Y0480570D01*
X0234893Y0484294D02*
X0233177Y0484294D01*
X0233177Y0486796D01*
X0234893Y0486796D01*
X0234893Y0484294D01*
X0234893Y0486476D02*
X0233177Y0486476D01*
X0241052Y0486797D02*
X0241052Y0485081D01*
X0241052Y0486797D02*
X0243554Y0486797D01*
X0243554Y0485081D01*
X0241052Y0485081D01*
X0241052Y0480497D02*
X0241052Y0478781D01*
X0241052Y0480497D02*
X0243554Y0480497D01*
X0243554Y0478781D01*
X0241052Y0478781D01*
X0258768Y0515930D02*
X0260484Y0515930D01*
X0260484Y0513428D01*
X0258768Y0513428D01*
X0258768Y0515930D01*
X0258768Y0515610D02*
X0260484Y0515610D01*
X0260484Y0521835D02*
X0258768Y0521835D01*
X0260484Y0521835D02*
X0260484Y0519333D01*
X0258768Y0519333D01*
X0258768Y0521835D01*
X0258768Y0521515D02*
X0260484Y0521515D01*
X0260484Y0527741D02*
X0258768Y0527741D01*
X0260484Y0527741D02*
X0260484Y0525239D01*
X0258768Y0525239D01*
X0258768Y0527741D01*
X0258768Y0527421D02*
X0260484Y0527421D01*
X0260484Y0531144D02*
X0258768Y0531144D01*
X0258768Y0533646D01*
X0260484Y0533646D01*
X0260484Y0531144D01*
X0260484Y0533326D02*
X0258768Y0533326D01*
X0265067Y0531144D02*
X0266783Y0531144D01*
X0265067Y0531144D02*
X0265067Y0533646D01*
X0266783Y0533646D01*
X0266783Y0531144D01*
X0266783Y0533326D02*
X0265067Y0533326D01*
X0265067Y0527741D02*
X0266783Y0527741D01*
X0266783Y0525239D01*
X0265067Y0525239D01*
X0265067Y0527741D01*
X0265067Y0527421D02*
X0266783Y0527421D01*
X0266783Y0521835D02*
X0265067Y0521835D01*
X0266783Y0521835D02*
X0266783Y0519333D01*
X0265067Y0519333D01*
X0265067Y0521835D01*
X0265067Y0521515D02*
X0266783Y0521515D01*
X0266783Y0515930D02*
X0265067Y0515930D01*
X0266783Y0515930D02*
X0266783Y0513428D01*
X0265067Y0513428D01*
X0265067Y0515930D01*
X0265067Y0515610D02*
X0266783Y0515610D01*
X0254578Y0515790D02*
X0252862Y0515790D01*
X0252862Y0518292D01*
X0254578Y0518292D01*
X0254578Y0515790D01*
X0254578Y0517972D02*
X0252862Y0517972D01*
X0248279Y0515790D02*
X0246563Y0515790D01*
X0246563Y0518292D01*
X0248279Y0518292D01*
X0248279Y0515790D01*
X0248279Y0517972D02*
X0246563Y0517972D01*
X0245383Y0542955D02*
X0245383Y0544671D01*
X0247885Y0544671D01*
X0247885Y0542955D01*
X0245383Y0542955D01*
X0239477Y0542955D02*
X0239477Y0544671D01*
X0241979Y0544671D01*
X0241979Y0542955D01*
X0239477Y0542955D01*
X0233178Y0542955D02*
X0233178Y0544671D01*
X0235680Y0544671D01*
X0235680Y0542955D01*
X0233178Y0542955D01*
X0233178Y0549254D02*
X0233178Y0550970D01*
X0235680Y0550970D01*
X0235680Y0549254D01*
X0233178Y0549254D01*
X0239477Y0549254D02*
X0239477Y0550970D01*
X0241979Y0550970D01*
X0241979Y0549254D01*
X0239477Y0549254D01*
X0245383Y0549254D02*
X0245383Y0550970D01*
X0247885Y0550970D01*
X0247885Y0549254D01*
X0245383Y0549254D01*
X0248532Y0556875D02*
X0250248Y0556875D01*
X0250248Y0554373D01*
X0248532Y0554373D01*
X0248532Y0556875D01*
X0248532Y0556555D02*
X0250248Y0556555D01*
X0250248Y0562780D02*
X0248532Y0562780D01*
X0250248Y0562780D02*
X0250248Y0560278D01*
X0248532Y0560278D01*
X0248532Y0562780D01*
X0248532Y0562460D02*
X0250248Y0562460D01*
X0254831Y0562780D02*
X0256547Y0562780D01*
X0256547Y0560278D01*
X0254831Y0560278D01*
X0254831Y0562780D01*
X0254831Y0562460D02*
X0256547Y0562460D01*
X0256547Y0569333D02*
X0254831Y0569333D01*
X0254831Y0571835D01*
X0256547Y0571835D01*
X0256547Y0569333D01*
X0256547Y0571515D02*
X0254831Y0571515D01*
X0250248Y0569333D02*
X0248532Y0569333D01*
X0248532Y0571835D01*
X0250248Y0571835D01*
X0250248Y0569333D01*
X0250248Y0571515D02*
X0248532Y0571515D01*
X0252863Y0576419D02*
X0252863Y0578135D01*
X0255365Y0578135D01*
X0255365Y0576419D01*
X0252863Y0576419D01*
X0252863Y0582718D02*
X0252863Y0584434D01*
X0255365Y0584434D01*
X0255365Y0582718D01*
X0252863Y0582718D01*
X0230168Y0580497D02*
X0230168Y0578781D01*
X0227666Y0578781D01*
X0227666Y0580497D01*
X0230168Y0580497D01*
X0230168Y0585081D02*
X0230168Y0586797D01*
X0230168Y0585081D02*
X0227666Y0585081D01*
X0227666Y0586797D01*
X0230168Y0586797D01*
X0224263Y0586797D02*
X0224263Y0585081D01*
X0221761Y0585081D01*
X0221761Y0586797D01*
X0224263Y0586797D01*
X0224263Y0580497D02*
X0224263Y0578781D01*
X0221761Y0578781D01*
X0221761Y0580497D01*
X0224263Y0580497D01*
X0221761Y0575379D02*
X0221761Y0573663D01*
X0221761Y0575379D02*
X0224263Y0575379D01*
X0224263Y0573663D01*
X0221761Y0573663D01*
X0221761Y0569080D02*
X0221761Y0567364D01*
X0221761Y0569080D02*
X0224263Y0569080D01*
X0224263Y0567364D01*
X0221761Y0567364D01*
X0227666Y0567364D02*
X0227666Y0569080D01*
X0230168Y0569080D01*
X0230168Y0567364D01*
X0227666Y0567364D01*
X0227666Y0573663D02*
X0227666Y0575379D01*
X0230168Y0575379D01*
X0230168Y0573663D01*
X0227666Y0573663D01*
X0212846Y0580890D02*
X0211130Y0580890D01*
X0212846Y0580890D02*
X0212846Y0578388D01*
X0211130Y0578388D01*
X0211130Y0580890D01*
X0211130Y0580570D02*
X0212846Y0580570D01*
X0213633Y0586796D02*
X0211917Y0586796D01*
X0213633Y0586796D02*
X0213633Y0584294D01*
X0211917Y0584294D01*
X0211917Y0586796D01*
X0211917Y0586476D02*
X0213633Y0586476D01*
X0207334Y0586796D02*
X0205618Y0586796D01*
X0207334Y0586796D02*
X0207334Y0584294D01*
X0205618Y0584294D01*
X0205618Y0586796D01*
X0205618Y0586476D02*
X0207334Y0586476D01*
X0206547Y0580890D02*
X0204831Y0580890D01*
X0206547Y0580890D02*
X0206547Y0578388D01*
X0204831Y0578388D01*
X0204831Y0580890D01*
X0204831Y0580570D02*
X0206547Y0580570D01*
X0211664Y0561206D02*
X0211664Y0559490D01*
X0209162Y0559490D01*
X0209162Y0561206D01*
X0211664Y0561206D01*
X0215461Y0561206D02*
X0215461Y0559490D01*
X0215461Y0561206D02*
X0217963Y0561206D01*
X0217963Y0559490D01*
X0215461Y0559490D01*
X0215461Y0554907D02*
X0215461Y0553191D01*
X0215461Y0554907D02*
X0217963Y0554907D01*
X0217963Y0553191D01*
X0215461Y0553191D01*
X0211664Y0553191D02*
X0211664Y0554907D01*
X0211664Y0553191D02*
X0209162Y0553191D01*
X0209162Y0554907D01*
X0211664Y0554907D01*
X0209162Y0535615D02*
X0209162Y0533899D01*
X0209162Y0535615D02*
X0211664Y0535615D01*
X0211664Y0533899D01*
X0209162Y0533899D01*
X0203257Y0533899D02*
X0203257Y0535615D01*
X0205759Y0535615D01*
X0205759Y0533899D01*
X0203257Y0533899D01*
X0203257Y0529316D02*
X0203257Y0527600D01*
X0203257Y0529316D02*
X0205759Y0529316D01*
X0205759Y0527600D01*
X0203257Y0527600D01*
X0203256Y0521695D02*
X0204972Y0521695D01*
X0203256Y0521695D02*
X0203256Y0524197D01*
X0204972Y0524197D01*
X0204972Y0521695D01*
X0204972Y0523877D02*
X0203256Y0523877D01*
X0199854Y0524197D02*
X0198138Y0524197D01*
X0199854Y0524197D02*
X0199854Y0521695D01*
X0198138Y0521695D01*
X0198138Y0524197D01*
X0198138Y0523877D02*
X0199854Y0523877D01*
X0193555Y0524197D02*
X0191839Y0524197D01*
X0193555Y0524197D02*
X0193555Y0521695D01*
X0191839Y0521695D01*
X0191839Y0524197D01*
X0191839Y0523877D02*
X0193555Y0523877D01*
X0192627Y0518293D02*
X0192627Y0516577D01*
X0192627Y0518293D02*
X0195129Y0518293D01*
X0195129Y0516577D01*
X0192627Y0516577D01*
X0209555Y0521695D02*
X0211271Y0521695D01*
X0209555Y0521695D02*
X0209555Y0524197D01*
X0211271Y0524197D01*
X0211271Y0521695D01*
X0211271Y0523877D02*
X0209555Y0523877D01*
X0209162Y0527600D02*
X0209162Y0529316D01*
X0211664Y0529316D01*
X0211664Y0527600D01*
X0209162Y0527600D01*
X0254831Y0556875D02*
X0256547Y0556875D01*
X0256547Y0554373D01*
X0254831Y0554373D01*
X0254831Y0556875D01*
X0254831Y0556555D02*
X0256547Y0556555D01*
X0207981Y0445458D02*
X0207981Y0443742D01*
X0207981Y0445458D02*
X0210483Y0445458D01*
X0210483Y0443742D01*
X0207981Y0443742D01*
X0382530Y0453191D02*
X0382530Y0454907D01*
X0382530Y0453191D02*
X0380028Y0453191D01*
X0380028Y0454907D01*
X0382530Y0454907D01*
X0382530Y0459490D02*
X0382530Y0461206D01*
X0382530Y0459490D02*
X0380028Y0459490D01*
X0380028Y0461206D01*
X0382530Y0461206D01*
X0438042Y0443489D02*
X0438042Y0441773D01*
X0435540Y0441773D01*
X0435540Y0443489D01*
X0438042Y0443489D01*
X0438690Y0432072D02*
X0438690Y0430356D01*
X0438690Y0432072D02*
X0441192Y0432072D01*
X0441192Y0430356D01*
X0438690Y0430356D01*
X0447885Y0420261D02*
X0447885Y0418545D01*
X0445383Y0418545D01*
X0445383Y0420261D01*
X0447885Y0420261D01*
X0453790Y0420261D02*
X0453790Y0418545D01*
X0451288Y0418545D01*
X0451288Y0420261D01*
X0453790Y0420261D01*
X0453790Y0413962D02*
X0453790Y0412246D01*
X0451288Y0412246D01*
X0451288Y0413962D01*
X0453790Y0413962D01*
X0447885Y0413962D02*
X0447885Y0412246D01*
X0445383Y0412246D01*
X0445383Y0413962D01*
X0447885Y0413962D01*
X0447885Y0406482D02*
X0447885Y0404766D01*
X0445383Y0404766D01*
X0445383Y0406482D01*
X0447885Y0406482D01*
X0453790Y0406482D02*
X0453790Y0404766D01*
X0451288Y0404766D01*
X0451288Y0406482D01*
X0453790Y0406482D01*
X0453790Y0400182D02*
X0453790Y0398466D01*
X0451288Y0398466D01*
X0451288Y0400182D01*
X0453790Y0400182D01*
X0451288Y0394671D02*
X0451288Y0392955D01*
X0451288Y0394671D02*
X0453790Y0394671D01*
X0453790Y0392955D01*
X0451288Y0392955D01*
X0451288Y0388371D02*
X0451288Y0386655D01*
X0451288Y0388371D02*
X0453790Y0388371D01*
X0453790Y0386655D01*
X0451288Y0386655D01*
X0451288Y0383253D02*
X0451288Y0381537D01*
X0451288Y0383253D02*
X0453790Y0383253D01*
X0453790Y0381537D01*
X0451288Y0381537D01*
X0451288Y0376954D02*
X0451288Y0375238D01*
X0451288Y0376954D02*
X0453790Y0376954D01*
X0453790Y0375238D01*
X0451288Y0375238D01*
X0451288Y0371836D02*
X0451288Y0370120D01*
X0451288Y0371836D02*
X0453790Y0371836D01*
X0453790Y0370120D01*
X0451288Y0370120D01*
X0451288Y0365537D02*
X0451288Y0363821D01*
X0451288Y0365537D02*
X0453790Y0365537D01*
X0453790Y0363821D01*
X0451288Y0363821D01*
X0447885Y0398466D02*
X0447885Y0400182D01*
X0447885Y0398466D02*
X0445383Y0398466D01*
X0445383Y0400182D01*
X0447885Y0400182D01*
X0480028Y0448213D02*
X0481744Y0448213D01*
X0481744Y0445711D01*
X0480028Y0445711D01*
X0480028Y0448213D01*
X0480028Y0447893D02*
X0481744Y0447893D01*
X0486327Y0448213D02*
X0488043Y0448213D01*
X0488043Y0445711D01*
X0486327Y0445711D01*
X0486327Y0448213D01*
X0486327Y0447893D02*
X0488043Y0447893D01*
X0475838Y0461853D02*
X0474122Y0461853D01*
X0474122Y0464355D01*
X0475838Y0464355D01*
X0475838Y0461853D01*
X0475838Y0464035D02*
X0474122Y0464035D01*
X0473335Y0467758D02*
X0475051Y0467758D01*
X0473335Y0467758D02*
X0473335Y0470260D01*
X0475051Y0470260D01*
X0475051Y0467758D01*
X0475051Y0469940D02*
X0473335Y0469940D01*
X0473335Y0473664D02*
X0475051Y0473664D01*
X0473335Y0473664D02*
X0473335Y0476166D01*
X0475051Y0476166D01*
X0475051Y0473664D01*
X0475051Y0475846D02*
X0473335Y0475846D01*
X0479634Y0473664D02*
X0481350Y0473664D01*
X0479634Y0473664D02*
X0479634Y0476166D01*
X0481350Y0476166D01*
X0481350Y0473664D01*
X0481350Y0475846D02*
X0479634Y0475846D01*
X0479634Y0467758D02*
X0481350Y0467758D01*
X0479634Y0467758D02*
X0479634Y0470260D01*
X0481350Y0470260D01*
X0481350Y0467758D01*
X0481350Y0469940D02*
X0479634Y0469940D01*
X0485934Y0469474D02*
X0485934Y0467758D01*
X0485934Y0469474D02*
X0488436Y0469474D01*
X0488436Y0467758D01*
X0485934Y0467758D01*
X0485934Y0474057D02*
X0485934Y0475773D01*
X0488436Y0475773D01*
X0488436Y0474057D01*
X0485934Y0474057D01*
X0469539Y0461853D02*
X0467823Y0461853D01*
X0467823Y0464355D01*
X0469539Y0464355D01*
X0469539Y0461853D01*
X0469539Y0464035D02*
X0467823Y0464035D01*
X0464421Y0461853D02*
X0462705Y0461853D01*
X0462705Y0464355D01*
X0464421Y0464355D01*
X0464421Y0461853D01*
X0464421Y0464035D02*
X0462705Y0464035D01*
X0458122Y0461853D02*
X0456406Y0461853D01*
X0456406Y0464355D01*
X0458122Y0464355D01*
X0458122Y0461853D01*
X0458122Y0464035D02*
X0456406Y0464035D01*
X0454578Y0468151D02*
X0454578Y0469867D01*
X0454578Y0468151D02*
X0452076Y0468151D01*
X0452076Y0469867D01*
X0454578Y0469867D01*
X0454578Y0474451D02*
X0454578Y0476167D01*
X0454578Y0474451D02*
X0452076Y0474451D01*
X0452076Y0476167D01*
X0454578Y0476167D01*
X0435147Y0553191D02*
X0435147Y0554907D01*
X0437649Y0554907D01*
X0437649Y0553191D01*
X0435147Y0553191D01*
X0429241Y0553191D02*
X0429241Y0554907D01*
X0431743Y0554907D01*
X0431743Y0553191D01*
X0429241Y0553191D01*
X0429241Y0559490D02*
X0429241Y0561206D01*
X0431743Y0561206D01*
X0431743Y0559490D01*
X0429241Y0559490D01*
X0435147Y0559490D02*
X0435147Y0561206D01*
X0437649Y0561206D01*
X0437649Y0559490D01*
X0435147Y0559490D01*
X0420720Y0566577D02*
X0419004Y0566577D01*
X0419004Y0569079D01*
X0420720Y0569079D01*
X0420720Y0566577D01*
X0420720Y0568759D02*
X0419004Y0568759D01*
X0418217Y0572483D02*
X0419933Y0572483D01*
X0418217Y0572483D02*
X0418217Y0574985D01*
X0419933Y0574985D01*
X0419933Y0572483D01*
X0419933Y0574665D02*
X0418217Y0574665D01*
X0420719Y0578388D02*
X0420719Y0580104D01*
X0420719Y0578388D02*
X0418217Y0578388D01*
X0418217Y0580104D01*
X0420719Y0580104D01*
X0424123Y0580104D02*
X0424123Y0578388D01*
X0424123Y0580104D02*
X0426625Y0580104D01*
X0426625Y0578388D01*
X0424123Y0578388D01*
X0432530Y0578388D02*
X0432530Y0580104D01*
X0432530Y0578388D02*
X0430028Y0578388D01*
X0430028Y0580104D01*
X0432530Y0580104D01*
X0438436Y0580104D02*
X0438436Y0578388D01*
X0435934Y0578388D01*
X0435934Y0580104D01*
X0438436Y0580104D01*
X0444341Y0580104D02*
X0444341Y0578388D01*
X0441839Y0578388D01*
X0441839Y0580104D01*
X0444341Y0580104D01*
X0444341Y0584687D02*
X0444341Y0586403D01*
X0444341Y0584687D02*
X0441839Y0584687D01*
X0441839Y0586403D01*
X0444341Y0586403D01*
X0438436Y0586403D02*
X0438436Y0584687D01*
X0435934Y0584687D01*
X0435934Y0586403D01*
X0438436Y0586403D01*
X0432530Y0586403D02*
X0432530Y0584687D01*
X0430028Y0584687D01*
X0430028Y0586403D01*
X0432530Y0586403D01*
X0424123Y0586403D02*
X0424123Y0584687D01*
X0424123Y0586403D02*
X0426625Y0586403D01*
X0426625Y0584687D01*
X0424123Y0584687D01*
X0420719Y0584687D02*
X0420719Y0586403D01*
X0420719Y0584687D02*
X0418217Y0584687D01*
X0418217Y0586403D01*
X0420719Y0586403D01*
X0419933Y0589806D02*
X0418217Y0589806D01*
X0418217Y0592308D01*
X0419933Y0592308D01*
X0419933Y0589806D01*
X0419933Y0591988D02*
X0418217Y0591988D01*
X0424516Y0589806D02*
X0426232Y0589806D01*
X0424516Y0589806D02*
X0424516Y0592308D01*
X0426232Y0592308D01*
X0426232Y0589806D01*
X0426232Y0591988D02*
X0424516Y0591988D01*
X0412452Y0585475D02*
X0410736Y0585475D01*
X0410736Y0587977D01*
X0412452Y0587977D01*
X0412452Y0585475D01*
X0412452Y0587657D02*
X0410736Y0587657D01*
X0406153Y0585475D02*
X0404437Y0585475D01*
X0404437Y0587977D01*
X0406153Y0587977D01*
X0406153Y0585475D01*
X0406153Y0587657D02*
X0404437Y0587657D01*
X0404437Y0582071D02*
X0406153Y0582071D01*
X0406153Y0579569D01*
X0404437Y0579569D01*
X0404437Y0582071D01*
X0404437Y0581751D02*
X0406153Y0581751D01*
X0410736Y0582071D02*
X0412452Y0582071D01*
X0412452Y0579569D01*
X0410736Y0579569D01*
X0410736Y0582071D01*
X0410736Y0581751D02*
X0412452Y0581751D01*
X0411917Y0572483D02*
X0413633Y0572483D01*
X0411917Y0572483D02*
X0411917Y0574985D01*
X0413633Y0574985D01*
X0413633Y0572483D01*
X0413633Y0574665D02*
X0411917Y0574665D01*
X0408515Y0571836D02*
X0408515Y0570120D01*
X0406013Y0570120D01*
X0406013Y0571836D01*
X0408515Y0571836D01*
X0412705Y0566577D02*
X0414421Y0566577D01*
X0412705Y0566577D02*
X0412705Y0569079D01*
X0414421Y0569079D01*
X0414421Y0566577D01*
X0414421Y0568759D02*
X0412705Y0568759D01*
X0408515Y0565537D02*
X0408515Y0563821D01*
X0406013Y0563821D01*
X0406013Y0565537D01*
X0408515Y0565537D01*
X0408515Y0560419D02*
X0408515Y0558703D01*
X0406013Y0558703D01*
X0406013Y0560419D01*
X0408515Y0560419D01*
X0408515Y0554119D02*
X0408515Y0552403D01*
X0406013Y0552403D01*
X0406013Y0554119D01*
X0408515Y0554119D01*
X0462452Y0582718D02*
X0462452Y0584434D01*
X0462452Y0582718D02*
X0459950Y0582718D01*
X0459950Y0584434D01*
X0462452Y0584434D01*
X0462452Y0589018D02*
X0462452Y0590734D01*
X0462452Y0589018D02*
X0459950Y0589018D01*
X0459950Y0590734D01*
X0462452Y0590734D01*
X0462846Y0327207D02*
X0461130Y0327207D01*
X0461130Y0329709D01*
X0462846Y0329709D01*
X0462846Y0327207D01*
X0462846Y0329389D02*
X0461130Y0329389D01*
X0456547Y0327207D02*
X0454831Y0327207D01*
X0454831Y0329709D01*
X0456547Y0329709D01*
X0456547Y0327207D01*
X0456547Y0329389D02*
X0454831Y0329389D01*
X0454831Y0321302D02*
X0456547Y0321302D01*
X0454831Y0321302D02*
X0454831Y0323804D01*
X0456547Y0323804D01*
X0456547Y0321302D01*
X0456547Y0323484D02*
X0454831Y0323484D01*
X0461130Y0321302D02*
X0462846Y0321302D01*
X0461130Y0321302D02*
X0461130Y0323804D01*
X0462846Y0323804D01*
X0462846Y0321302D01*
X0462846Y0323484D02*
X0461130Y0323484D01*
X0461271Y0315143D02*
X0461271Y0313427D01*
X0458769Y0313427D01*
X0458769Y0315143D01*
X0461271Y0315143D01*
X0461271Y0308844D02*
X0461271Y0307128D01*
X0458769Y0307128D01*
X0458769Y0308844D01*
X0461271Y0308844D01*
X0458769Y0303332D02*
X0458769Y0301616D01*
X0458769Y0303332D02*
X0461271Y0303332D01*
X0461271Y0301616D01*
X0458769Y0301616D01*
X0458769Y0297033D02*
X0458769Y0295317D01*
X0458769Y0297033D02*
X0461271Y0297033D01*
X0461271Y0295317D01*
X0458769Y0295317D01*
X0458374Y0279316D02*
X0460090Y0279316D01*
X0460090Y0276814D01*
X0458374Y0276814D01*
X0458374Y0279316D01*
X0458374Y0278996D02*
X0460090Y0278996D01*
X0464673Y0279316D02*
X0466389Y0279316D01*
X0466389Y0276814D01*
X0464673Y0276814D01*
X0464673Y0279316D01*
X0464673Y0278996D02*
X0466389Y0278996D01*
X0477412Y0279710D02*
X0477412Y0277994D01*
X0474910Y0277994D01*
X0474910Y0279710D01*
X0477412Y0279710D01*
X0477412Y0273411D02*
X0477412Y0271695D01*
X0474910Y0271695D01*
X0474910Y0273411D01*
X0477412Y0273411D01*
X0478200Y0298073D02*
X0476484Y0298073D01*
X0476484Y0300575D01*
X0478200Y0300575D01*
X0478200Y0298073D01*
X0478200Y0300255D02*
X0476484Y0300255D01*
X0482784Y0298073D02*
X0484500Y0298073D01*
X0482784Y0298073D02*
X0482784Y0300575D01*
X0484500Y0300575D01*
X0484500Y0298073D01*
X0484500Y0300255D02*
X0482784Y0300255D01*
X0481996Y0321442D02*
X0483712Y0321442D01*
X0483712Y0318940D01*
X0481996Y0318940D01*
X0481996Y0321442D01*
X0481996Y0321122D02*
X0483712Y0321122D01*
X0477413Y0321442D02*
X0475697Y0321442D01*
X0477413Y0321442D02*
X0477413Y0318940D01*
X0475697Y0318940D01*
X0475697Y0321442D01*
X0475697Y0321122D02*
X0477413Y0321122D01*
D17*
X0312907Y0418485D02*
X0312907Y0421109D01*
X0312907Y0418485D02*
X0308707Y0418485D01*
X0308707Y0421109D01*
X0312907Y0421109D01*
X0312907Y0420545D02*
X0308707Y0420545D01*
X0305427Y0421109D02*
X0305427Y0418485D01*
X0301227Y0418485D01*
X0301227Y0421109D01*
X0305427Y0421109D01*
X0305427Y0420545D02*
X0301227Y0420545D01*
X0305427Y0426359D02*
X0305427Y0428983D01*
X0305427Y0426359D02*
X0301227Y0426359D01*
X0301227Y0428983D01*
X0305427Y0428983D01*
X0305427Y0428419D02*
X0301227Y0428419D01*
X0305427Y0432264D02*
X0305427Y0434888D01*
X0305427Y0432264D02*
X0301227Y0432264D01*
X0301227Y0434888D01*
X0305427Y0434888D01*
X0305427Y0434324D02*
X0301227Y0434324D01*
X0305427Y0440138D02*
X0305427Y0442762D01*
X0305427Y0440138D02*
X0301227Y0440138D01*
X0301227Y0442762D01*
X0305427Y0442762D01*
X0305427Y0442198D02*
X0301227Y0442198D01*
X0312907Y0442762D02*
X0312907Y0440138D01*
X0308707Y0440138D01*
X0308707Y0442762D01*
X0312907Y0442762D01*
X0312907Y0442198D02*
X0308707Y0442198D01*
X0312907Y0434888D02*
X0312907Y0432264D01*
X0308707Y0432264D01*
X0308707Y0434888D01*
X0312907Y0434888D01*
X0312907Y0434324D02*
X0308707Y0434324D01*
X0312907Y0428983D02*
X0312907Y0426359D01*
X0308707Y0426359D01*
X0308707Y0428983D01*
X0312907Y0428983D01*
X0312907Y0428419D02*
X0308707Y0428419D01*
X0271699Y0461792D02*
X0271699Y0464416D01*
X0275899Y0464416D01*
X0275899Y0461792D01*
X0271699Y0461792D01*
X0271699Y0463852D02*
X0275899Y0463852D01*
X0271699Y0469666D02*
X0271699Y0472290D01*
X0275899Y0472290D01*
X0275899Y0469666D01*
X0271699Y0469666D01*
X0271699Y0471726D02*
X0275899Y0471726D01*
X0242434Y0436594D02*
X0239810Y0436594D01*
X0239810Y0440794D01*
X0242434Y0440794D01*
X0242434Y0436594D01*
X0242434Y0438654D02*
X0239810Y0438654D01*
X0239810Y0440714D02*
X0242434Y0440714D01*
X0234560Y0436594D02*
X0231936Y0436594D01*
X0231936Y0440794D01*
X0234560Y0440794D01*
X0234560Y0436594D01*
X0234560Y0438654D02*
X0231936Y0438654D01*
X0231936Y0440714D02*
X0234560Y0440714D01*
X0210544Y0453393D02*
X0207920Y0453393D01*
X0210544Y0453393D02*
X0210544Y0449193D01*
X0207920Y0449193D01*
X0207920Y0453393D01*
X0207920Y0451253D02*
X0210544Y0451253D01*
X0210544Y0453313D02*
X0207920Y0453313D01*
X0202670Y0453393D02*
X0200046Y0453393D01*
X0202670Y0453393D02*
X0202670Y0449193D01*
X0200046Y0449193D01*
X0200046Y0453393D01*
X0200046Y0451253D02*
X0202670Y0451253D01*
X0202670Y0453313D02*
X0200046Y0453313D01*
X0231411Y0197881D02*
X0231411Y0195257D01*
X0227211Y0195257D01*
X0227211Y0197881D01*
X0231411Y0197881D01*
X0231411Y0197317D02*
X0227211Y0197317D01*
X0231411Y0190006D02*
X0231411Y0187382D01*
X0227211Y0187382D01*
X0227211Y0190006D01*
X0231411Y0190006D01*
X0231411Y0189442D02*
X0227211Y0189442D01*
X0216581Y0168353D02*
X0216581Y0165729D01*
X0216581Y0168353D02*
X0220781Y0168353D01*
X0220781Y0165729D01*
X0216581Y0165729D01*
X0216581Y0167789D02*
X0220781Y0167789D01*
X0216581Y0160479D02*
X0216581Y0157855D01*
X0216581Y0160479D02*
X0220781Y0160479D01*
X0220781Y0157855D01*
X0216581Y0157855D01*
X0216581Y0159915D02*
X0220781Y0159915D01*
D18*
X0471477Y0285348D02*
X0471477Y0285348D01*
X0468247Y0285348D01*
X0468247Y0285348D01*
X0471477Y0285348D01*
X0471477Y0287907D02*
X0471477Y0287907D01*
X0468247Y0287907D01*
X0468247Y0287907D01*
X0471477Y0287907D01*
X0471477Y0290466D02*
X0471477Y0290466D01*
X0468247Y0290466D01*
X0468247Y0290466D01*
X0471477Y0290466D01*
X0471477Y0293025D02*
X0471477Y0293025D01*
X0468247Y0293025D01*
X0468247Y0293025D01*
X0471477Y0293025D01*
X0471477Y0306017D02*
X0471477Y0306017D01*
X0468247Y0306017D01*
X0468247Y0306017D01*
X0471477Y0306017D01*
X0471477Y0308576D02*
X0471477Y0308576D01*
X0468247Y0308576D01*
X0468247Y0308576D01*
X0471477Y0308576D01*
X0471477Y0311135D02*
X0471477Y0311135D01*
X0468247Y0311135D01*
X0468247Y0311135D01*
X0471477Y0311135D01*
X0471477Y0313694D02*
X0471477Y0313694D01*
X0468247Y0313694D01*
X0468247Y0313694D01*
X0471477Y0313694D01*
X0488013Y0313694D02*
X0488013Y0313694D01*
X0484783Y0313694D01*
X0484783Y0313694D01*
X0488013Y0313694D01*
X0488013Y0311135D02*
X0488013Y0311135D01*
X0484783Y0311135D01*
X0484783Y0311135D01*
X0488013Y0311135D01*
X0488013Y0308576D02*
X0488013Y0308576D01*
X0484783Y0308576D01*
X0484783Y0308576D01*
X0488013Y0308576D01*
X0488013Y0306017D02*
X0488013Y0306017D01*
X0484783Y0306017D01*
X0484783Y0306017D01*
X0488013Y0306017D01*
X0488013Y0293025D02*
X0488013Y0293025D01*
X0484783Y0293025D01*
X0484783Y0293025D01*
X0488013Y0293025D01*
X0488013Y0290466D02*
X0488013Y0290466D01*
X0484783Y0290466D01*
X0484783Y0290466D01*
X0488013Y0290466D01*
X0488013Y0287907D02*
X0488013Y0287907D01*
X0484783Y0287907D01*
X0484783Y0287907D01*
X0488013Y0287907D01*
X0488013Y0285348D02*
X0488013Y0285348D01*
X0484783Y0285348D01*
X0484783Y0285348D01*
X0488013Y0285348D01*
X0404114Y0457632D02*
X0404114Y0457632D01*
X0404114Y0454402D01*
X0404114Y0454402D01*
X0404114Y0457632D01*
X0404114Y0456684D02*
X0404114Y0456684D01*
X0401555Y0457632D02*
X0401555Y0457632D01*
X0401555Y0454402D01*
X0401555Y0454402D01*
X0401555Y0457632D01*
X0401555Y0456684D02*
X0401555Y0456684D01*
X0398996Y0457632D02*
X0398996Y0457632D01*
X0398996Y0454402D01*
X0398996Y0454402D01*
X0398996Y0457632D01*
X0398996Y0456684D02*
X0398996Y0456684D01*
X0396437Y0457632D02*
X0396437Y0457632D01*
X0396437Y0454402D01*
X0396437Y0454402D01*
X0396437Y0457632D01*
X0396437Y0456684D02*
X0396437Y0456684D01*
X0396437Y0474168D02*
X0396437Y0474168D01*
X0396437Y0470938D01*
X0396437Y0470938D01*
X0396437Y0474168D01*
X0396437Y0473220D02*
X0396437Y0473220D01*
X0398996Y0474168D02*
X0398996Y0474168D01*
X0398996Y0470938D01*
X0398996Y0470938D01*
X0398996Y0474168D01*
X0398996Y0473220D02*
X0398996Y0473220D01*
X0401555Y0474168D02*
X0401555Y0474168D01*
X0401555Y0470938D01*
X0401555Y0470938D01*
X0401555Y0474168D01*
X0401555Y0473220D02*
X0401555Y0473220D01*
X0404114Y0474168D02*
X0404114Y0474168D01*
X0404114Y0470938D01*
X0404114Y0470938D01*
X0404114Y0474168D01*
X0404114Y0473220D02*
X0404114Y0473220D01*
D19*
X0241963Y0491772D02*
X0241963Y0492664D01*
X0241963Y0491772D02*
X0237471Y0491772D01*
X0237471Y0492664D01*
X0241963Y0492664D01*
X0241963Y0496772D02*
X0241963Y0497664D01*
X0241963Y0496772D02*
X0237471Y0496772D01*
X0237471Y0497664D01*
X0241963Y0497664D01*
X0241963Y0501772D02*
X0241963Y0502664D01*
X0241963Y0501772D02*
X0237471Y0501772D01*
X0237471Y0502664D01*
X0241963Y0502664D01*
X0241963Y0506772D02*
X0241963Y0507664D01*
X0241963Y0506772D02*
X0237471Y0506772D01*
X0237471Y0507664D01*
X0241963Y0507664D01*
X0220363Y0507664D02*
X0220363Y0506772D01*
X0215871Y0506772D01*
X0215871Y0507664D01*
X0220363Y0507664D01*
X0220363Y0502664D02*
X0220363Y0501772D01*
X0215871Y0501772D01*
X0215871Y0502664D01*
X0220363Y0502664D01*
X0220363Y0497664D02*
X0220363Y0496772D01*
X0215871Y0496772D01*
X0215871Y0497664D01*
X0220363Y0497664D01*
X0220363Y0492664D02*
X0220363Y0491772D01*
X0215871Y0491772D01*
X0215871Y0492664D01*
X0220363Y0492664D01*
X0197887Y0306697D02*
X0196995Y0306697D01*
X0196995Y0311189D01*
X0197887Y0311189D01*
X0197887Y0306697D01*
X0197887Y0308991D02*
X0196995Y0308991D01*
X0192887Y0306697D02*
X0191995Y0306697D01*
X0191995Y0311189D01*
X0192887Y0311189D01*
X0192887Y0306697D01*
X0192887Y0308991D02*
X0191995Y0308991D01*
X0187887Y0306697D02*
X0186995Y0306697D01*
X0186995Y0311189D01*
X0187887Y0311189D01*
X0187887Y0306697D01*
X0187887Y0308991D02*
X0186995Y0308991D01*
X0182887Y0306697D02*
X0181995Y0306697D01*
X0181995Y0311189D01*
X0182887Y0311189D01*
X0182887Y0306697D01*
X0182887Y0308991D02*
X0181995Y0308991D01*
X0181995Y0285097D02*
X0182887Y0285097D01*
X0181995Y0285097D02*
X0181995Y0289589D01*
X0182887Y0289589D01*
X0182887Y0285097D01*
X0182887Y0287391D02*
X0181995Y0287391D01*
X0186995Y0285097D02*
X0187887Y0285097D01*
X0186995Y0285097D02*
X0186995Y0289589D01*
X0187887Y0289589D01*
X0187887Y0285097D01*
X0187887Y0287391D02*
X0186995Y0287391D01*
X0191995Y0285097D02*
X0192887Y0285097D01*
X0191995Y0285097D02*
X0191995Y0289589D01*
X0192887Y0289589D01*
X0192887Y0285097D01*
X0192887Y0287391D02*
X0191995Y0287391D01*
X0196995Y0285097D02*
X0197887Y0285097D01*
X0196995Y0285097D02*
X0196995Y0289589D01*
X0197887Y0289589D01*
X0197887Y0285097D01*
X0197887Y0287391D02*
X0196995Y0287391D01*
D20*
X0470256Y0320191D03*
X0394862Y0547356D03*
X0394862Y0594600D03*
X0265335Y0594600D03*
X0265335Y0547356D03*
D21*
X0252539Y0528261D02*
X0252539Y0528261D01*
X0254901Y0528261D01*
X0254901Y0528261D01*
X0252539Y0528261D01*
X0252539Y0525702D02*
X0252539Y0525702D01*
X0254901Y0525702D01*
X0254901Y0525702D01*
X0252539Y0525702D01*
X0252539Y0523143D02*
X0252539Y0523143D01*
X0254901Y0523143D01*
X0254901Y0523143D01*
X0252539Y0523143D01*
X0244665Y0523143D02*
X0244665Y0523143D01*
X0247027Y0523143D01*
X0247027Y0523143D01*
X0244665Y0523143D01*
X0244665Y0525702D02*
X0244665Y0525702D01*
X0247027Y0525702D01*
X0247027Y0525702D01*
X0244665Y0525702D01*
X0244665Y0528261D02*
X0244665Y0528261D01*
X0247027Y0528261D01*
X0247027Y0528261D01*
X0244665Y0528261D01*
X0242500Y0556805D02*
X0242500Y0556805D01*
X0242500Y0554443D01*
X0242500Y0554443D01*
X0242500Y0556805D01*
X0242500Y0556765D02*
X0242500Y0556765D01*
X0239941Y0556805D02*
X0239941Y0556805D01*
X0239941Y0554443D01*
X0239941Y0554443D01*
X0239941Y0556805D01*
X0239941Y0556765D02*
X0239941Y0556765D01*
X0237382Y0556805D02*
X0237382Y0556805D01*
X0237382Y0554443D01*
X0237382Y0554443D01*
X0237382Y0556805D01*
X0237382Y0556765D02*
X0237382Y0556765D01*
X0237382Y0564679D02*
X0237382Y0564679D01*
X0237382Y0562317D01*
X0237382Y0562317D01*
X0237382Y0564679D01*
X0237382Y0564639D02*
X0237382Y0564639D01*
X0239941Y0564679D02*
X0239941Y0564679D01*
X0239941Y0562317D01*
X0239941Y0562317D01*
X0239941Y0564679D01*
X0239941Y0564639D02*
X0239941Y0564639D01*
X0242500Y0564679D02*
X0242500Y0564679D01*
X0242500Y0562317D01*
X0242500Y0562317D01*
X0242500Y0564679D01*
X0242500Y0564639D02*
X0242500Y0564639D01*
X0215335Y0564679D02*
X0215335Y0564679D01*
X0215335Y0567041D01*
X0215335Y0567041D01*
X0215335Y0564679D01*
X0215335Y0567001D02*
X0215335Y0567001D01*
X0212775Y0564679D02*
X0212775Y0564679D01*
X0212775Y0567041D01*
X0212775Y0567041D01*
X0212775Y0564679D01*
X0212775Y0567001D02*
X0212775Y0567001D01*
X0210216Y0564679D02*
X0210216Y0564679D01*
X0210216Y0567041D01*
X0210216Y0567041D01*
X0210216Y0564679D01*
X0210216Y0567001D02*
X0210216Y0567001D01*
X0210216Y0572553D02*
X0210216Y0572553D01*
X0210216Y0574915D01*
X0210216Y0574915D01*
X0210216Y0572553D01*
X0210216Y0574875D02*
X0210216Y0574875D01*
X0212775Y0572553D02*
X0212775Y0572553D01*
X0212775Y0574915D01*
X0212775Y0574915D01*
X0212775Y0572553D01*
X0212775Y0574875D02*
X0212775Y0574875D01*
X0215335Y0572553D02*
X0215335Y0572553D01*
X0215335Y0574915D01*
X0215335Y0574915D01*
X0215335Y0572553D01*
X0215335Y0574875D02*
X0215335Y0574875D01*
X0178327Y0488694D02*
X0178327Y0488694D01*
X0178327Y0486332D01*
X0178327Y0486332D01*
X0178327Y0488694D01*
X0178327Y0488654D02*
X0178327Y0488654D01*
X0175768Y0488694D02*
X0175768Y0488694D01*
X0175768Y0486332D01*
X0175768Y0486332D01*
X0175768Y0488694D01*
X0175768Y0488654D02*
X0175768Y0488654D01*
X0173209Y0488694D02*
X0173209Y0488694D01*
X0173209Y0486332D01*
X0173209Y0486332D01*
X0173209Y0488694D01*
X0173209Y0488654D02*
X0173209Y0488654D01*
X0173209Y0480820D02*
X0173209Y0480820D01*
X0173209Y0478458D01*
X0173209Y0478458D01*
X0173209Y0480820D01*
X0173209Y0480780D02*
X0173209Y0480780D01*
X0175768Y0480820D02*
X0175768Y0480820D01*
X0175768Y0478458D01*
X0175768Y0478458D01*
X0175768Y0480820D01*
X0175768Y0480780D02*
X0175768Y0480780D01*
X0178327Y0480820D02*
X0178327Y0480820D01*
X0178327Y0478458D01*
X0178327Y0478458D01*
X0178327Y0480820D01*
X0178327Y0480780D02*
X0178327Y0480780D01*
X0348405Y0442238D02*
X0348405Y0442238D01*
X0348405Y0439876D01*
X0348405Y0439876D01*
X0348405Y0442238D01*
X0348405Y0442198D02*
X0348405Y0442198D01*
X0350964Y0442238D02*
X0350964Y0442238D01*
X0350964Y0439876D01*
X0350964Y0439876D01*
X0350964Y0442238D01*
X0350964Y0442198D02*
X0350964Y0442198D01*
X0353523Y0442238D02*
X0353523Y0442238D01*
X0353523Y0439876D01*
X0353523Y0439876D01*
X0353523Y0442238D01*
X0353523Y0442198D02*
X0353523Y0442198D01*
X0353523Y0434364D02*
X0353523Y0434364D01*
X0353523Y0432002D01*
X0353523Y0432002D01*
X0353523Y0434364D01*
X0353523Y0434324D02*
X0353523Y0434324D01*
X0350964Y0434364D02*
X0350964Y0434364D01*
X0350964Y0432002D01*
X0350964Y0432002D01*
X0350964Y0434364D01*
X0350964Y0434324D02*
X0350964Y0434324D01*
X0348405Y0434364D02*
X0348405Y0434364D01*
X0348405Y0432002D01*
X0348405Y0432002D01*
X0348405Y0434364D01*
X0348405Y0434324D02*
X0348405Y0434324D01*
X0424980Y0425112D02*
X0424980Y0425112D01*
X0427342Y0425112D01*
X0427342Y0425112D01*
X0424980Y0425112D01*
X0424980Y0422553D02*
X0424980Y0422553D01*
X0427342Y0422553D01*
X0427342Y0422553D01*
X0424980Y0422553D01*
X0424980Y0419994D02*
X0424980Y0419994D01*
X0427342Y0419994D01*
X0427342Y0419994D01*
X0424980Y0419994D01*
X0432854Y0419994D02*
X0432854Y0419994D01*
X0435216Y0419994D01*
X0435216Y0419994D01*
X0432854Y0419994D01*
X0432854Y0422553D02*
X0432854Y0422553D01*
X0435216Y0422553D01*
X0435216Y0422553D01*
X0432854Y0422553D01*
X0432854Y0425112D02*
X0432854Y0425112D01*
X0435216Y0425112D01*
X0435216Y0425112D01*
X0432854Y0425112D01*
X0461594Y0469994D02*
X0461594Y0469994D01*
X0459232Y0469994D01*
X0459232Y0469994D01*
X0461594Y0469994D01*
X0461594Y0475112D02*
X0461594Y0475112D01*
X0459232Y0475112D01*
X0459232Y0475112D01*
X0461594Y0475112D01*
X0469468Y0475112D02*
X0469468Y0475112D01*
X0467106Y0475112D01*
X0467106Y0475112D01*
X0469468Y0475112D01*
X0469468Y0472553D02*
X0469468Y0472553D01*
X0467106Y0472553D01*
X0467106Y0472553D01*
X0469468Y0472553D01*
X0469468Y0469994D02*
X0469468Y0469994D01*
X0467106Y0469994D01*
X0467106Y0469994D01*
X0469468Y0469994D01*
X0405098Y0524128D02*
X0405098Y0524128D01*
X0405098Y0526490D01*
X0405098Y0526490D01*
X0405098Y0524128D01*
X0405098Y0526450D02*
X0405098Y0526450D01*
X0402539Y0524128D02*
X0402539Y0524128D01*
X0402539Y0526490D01*
X0402539Y0526490D01*
X0402539Y0524128D01*
X0402539Y0526450D02*
X0402539Y0526450D01*
X0399980Y0524128D02*
X0399980Y0524128D01*
X0399980Y0526490D01*
X0399980Y0526490D01*
X0399980Y0524128D01*
X0399980Y0526450D02*
X0399980Y0526450D01*
X0399980Y0532002D02*
X0399980Y0532002D01*
X0399980Y0534364D01*
X0399980Y0534364D01*
X0399980Y0532002D01*
X0399980Y0534324D02*
X0399980Y0534324D01*
X0402539Y0532002D02*
X0402539Y0532002D01*
X0402539Y0534364D01*
X0402539Y0534364D01*
X0402539Y0532002D01*
X0402539Y0534324D02*
X0402539Y0534324D01*
X0405098Y0532002D02*
X0405098Y0532002D01*
X0405098Y0534364D01*
X0405098Y0534364D01*
X0405098Y0532002D01*
X0405098Y0534324D02*
X0405098Y0534324D01*
X0424193Y0567631D02*
X0424193Y0567631D01*
X0426555Y0567631D01*
X0426555Y0567631D01*
X0424193Y0567631D01*
X0424193Y0570191D02*
X0424193Y0570191D01*
X0426555Y0570191D01*
X0426555Y0570191D01*
X0424193Y0570191D01*
X0424193Y0572750D02*
X0424193Y0572750D01*
X0426555Y0572750D01*
X0426555Y0572750D01*
X0424193Y0572750D01*
X0432067Y0572750D02*
X0432067Y0572750D01*
X0434429Y0572750D01*
X0434429Y0572750D01*
X0432067Y0572750D01*
X0432067Y0570191D02*
X0432067Y0570191D01*
X0434429Y0570191D01*
X0434429Y0570191D01*
X0432067Y0570191D01*
X0432067Y0567631D02*
X0432067Y0567631D01*
X0434429Y0567631D01*
X0434429Y0567631D01*
X0432067Y0567631D01*
X0449586Y0577277D02*
X0449586Y0577277D01*
X0449586Y0579639D01*
X0449586Y0579639D01*
X0449586Y0577277D01*
X0449586Y0579599D02*
X0449586Y0579599D01*
X0452146Y0577277D02*
X0452146Y0577277D01*
X0452146Y0579639D01*
X0452146Y0579639D01*
X0452146Y0577277D01*
X0452146Y0579599D02*
X0452146Y0579599D01*
X0454705Y0577277D02*
X0454705Y0577277D01*
X0454705Y0579639D01*
X0454705Y0579639D01*
X0454705Y0577277D01*
X0454705Y0579599D02*
X0454705Y0579599D01*
X0454705Y0585151D02*
X0454705Y0585151D01*
X0454705Y0587513D01*
X0454705Y0587513D01*
X0454705Y0585151D01*
X0454705Y0587473D02*
X0454705Y0587473D01*
X0452146Y0585151D02*
X0452146Y0585151D01*
X0452146Y0587513D01*
X0452146Y0587513D01*
X0452146Y0585151D01*
X0452146Y0587473D02*
X0452146Y0587473D01*
X0449586Y0585151D02*
X0449586Y0585151D01*
X0449586Y0587513D01*
X0449586Y0587513D01*
X0449586Y0585151D01*
X0449586Y0587473D02*
X0449586Y0587473D01*
D22*
X0202685Y0505477D02*
X0199637Y0505477D01*
X0199637Y0508919D01*
X0202685Y0508919D01*
X0202685Y0505477D01*
X0202685Y0507507D02*
X0199637Y0507507D01*
X0385464Y0157738D02*
X0385464Y0154690D01*
X0385464Y0157738D02*
X0388906Y0157738D01*
X0388906Y0154690D01*
X0385464Y0154690D01*
X0385464Y0156720D02*
X0388906Y0156720D01*
D23*
X0385570Y0150152D02*
X0385570Y0148890D01*
X0385570Y0150152D02*
X0388800Y0150152D01*
X0388800Y0148890D01*
X0385570Y0148890D01*
X0395019Y0148890D02*
X0395019Y0150152D01*
X0398249Y0150152D01*
X0398249Y0148890D01*
X0395019Y0148890D01*
X0395019Y0156371D02*
X0395019Y0157633D01*
X0398249Y0157633D01*
X0398249Y0156371D01*
X0395019Y0156371D01*
X0260373Y0162670D02*
X0260373Y0163932D01*
X0263603Y0163932D01*
X0263603Y0162670D01*
X0260373Y0162670D01*
X0260373Y0170150D02*
X0260373Y0171412D01*
X0263603Y0171412D01*
X0263603Y0170150D01*
X0260373Y0170150D01*
X0250924Y0167672D02*
X0250924Y0166410D01*
X0250924Y0167672D02*
X0254154Y0167672D01*
X0254154Y0166410D01*
X0250924Y0166410D01*
X0208485Y0505583D02*
X0207223Y0505583D01*
X0207223Y0508813D01*
X0208485Y0508813D01*
X0208485Y0505583D01*
X0208485Y0507825D02*
X0207223Y0507825D01*
X0207223Y0515032D02*
X0208485Y0515032D01*
X0207223Y0515032D02*
X0207223Y0518262D01*
X0208485Y0518262D01*
X0208485Y0515032D01*
X0208485Y0517274D02*
X0207223Y0517274D01*
X0201005Y0515032D02*
X0199743Y0515032D01*
X0199743Y0518262D01*
X0201005Y0518262D01*
X0201005Y0515032D01*
X0201005Y0517274D02*
X0199743Y0517274D01*
D24*
X0298736Y0457726D02*
X0307130Y0457726D01*
X0298736Y0457726D02*
X0298736Y0466120D01*
X0307130Y0466120D01*
X0307130Y0457726D01*
X0307130Y0459568D02*
X0298736Y0459568D01*
X0298736Y0461410D02*
X0307130Y0461410D01*
X0307130Y0463252D02*
X0298736Y0463252D01*
X0298736Y0465094D02*
X0307130Y0465094D01*
X0316059Y0457726D02*
X0324453Y0457726D01*
X0316059Y0457726D02*
X0316059Y0466120D01*
X0324453Y0466120D01*
X0324453Y0457726D01*
X0324453Y0459568D02*
X0316059Y0459568D01*
X0316059Y0461410D02*
X0324453Y0461410D01*
X0324453Y0463252D02*
X0316059Y0463252D01*
X0316059Y0465094D02*
X0324453Y0465094D01*
X0336531Y0457726D02*
X0344925Y0457726D01*
X0336531Y0457726D02*
X0336531Y0466120D01*
X0344925Y0466120D01*
X0344925Y0457726D01*
X0344925Y0459568D02*
X0336531Y0459568D01*
X0336531Y0461410D02*
X0344925Y0461410D01*
X0344925Y0463252D02*
X0336531Y0463252D01*
X0336531Y0465094D02*
X0344925Y0465094D01*
X0353854Y0457726D02*
X0362248Y0457726D01*
X0353854Y0457726D02*
X0353854Y0466120D01*
X0362248Y0466120D01*
X0362248Y0457726D01*
X0362248Y0459568D02*
X0353854Y0459568D01*
X0353854Y0461410D02*
X0362248Y0461410D01*
X0362248Y0463252D02*
X0353854Y0463252D01*
X0353854Y0465094D02*
X0362248Y0465094D01*
D25*
X0330155Y0441286D02*
X0330155Y0440434D01*
X0326941Y0440434D01*
X0326941Y0441286D01*
X0330155Y0441286D01*
X0330130Y0437546D02*
X0330130Y0436694D01*
X0326916Y0436694D01*
X0326916Y0437546D01*
X0330130Y0437546D01*
X0330130Y0433806D02*
X0330130Y0432954D01*
X0326916Y0432954D01*
X0326916Y0433806D01*
X0330130Y0433806D01*
X0320682Y0433806D02*
X0320682Y0432954D01*
X0317468Y0432954D01*
X0317468Y0433806D01*
X0320682Y0433806D01*
X0320682Y0436694D02*
X0320682Y0437546D01*
X0320682Y0436694D02*
X0317468Y0436694D01*
X0317468Y0437546D01*
X0320682Y0437546D01*
X0320682Y0440434D02*
X0320682Y0441286D01*
X0320682Y0440434D02*
X0317468Y0440434D01*
X0317468Y0441286D01*
X0320682Y0441286D01*
X0263162Y0474292D02*
X0263162Y0475144D01*
X0266376Y0475144D01*
X0266376Y0474292D01*
X0263162Y0474292D01*
X0253664Y0474292D02*
X0253664Y0475144D01*
X0256878Y0475144D01*
X0256878Y0474292D01*
X0253664Y0474292D01*
X0253664Y0478032D02*
X0253664Y0478884D01*
X0256878Y0478884D01*
X0256878Y0478032D01*
X0253664Y0478032D01*
X0253664Y0481772D02*
X0253664Y0482624D01*
X0256878Y0482624D01*
X0256878Y0481772D01*
X0253664Y0481772D01*
X0263162Y0481772D02*
X0263162Y0482624D01*
X0266376Y0482624D01*
X0266376Y0481772D01*
X0263162Y0481772D01*
X0244633Y0576261D02*
X0244633Y0577113D01*
X0247847Y0577113D01*
X0247847Y0576261D01*
X0244633Y0576261D01*
X0244633Y0580001D02*
X0244633Y0580853D01*
X0247847Y0580853D01*
X0247847Y0580001D01*
X0244633Y0580001D01*
X0244633Y0583741D02*
X0244633Y0584593D01*
X0247847Y0584593D01*
X0247847Y0583741D01*
X0244633Y0583741D01*
X0235184Y0583741D02*
X0235184Y0584593D01*
X0238398Y0584593D01*
X0238398Y0583741D01*
X0235184Y0583741D01*
X0235184Y0580853D02*
X0235184Y0580001D01*
X0235184Y0580853D02*
X0238398Y0580853D01*
X0238398Y0580001D01*
X0235184Y0580001D01*
X0235160Y0577113D02*
X0235160Y0576261D01*
X0235160Y0577113D02*
X0238374Y0577113D01*
X0238374Y0576261D01*
X0235160Y0576261D01*
X0415170Y0561758D02*
X0415170Y0560906D01*
X0411956Y0560906D01*
X0411956Y0561758D01*
X0415170Y0561758D01*
X0415170Y0558018D02*
X0415170Y0557166D01*
X0411956Y0557166D01*
X0411956Y0558018D01*
X0415170Y0558018D01*
X0415170Y0554278D02*
X0415170Y0553426D01*
X0411956Y0553426D01*
X0411956Y0554278D01*
X0415170Y0554278D01*
X0424619Y0554278D02*
X0424619Y0553426D01*
X0421405Y0553426D01*
X0421405Y0554278D01*
X0424619Y0554278D01*
X0424619Y0557166D02*
X0424619Y0558018D01*
X0424619Y0557166D02*
X0421405Y0557166D01*
X0421405Y0558018D01*
X0424619Y0558018D01*
X0424643Y0560906D02*
X0424643Y0561758D01*
X0424643Y0560906D02*
X0421429Y0560906D01*
X0421429Y0561758D01*
X0424643Y0561758D01*
D26*
X0217214Y0315702D02*
X0214162Y0315702D01*
X0214162Y0319954D01*
X0217214Y0319954D01*
X0217214Y0315702D01*
X0217214Y0317736D02*
X0214162Y0317736D01*
X0214162Y0319770D02*
X0217214Y0319770D01*
X0209814Y0315702D02*
X0206762Y0315702D01*
X0206762Y0319954D01*
X0209814Y0319954D01*
X0209814Y0315702D01*
X0209814Y0317736D02*
X0206762Y0317736D01*
X0206762Y0319770D02*
X0209814Y0319770D01*
D27*
X0317598Y0474954D03*
X0327598Y0474954D03*
X0337598Y0474954D03*
X0347598Y0474954D03*
X0342598Y0484954D03*
X0332598Y0484954D03*
X0322598Y0484954D03*
X0312598Y0484954D03*
X0317598Y0543852D03*
X0327598Y0543852D03*
X0322598Y0553852D03*
X0332598Y0553852D03*
X0337598Y0543852D03*
X0347598Y0543852D03*
X0342598Y0553852D03*
X0312598Y0553852D03*
D28*
X0307598Y0578852D03*
X0352598Y0578852D03*
X0352598Y0509954D03*
X0307598Y0509954D03*
D29*
X0170295Y0145033D03*
X0306870Y0303261D03*
X0375768Y0175309D03*
X0490295Y0145033D03*
X0490295Y0595033D03*
X0170295Y0595033D03*
D30*
X0269075Y0582789D03*
X0280886Y0582789D03*
X0280886Y0570978D03*
X0280886Y0559167D03*
X0269075Y0559167D03*
X0269075Y0570978D03*
X0278917Y0513616D03*
X0381279Y0523616D03*
X0379311Y0559167D03*
X0391122Y0559167D03*
X0391122Y0570978D03*
X0379311Y0570978D03*
X0379311Y0582789D03*
X0391122Y0582789D03*
X0485295Y0425033D03*
X0175295Y0435033D03*
D31*
X0175295Y0425033D03*
X0278917Y0523616D03*
X0381279Y0513616D03*
X0485295Y0435033D03*
D32*
X0448979Y0510366D02*
X0448979Y0516630D01*
X0448979Y0510366D02*
X0443501Y0510366D01*
X0443501Y0516630D01*
X0448979Y0516630D01*
X0448979Y0512289D02*
X0443501Y0512289D01*
X0443501Y0514212D02*
X0448979Y0514212D01*
X0448979Y0516135D02*
X0443501Y0516135D01*
D33*
X0224980Y0446372D02*
X0223406Y0446372D01*
X0223406Y0443813D02*
X0224980Y0443813D01*
X0224980Y0441254D02*
X0223406Y0441254D01*
X0216318Y0441254D02*
X0214744Y0441254D01*
X0214744Y0443813D02*
X0216318Y0443813D01*
X0216318Y0446372D02*
X0214744Y0446372D01*
X0221634Y0183182D02*
X0221634Y0181608D01*
X0224193Y0181608D02*
X0224193Y0183182D01*
X0226752Y0183182D02*
X0226752Y0181608D01*
X0226752Y0174521D02*
X0226752Y0172947D01*
X0224193Y0172947D02*
X0224193Y0174521D01*
X0221634Y0174521D02*
X0221634Y0172947D01*
D34*
X0222879Y0177095D02*
X0222879Y0179035D01*
X0222879Y0177095D02*
X0221569Y0177095D01*
X0221569Y0179035D01*
X0222879Y0179035D01*
X0226816Y0179035D02*
X0226816Y0177095D01*
X0225506Y0177095D01*
X0225506Y0179035D01*
X0226816Y0179035D01*
X0220832Y0442499D02*
X0218892Y0442499D01*
X0220832Y0442499D02*
X0220832Y0441189D01*
X0218892Y0441189D01*
X0218892Y0442499D01*
X0218892Y0446436D02*
X0220832Y0446436D01*
X0220832Y0445126D01*
X0218892Y0445126D01*
X0218892Y0446436D01*
D35*
X0219862Y0443813D03*
D36*
X0467844Y0485890D02*
X0489202Y0485890D01*
X0467844Y0485890D02*
X0467844Y0493862D01*
X0489202Y0493862D01*
X0489202Y0485890D01*
X0489202Y0487759D02*
X0467844Y0487759D01*
X0467844Y0489628D02*
X0489202Y0489628D01*
X0489202Y0491497D02*
X0467844Y0491497D01*
X0467844Y0493366D02*
X0489202Y0493366D01*
X0489202Y0504787D02*
X0467844Y0504787D01*
X0467844Y0512759D01*
X0489202Y0512759D01*
X0489202Y0504787D01*
X0489202Y0506656D02*
X0467844Y0506656D01*
X0467844Y0508525D02*
X0489202Y0508525D01*
X0489202Y0510394D02*
X0467844Y0510394D01*
X0467844Y0512263D02*
X0489202Y0512263D01*
D37*
X0464637Y0490730D02*
X0454929Y0490730D01*
X0464637Y0490730D02*
X0464637Y0482722D01*
X0454929Y0482722D01*
X0454929Y0490730D01*
X0454929Y0484600D02*
X0464637Y0484600D01*
X0464637Y0486478D02*
X0454929Y0486478D01*
X0454929Y0488356D02*
X0464637Y0488356D01*
X0464637Y0490234D02*
X0454929Y0490234D01*
X0444637Y0490730D02*
X0434929Y0490730D01*
X0444637Y0490730D02*
X0444637Y0482722D01*
X0434929Y0482722D01*
X0434929Y0490730D01*
X0434929Y0484600D02*
X0444637Y0484600D01*
X0444637Y0486478D02*
X0434929Y0486478D01*
X0434929Y0488356D02*
X0444637Y0488356D01*
X0444637Y0490234D02*
X0434929Y0490234D01*
X0447134Y0455297D02*
X0456842Y0455297D01*
X0456842Y0447289D01*
X0447134Y0447289D01*
X0447134Y0455297D01*
X0447134Y0449167D02*
X0456842Y0449167D01*
X0456842Y0451045D02*
X0447134Y0451045D01*
X0447134Y0452923D02*
X0456842Y0452923D01*
X0456842Y0454801D02*
X0447134Y0454801D01*
X0467134Y0455297D02*
X0476842Y0455297D01*
X0476842Y0447289D01*
X0467134Y0447289D01*
X0467134Y0455297D01*
X0467134Y0449167D02*
X0476842Y0449167D01*
X0476842Y0451045D02*
X0467134Y0451045D01*
X0467134Y0452923D02*
X0476842Y0452923D01*
X0476842Y0454801D02*
X0467134Y0454801D01*
X0179772Y0454808D02*
X0179772Y0445100D01*
X0171764Y0445100D01*
X0171764Y0454808D01*
X0179772Y0454808D01*
X0179772Y0446978D02*
X0171764Y0446978D01*
X0171764Y0448856D02*
X0179772Y0448856D01*
X0179772Y0450734D02*
X0171764Y0450734D01*
X0171764Y0452612D02*
X0179772Y0452612D01*
X0179772Y0454490D02*
X0171764Y0454490D01*
X0179772Y0465100D02*
X0179772Y0474808D01*
X0179772Y0465100D02*
X0171764Y0465100D01*
X0171764Y0474808D01*
X0179772Y0474808D01*
X0179772Y0466978D02*
X0171764Y0466978D01*
X0171764Y0468856D02*
X0179772Y0468856D01*
X0179772Y0470734D02*
X0171764Y0470734D01*
X0171764Y0472612D02*
X0179772Y0472612D01*
X0179772Y0474490D02*
X0171764Y0474490D01*
X0184929Y0182856D02*
X0194637Y0182856D01*
X0194637Y0174848D01*
X0184929Y0174848D01*
X0184929Y0182856D01*
X0184929Y0176726D02*
X0194637Y0176726D01*
X0194637Y0178604D02*
X0184929Y0178604D01*
X0184929Y0180482D02*
X0194637Y0180482D01*
X0194637Y0182360D02*
X0184929Y0182360D01*
X0204929Y0182856D02*
X0214637Y0182856D01*
X0214637Y0174848D01*
X0204929Y0174848D01*
X0204929Y0182856D01*
X0204929Y0176726D02*
X0214637Y0176726D01*
X0214637Y0178604D02*
X0204929Y0178604D01*
X0204929Y0180482D02*
X0214637Y0180482D01*
X0214637Y0182360D02*
X0204929Y0182360D01*
D38*
X0430621Y0469187D02*
X0430621Y0476617D01*
X0430621Y0469187D02*
X0420891Y0469187D01*
X0420891Y0476617D01*
X0430621Y0476617D01*
X0430621Y0471043D02*
X0420891Y0471043D01*
X0420891Y0472899D02*
X0430621Y0472899D01*
X0430621Y0474755D02*
X0420891Y0474755D01*
X0420891Y0476611D02*
X0430621Y0476611D01*
X0430639Y0486587D02*
X0430639Y0494017D01*
X0430639Y0486587D02*
X0420909Y0486587D01*
X0420909Y0494017D01*
X0430639Y0494017D01*
X0430639Y0488443D02*
X0420909Y0488443D01*
X0420909Y0490299D02*
X0430639Y0490299D01*
X0430639Y0492155D02*
X0420909Y0492155D01*
X0420909Y0494011D02*
X0430639Y0494011D01*
D39*
X0224193Y0178065D03*
D40*
X0183917Y0193458D03*
X0197500Y0141844D03*
D41*
X0207500Y0141844D03*
X0217500Y0141844D03*
X0227500Y0141844D03*
X0237500Y0141844D03*
X0173917Y0193458D03*
X0173917Y0203458D03*
X0183917Y0203458D03*
X0183917Y0213458D03*
X0173917Y0213458D03*
X0173917Y0223458D03*
X0183917Y0223458D03*
X0183917Y0233458D03*
X0173917Y0233458D03*
X0173917Y0243458D03*
X0183917Y0243458D03*
X0183917Y0253458D03*
X0173917Y0253458D03*
X0173917Y0263458D03*
X0183917Y0263458D03*
D42*
X0175295Y0354285D03*
X0175295Y0385781D03*
X0411988Y0144600D03*
X0463957Y0144600D03*
X0485295Y0354285D03*
X0485295Y0385781D03*
D43*
X0482308Y0515943D02*
X0482308Y0523473D01*
X0487338Y0523473D01*
X0487338Y0515943D01*
X0482308Y0515943D01*
X0482308Y0517898D02*
X0487338Y0517898D01*
X0487338Y0519853D02*
X0482308Y0519853D01*
X0482308Y0521808D02*
X0487338Y0521808D01*
X0482308Y0533443D02*
X0482308Y0540973D01*
X0487338Y0540973D01*
X0487338Y0533443D01*
X0482308Y0533443D01*
X0482308Y0535398D02*
X0487338Y0535398D01*
X0487338Y0537353D02*
X0482308Y0537353D01*
X0482308Y0539308D02*
X0487338Y0539308D01*
X0325290Y0408227D02*
X0317760Y0408227D01*
X0317760Y0413257D01*
X0325290Y0413257D01*
X0325290Y0408227D01*
X0325290Y0410182D02*
X0317760Y0410182D01*
X0317760Y0412137D02*
X0325290Y0412137D01*
X0307790Y0408227D02*
X0300260Y0408227D01*
X0300260Y0413257D01*
X0307790Y0413257D01*
X0307790Y0408227D01*
X0307790Y0410182D02*
X0300260Y0410182D01*
X0300260Y0412137D02*
X0307790Y0412137D01*
D44*
X0304683Y0488913D02*
X0304683Y0493987D01*
X0304683Y0488913D02*
X0290159Y0488913D01*
X0290159Y0493987D01*
X0304683Y0493987D01*
X0304683Y0490885D02*
X0290159Y0490885D01*
X0290159Y0492857D02*
X0304683Y0492857D01*
X0277911Y0493987D02*
X0277911Y0488913D01*
X0263387Y0488913D01*
X0263387Y0493987D01*
X0277911Y0493987D01*
X0277911Y0490885D02*
X0263387Y0490885D01*
X0263387Y0492857D02*
X0277911Y0492857D01*
X0471262Y0554224D02*
X0476336Y0554224D01*
X0476336Y0539700D01*
X0471262Y0539700D01*
X0471262Y0554224D01*
X0471262Y0541672D02*
X0476336Y0541672D01*
X0476336Y0543644D02*
X0471262Y0543644D01*
X0471262Y0545616D02*
X0476336Y0545616D01*
X0476336Y0547588D02*
X0471262Y0547588D01*
X0471262Y0549560D02*
X0476336Y0549560D01*
X0476336Y0551532D02*
X0471262Y0551532D01*
X0471262Y0553504D02*
X0476336Y0553504D01*
X0476336Y0580996D02*
X0471262Y0580996D01*
X0476336Y0580996D02*
X0476336Y0566472D01*
X0471262Y0566472D01*
X0471262Y0580996D01*
X0471262Y0568444D02*
X0476336Y0568444D01*
X0476336Y0570416D02*
X0471262Y0570416D01*
X0471262Y0572388D02*
X0476336Y0572388D01*
X0476336Y0574360D02*
X0471262Y0574360D01*
X0471262Y0576332D02*
X0476336Y0576332D01*
X0476336Y0578304D02*
X0471262Y0578304D01*
X0471262Y0580276D02*
X0476336Y0580276D01*
D45*
X0354276Y0252313D02*
X0350802Y0252313D01*
X0350802Y0258935D01*
X0354276Y0258935D01*
X0354276Y0252313D01*
X0354276Y0254351D02*
X0350802Y0254351D01*
X0350802Y0256389D02*
X0354276Y0256389D01*
X0354276Y0258427D02*
X0350802Y0258427D01*
X0344827Y0252313D02*
X0341353Y0252313D01*
X0341353Y0258935D01*
X0344827Y0258935D01*
X0344827Y0252313D01*
X0344827Y0254351D02*
X0341353Y0254351D01*
X0341353Y0256389D02*
X0344827Y0256389D01*
X0344827Y0258427D02*
X0341353Y0258427D01*
X0341353Y0237352D02*
X0344827Y0237352D01*
X0341353Y0237352D02*
X0341353Y0243974D01*
X0344827Y0243974D01*
X0344827Y0237352D01*
X0344827Y0239390D02*
X0341353Y0239390D01*
X0341353Y0241428D02*
X0344827Y0241428D01*
X0344827Y0243466D02*
X0341353Y0243466D01*
X0350802Y0237352D02*
X0354276Y0237352D01*
X0350802Y0237352D02*
X0350802Y0243974D01*
X0354276Y0243974D01*
X0354276Y0237352D01*
X0354276Y0239390D02*
X0350802Y0239390D01*
X0350802Y0241428D02*
X0354276Y0241428D01*
X0354276Y0243466D02*
X0350802Y0243466D01*
D46*
X0424193Y0155230D03*
X0434035Y0155230D03*
X0441909Y0155230D03*
X0451752Y0155230D03*
X0365335Y0398931D03*
X0355335Y0398931D03*
X0345335Y0398931D03*
X0335335Y0398931D03*
X0325335Y0398931D03*
X0315335Y0398931D03*
X0305335Y0398931D03*
D47*
X0431516Y0542631D03*
D48*
X0441516Y0542631D03*
X0451516Y0542631D03*
D49*
X0375335Y0398931D03*
D50*
X0329311Y0410742D03*
X0296240Y0410742D03*
X0217106Y0333970D03*
X0436791Y0178852D03*
X0442303Y0463498D03*
D51*
X0189941Y0588694D03*
X0482854Y0164285D03*
M02*
