G75*
%MOIN*%
%OFA0B0*%
%FSLAX25Y25*%
%IPPOS*%
%LPD*%
%AMOC8*
5,1,8,0,0,1.08239X$1,22.5*
%
%ADD10C,0.01102*%
%ADD11C,0.01378*%
%ADD12C,0.01181*%
%ADD13C,0.01764*%
%ADD14C,0.01742*%
%ADD15C,0.01733*%
%ADD16C,0.01742*%
%ADD17C,0.01715*%
%ADD18C,0.01496*%
%ADD19C,0.01728*%
%ADD20C,0.03937*%
%ADD21C,0.01535*%
%ADD22C,0.01717*%
%ADD23C,0.01739*%
%ADD24C,0.01701*%
%ADD25C,0.01724*%
%ADD26C,0.01720*%
%ADD27C,0.01720*%
%ADD28C,0.01575*%
%ADD29C,0.01736*%
%ADD30C,0.01720*%
%ADD31C,0.01729*%
%ADD32C,0.01700*%
%ADD33C,0.01795*%
%ADD34C,0.01736*%
%ADD35C,0.01753*%
%ADD36C,0.01748*%
D10*
X0253504Y0206017D02*
X0257874Y0206017D01*
X0257874Y0207986D02*
X0253504Y0207986D01*
X0253504Y0209954D02*
X0257874Y0209954D01*
X0257874Y0211923D02*
X0253504Y0211923D01*
X0253504Y0213891D02*
X0257874Y0213891D01*
X0257874Y0215860D02*
X0253504Y0215860D01*
X0253504Y0217828D02*
X0257874Y0217828D01*
X0257874Y0219797D02*
X0253504Y0219797D01*
X0253504Y0221765D02*
X0257874Y0221765D01*
X0257874Y0223734D02*
X0253504Y0223734D01*
X0253504Y0225702D02*
X0257874Y0225702D01*
X0257874Y0227671D02*
X0253504Y0227671D01*
X0253504Y0229639D02*
X0257874Y0229639D01*
X0257874Y0231608D02*
X0253504Y0231608D01*
X0253504Y0233576D02*
X0257874Y0233576D01*
X0257874Y0235545D02*
X0253504Y0235545D01*
X0253504Y0237513D02*
X0257874Y0237513D01*
X0257874Y0239482D02*
X0253504Y0239482D01*
X0253504Y0241450D02*
X0257874Y0241450D01*
X0257874Y0243419D02*
X0253504Y0243419D01*
X0253504Y0245387D02*
X0257874Y0245387D01*
X0257874Y0247356D02*
X0253504Y0247356D01*
X0253504Y0249324D02*
X0257874Y0249324D01*
X0257874Y0251293D02*
X0253504Y0251293D01*
X0253504Y0253261D02*
X0257874Y0253261D01*
X0262382Y0257769D02*
X0262382Y0262139D01*
X0264350Y0262139D02*
X0264350Y0257769D01*
X0266319Y0257769D02*
X0266319Y0262139D01*
X0268287Y0262139D02*
X0268287Y0257769D01*
X0270256Y0257769D02*
X0270256Y0262139D01*
X0272224Y0262139D02*
X0272224Y0257769D01*
X0274193Y0257769D02*
X0274193Y0262139D01*
X0276161Y0262139D02*
X0276161Y0257769D01*
X0278130Y0257769D02*
X0278130Y0262139D01*
X0280098Y0262139D02*
X0280098Y0257769D01*
X0282067Y0257769D02*
X0282067Y0262139D01*
X0284035Y0262139D02*
X0284035Y0257769D01*
X0286004Y0257769D02*
X0286004Y0262139D01*
X0287972Y0262139D02*
X0287972Y0257769D01*
X0289941Y0257769D02*
X0289941Y0262139D01*
X0291909Y0262139D02*
X0291909Y0257769D01*
X0293878Y0257769D02*
X0293878Y0262139D01*
X0295846Y0262139D02*
X0295846Y0257769D01*
X0297815Y0257769D02*
X0297815Y0262139D01*
X0299783Y0262139D02*
X0299783Y0257769D01*
X0301752Y0257769D02*
X0301752Y0262139D01*
X0303720Y0262139D02*
X0303720Y0257769D01*
X0305689Y0257769D02*
X0305689Y0262139D01*
X0307657Y0262139D02*
X0307657Y0257769D01*
X0309626Y0257769D02*
X0309626Y0262139D01*
X0314134Y0253261D02*
X0318504Y0253261D01*
X0318504Y0251293D02*
X0314134Y0251293D01*
X0314134Y0249324D02*
X0318504Y0249324D01*
X0318504Y0247356D02*
X0314134Y0247356D01*
X0314134Y0245387D02*
X0318504Y0245387D01*
X0318504Y0243419D02*
X0314134Y0243419D01*
X0314134Y0241450D02*
X0318504Y0241450D01*
X0318504Y0239482D02*
X0314134Y0239482D01*
X0314134Y0237513D02*
X0318504Y0237513D01*
X0318504Y0235545D02*
X0314134Y0235545D01*
X0314134Y0233576D02*
X0318504Y0233576D01*
X0318504Y0231608D02*
X0314134Y0231608D01*
X0314134Y0229639D02*
X0318504Y0229639D01*
X0318504Y0227671D02*
X0314134Y0227671D01*
X0314134Y0225702D02*
X0318504Y0225702D01*
X0318504Y0223734D02*
X0314134Y0223734D01*
X0314134Y0221765D02*
X0318504Y0221765D01*
X0318504Y0219797D02*
X0314134Y0219797D01*
X0314134Y0217828D02*
X0318504Y0217828D01*
X0318504Y0215860D02*
X0314134Y0215860D01*
X0314134Y0213891D02*
X0318504Y0213891D01*
X0318504Y0211923D02*
X0314134Y0211923D01*
X0314134Y0209954D02*
X0318504Y0209954D01*
X0318504Y0207986D02*
X0314134Y0207986D01*
X0314134Y0206017D02*
X0318504Y0206017D01*
X0309626Y0201509D02*
X0309626Y0197139D01*
X0307657Y0197139D02*
X0307657Y0201509D01*
X0305689Y0201509D02*
X0305689Y0197139D01*
X0303720Y0197139D02*
X0303720Y0201509D01*
X0301752Y0201509D02*
X0301752Y0197139D01*
X0299783Y0197139D02*
X0299783Y0201509D01*
X0297815Y0201509D02*
X0297815Y0197139D01*
X0295846Y0197139D02*
X0295846Y0201509D01*
X0293878Y0201509D02*
X0293878Y0197139D01*
X0291909Y0197139D02*
X0291909Y0201509D01*
X0289941Y0201509D02*
X0289941Y0197139D01*
X0287972Y0197139D02*
X0287972Y0201509D01*
X0286004Y0201509D02*
X0286004Y0197139D01*
X0284035Y0197139D02*
X0284035Y0201509D01*
X0282067Y0201509D02*
X0282067Y0197139D01*
X0280098Y0197139D02*
X0280098Y0201509D01*
X0278130Y0201509D02*
X0278130Y0197139D01*
X0276161Y0197139D02*
X0276161Y0201509D01*
X0274193Y0201509D02*
X0274193Y0197139D01*
X0272224Y0197139D02*
X0272224Y0201509D01*
X0270256Y0201509D02*
X0270256Y0197139D01*
X0268287Y0197139D02*
X0268287Y0201509D01*
X0266319Y0201509D02*
X0266319Y0197139D01*
X0264350Y0197139D02*
X0264350Y0201509D01*
X0262382Y0201509D02*
X0262382Y0197139D01*
X0443878Y0182632D02*
X0443878Y0178222D01*
X0445846Y0178222D02*
X0445846Y0182632D01*
X0447815Y0182632D02*
X0447815Y0178222D01*
X0449783Y0178222D02*
X0449783Y0182632D01*
X0451752Y0182632D02*
X0451752Y0178222D01*
X0453720Y0178222D02*
X0453720Y0182632D01*
X0455689Y0182632D02*
X0455689Y0178222D01*
X0457657Y0178222D02*
X0457657Y0182632D01*
X0459626Y0182632D02*
X0459626Y0178222D01*
X0461594Y0178222D02*
X0461594Y0182632D01*
X0463563Y0182632D02*
X0463563Y0178222D01*
X0465531Y0178222D02*
X0465531Y0182632D01*
X0467500Y0182632D02*
X0467500Y0178222D01*
X0469468Y0178222D02*
X0469468Y0182632D01*
X0471437Y0182632D02*
X0471437Y0178222D01*
X0473405Y0178222D02*
X0473405Y0182632D01*
X0475374Y0182632D02*
X0475374Y0178222D01*
X0477342Y0178222D02*
X0477342Y0182632D01*
X0479311Y0182632D02*
X0479311Y0178222D01*
X0481279Y0178222D02*
X0481279Y0182632D01*
X0483248Y0182632D02*
X0483248Y0178222D01*
X0485216Y0178222D02*
X0485216Y0182632D01*
X0487185Y0182632D02*
X0487185Y0178222D01*
X0489153Y0178222D02*
X0489153Y0182632D01*
X0489153Y0254600D02*
X0489153Y0259010D01*
X0487185Y0259010D02*
X0487185Y0254600D01*
X0485216Y0254600D02*
X0485216Y0259010D01*
X0483248Y0259010D02*
X0483248Y0254600D01*
X0481279Y0254600D02*
X0481279Y0259010D01*
X0479311Y0259010D02*
X0479311Y0254600D01*
X0477342Y0254600D02*
X0477342Y0259010D01*
X0475374Y0259010D02*
X0475374Y0254600D01*
X0473405Y0254600D02*
X0473405Y0259010D01*
X0471437Y0259010D02*
X0471437Y0254600D01*
X0469468Y0254600D02*
X0469468Y0259010D01*
X0467500Y0259010D02*
X0467500Y0254600D01*
X0465531Y0254600D02*
X0465531Y0259010D01*
X0463563Y0259010D02*
X0463563Y0254600D01*
X0461594Y0254600D02*
X0461594Y0259010D01*
X0459626Y0259010D02*
X0459626Y0254600D01*
X0457657Y0254600D02*
X0457657Y0259010D01*
X0455689Y0259010D02*
X0455689Y0254600D01*
X0453720Y0254600D02*
X0453720Y0259010D01*
X0451752Y0259010D02*
X0451752Y0254600D01*
X0449783Y0254600D02*
X0449783Y0259010D01*
X0447815Y0259010D02*
X0447815Y0254600D01*
X0445846Y0254600D02*
X0445846Y0259010D01*
X0443878Y0259010D02*
X0443878Y0254600D01*
D11*
X0440039Y0254443D02*
X0435119Y0254443D01*
X0435119Y0257002D02*
X0440039Y0257002D01*
X0440039Y0251883D02*
X0435119Y0251883D01*
X0435119Y0249324D02*
X0440039Y0249324D01*
X0440039Y0246765D02*
X0435119Y0246765D01*
X0435119Y0244206D02*
X0440039Y0244206D01*
X0440039Y0241647D02*
X0435119Y0241647D01*
X0435119Y0239088D02*
X0440039Y0239088D01*
X0440039Y0236529D02*
X0435119Y0236529D01*
X0435119Y0233970D02*
X0440039Y0233970D01*
X0440039Y0229049D02*
X0435119Y0229049D01*
X0435119Y0226490D02*
X0440039Y0226490D01*
X0440039Y0223931D02*
X0435119Y0223931D01*
X0435119Y0221372D02*
X0440039Y0221372D01*
X0440039Y0218813D02*
X0435119Y0218813D01*
X0435119Y0216254D02*
X0440039Y0216254D01*
X0440039Y0213694D02*
X0435119Y0213694D01*
X0435119Y0211135D02*
X0440039Y0211135D01*
X0440039Y0208576D02*
X0435119Y0208576D01*
X0435119Y0206017D02*
X0440039Y0206017D01*
X0417204Y0206017D02*
X0412284Y0206017D01*
X0412284Y0208576D02*
X0417204Y0208576D01*
X0417204Y0211135D02*
X0412284Y0211135D01*
X0412284Y0213694D02*
X0417204Y0213694D01*
X0417204Y0216254D02*
X0412284Y0216254D01*
X0412284Y0218813D02*
X0417204Y0218813D01*
X0417204Y0221372D02*
X0412284Y0221372D01*
X0412284Y0223931D02*
X0417204Y0223931D01*
X0417204Y0226490D02*
X0412284Y0226490D01*
X0412284Y0229049D02*
X0417204Y0229049D01*
X0417204Y0233970D02*
X0412284Y0233970D01*
X0412284Y0236529D02*
X0417204Y0236529D01*
X0417204Y0239088D02*
X0412284Y0239088D01*
X0412284Y0241647D02*
X0417204Y0241647D01*
X0417204Y0244206D02*
X0412284Y0244206D01*
X0412284Y0246765D02*
X0417204Y0246765D01*
X0417204Y0249324D02*
X0412284Y0249324D01*
X0412284Y0251883D02*
X0417204Y0251883D01*
X0417204Y0254443D02*
X0412284Y0254443D01*
X0412284Y0257002D02*
X0417204Y0257002D01*
D12*
X0443090Y0347356D02*
X0443090Y0347356D01*
X0447816Y0347356D01*
X0447816Y0347356D01*
X0443090Y0347356D01*
X0443090Y0349324D02*
X0443090Y0349324D01*
X0447816Y0349324D01*
X0447816Y0349324D01*
X0443090Y0349324D01*
X0443090Y0351293D02*
X0443090Y0351293D01*
X0447816Y0351293D01*
X0447816Y0351293D01*
X0443090Y0351293D01*
X0443090Y0353261D02*
X0443090Y0353261D01*
X0447816Y0353261D01*
X0447816Y0353261D01*
X0443090Y0353261D01*
X0443090Y0355230D02*
X0443090Y0355230D01*
X0447816Y0355230D01*
X0447816Y0355230D01*
X0443090Y0355230D01*
X0443090Y0357198D02*
X0443090Y0357198D01*
X0447816Y0357198D01*
X0447816Y0357198D01*
X0443090Y0357198D01*
X0443090Y0359167D02*
X0443090Y0359167D01*
X0447816Y0359167D01*
X0447816Y0359167D01*
X0443090Y0359167D01*
X0443090Y0361135D02*
X0443090Y0361135D01*
X0447816Y0361135D01*
X0447816Y0361135D01*
X0443090Y0361135D01*
X0443090Y0363104D02*
X0443090Y0363104D01*
X0447816Y0363104D01*
X0447816Y0363104D01*
X0443090Y0363104D01*
X0443090Y0365072D02*
X0443090Y0365072D01*
X0447816Y0365072D01*
X0447816Y0365072D01*
X0443090Y0365072D01*
X0443090Y0367041D02*
X0443090Y0367041D01*
X0447816Y0367041D01*
X0447816Y0367041D01*
X0443090Y0367041D01*
X0443090Y0369009D02*
X0443090Y0369009D01*
X0447816Y0369009D01*
X0447816Y0369009D01*
X0443090Y0369009D01*
X0443090Y0370978D02*
X0443090Y0370978D01*
X0447816Y0370978D01*
X0447816Y0370978D01*
X0443090Y0370978D01*
X0443090Y0372946D02*
X0443090Y0372946D01*
X0447816Y0372946D01*
X0447816Y0372946D01*
X0443090Y0372946D01*
X0443090Y0374915D02*
X0443090Y0374915D01*
X0447816Y0374915D01*
X0447816Y0374915D01*
X0443090Y0374915D01*
X0443090Y0376883D02*
X0443090Y0376883D01*
X0447816Y0376883D01*
X0447816Y0376883D01*
X0443090Y0376883D01*
X0443090Y0378852D02*
X0443090Y0378852D01*
X0447816Y0378852D01*
X0447816Y0378852D01*
X0443090Y0378852D01*
X0443090Y0380820D02*
X0443090Y0380820D01*
X0447816Y0380820D01*
X0447816Y0380820D01*
X0443090Y0380820D01*
X0443090Y0382789D02*
X0443090Y0382789D01*
X0447816Y0382789D01*
X0447816Y0382789D01*
X0443090Y0382789D01*
X0443090Y0384757D02*
X0443090Y0384757D01*
X0447816Y0384757D01*
X0447816Y0384757D01*
X0443090Y0384757D01*
X0443090Y0386726D02*
X0443090Y0386726D01*
X0447816Y0386726D01*
X0447816Y0386726D01*
X0443090Y0386726D01*
X0443090Y0388694D02*
X0443090Y0388694D01*
X0447816Y0388694D01*
X0447816Y0388694D01*
X0443090Y0388694D01*
X0443090Y0390663D02*
X0443090Y0390663D01*
X0447816Y0390663D01*
X0447816Y0390663D01*
X0443090Y0390663D01*
X0443090Y0392631D02*
X0443090Y0392631D01*
X0447816Y0392631D01*
X0447816Y0392631D01*
X0443090Y0392631D01*
X0439351Y0509561D02*
X0439351Y0509561D01*
X0435807Y0509561D01*
X0435807Y0509561D01*
X0439351Y0509561D01*
X0439351Y0511529D02*
X0439351Y0511529D01*
X0435807Y0511529D01*
X0435807Y0511529D01*
X0439351Y0511529D01*
X0439351Y0513498D02*
X0439351Y0513498D01*
X0435807Y0513498D01*
X0435807Y0513498D01*
X0439351Y0513498D01*
X0439351Y0515466D02*
X0439351Y0515466D01*
X0435807Y0515466D01*
X0435807Y0515466D01*
X0439351Y0515466D01*
X0439351Y0517435D02*
X0439351Y0517435D01*
X0435807Y0517435D01*
X0435807Y0517435D01*
X0439351Y0517435D01*
X0456673Y0517435D02*
X0456673Y0517435D01*
X0453129Y0517435D01*
X0453129Y0517435D01*
X0456673Y0517435D01*
X0453129Y0515466D02*
X0453129Y0515466D01*
X0456673Y0515466D01*
X0456673Y0515466D01*
X0453129Y0515466D01*
X0453129Y0513498D02*
X0453129Y0513498D01*
X0456673Y0513498D01*
X0456673Y0513498D01*
X0453129Y0513498D01*
X0456673Y0511529D02*
X0456673Y0511529D01*
X0453129Y0511529D01*
X0453129Y0511529D01*
X0456673Y0511529D01*
X0456673Y0509561D02*
X0456673Y0509561D01*
X0453129Y0509561D01*
X0453129Y0509561D01*
X0456673Y0509561D01*
X0217501Y0392631D02*
X0217501Y0392631D01*
X0212775Y0392631D01*
X0212775Y0392631D01*
X0217501Y0392631D01*
X0217501Y0390663D02*
X0217501Y0390663D01*
X0212775Y0390663D01*
X0212775Y0390663D01*
X0217501Y0390663D01*
X0217501Y0388694D02*
X0217501Y0388694D01*
X0212775Y0388694D01*
X0212775Y0388694D01*
X0217501Y0388694D01*
X0217501Y0386726D02*
X0217501Y0386726D01*
X0212775Y0386726D01*
X0212775Y0386726D01*
X0217501Y0386726D01*
X0217501Y0384757D02*
X0217501Y0384757D01*
X0212775Y0384757D01*
X0212775Y0384757D01*
X0217501Y0384757D01*
X0217501Y0382789D02*
X0217501Y0382789D01*
X0212775Y0382789D01*
X0212775Y0382789D01*
X0217501Y0382789D01*
X0217501Y0380820D02*
X0217501Y0380820D01*
X0212775Y0380820D01*
X0212775Y0380820D01*
X0217501Y0380820D01*
X0217501Y0378852D02*
X0217501Y0378852D01*
X0212775Y0378852D01*
X0212775Y0378852D01*
X0217501Y0378852D01*
X0217501Y0376883D02*
X0217501Y0376883D01*
X0212775Y0376883D01*
X0212775Y0376883D01*
X0217501Y0376883D01*
X0217501Y0374915D02*
X0217501Y0374915D01*
X0212775Y0374915D01*
X0212775Y0374915D01*
X0217501Y0374915D01*
X0217501Y0372946D02*
X0217501Y0372946D01*
X0212775Y0372946D01*
X0212775Y0372946D01*
X0217501Y0372946D01*
X0217501Y0370978D02*
X0217501Y0370978D01*
X0212775Y0370978D01*
X0212775Y0370978D01*
X0217501Y0370978D01*
X0217501Y0369009D02*
X0217501Y0369009D01*
X0212775Y0369009D01*
X0212775Y0369009D01*
X0217501Y0369009D01*
X0217501Y0367041D02*
X0217501Y0367041D01*
X0212775Y0367041D01*
X0212775Y0367041D01*
X0217501Y0367041D01*
X0217501Y0365072D02*
X0217501Y0365072D01*
X0212775Y0365072D01*
X0212775Y0365072D01*
X0217501Y0365072D01*
X0217501Y0363104D02*
X0217501Y0363104D01*
X0212775Y0363104D01*
X0212775Y0363104D01*
X0217501Y0363104D01*
X0217501Y0361135D02*
X0217501Y0361135D01*
X0212775Y0361135D01*
X0212775Y0361135D01*
X0217501Y0361135D01*
X0217501Y0359167D02*
X0217501Y0359167D01*
X0212775Y0359167D01*
X0212775Y0359167D01*
X0217501Y0359167D01*
X0217501Y0357198D02*
X0217501Y0357198D01*
X0212775Y0357198D01*
X0212775Y0357198D01*
X0217501Y0357198D01*
X0217501Y0355230D02*
X0217501Y0355230D01*
X0212775Y0355230D01*
X0212775Y0355230D01*
X0217501Y0355230D01*
X0217501Y0353261D02*
X0217501Y0353261D01*
X0212775Y0353261D01*
X0212775Y0353261D01*
X0217501Y0353261D01*
X0217501Y0351293D02*
X0217501Y0351293D01*
X0212775Y0351293D01*
X0212775Y0351293D01*
X0217501Y0351293D01*
X0217501Y0349324D02*
X0217501Y0349324D01*
X0212775Y0349324D01*
X0212775Y0349324D01*
X0217501Y0349324D01*
X0217501Y0347356D02*
X0217501Y0347356D01*
X0212775Y0347356D01*
X0212775Y0347356D01*
X0217501Y0347356D01*
D13*
X0230397Y0342143D02*
X0230397Y0336821D01*
X0225863Y0336821D01*
X0225863Y0342143D01*
X0230397Y0342143D01*
X0230397Y0338584D02*
X0225863Y0338584D01*
X0225863Y0340347D02*
X0230397Y0340347D01*
X0230397Y0342110D02*
X0225863Y0342110D01*
X0230397Y0397845D02*
X0230397Y0403167D01*
X0230397Y0397845D02*
X0225863Y0397845D01*
X0225863Y0403167D01*
X0230397Y0403167D01*
X0230397Y0399608D02*
X0225863Y0399608D01*
X0225863Y0401371D02*
X0230397Y0401371D01*
X0230397Y0403134D02*
X0225863Y0403134D01*
X0430193Y0403167D02*
X0430193Y0397845D01*
X0430193Y0403167D02*
X0434727Y0403167D01*
X0434727Y0397845D01*
X0430193Y0397845D01*
X0430193Y0399608D02*
X0434727Y0399608D01*
X0434727Y0401371D02*
X0430193Y0401371D01*
X0430193Y0403134D02*
X0434727Y0403134D01*
X0430193Y0342143D02*
X0430193Y0336821D01*
X0430193Y0342143D02*
X0434727Y0342143D01*
X0434727Y0336821D01*
X0430193Y0336821D01*
X0430193Y0338584D02*
X0434727Y0338584D01*
X0434727Y0340347D02*
X0430193Y0340347D01*
X0430193Y0342110D02*
X0434727Y0342110D01*
D14*
X0228026Y0426790D02*
X0228026Y0427370D01*
X0228026Y0426790D02*
X0225084Y0426790D01*
X0225084Y0427370D01*
X0228026Y0427370D01*
X0228026Y0430530D02*
X0228026Y0431110D01*
X0228026Y0430530D02*
X0225084Y0430530D01*
X0225084Y0431110D01*
X0228026Y0431110D01*
X0228026Y0434271D02*
X0228026Y0434851D01*
X0228026Y0434271D02*
X0225084Y0434271D01*
X0225084Y0434851D01*
X0228026Y0434851D01*
X0218577Y0434851D02*
X0218577Y0434271D01*
X0215635Y0434271D01*
X0215635Y0434851D01*
X0218577Y0434851D01*
X0218577Y0427370D02*
X0218577Y0426790D01*
X0215635Y0426790D01*
X0215635Y0427370D01*
X0218577Y0427370D01*
D15*
X0211496Y0433871D02*
X0208544Y0433871D01*
X0211496Y0433871D02*
X0211496Y0428557D01*
X0208544Y0428557D01*
X0208544Y0433871D01*
X0208544Y0430289D02*
X0211496Y0430289D01*
X0211496Y0432021D02*
X0208544Y0432021D01*
X0208544Y0433753D02*
X0211496Y0433753D01*
X0211496Y0424816D02*
X0208544Y0424816D01*
X0211496Y0424816D02*
X0211496Y0419502D01*
X0208544Y0419502D01*
X0208544Y0424816D01*
X0208544Y0421234D02*
X0211496Y0421234D01*
X0211496Y0422966D02*
X0208544Y0422966D01*
X0208544Y0424698D02*
X0211496Y0424698D01*
X0211496Y0415761D02*
X0208544Y0415761D01*
X0211496Y0415761D02*
X0211496Y0410447D01*
X0208544Y0410447D01*
X0208544Y0415761D01*
X0208544Y0412179D02*
X0211496Y0412179D01*
X0211496Y0413911D02*
X0208544Y0413911D01*
X0208544Y0415643D02*
X0211496Y0415643D01*
X0221142Y0410447D02*
X0224094Y0410447D01*
X0221142Y0410447D02*
X0221142Y0415761D01*
X0224094Y0415761D01*
X0224094Y0410447D01*
X0224094Y0412179D02*
X0221142Y0412179D01*
X0221142Y0413911D02*
X0224094Y0413911D01*
X0224094Y0415643D02*
X0221142Y0415643D01*
X0233740Y0410447D02*
X0236692Y0410447D01*
X0233740Y0410447D02*
X0233740Y0415761D01*
X0236692Y0415761D01*
X0236692Y0410447D01*
X0236692Y0412179D02*
X0233740Y0412179D01*
X0233740Y0413911D02*
X0236692Y0413911D01*
X0236692Y0415643D02*
X0233740Y0415643D01*
X0240433Y0411430D02*
X0240433Y0408478D01*
X0240433Y0411430D02*
X0245747Y0411430D01*
X0245747Y0408478D01*
X0240433Y0408478D01*
X0240433Y0410210D02*
X0245747Y0410210D01*
X0240433Y0421077D02*
X0240433Y0424029D01*
X0245747Y0424029D01*
X0245747Y0421077D01*
X0240433Y0421077D01*
X0240433Y0422809D02*
X0245747Y0422809D01*
X0197914Y0406706D02*
X0197914Y0403754D01*
X0197914Y0406706D02*
X0203228Y0406706D01*
X0203228Y0403754D01*
X0197914Y0403754D01*
X0197914Y0405486D02*
X0203228Y0405486D01*
X0198897Y0415761D02*
X0195945Y0415761D01*
X0198897Y0415761D02*
X0198897Y0410447D01*
X0195945Y0410447D01*
X0195945Y0415761D01*
X0195945Y0412179D02*
X0198897Y0412179D01*
X0198897Y0413911D02*
X0195945Y0413911D01*
X0195945Y0415643D02*
X0198897Y0415643D01*
X0198897Y0424816D02*
X0195945Y0424816D01*
X0198897Y0424816D02*
X0198897Y0419502D01*
X0195945Y0419502D01*
X0195945Y0424816D01*
X0195945Y0421234D02*
X0198897Y0421234D01*
X0198897Y0422966D02*
X0195945Y0422966D01*
X0195945Y0424698D02*
X0198897Y0424698D01*
X0198897Y0433871D02*
X0195945Y0433871D01*
X0198897Y0433871D02*
X0198897Y0428557D01*
X0195945Y0428557D01*
X0195945Y0433871D01*
X0195945Y0430289D02*
X0198897Y0430289D01*
X0198897Y0432021D02*
X0195945Y0432021D01*
X0195945Y0433753D02*
X0198897Y0433753D01*
X0207756Y0480722D02*
X0210708Y0480722D01*
X0210708Y0475408D01*
X0207756Y0475408D01*
X0207756Y0480722D01*
X0207756Y0477140D02*
X0210708Y0477140D01*
X0210708Y0478872D02*
X0207756Y0478872D01*
X0207756Y0480604D02*
X0210708Y0480604D01*
X0220355Y0480722D02*
X0223307Y0480722D01*
X0223307Y0475408D01*
X0220355Y0475408D01*
X0220355Y0480722D01*
X0220355Y0477140D02*
X0223307Y0477140D01*
X0223307Y0478872D02*
X0220355Y0478872D01*
X0220355Y0480604D02*
X0223307Y0480604D01*
X0279410Y0466746D02*
X0282362Y0466746D01*
X0279410Y0466746D02*
X0279410Y0472060D01*
X0282362Y0472060D01*
X0282362Y0466746D01*
X0282362Y0468478D02*
X0279410Y0468478D01*
X0279410Y0470210D02*
X0282362Y0470210D01*
X0282362Y0471942D02*
X0279410Y0471942D01*
X0292008Y0466746D02*
X0294960Y0466746D01*
X0292008Y0466746D02*
X0292008Y0472060D01*
X0294960Y0472060D01*
X0294960Y0466746D01*
X0294960Y0468478D02*
X0292008Y0468478D01*
X0292008Y0470210D02*
X0294960Y0470210D01*
X0294960Y0471942D02*
X0292008Y0471942D01*
X0301457Y0451588D02*
X0304409Y0451588D01*
X0304409Y0446274D01*
X0301457Y0446274D01*
X0301457Y0451588D01*
X0301457Y0448006D02*
X0304409Y0448006D01*
X0304409Y0449738D02*
X0301457Y0449738D01*
X0301457Y0451470D02*
X0304409Y0451470D01*
X0314055Y0451588D02*
X0317007Y0451588D01*
X0317007Y0446274D01*
X0314055Y0446274D01*
X0314055Y0451588D01*
X0314055Y0448006D02*
X0317007Y0448006D01*
X0317007Y0449738D02*
X0314055Y0449738D01*
X0314055Y0451470D02*
X0317007Y0451470D01*
X0333149Y0450211D02*
X0333149Y0453163D01*
X0333149Y0450211D02*
X0327835Y0450211D01*
X0327835Y0453163D01*
X0333149Y0453163D01*
X0333149Y0451943D02*
X0327835Y0451943D01*
X0333149Y0462809D02*
X0333149Y0465761D01*
X0333149Y0462809D02*
X0327835Y0462809D01*
X0327835Y0465761D01*
X0333149Y0465761D01*
X0333149Y0464541D02*
X0327835Y0464541D01*
X0339646Y0446667D02*
X0342598Y0446667D01*
X0339646Y0446667D02*
X0339646Y0451981D01*
X0342598Y0451981D01*
X0342598Y0446667D01*
X0342598Y0448399D02*
X0339646Y0448399D01*
X0339646Y0450131D02*
X0342598Y0450131D01*
X0342598Y0451863D02*
X0339646Y0451863D01*
X0352244Y0446667D02*
X0355196Y0446667D01*
X0352244Y0446667D02*
X0352244Y0451981D01*
X0355196Y0451981D01*
X0355196Y0446667D01*
X0355196Y0448399D02*
X0352244Y0448399D01*
X0352244Y0450131D02*
X0355196Y0450131D01*
X0355196Y0451863D02*
X0352244Y0451863D01*
X0449095Y0435052D02*
X0452047Y0435052D01*
X0452047Y0429738D01*
X0449095Y0429738D01*
X0449095Y0435052D01*
X0449095Y0431470D02*
X0452047Y0431470D01*
X0452047Y0433202D02*
X0449095Y0433202D01*
X0449095Y0434934D02*
X0452047Y0434934D01*
X0461693Y0435052D02*
X0464645Y0435052D01*
X0464645Y0429738D01*
X0461693Y0429738D01*
X0461693Y0435052D01*
X0461693Y0431470D02*
X0464645Y0431470D01*
X0464645Y0433202D02*
X0461693Y0433202D01*
X0461693Y0434934D02*
X0464645Y0434934D01*
X0462677Y0425997D02*
X0462677Y0423045D01*
X0457363Y0423045D01*
X0457363Y0425997D01*
X0462677Y0425997D01*
X0462677Y0424777D02*
X0457363Y0424777D01*
X0462677Y0413399D02*
X0462677Y0410447D01*
X0457363Y0410447D01*
X0457363Y0413399D01*
X0462677Y0413399D01*
X0462677Y0412179D02*
X0457363Y0412179D01*
X0457363Y0406706D02*
X0457363Y0403754D01*
X0457363Y0406706D02*
X0462677Y0406706D01*
X0462677Y0403754D01*
X0457363Y0403754D01*
X0457363Y0405486D02*
X0462677Y0405486D01*
X0457363Y0394107D02*
X0457363Y0391155D01*
X0457363Y0394107D02*
X0462677Y0394107D01*
X0462677Y0391155D01*
X0457363Y0391155D01*
X0457363Y0392887D02*
X0462677Y0392887D01*
X0457363Y0387415D02*
X0457363Y0384463D01*
X0457363Y0387415D02*
X0462677Y0387415D01*
X0462677Y0384463D01*
X0457363Y0384463D01*
X0457363Y0386195D02*
X0462677Y0386195D01*
X0457363Y0374816D02*
X0457363Y0371864D01*
X0457363Y0374816D02*
X0462677Y0374816D01*
X0462677Y0371864D01*
X0457363Y0371864D01*
X0457363Y0373596D02*
X0462677Y0373596D01*
X0457363Y0368123D02*
X0457363Y0365171D01*
X0457363Y0368123D02*
X0462677Y0368123D01*
X0462677Y0365171D01*
X0457363Y0365171D01*
X0457363Y0366903D02*
X0462677Y0366903D01*
X0457363Y0355525D02*
X0457363Y0352573D01*
X0457363Y0355525D02*
X0462677Y0355525D01*
X0462677Y0352573D01*
X0457363Y0352573D01*
X0457363Y0354305D02*
X0462677Y0354305D01*
X0457363Y0348832D02*
X0457363Y0345880D01*
X0457363Y0348832D02*
X0462677Y0348832D01*
X0462677Y0345880D01*
X0457363Y0345880D01*
X0457363Y0347612D02*
X0462677Y0347612D01*
X0457363Y0336233D02*
X0457363Y0333281D01*
X0457363Y0336233D02*
X0462677Y0336233D01*
X0462677Y0333281D01*
X0457363Y0333281D01*
X0457363Y0335013D02*
X0462677Y0335013D01*
X0406771Y0227178D02*
X0406771Y0224226D01*
X0401457Y0224226D01*
X0401457Y0227178D01*
X0406771Y0227178D01*
X0406771Y0225958D02*
X0401457Y0225958D01*
X0406771Y0214580D02*
X0406771Y0211628D01*
X0401457Y0211628D01*
X0401457Y0214580D01*
X0406771Y0214580D01*
X0406771Y0213360D02*
X0401457Y0213360D01*
X0300866Y0149817D02*
X0297914Y0149817D01*
X0297914Y0155131D01*
X0300866Y0155131D01*
X0300866Y0149817D01*
X0300866Y0151549D02*
X0297914Y0151549D01*
X0297914Y0153281D02*
X0300866Y0153281D01*
X0300866Y0155013D02*
X0297914Y0155013D01*
X0288267Y0149817D02*
X0285315Y0149817D01*
X0285315Y0155131D01*
X0288267Y0155131D01*
X0288267Y0149817D01*
X0288267Y0151549D02*
X0285315Y0151549D01*
X0285315Y0153281D02*
X0288267Y0153281D01*
X0288267Y0155013D02*
X0285315Y0155013D01*
X0274292Y0152769D02*
X0274292Y0149817D01*
X0274292Y0152769D02*
X0279606Y0152769D01*
X0279606Y0149817D01*
X0274292Y0149817D01*
X0274292Y0151549D02*
X0279606Y0151549D01*
X0274292Y0162415D02*
X0274292Y0165367D01*
X0279606Y0165367D01*
X0279606Y0162415D01*
X0274292Y0162415D01*
X0274292Y0164147D02*
X0279606Y0164147D01*
X0297322Y0273833D02*
X0297322Y0276785D01*
X0297322Y0273833D02*
X0292008Y0273833D01*
X0292008Y0276785D01*
X0297322Y0276785D01*
X0297322Y0275565D02*
X0292008Y0275565D01*
X0297322Y0286431D02*
X0297322Y0289383D01*
X0297322Y0286431D02*
X0292008Y0286431D01*
X0292008Y0289383D01*
X0297322Y0289383D01*
X0297322Y0288163D02*
X0292008Y0288163D01*
X0203228Y0333281D02*
X0203228Y0336233D01*
X0203228Y0333281D02*
X0197914Y0333281D01*
X0197914Y0336233D01*
X0203228Y0336233D01*
X0203228Y0335013D02*
X0197914Y0335013D01*
X0203228Y0345880D02*
X0203228Y0348832D01*
X0203228Y0345880D02*
X0197914Y0345880D01*
X0197914Y0348832D01*
X0203228Y0348832D01*
X0203228Y0347612D02*
X0197914Y0347612D01*
X0203228Y0352573D02*
X0203228Y0355525D01*
X0203228Y0352573D02*
X0197914Y0352573D01*
X0197914Y0355525D01*
X0203228Y0355525D01*
X0203228Y0354305D02*
X0197914Y0354305D01*
X0203228Y0365171D02*
X0203228Y0368123D01*
X0203228Y0365171D02*
X0197914Y0365171D01*
X0197914Y0368123D01*
X0203228Y0368123D01*
X0203228Y0366903D02*
X0197914Y0366903D01*
X0203228Y0371864D02*
X0203228Y0374816D01*
X0203228Y0371864D02*
X0197914Y0371864D01*
X0197914Y0374816D01*
X0203228Y0374816D01*
X0203228Y0373596D02*
X0197914Y0373596D01*
X0203228Y0384463D02*
X0203228Y0387415D01*
X0203228Y0384463D02*
X0197914Y0384463D01*
X0197914Y0387415D01*
X0203228Y0387415D01*
X0203228Y0386195D02*
X0197914Y0386195D01*
X0197914Y0391155D02*
X0197914Y0394107D01*
X0203228Y0394107D01*
X0203228Y0391155D01*
X0197914Y0391155D01*
X0197914Y0392887D02*
X0203228Y0392887D01*
X0283347Y0534463D02*
X0286299Y0534463D01*
X0283347Y0534463D02*
X0283347Y0539777D01*
X0286299Y0539777D01*
X0286299Y0534463D01*
X0286299Y0536195D02*
X0283347Y0536195D01*
X0283347Y0537927D02*
X0286299Y0537927D01*
X0286299Y0539659D02*
X0283347Y0539659D01*
X0283347Y0543518D02*
X0286299Y0543518D01*
X0283347Y0543518D02*
X0283347Y0548832D01*
X0286299Y0548832D01*
X0286299Y0543518D01*
X0286299Y0545250D02*
X0283347Y0545250D01*
X0283347Y0546982D02*
X0286299Y0546982D01*
X0286299Y0548714D02*
X0283347Y0548714D01*
X0295945Y0543518D02*
X0298897Y0543518D01*
X0295945Y0543518D02*
X0295945Y0548832D01*
X0298897Y0548832D01*
X0298897Y0543518D01*
X0298897Y0545250D02*
X0295945Y0545250D01*
X0295945Y0546982D02*
X0298897Y0546982D01*
X0298897Y0548714D02*
X0295945Y0548714D01*
X0295945Y0534463D02*
X0298897Y0534463D01*
X0295945Y0534463D02*
X0295945Y0539777D01*
X0298897Y0539777D01*
X0298897Y0534463D01*
X0298897Y0536195D02*
X0295945Y0536195D01*
X0295945Y0537927D02*
X0298897Y0537927D01*
X0298897Y0539659D02*
X0295945Y0539659D01*
X0448701Y0501194D02*
X0451653Y0501194D01*
X0451653Y0495880D01*
X0448701Y0495880D01*
X0448701Y0501194D01*
X0448701Y0497612D02*
X0451653Y0497612D01*
X0451653Y0499344D02*
X0448701Y0499344D01*
X0448701Y0501076D02*
X0451653Y0501076D01*
X0461299Y0501194D02*
X0464251Y0501194D01*
X0464251Y0495880D01*
X0461299Y0495880D01*
X0461299Y0501194D01*
X0461299Y0497612D02*
X0464251Y0497612D01*
X0464251Y0499344D02*
X0461299Y0499344D01*
X0461299Y0501076D02*
X0464251Y0501076D01*
X0467795Y0516352D02*
X0467795Y0519304D01*
X0467795Y0516352D02*
X0462481Y0516352D01*
X0462481Y0519304D01*
X0467795Y0519304D01*
X0467795Y0518084D02*
X0462481Y0518084D01*
X0476850Y0519304D02*
X0476850Y0516352D01*
X0471536Y0516352D01*
X0471536Y0519304D01*
X0476850Y0519304D01*
X0476850Y0518084D02*
X0471536Y0518084D01*
X0476850Y0528951D02*
X0476850Y0531903D01*
X0476850Y0528951D02*
X0471536Y0528951D01*
X0471536Y0531903D01*
X0476850Y0531903D01*
X0476850Y0530683D02*
X0471536Y0530683D01*
X0467795Y0531903D02*
X0467795Y0528951D01*
X0462481Y0528951D01*
X0462481Y0531903D01*
X0467795Y0531903D01*
X0467795Y0530683D02*
X0462481Y0530683D01*
D16*
X0192200Y0159851D02*
X0192200Y0158483D01*
X0190044Y0158483D01*
X0190044Y0159851D01*
X0192200Y0159851D01*
X0195950Y0158089D02*
X0197318Y0158089D01*
X0195950Y0158089D02*
X0195950Y0160245D01*
X0197318Y0160245D01*
X0197318Y0158089D01*
X0197318Y0159830D02*
X0195950Y0159830D01*
X0195950Y0152183D02*
X0197318Y0152183D01*
X0195950Y0152183D02*
X0195950Y0154339D01*
X0197318Y0154339D01*
X0197318Y0152183D01*
X0197318Y0153924D02*
X0195950Y0153924D01*
X0202249Y0152183D02*
X0203617Y0152183D01*
X0202249Y0152183D02*
X0202249Y0154339D01*
X0203617Y0154339D01*
X0203617Y0152183D01*
X0203617Y0153924D02*
X0202249Y0153924D01*
X0202249Y0158089D02*
X0203617Y0158089D01*
X0202249Y0158089D02*
X0202249Y0160245D01*
X0203617Y0160245D01*
X0203617Y0158089D01*
X0203617Y0159830D02*
X0202249Y0159830D01*
X0192200Y0164782D02*
X0192200Y0166150D01*
X0192200Y0164782D02*
X0190044Y0164782D01*
X0190044Y0166150D01*
X0192200Y0166150D01*
X0216028Y0189772D02*
X0217396Y0189772D01*
X0217396Y0187616D01*
X0216028Y0187616D01*
X0216028Y0189772D01*
X0216028Y0189357D02*
X0217396Y0189357D01*
X0214453Y0193522D02*
X0214453Y0194890D01*
X0216609Y0194890D01*
X0216609Y0193522D01*
X0214453Y0193522D01*
X0221540Y0193522D02*
X0221540Y0194890D01*
X0223696Y0194890D01*
X0223696Y0193522D01*
X0221540Y0193522D01*
X0222328Y0189772D02*
X0223696Y0189772D01*
X0223696Y0187616D01*
X0222328Y0187616D01*
X0222328Y0189772D01*
X0222328Y0189357D02*
X0223696Y0189357D01*
X0221540Y0199822D02*
X0221540Y0201190D01*
X0223696Y0201190D01*
X0223696Y0199822D01*
X0221540Y0199822D01*
X0214453Y0199822D02*
X0214453Y0201190D01*
X0216609Y0201190D01*
X0216609Y0199822D01*
X0214453Y0199822D01*
X0234139Y0225599D02*
X0235507Y0225599D01*
X0235507Y0223443D01*
X0234139Y0223443D01*
X0234139Y0225599D01*
X0234139Y0225184D02*
X0235507Y0225184D01*
X0236501Y0231505D02*
X0237869Y0231505D01*
X0237869Y0229349D01*
X0236501Y0229349D01*
X0236501Y0231505D01*
X0236501Y0231090D02*
X0237869Y0231090D01*
X0237869Y0237410D02*
X0236501Y0237410D01*
X0237869Y0237410D02*
X0237869Y0235254D01*
X0236501Y0235254D01*
X0236501Y0237410D01*
X0236501Y0236995D02*
X0237869Y0236995D01*
X0231570Y0237410D02*
X0230202Y0237410D01*
X0231570Y0237410D02*
X0231570Y0235254D01*
X0230202Y0235254D01*
X0230202Y0237410D01*
X0230202Y0236995D02*
X0231570Y0236995D01*
X0231570Y0231505D02*
X0230202Y0231505D01*
X0231570Y0231505D02*
X0231570Y0229349D01*
X0230202Y0229349D01*
X0230202Y0231505D01*
X0230202Y0231090D02*
X0231570Y0231090D01*
X0240438Y0225599D02*
X0241806Y0225599D01*
X0241806Y0223443D01*
X0240438Y0223443D01*
X0240438Y0225599D01*
X0240438Y0225184D02*
X0241806Y0225184D01*
X0220359Y0253365D02*
X0220359Y0254733D01*
X0222515Y0254733D01*
X0222515Y0253365D01*
X0220359Y0253365D01*
X0220359Y0259664D02*
X0220359Y0261032D01*
X0222515Y0261032D01*
X0222515Y0259664D01*
X0220359Y0259664D01*
X0218184Y0270688D02*
X0218184Y0272056D01*
X0218184Y0270688D02*
X0216028Y0270688D01*
X0216028Y0272056D01*
X0218184Y0272056D01*
X0218184Y0276987D02*
X0218184Y0278355D01*
X0218184Y0276987D02*
X0216028Y0276987D01*
X0216028Y0278355D01*
X0218184Y0278355D01*
X0204011Y0281505D02*
X0202643Y0281505D01*
X0204011Y0281505D02*
X0204011Y0279349D01*
X0202643Y0279349D01*
X0202643Y0281505D01*
X0202643Y0281090D02*
X0204011Y0281090D01*
X0197711Y0281505D02*
X0196343Y0281505D01*
X0197711Y0281505D02*
X0197711Y0279349D01*
X0196343Y0279349D01*
X0196343Y0281505D01*
X0196343Y0281090D02*
X0197711Y0281090D01*
X0189444Y0279349D02*
X0188076Y0279349D01*
X0188076Y0281505D01*
X0189444Y0281505D01*
X0189444Y0279349D01*
X0189444Y0281090D02*
X0188076Y0281090D01*
X0183144Y0279349D02*
X0181776Y0279349D01*
X0181776Y0281505D01*
X0183144Y0281505D01*
X0183144Y0279349D01*
X0183144Y0281090D02*
X0181776Y0281090D01*
X0178420Y0310451D02*
X0178420Y0311819D01*
X0178420Y0310451D02*
X0176264Y0310451D01*
X0176264Y0311819D01*
X0178420Y0311819D01*
X0178420Y0316751D02*
X0178420Y0318119D01*
X0178420Y0316751D02*
X0176264Y0316751D01*
X0176264Y0318119D01*
X0178420Y0318119D01*
X0182170Y0314782D02*
X0183538Y0314782D01*
X0182170Y0314782D02*
X0182170Y0316938D01*
X0183538Y0316938D01*
X0183538Y0314782D01*
X0183538Y0316523D02*
X0182170Y0316523D01*
X0188469Y0314782D02*
X0189837Y0314782D01*
X0188469Y0314782D02*
X0188469Y0316938D01*
X0189837Y0316938D01*
X0189837Y0314782D01*
X0189837Y0316523D02*
X0188469Y0316523D01*
X0206973Y0334073D02*
X0206973Y0335441D01*
X0209129Y0335441D01*
X0209129Y0334073D01*
X0206973Y0334073D01*
X0206973Y0340373D02*
X0206973Y0341741D01*
X0209129Y0341741D01*
X0209129Y0340373D01*
X0206973Y0340373D01*
X0209129Y0345491D02*
X0209129Y0346859D01*
X0209129Y0345491D02*
X0206973Y0345491D01*
X0206973Y0346859D01*
X0209129Y0346859D01*
X0209129Y0351790D02*
X0209129Y0353158D01*
X0209129Y0351790D02*
X0206973Y0351790D01*
X0206973Y0353158D01*
X0209129Y0353158D01*
X0209129Y0356908D02*
X0209129Y0358276D01*
X0209129Y0356908D02*
X0206973Y0356908D01*
X0206973Y0358276D01*
X0209129Y0358276D01*
X0209129Y0363207D02*
X0209129Y0364575D01*
X0209129Y0363207D02*
X0206973Y0363207D01*
X0206973Y0364575D01*
X0209129Y0364575D01*
X0209129Y0368325D02*
X0209129Y0369693D01*
X0209129Y0368325D02*
X0206973Y0368325D01*
X0206973Y0369693D01*
X0209129Y0369693D01*
X0209129Y0374625D02*
X0209129Y0375993D01*
X0209129Y0374625D02*
X0206973Y0374625D01*
X0206973Y0375993D01*
X0209129Y0375993D01*
X0206973Y0386436D02*
X0206973Y0387804D01*
X0209129Y0387804D01*
X0209129Y0386436D01*
X0206973Y0386436D01*
X0206973Y0392735D02*
X0206973Y0394103D01*
X0209129Y0394103D01*
X0209129Y0392735D01*
X0206973Y0392735D01*
X0209129Y0399034D02*
X0209129Y0400402D01*
X0209129Y0399034D02*
X0206973Y0399034D01*
X0206973Y0400402D01*
X0209129Y0400402D01*
X0215035Y0400402D02*
X0215035Y0399034D01*
X0212879Y0399034D01*
X0212879Y0400402D01*
X0215035Y0400402D01*
X0215035Y0405333D02*
X0215035Y0406701D01*
X0215035Y0405333D02*
X0212879Y0405333D01*
X0212879Y0406701D01*
X0215035Y0406701D01*
X0217397Y0410451D02*
X0217397Y0411819D01*
X0217397Y0410451D02*
X0215241Y0410451D01*
X0215241Y0411819D01*
X0217397Y0411819D01*
X0217397Y0416751D02*
X0217397Y0418119D01*
X0217397Y0416751D02*
X0215241Y0416751D01*
X0215241Y0418119D01*
X0217397Y0418119D01*
X0221147Y0419506D02*
X0222515Y0419506D01*
X0221147Y0419506D02*
X0221147Y0421662D01*
X0222515Y0421662D01*
X0222515Y0419506D01*
X0222515Y0421247D02*
X0221147Y0421247D01*
X0227446Y0419506D02*
X0228814Y0419506D01*
X0227446Y0419506D02*
X0227446Y0421662D01*
X0228814Y0421662D01*
X0228814Y0419506D01*
X0228814Y0421247D02*
X0227446Y0421247D01*
X0234532Y0433080D02*
X0235900Y0433080D01*
X0235900Y0430924D01*
X0234532Y0430924D01*
X0234532Y0433080D01*
X0234532Y0432665D02*
X0235900Y0432665D01*
X0240832Y0433080D02*
X0242200Y0433080D01*
X0242200Y0430924D01*
X0240832Y0430924D01*
X0240832Y0433080D01*
X0240832Y0432665D02*
X0242200Y0432665D01*
X0234532Y0427174D02*
X0234532Y0425806D01*
X0234532Y0427174D02*
X0236688Y0427174D01*
X0236688Y0425806D01*
X0234532Y0425806D01*
X0234532Y0420875D02*
X0234532Y0419507D01*
X0234532Y0420875D02*
X0236688Y0420875D01*
X0236688Y0419507D01*
X0234532Y0419507D01*
X0209129Y0406701D02*
X0209129Y0405333D01*
X0206973Y0405333D01*
X0206973Y0406701D01*
X0209129Y0406701D01*
X0208154Y0437617D02*
X0208154Y0438985D01*
X0210310Y0438985D01*
X0210310Y0437617D01*
X0208154Y0437617D01*
X0204404Y0437616D02*
X0203036Y0437616D01*
X0203036Y0439772D01*
X0204404Y0439772D01*
X0204404Y0437616D01*
X0204404Y0439357D02*
X0203036Y0439357D01*
X0203036Y0443522D02*
X0204404Y0443522D01*
X0203036Y0443522D02*
X0203036Y0445678D01*
X0204404Y0445678D01*
X0204404Y0443522D01*
X0204404Y0445263D02*
X0203036Y0445263D01*
X0198105Y0443522D02*
X0196737Y0443522D01*
X0196737Y0445678D01*
X0198105Y0445678D01*
X0198105Y0443522D01*
X0198105Y0445263D02*
X0196737Y0445263D01*
X0196737Y0437616D02*
X0198105Y0437616D01*
X0196737Y0437616D02*
X0196737Y0439772D01*
X0198105Y0439772D01*
X0198105Y0437616D01*
X0198105Y0439357D02*
X0196737Y0439357D01*
X0208154Y0443916D02*
X0208154Y0445284D01*
X0210310Y0445284D01*
X0210310Y0443916D01*
X0208154Y0443916D01*
X0221934Y0451002D02*
X0223302Y0451002D01*
X0221934Y0451002D02*
X0221934Y0453158D01*
X0223302Y0453158D01*
X0223302Y0451002D01*
X0223302Y0452743D02*
X0221934Y0452743D01*
X0228233Y0451002D02*
X0229601Y0451002D01*
X0228233Y0451002D02*
X0228233Y0453158D01*
X0229601Y0453158D01*
X0229601Y0451002D01*
X0229601Y0452743D02*
X0228233Y0452743D01*
X0233351Y0450215D02*
X0234719Y0450215D01*
X0233351Y0450215D02*
X0233351Y0452371D01*
X0234719Y0452371D01*
X0234719Y0450215D01*
X0234719Y0451956D02*
X0233351Y0451956D01*
X0233351Y0446465D02*
X0234719Y0446465D01*
X0234719Y0444309D01*
X0233351Y0444309D01*
X0233351Y0446465D01*
X0233351Y0446050D02*
X0234719Y0446050D01*
X0239651Y0446465D02*
X0241019Y0446465D01*
X0241019Y0444309D01*
X0239651Y0444309D01*
X0239651Y0446465D01*
X0239651Y0446050D02*
X0241019Y0446050D01*
X0241019Y0450215D02*
X0239651Y0450215D01*
X0239651Y0452371D01*
X0241019Y0452371D01*
X0241019Y0450215D01*
X0241019Y0451956D02*
X0239651Y0451956D01*
X0267209Y0448040D02*
X0267209Y0446672D01*
X0267209Y0448040D02*
X0269365Y0448040D01*
X0269365Y0446672D01*
X0267209Y0446672D01*
X0267209Y0441741D02*
X0267209Y0440373D01*
X0267209Y0441741D02*
X0269365Y0441741D01*
X0269365Y0440373D01*
X0267209Y0440373D01*
X0281776Y0412420D02*
X0283144Y0412420D01*
X0281776Y0412420D02*
X0281776Y0414576D01*
X0283144Y0414576D01*
X0283144Y0412420D01*
X0283144Y0414161D02*
X0281776Y0414161D01*
X0281776Y0406514D02*
X0283144Y0406514D01*
X0281776Y0406514D02*
X0281776Y0408670D01*
X0283144Y0408670D01*
X0283144Y0406514D01*
X0283144Y0408255D02*
X0281776Y0408255D01*
X0288076Y0406514D02*
X0289444Y0406514D01*
X0288076Y0406514D02*
X0288076Y0408670D01*
X0289444Y0408670D01*
X0289444Y0406514D01*
X0289444Y0408255D02*
X0288076Y0408255D01*
X0288076Y0412420D02*
X0289444Y0412420D01*
X0288076Y0412420D02*
X0288076Y0414576D01*
X0289444Y0414576D01*
X0289444Y0412420D01*
X0289444Y0414161D02*
X0288076Y0414161D01*
X0323902Y0419694D02*
X0325270Y0419694D01*
X0325270Y0417538D01*
X0323902Y0417538D01*
X0323902Y0419694D01*
X0323902Y0419279D02*
X0325270Y0419279D01*
X0330202Y0419694D02*
X0331570Y0419694D01*
X0331570Y0417538D01*
X0330202Y0417538D01*
X0330202Y0419694D01*
X0330202Y0419279D02*
X0331570Y0419279D01*
X0335320Y0419694D02*
X0336688Y0419694D01*
X0336688Y0417538D01*
X0335320Y0417538D01*
X0335320Y0419694D01*
X0335320Y0419279D02*
X0336688Y0419279D01*
X0334926Y0423444D02*
X0334926Y0424812D01*
X0337082Y0424812D01*
X0337082Y0423444D01*
X0334926Y0423444D01*
X0340831Y0423444D02*
X0340831Y0424812D01*
X0342987Y0424812D01*
X0342987Y0423444D01*
X0340831Y0423444D01*
X0341619Y0419694D02*
X0342987Y0419694D01*
X0342987Y0417538D01*
X0341619Y0417538D01*
X0341619Y0419694D01*
X0341619Y0419279D02*
X0342987Y0419279D01*
X0346737Y0419694D02*
X0348105Y0419694D01*
X0348105Y0417538D01*
X0346737Y0417538D01*
X0346737Y0419694D01*
X0346737Y0419279D02*
X0348105Y0419279D01*
X0348105Y0425599D02*
X0346737Y0425599D01*
X0348105Y0425599D02*
X0348105Y0423443D01*
X0346737Y0423443D01*
X0346737Y0425599D01*
X0346737Y0425184D02*
X0348105Y0425184D01*
X0353036Y0425599D02*
X0354404Y0425599D01*
X0354404Y0423443D01*
X0353036Y0423443D01*
X0353036Y0425599D01*
X0353036Y0425184D02*
X0354404Y0425184D01*
X0361491Y0426987D02*
X0361491Y0428355D01*
X0361491Y0426987D02*
X0359335Y0426987D01*
X0359335Y0428355D01*
X0361491Y0428355D01*
X0361491Y0422056D02*
X0361491Y0420688D01*
X0359335Y0420688D01*
X0359335Y0422056D01*
X0361491Y0422056D01*
X0354404Y0419694D02*
X0353036Y0419694D01*
X0354404Y0419694D02*
X0354404Y0417538D01*
X0353036Y0417538D01*
X0353036Y0419694D01*
X0353036Y0419279D02*
X0354404Y0419279D01*
X0354404Y0411632D02*
X0353036Y0411632D01*
X0353036Y0413788D01*
X0354404Y0413788D01*
X0354404Y0411632D01*
X0354404Y0413373D02*
X0353036Y0413373D01*
X0348105Y0411632D02*
X0346737Y0411632D01*
X0346737Y0413788D01*
X0348105Y0413788D01*
X0348105Y0411632D01*
X0348105Y0413373D02*
X0346737Y0413373D01*
X0340831Y0429743D02*
X0340831Y0431111D01*
X0342987Y0431111D01*
X0342987Y0429743D01*
X0340831Y0429743D01*
X0334926Y0429743D02*
X0334926Y0431111D01*
X0337082Y0431111D01*
X0337082Y0429743D01*
X0334926Y0429743D01*
X0337082Y0434861D02*
X0337082Y0436229D01*
X0337082Y0434861D02*
X0334926Y0434861D01*
X0334926Y0436229D01*
X0337082Y0436229D01*
X0342987Y0436229D02*
X0342987Y0434861D01*
X0340831Y0434861D01*
X0340831Y0436229D01*
X0342987Y0436229D01*
X0342987Y0441160D02*
X0342987Y0442528D01*
X0342987Y0441160D02*
X0340831Y0441160D01*
X0340831Y0442528D01*
X0342987Y0442528D01*
X0337082Y0442528D02*
X0337082Y0441160D01*
X0334926Y0441160D01*
X0334926Y0442528D01*
X0337082Y0442528D01*
X0359335Y0442528D02*
X0359335Y0441160D01*
X0359335Y0442528D02*
X0361491Y0442528D01*
X0361491Y0441160D01*
X0359335Y0441160D01*
X0360516Y0441554D02*
X0360516Y0442922D01*
X0362672Y0442922D01*
X0362672Y0441554D01*
X0360516Y0441554D01*
X0359335Y0436229D02*
X0359335Y0434861D01*
X0359335Y0436229D02*
X0361491Y0436229D01*
X0361491Y0434861D01*
X0359335Y0434861D01*
X0360516Y0447853D02*
X0360516Y0449221D01*
X0362672Y0449221D01*
X0362672Y0447853D01*
X0360516Y0447853D01*
X0382357Y0453365D02*
X0382357Y0454733D01*
X0382357Y0453365D02*
X0380201Y0453365D01*
X0380201Y0454733D01*
X0382357Y0454733D01*
X0382357Y0459664D02*
X0382357Y0461032D01*
X0382357Y0459664D02*
X0380201Y0459664D01*
X0380201Y0461032D01*
X0382357Y0461032D01*
X0383538Y0465963D02*
X0383538Y0467331D01*
X0383538Y0465963D02*
X0381382Y0465963D01*
X0381382Y0467331D01*
X0383538Y0467331D01*
X0389444Y0467331D02*
X0389444Y0465963D01*
X0387288Y0465963D01*
X0387288Y0467331D01*
X0389444Y0467331D01*
X0389444Y0472262D02*
X0389444Y0473630D01*
X0389444Y0472262D02*
X0387288Y0472262D01*
X0387288Y0473630D01*
X0389444Y0473630D01*
X0391619Y0481111D02*
X0392987Y0481111D01*
X0392987Y0478955D01*
X0391619Y0478955D01*
X0391619Y0481111D01*
X0391619Y0480696D02*
X0392987Y0480696D01*
X0392987Y0487017D02*
X0391619Y0487017D01*
X0392987Y0487017D02*
X0392987Y0484861D01*
X0391619Y0484861D01*
X0391619Y0487017D01*
X0391619Y0486602D02*
X0392987Y0486602D01*
X0397918Y0487017D02*
X0399286Y0487017D01*
X0399286Y0484861D01*
X0397918Y0484861D01*
X0397918Y0487017D01*
X0397918Y0486602D02*
X0399286Y0486602D01*
X0404217Y0486623D02*
X0404217Y0485255D01*
X0404217Y0486623D02*
X0406373Y0486623D01*
X0406373Y0485255D01*
X0404217Y0485255D01*
X0404217Y0480323D02*
X0404217Y0478955D01*
X0404217Y0480323D02*
X0406373Y0480323D01*
X0406373Y0478955D01*
X0404217Y0478955D01*
X0399286Y0481111D02*
X0397918Y0481111D01*
X0399286Y0481111D02*
X0399286Y0478955D01*
X0397918Y0478955D01*
X0397918Y0481111D01*
X0397918Y0480696D02*
X0399286Y0480696D01*
X0411304Y0480323D02*
X0411304Y0478955D01*
X0411304Y0480323D02*
X0413460Y0480323D01*
X0413460Y0478955D01*
X0411304Y0478955D01*
X0413460Y0474024D02*
X0413460Y0472656D01*
X0411304Y0472656D01*
X0411304Y0474024D01*
X0413460Y0474024D01*
X0413460Y0467725D02*
X0413460Y0466357D01*
X0411304Y0466357D01*
X0411304Y0467725D01*
X0413460Y0467725D01*
X0411304Y0462607D02*
X0411304Y0461239D01*
X0411304Y0462607D02*
X0413460Y0462607D01*
X0413460Y0461239D01*
X0411304Y0461239D01*
X0411304Y0456308D02*
X0411304Y0454940D01*
X0411304Y0456308D02*
X0413460Y0456308D01*
X0413460Y0454940D01*
X0411304Y0454940D01*
X0412091Y0447459D02*
X0413459Y0447459D01*
X0412091Y0447459D02*
X0412091Y0449615D01*
X0413459Y0449615D01*
X0413459Y0447459D01*
X0413459Y0449200D02*
X0412091Y0449200D01*
X0407160Y0447459D02*
X0405792Y0447459D01*
X0405792Y0449615D01*
X0407160Y0449615D01*
X0407160Y0447459D01*
X0407160Y0449200D02*
X0405792Y0449200D01*
X0402042Y0449615D02*
X0400674Y0449615D01*
X0402042Y0449615D02*
X0402042Y0447459D01*
X0400674Y0447459D01*
X0400674Y0449615D01*
X0400674Y0449200D02*
X0402042Y0449200D01*
X0395743Y0449615D02*
X0394375Y0449615D01*
X0395743Y0449615D02*
X0395743Y0447459D01*
X0394375Y0447459D01*
X0394375Y0449615D01*
X0394375Y0449200D02*
X0395743Y0449200D01*
X0389444Y0453365D02*
X0389444Y0454733D01*
X0389444Y0453365D02*
X0387288Y0453365D01*
X0387288Y0454733D01*
X0389444Y0454733D01*
X0389444Y0459664D02*
X0389444Y0461032D01*
X0389444Y0459664D02*
X0387288Y0459664D01*
X0387288Y0461032D01*
X0389444Y0461032D01*
X0383538Y0472262D02*
X0383538Y0473630D01*
X0383538Y0472262D02*
X0381382Y0472262D01*
X0381382Y0473630D01*
X0383538Y0473630D01*
X0411304Y0485255D02*
X0411304Y0486623D01*
X0413460Y0486623D01*
X0413460Y0485255D01*
X0411304Y0485255D01*
X0430389Y0500215D02*
X0430389Y0501583D01*
X0430389Y0500215D02*
X0428233Y0500215D01*
X0428233Y0501583D01*
X0430389Y0501583D01*
X0430389Y0506514D02*
X0430389Y0507882D01*
X0430389Y0506514D02*
X0428233Y0506514D01*
X0428233Y0507882D01*
X0430389Y0507882D01*
X0428233Y0511633D02*
X0428233Y0513001D01*
X0430389Y0513001D01*
X0430389Y0511633D01*
X0428233Y0511633D01*
X0428233Y0517932D02*
X0428233Y0519300D01*
X0430389Y0519300D01*
X0430389Y0517932D01*
X0428233Y0517932D01*
X0427633Y0525805D02*
X0426265Y0525805D01*
X0426265Y0527961D01*
X0427633Y0527961D01*
X0427633Y0525805D01*
X0427633Y0527546D02*
X0426265Y0527546D01*
X0432564Y0525805D02*
X0433932Y0525805D01*
X0432564Y0525805D02*
X0432564Y0527961D01*
X0433932Y0527961D01*
X0433932Y0525805D01*
X0433932Y0527546D02*
X0432564Y0527546D01*
X0432564Y0531711D02*
X0433932Y0531711D01*
X0432564Y0531711D02*
X0432564Y0533867D01*
X0433932Y0533867D01*
X0433932Y0531711D01*
X0433932Y0533452D02*
X0432564Y0533452D01*
X0438863Y0531711D02*
X0440231Y0531711D01*
X0438863Y0531711D02*
X0438863Y0533867D01*
X0440231Y0533867D01*
X0440231Y0531711D01*
X0440231Y0533452D02*
X0438863Y0533452D01*
X0443981Y0533867D02*
X0445349Y0533867D01*
X0445349Y0531711D01*
X0443981Y0531711D01*
X0443981Y0533867D01*
X0443981Y0533452D02*
X0445349Y0533452D01*
X0450280Y0533867D02*
X0451648Y0533867D01*
X0451648Y0531711D01*
X0450280Y0531711D01*
X0450280Y0533867D01*
X0450280Y0533452D02*
X0451648Y0533452D01*
X0459336Y0537804D02*
X0460704Y0537804D01*
X0460704Y0535648D01*
X0459336Y0535648D01*
X0459336Y0537804D01*
X0459336Y0537389D02*
X0460704Y0537389D01*
X0465635Y0537804D02*
X0467003Y0537804D01*
X0467003Y0535648D01*
X0465635Y0535648D01*
X0465635Y0537804D01*
X0465635Y0537389D02*
X0467003Y0537389D01*
X0445349Y0525805D02*
X0443981Y0525805D01*
X0443981Y0527961D01*
X0445349Y0527961D01*
X0445349Y0525805D01*
X0445349Y0527546D02*
X0443981Y0527546D01*
X0439050Y0525805D02*
X0437682Y0525805D01*
X0437682Y0527961D01*
X0439050Y0527961D01*
X0439050Y0525805D01*
X0439050Y0527546D02*
X0437682Y0527546D01*
X0462091Y0512607D02*
X0462091Y0511239D01*
X0462091Y0512607D02*
X0464247Y0512607D01*
X0464247Y0511239D01*
X0462091Y0511239D01*
X0462091Y0506308D02*
X0462091Y0504940D01*
X0462091Y0506308D02*
X0464247Y0506308D01*
X0464247Y0504940D01*
X0462091Y0504940D01*
X0444956Y0499034D02*
X0443588Y0499034D01*
X0443588Y0501190D01*
X0444956Y0501190D01*
X0444956Y0499034D01*
X0444956Y0500775D02*
X0443588Y0500775D01*
X0438656Y0499034D02*
X0437288Y0499034D01*
X0437288Y0501190D01*
X0438656Y0501190D01*
X0438656Y0499034D01*
X0438656Y0500775D02*
X0437288Y0500775D01*
X0454405Y0475993D02*
X0454405Y0474625D01*
X0452249Y0474625D01*
X0452249Y0475993D01*
X0454405Y0475993D01*
X0454405Y0469693D02*
X0454405Y0468325D01*
X0452249Y0468325D01*
X0452249Y0469693D01*
X0454405Y0469693D01*
X0456580Y0462026D02*
X0457948Y0462026D01*
X0456580Y0462026D02*
X0456580Y0464182D01*
X0457948Y0464182D01*
X0457948Y0462026D01*
X0457948Y0463767D02*
X0456580Y0463767D01*
X0462879Y0462026D02*
X0464247Y0462026D01*
X0462879Y0462026D02*
X0462879Y0464182D01*
X0464247Y0464182D01*
X0464247Y0462026D01*
X0464247Y0463767D02*
X0462879Y0463767D01*
X0467997Y0462026D02*
X0469365Y0462026D01*
X0467997Y0462026D02*
X0467997Y0464182D01*
X0469365Y0464182D01*
X0469365Y0462026D01*
X0469365Y0463767D02*
X0467997Y0463767D01*
X0474296Y0462026D02*
X0475664Y0462026D01*
X0474296Y0462026D02*
X0474296Y0464182D01*
X0475664Y0464182D01*
X0475664Y0462026D01*
X0475664Y0463767D02*
X0474296Y0463767D01*
X0474877Y0467931D02*
X0473509Y0467931D01*
X0473509Y0470087D01*
X0474877Y0470087D01*
X0474877Y0467931D01*
X0474877Y0469672D02*
X0473509Y0469672D01*
X0473509Y0473837D02*
X0474877Y0473837D01*
X0473509Y0473837D02*
X0473509Y0475993D01*
X0474877Y0475993D01*
X0474877Y0473837D01*
X0474877Y0475578D02*
X0473509Y0475578D01*
X0479808Y0473837D02*
X0481176Y0473837D01*
X0479808Y0473837D02*
X0479808Y0475993D01*
X0481176Y0475993D01*
X0481176Y0473837D01*
X0481176Y0475578D02*
X0479808Y0475578D01*
X0479808Y0467931D02*
X0481176Y0467931D01*
X0479808Y0467931D02*
X0479808Y0470087D01*
X0481176Y0470087D01*
X0481176Y0467931D01*
X0481176Y0469672D02*
X0479808Y0469672D01*
X0486107Y0469300D02*
X0486107Y0467932D01*
X0486107Y0469300D02*
X0488263Y0469300D01*
X0488263Y0467932D01*
X0486107Y0467932D01*
X0486107Y0474231D02*
X0486107Y0475599D01*
X0488263Y0475599D01*
X0488263Y0474231D01*
X0486107Y0474231D01*
X0486501Y0448040D02*
X0487869Y0448040D01*
X0487869Y0445884D01*
X0486501Y0445884D01*
X0486501Y0448040D01*
X0486501Y0447625D02*
X0487869Y0447625D01*
X0481570Y0448040D02*
X0480202Y0448040D01*
X0481570Y0448040D02*
X0481570Y0445884D01*
X0480202Y0445884D01*
X0480202Y0448040D01*
X0480202Y0447625D02*
X0481570Y0447625D01*
X0443775Y0448247D02*
X0443775Y0449615D01*
X0443775Y0448247D02*
X0441619Y0448247D01*
X0441619Y0449615D01*
X0443775Y0449615D01*
X0437869Y0449615D02*
X0437869Y0448247D01*
X0435713Y0448247D01*
X0435713Y0449615D01*
X0437869Y0449615D01*
X0437869Y0443315D02*
X0437869Y0441947D01*
X0435713Y0441947D01*
X0435713Y0443315D01*
X0437869Y0443315D01*
X0443775Y0443315D02*
X0443775Y0441947D01*
X0441619Y0441947D01*
X0441619Y0443315D01*
X0443775Y0443315D01*
X0438863Y0438197D02*
X0438863Y0436829D01*
X0438863Y0438197D02*
X0441019Y0438197D01*
X0441019Y0436829D01*
X0438863Y0436829D01*
X0432957Y0436829D02*
X0432957Y0438197D01*
X0435113Y0438197D01*
X0435113Y0436829D01*
X0432957Y0436829D01*
X0432957Y0431898D02*
X0432957Y0430530D01*
X0432957Y0431898D02*
X0435113Y0431898D01*
X0435113Y0430530D01*
X0432957Y0430530D01*
X0427239Y0430530D02*
X0425871Y0430530D01*
X0425871Y0432686D01*
X0427239Y0432686D01*
X0427239Y0430530D01*
X0427239Y0432271D02*
X0425871Y0432271D01*
X0420940Y0430530D02*
X0419572Y0430530D01*
X0419572Y0432686D01*
X0420940Y0432686D01*
X0420940Y0430530D01*
X0420940Y0432271D02*
X0419572Y0432271D01*
X0419178Y0425599D02*
X0419178Y0424231D01*
X0419178Y0425599D02*
X0421334Y0425599D01*
X0421334Y0424231D01*
X0419178Y0424231D01*
X0419178Y0419300D02*
X0419178Y0417932D01*
X0419178Y0419300D02*
X0421334Y0419300D01*
X0421334Y0417932D01*
X0419178Y0417932D01*
X0400861Y0411632D02*
X0399493Y0411632D01*
X0399493Y0413788D01*
X0400861Y0413788D01*
X0400861Y0411632D01*
X0400861Y0413373D02*
X0399493Y0413373D01*
X0394562Y0411632D02*
X0393194Y0411632D01*
X0393194Y0413788D01*
X0394562Y0413788D01*
X0394562Y0411632D01*
X0394562Y0413373D02*
X0393194Y0413373D01*
X0391412Y0405727D02*
X0390044Y0405727D01*
X0390044Y0407883D01*
X0391412Y0407883D01*
X0391412Y0405727D01*
X0391412Y0407468D02*
X0390044Y0407468D01*
X0396343Y0405727D02*
X0397711Y0405727D01*
X0396343Y0405727D02*
X0396343Y0407883D01*
X0397711Y0407883D01*
X0397711Y0405727D01*
X0397711Y0407468D02*
X0396343Y0407468D01*
X0438863Y0430530D02*
X0438863Y0431898D01*
X0441019Y0431898D01*
X0441019Y0430530D01*
X0438863Y0430530D01*
X0447712Y0420087D02*
X0447712Y0418719D01*
X0445556Y0418719D01*
X0445556Y0420087D01*
X0447712Y0420087D01*
X0453617Y0420087D02*
X0453617Y0418719D01*
X0451461Y0418719D01*
X0451461Y0420087D01*
X0453617Y0420087D01*
X0453617Y0413788D02*
X0453617Y0412420D01*
X0451461Y0412420D01*
X0451461Y0413788D01*
X0453617Y0413788D01*
X0447712Y0413788D02*
X0447712Y0412420D01*
X0445556Y0412420D01*
X0445556Y0413788D01*
X0447712Y0413788D01*
X0447712Y0406308D02*
X0447712Y0404940D01*
X0445556Y0404940D01*
X0445556Y0406308D01*
X0447712Y0406308D01*
X0453617Y0406308D02*
X0453617Y0404940D01*
X0451461Y0404940D01*
X0451461Y0406308D01*
X0453617Y0406308D01*
X0453617Y0400008D02*
X0453617Y0398640D01*
X0451461Y0398640D01*
X0451461Y0400008D01*
X0453617Y0400008D01*
X0451461Y0394497D02*
X0451461Y0393129D01*
X0451461Y0394497D02*
X0453617Y0394497D01*
X0453617Y0393129D01*
X0451461Y0393129D01*
X0451461Y0388197D02*
X0451461Y0386829D01*
X0451461Y0388197D02*
X0453617Y0388197D01*
X0453617Y0386829D01*
X0451461Y0386829D01*
X0451461Y0383079D02*
X0451461Y0381711D01*
X0451461Y0383079D02*
X0453617Y0383079D01*
X0453617Y0381711D01*
X0451461Y0381711D01*
X0451461Y0376780D02*
X0451461Y0375412D01*
X0451461Y0376780D02*
X0453617Y0376780D01*
X0453617Y0375412D01*
X0451461Y0375412D01*
X0451461Y0371662D02*
X0451461Y0370294D01*
X0451461Y0371662D02*
X0453617Y0371662D01*
X0453617Y0370294D01*
X0451461Y0370294D01*
X0451461Y0365363D02*
X0451461Y0363995D01*
X0451461Y0365363D02*
X0453617Y0365363D01*
X0453617Y0363995D01*
X0451461Y0363995D01*
X0447712Y0398640D02*
X0447712Y0400008D01*
X0447712Y0398640D02*
X0445556Y0398640D01*
X0445556Y0400008D01*
X0447712Y0400008D01*
X0428814Y0457302D02*
X0428814Y0458670D01*
X0428814Y0457302D02*
X0426658Y0457302D01*
X0426658Y0458670D01*
X0428814Y0458670D01*
X0428814Y0463601D02*
X0428814Y0464969D01*
X0428814Y0463601D02*
X0426658Y0463601D01*
X0426658Y0464969D01*
X0428814Y0464969D01*
X0392800Y0515963D02*
X0392800Y0517331D01*
X0394956Y0517331D01*
X0394956Y0515963D01*
X0392800Y0515963D01*
X0392800Y0522262D02*
X0392800Y0523630D01*
X0394956Y0523630D01*
X0394956Y0522262D01*
X0392800Y0522262D01*
X0393981Y0533286D02*
X0395349Y0533286D01*
X0393981Y0533286D02*
X0393981Y0535442D01*
X0395349Y0535442D01*
X0395349Y0533286D01*
X0395349Y0535027D02*
X0393981Y0535027D01*
X0393981Y0541347D02*
X0395349Y0541347D01*
X0395349Y0539191D01*
X0393981Y0539191D01*
X0393981Y0541347D01*
X0393981Y0540932D02*
X0395349Y0540932D01*
X0399099Y0539191D02*
X0400467Y0539191D01*
X0399099Y0539191D02*
X0399099Y0541347D01*
X0400467Y0541347D01*
X0400467Y0539191D01*
X0400467Y0540932D02*
X0399099Y0540932D01*
X0405399Y0539191D02*
X0406767Y0539191D01*
X0405399Y0539191D02*
X0405399Y0541347D01*
X0406767Y0541347D01*
X0406767Y0539191D01*
X0406767Y0540932D02*
X0405399Y0540932D01*
X0412672Y0535441D02*
X0412672Y0534073D01*
X0410516Y0534073D01*
X0410516Y0535441D01*
X0412672Y0535441D01*
X0412672Y0529142D02*
X0412672Y0527774D01*
X0410516Y0527774D01*
X0410516Y0529142D01*
X0412672Y0529142D01*
X0389050Y0533286D02*
X0387682Y0533286D01*
X0387682Y0535442D01*
X0389050Y0535442D01*
X0389050Y0533286D01*
X0389050Y0535027D02*
X0387682Y0535027D01*
X0387682Y0541347D02*
X0389050Y0541347D01*
X0389050Y0539191D01*
X0387682Y0539191D01*
X0387682Y0541347D01*
X0387682Y0540932D02*
X0389050Y0540932D01*
X0408342Y0552577D02*
X0408342Y0553945D01*
X0408342Y0552577D02*
X0406186Y0552577D01*
X0406186Y0553945D01*
X0408342Y0553945D01*
X0408342Y0558877D02*
X0408342Y0560245D01*
X0408342Y0558877D02*
X0406186Y0558877D01*
X0406186Y0560245D01*
X0408342Y0560245D01*
X0408342Y0563995D02*
X0408342Y0565363D01*
X0408342Y0563995D02*
X0406186Y0563995D01*
X0406186Y0565363D01*
X0408342Y0565363D01*
X0408342Y0570294D02*
X0408342Y0571662D01*
X0408342Y0570294D02*
X0406186Y0570294D01*
X0406186Y0571662D01*
X0408342Y0571662D01*
X0412091Y0572656D02*
X0413459Y0572656D01*
X0412091Y0572656D02*
X0412091Y0574812D01*
X0413459Y0574812D01*
X0413459Y0572656D01*
X0413459Y0574397D02*
X0412091Y0574397D01*
X0412278Y0581898D02*
X0410910Y0581898D01*
X0412278Y0581898D02*
X0412278Y0579742D01*
X0410910Y0579742D01*
X0410910Y0581898D01*
X0410910Y0581483D02*
X0412278Y0581483D01*
X0412278Y0585648D02*
X0410910Y0585648D01*
X0410910Y0587804D01*
X0412278Y0587804D01*
X0412278Y0585648D01*
X0412278Y0587389D02*
X0410910Y0587389D01*
X0405979Y0585648D02*
X0404611Y0585648D01*
X0404611Y0587804D01*
X0405979Y0587804D01*
X0405979Y0585648D01*
X0405979Y0587389D02*
X0404611Y0587389D01*
X0404611Y0581898D02*
X0405979Y0581898D01*
X0405979Y0579742D01*
X0404611Y0579742D01*
X0404611Y0581898D01*
X0404611Y0581483D02*
X0405979Y0581483D01*
X0420546Y0579930D02*
X0420546Y0578562D01*
X0418390Y0578562D01*
X0418390Y0579930D01*
X0420546Y0579930D01*
X0424296Y0579930D02*
X0424296Y0578562D01*
X0424296Y0579930D02*
X0426452Y0579930D01*
X0426452Y0578562D01*
X0424296Y0578562D01*
X0432357Y0578562D02*
X0432357Y0579930D01*
X0432357Y0578562D02*
X0430201Y0578562D01*
X0430201Y0579930D01*
X0432357Y0579930D01*
X0438263Y0579930D02*
X0438263Y0578562D01*
X0436107Y0578562D01*
X0436107Y0579930D01*
X0438263Y0579930D01*
X0444168Y0579930D02*
X0444168Y0578562D01*
X0442012Y0578562D01*
X0442012Y0579930D01*
X0444168Y0579930D01*
X0444168Y0584861D02*
X0444168Y0586229D01*
X0444168Y0584861D02*
X0442012Y0584861D01*
X0442012Y0586229D01*
X0444168Y0586229D01*
X0438263Y0586229D02*
X0438263Y0584861D01*
X0436107Y0584861D01*
X0436107Y0586229D01*
X0438263Y0586229D01*
X0432357Y0586229D02*
X0432357Y0584861D01*
X0430201Y0584861D01*
X0430201Y0586229D01*
X0432357Y0586229D01*
X0424296Y0586229D02*
X0424296Y0584861D01*
X0424296Y0586229D02*
X0426452Y0586229D01*
X0426452Y0584861D01*
X0424296Y0584861D01*
X0420546Y0584861D02*
X0420546Y0586229D01*
X0420546Y0584861D02*
X0418390Y0584861D01*
X0418390Y0586229D01*
X0420546Y0586229D01*
X0419759Y0589979D02*
X0418391Y0589979D01*
X0418391Y0592135D01*
X0419759Y0592135D01*
X0419759Y0589979D01*
X0419759Y0591720D02*
X0418391Y0591720D01*
X0424690Y0589979D02*
X0426058Y0589979D01*
X0424690Y0589979D02*
X0424690Y0592135D01*
X0426058Y0592135D01*
X0426058Y0589979D01*
X0426058Y0591720D02*
X0424690Y0591720D01*
X0419759Y0572656D02*
X0418391Y0572656D01*
X0418391Y0574812D01*
X0419759Y0574812D01*
X0419759Y0572656D01*
X0419759Y0574397D02*
X0418391Y0574397D01*
X0419178Y0566750D02*
X0420546Y0566750D01*
X0419178Y0566750D02*
X0419178Y0568906D01*
X0420546Y0568906D01*
X0420546Y0566750D01*
X0420546Y0568491D02*
X0419178Y0568491D01*
X0414247Y0566750D02*
X0412879Y0566750D01*
X0412879Y0568906D01*
X0414247Y0568906D01*
X0414247Y0566750D01*
X0414247Y0568491D02*
X0412879Y0568491D01*
X0429414Y0561032D02*
X0429414Y0559664D01*
X0429414Y0561032D02*
X0431570Y0561032D01*
X0431570Y0559664D01*
X0429414Y0559664D01*
X0429414Y0554733D02*
X0429414Y0553365D01*
X0429414Y0554733D02*
X0431570Y0554733D01*
X0431570Y0553365D01*
X0429414Y0553365D01*
X0435320Y0553365D02*
X0435320Y0554733D01*
X0437476Y0554733D01*
X0437476Y0553365D01*
X0435320Y0553365D01*
X0435320Y0559664D02*
X0435320Y0561032D01*
X0437476Y0561032D01*
X0437476Y0559664D01*
X0435320Y0559664D01*
X0462279Y0582892D02*
X0462279Y0584260D01*
X0462279Y0582892D02*
X0460123Y0582892D01*
X0460123Y0584260D01*
X0462279Y0584260D01*
X0462279Y0589192D02*
X0462279Y0590560D01*
X0462279Y0589192D02*
X0460123Y0589192D01*
X0460123Y0590560D01*
X0462279Y0590560D01*
X0266609Y0531317D02*
X0265241Y0531317D01*
X0265241Y0533473D01*
X0266609Y0533473D01*
X0266609Y0531317D01*
X0266609Y0533058D02*
X0265241Y0533058D01*
X0260310Y0531317D02*
X0258942Y0531317D01*
X0258942Y0533473D01*
X0260310Y0533473D01*
X0260310Y0531317D01*
X0260310Y0533058D02*
X0258942Y0533058D01*
X0258942Y0527568D02*
X0260310Y0527568D01*
X0260310Y0525412D01*
X0258942Y0525412D01*
X0258942Y0527568D01*
X0258942Y0527153D02*
X0260310Y0527153D01*
X0265241Y0527568D02*
X0266609Y0527568D01*
X0266609Y0525412D01*
X0265241Y0525412D01*
X0265241Y0527568D01*
X0265241Y0527153D02*
X0266609Y0527153D01*
X0266609Y0521662D02*
X0265241Y0521662D01*
X0266609Y0521662D02*
X0266609Y0519506D01*
X0265241Y0519506D01*
X0265241Y0521662D01*
X0265241Y0521247D02*
X0266609Y0521247D01*
X0266609Y0515757D02*
X0265241Y0515757D01*
X0266609Y0515757D02*
X0266609Y0513601D01*
X0265241Y0513601D01*
X0265241Y0515757D01*
X0265241Y0515342D02*
X0266609Y0515342D01*
X0260310Y0515757D02*
X0258942Y0515757D01*
X0260310Y0515757D02*
X0260310Y0513601D01*
X0258942Y0513601D01*
X0258942Y0515757D01*
X0258942Y0515342D02*
X0260310Y0515342D01*
X0260310Y0521662D02*
X0258942Y0521662D01*
X0260310Y0521662D02*
X0260310Y0519506D01*
X0258942Y0519506D01*
X0258942Y0521662D01*
X0258942Y0521247D02*
X0260310Y0521247D01*
X0254404Y0515963D02*
X0253036Y0515963D01*
X0253036Y0518119D01*
X0254404Y0518119D01*
X0254404Y0515963D01*
X0254404Y0517704D02*
X0253036Y0517704D01*
X0248105Y0515963D02*
X0246737Y0515963D01*
X0246737Y0518119D01*
X0248105Y0518119D01*
X0248105Y0515963D01*
X0248105Y0517704D02*
X0246737Y0517704D01*
X0245556Y0543129D02*
X0245556Y0544497D01*
X0247712Y0544497D01*
X0247712Y0543129D01*
X0245556Y0543129D01*
X0239650Y0543129D02*
X0239650Y0544497D01*
X0241806Y0544497D01*
X0241806Y0543129D01*
X0239650Y0543129D01*
X0233351Y0543129D02*
X0233351Y0544497D01*
X0235507Y0544497D01*
X0235507Y0543129D01*
X0233351Y0543129D01*
X0233351Y0549428D02*
X0233351Y0550796D01*
X0235507Y0550796D01*
X0235507Y0549428D01*
X0233351Y0549428D01*
X0239650Y0549428D02*
X0239650Y0550796D01*
X0241806Y0550796D01*
X0241806Y0549428D01*
X0239650Y0549428D01*
X0245556Y0549428D02*
X0245556Y0550796D01*
X0247712Y0550796D01*
X0247712Y0549428D01*
X0245556Y0549428D01*
X0248706Y0556702D02*
X0250074Y0556702D01*
X0250074Y0554546D01*
X0248706Y0554546D01*
X0248706Y0556702D01*
X0248706Y0556287D02*
X0250074Y0556287D01*
X0250074Y0562607D02*
X0248706Y0562607D01*
X0250074Y0562607D02*
X0250074Y0560451D01*
X0248706Y0560451D01*
X0248706Y0562607D01*
X0248706Y0562192D02*
X0250074Y0562192D01*
X0255005Y0562607D02*
X0256373Y0562607D01*
X0256373Y0560451D01*
X0255005Y0560451D01*
X0255005Y0562607D01*
X0255005Y0562192D02*
X0256373Y0562192D01*
X0256373Y0569506D02*
X0255005Y0569506D01*
X0255005Y0571662D01*
X0256373Y0571662D01*
X0256373Y0569506D01*
X0256373Y0571247D02*
X0255005Y0571247D01*
X0250074Y0569506D02*
X0248706Y0569506D01*
X0248706Y0571662D01*
X0250074Y0571662D01*
X0250074Y0569506D01*
X0250074Y0571247D02*
X0248706Y0571247D01*
X0253036Y0576593D02*
X0253036Y0577961D01*
X0255192Y0577961D01*
X0255192Y0576593D01*
X0253036Y0576593D01*
X0253036Y0582892D02*
X0253036Y0584260D01*
X0255192Y0584260D01*
X0255192Y0582892D01*
X0253036Y0582892D01*
X0229995Y0585255D02*
X0229995Y0586623D01*
X0229995Y0585255D02*
X0227839Y0585255D01*
X0227839Y0586623D01*
X0229995Y0586623D01*
X0224090Y0586623D02*
X0224090Y0585255D01*
X0221934Y0585255D01*
X0221934Y0586623D01*
X0224090Y0586623D01*
X0224090Y0580323D02*
X0224090Y0578955D01*
X0221934Y0578955D01*
X0221934Y0580323D01*
X0224090Y0580323D01*
X0229995Y0580323D02*
X0229995Y0578955D01*
X0227839Y0578955D01*
X0227839Y0580323D01*
X0229995Y0580323D01*
X0227839Y0575205D02*
X0227839Y0573837D01*
X0227839Y0575205D02*
X0229995Y0575205D01*
X0229995Y0573837D01*
X0227839Y0573837D01*
X0221934Y0573837D02*
X0221934Y0575205D01*
X0224090Y0575205D01*
X0224090Y0573837D01*
X0221934Y0573837D01*
X0221934Y0568906D02*
X0221934Y0567538D01*
X0221934Y0568906D02*
X0224090Y0568906D01*
X0224090Y0567538D01*
X0221934Y0567538D01*
X0227839Y0567538D02*
X0227839Y0568906D01*
X0229995Y0568906D01*
X0229995Y0567538D01*
X0227839Y0567538D01*
X0215634Y0561032D02*
X0215634Y0559664D01*
X0215634Y0561032D02*
X0217790Y0561032D01*
X0217790Y0559664D01*
X0215634Y0559664D01*
X0211491Y0559664D02*
X0211491Y0561032D01*
X0211491Y0559664D02*
X0209335Y0559664D01*
X0209335Y0561032D01*
X0211491Y0561032D01*
X0211491Y0554733D02*
X0211491Y0553365D01*
X0209335Y0553365D01*
X0209335Y0554733D01*
X0211491Y0554733D01*
X0215634Y0554733D02*
X0215634Y0553365D01*
X0215634Y0554733D02*
X0217790Y0554733D01*
X0217790Y0553365D01*
X0215634Y0553365D01*
X0209335Y0535441D02*
X0209335Y0534073D01*
X0209335Y0535441D02*
X0211491Y0535441D01*
X0211491Y0534073D01*
X0209335Y0534073D01*
X0203430Y0534073D02*
X0203430Y0535441D01*
X0205586Y0535441D01*
X0205586Y0534073D01*
X0203430Y0534073D01*
X0203430Y0529142D02*
X0203430Y0527774D01*
X0203430Y0529142D02*
X0205586Y0529142D01*
X0205586Y0527774D01*
X0203430Y0527774D01*
X0203430Y0521868D02*
X0204798Y0521868D01*
X0203430Y0521868D02*
X0203430Y0524024D01*
X0204798Y0524024D01*
X0204798Y0521868D01*
X0204798Y0523609D02*
X0203430Y0523609D01*
X0199680Y0524024D02*
X0198312Y0524024D01*
X0199680Y0524024D02*
X0199680Y0521868D01*
X0198312Y0521868D01*
X0198312Y0524024D01*
X0198312Y0523609D02*
X0199680Y0523609D01*
X0193381Y0524024D02*
X0192013Y0524024D01*
X0193381Y0524024D02*
X0193381Y0521868D01*
X0192013Y0521868D01*
X0192013Y0524024D01*
X0192013Y0523609D02*
X0193381Y0523609D01*
X0192800Y0518119D02*
X0192800Y0516751D01*
X0192800Y0518119D02*
X0194956Y0518119D01*
X0194956Y0516751D01*
X0192800Y0516751D01*
X0192800Y0511819D02*
X0192800Y0510451D01*
X0192800Y0511819D02*
X0194956Y0511819D01*
X0194956Y0510451D01*
X0192800Y0510451D01*
X0202642Y0501190D02*
X0202642Y0499822D01*
X0202642Y0501190D02*
X0204798Y0501190D01*
X0204798Y0499822D01*
X0202642Y0499822D01*
X0202642Y0494890D02*
X0202642Y0493522D01*
X0202642Y0494890D02*
X0204798Y0494890D01*
X0204798Y0493522D01*
X0202642Y0493522D01*
X0211885Y0493522D02*
X0211885Y0494890D01*
X0211885Y0493522D02*
X0209729Y0493522D01*
X0209729Y0494890D01*
X0211885Y0494890D01*
X0211885Y0499822D02*
X0211885Y0501190D01*
X0211885Y0499822D02*
X0209729Y0499822D01*
X0209729Y0501190D01*
X0211885Y0501190D01*
X0215635Y0486623D02*
X0217003Y0486623D01*
X0217003Y0484467D01*
X0215635Y0484467D01*
X0215635Y0486623D01*
X0215635Y0486208D02*
X0217003Y0486208D01*
X0221934Y0486623D02*
X0223302Y0486623D01*
X0223302Y0484467D01*
X0221934Y0484467D01*
X0221934Y0486623D01*
X0221934Y0486208D02*
X0223302Y0486208D01*
X0227052Y0484467D02*
X0228420Y0484467D01*
X0227052Y0484467D02*
X0227052Y0486623D01*
X0228420Y0486623D01*
X0228420Y0484467D01*
X0228420Y0486208D02*
X0227052Y0486208D01*
X0227052Y0480717D02*
X0228420Y0480717D01*
X0228420Y0478561D01*
X0227052Y0478561D01*
X0227052Y0480717D01*
X0227052Y0480302D02*
X0228420Y0480302D01*
X0233351Y0480717D02*
X0234719Y0480717D01*
X0234719Y0478561D01*
X0233351Y0478561D01*
X0233351Y0480717D01*
X0233351Y0480302D02*
X0234719Y0480302D01*
X0234719Y0484467D02*
X0233351Y0484467D01*
X0233351Y0486623D01*
X0234719Y0486623D01*
X0234719Y0484467D01*
X0234719Y0486208D02*
X0233351Y0486208D01*
X0241225Y0486623D02*
X0241225Y0485255D01*
X0241225Y0486623D02*
X0243381Y0486623D01*
X0243381Y0485255D01*
X0241225Y0485255D01*
X0241225Y0480323D02*
X0241225Y0478955D01*
X0241225Y0480323D02*
X0243381Y0480323D01*
X0243381Y0478955D01*
X0241225Y0478955D01*
X0211097Y0521868D02*
X0209729Y0521868D01*
X0209729Y0524024D01*
X0211097Y0524024D01*
X0211097Y0521868D01*
X0211097Y0523609D02*
X0209729Y0523609D01*
X0209335Y0527774D02*
X0209335Y0529142D01*
X0211491Y0529142D01*
X0211491Y0527774D01*
X0209335Y0527774D01*
X0179995Y0498246D02*
X0178627Y0498246D01*
X0178627Y0500402D01*
X0179995Y0500402D01*
X0179995Y0498246D01*
X0179995Y0499987D02*
X0178627Y0499987D01*
X0173696Y0498246D02*
X0172328Y0498246D01*
X0172328Y0500402D01*
X0173696Y0500402D01*
X0173696Y0498246D01*
X0173696Y0499987D02*
X0172328Y0499987D01*
X0172328Y0492341D02*
X0173696Y0492341D01*
X0172328Y0492341D02*
X0172328Y0494497D01*
X0173696Y0494497D01*
X0173696Y0492341D01*
X0173696Y0494082D02*
X0172328Y0494082D01*
X0178627Y0492341D02*
X0179995Y0492341D01*
X0178627Y0492341D02*
X0178627Y0494497D01*
X0179995Y0494497D01*
X0179995Y0492341D01*
X0179995Y0494082D02*
X0178627Y0494082D01*
X0171934Y0507302D02*
X0171934Y0508670D01*
X0174090Y0508670D01*
X0174090Y0507302D01*
X0171934Y0507302D01*
X0171934Y0513601D02*
X0171934Y0514969D01*
X0174090Y0514969D01*
X0174090Y0513601D01*
X0171934Y0513601D01*
X0187082Y0477961D02*
X0187082Y0476593D01*
X0184926Y0476593D01*
X0184926Y0477961D01*
X0187082Y0477961D01*
X0192987Y0477961D02*
X0192987Y0476593D01*
X0190831Y0476593D01*
X0190831Y0477961D01*
X0192987Y0477961D01*
X0192987Y0471662D02*
X0192987Y0470294D01*
X0190831Y0470294D01*
X0190831Y0471662D01*
X0192987Y0471662D01*
X0192987Y0466544D02*
X0192987Y0465176D01*
X0190831Y0465176D01*
X0190831Y0466544D01*
X0192987Y0466544D01*
X0187082Y0466544D02*
X0187082Y0465176D01*
X0184926Y0465176D01*
X0184926Y0466544D01*
X0187082Y0466544D01*
X0187082Y0470294D02*
X0187082Y0471662D01*
X0187082Y0470294D02*
X0184926Y0470294D01*
X0184926Y0471662D01*
X0187082Y0471662D01*
X0187082Y0460245D02*
X0187082Y0458877D01*
X0184926Y0458877D01*
X0184926Y0460245D01*
X0187082Y0460245D01*
X0192987Y0460245D02*
X0192987Y0458877D01*
X0190831Y0458877D01*
X0190831Y0460245D01*
X0192987Y0460245D01*
X0187082Y0455127D02*
X0187082Y0453759D01*
X0184926Y0453759D01*
X0184926Y0455127D01*
X0187082Y0455127D01*
X0187082Y0448827D02*
X0187082Y0447459D01*
X0184926Y0447459D01*
X0184926Y0448827D01*
X0187082Y0448827D01*
X0255005Y0556702D02*
X0256373Y0556702D01*
X0256373Y0554546D01*
X0255005Y0554546D01*
X0255005Y0556702D01*
X0255005Y0556287D02*
X0256373Y0556287D01*
X0212672Y0580717D02*
X0211304Y0580717D01*
X0212672Y0580717D02*
X0212672Y0578561D01*
X0211304Y0578561D01*
X0211304Y0580717D01*
X0211304Y0580302D02*
X0212672Y0580302D01*
X0212091Y0586623D02*
X0213459Y0586623D01*
X0213459Y0584467D01*
X0212091Y0584467D01*
X0212091Y0586623D01*
X0212091Y0586208D02*
X0213459Y0586208D01*
X0207160Y0586623D02*
X0205792Y0586623D01*
X0207160Y0586623D02*
X0207160Y0584467D01*
X0205792Y0584467D01*
X0205792Y0586623D01*
X0205792Y0586208D02*
X0207160Y0586208D01*
X0206373Y0580717D02*
X0205005Y0580717D01*
X0206373Y0580717D02*
X0206373Y0578561D01*
X0205005Y0578561D01*
X0205005Y0580717D01*
X0205005Y0580302D02*
X0206373Y0580302D01*
X0455005Y0327380D02*
X0456373Y0327380D01*
X0455005Y0327380D02*
X0455005Y0329536D01*
X0456373Y0329536D01*
X0456373Y0327380D01*
X0456373Y0329121D02*
X0455005Y0329121D01*
X0455005Y0321475D02*
X0456373Y0321475D01*
X0455005Y0321475D02*
X0455005Y0323631D01*
X0456373Y0323631D01*
X0456373Y0321475D01*
X0456373Y0323216D02*
X0455005Y0323216D01*
X0461304Y0321475D02*
X0462672Y0321475D01*
X0461304Y0321475D02*
X0461304Y0323631D01*
X0462672Y0323631D01*
X0462672Y0321475D01*
X0462672Y0323216D02*
X0461304Y0323216D01*
X0461304Y0327380D02*
X0462672Y0327380D01*
X0461304Y0327380D02*
X0461304Y0329536D01*
X0462672Y0329536D01*
X0462672Y0327380D01*
X0462672Y0329121D02*
X0461304Y0329121D01*
X0461098Y0314969D02*
X0461098Y0313601D01*
X0458942Y0313601D01*
X0458942Y0314969D01*
X0461098Y0314969D01*
X0461098Y0308670D02*
X0461098Y0307302D01*
X0458942Y0307302D01*
X0458942Y0308670D01*
X0461098Y0308670D01*
X0458942Y0303158D02*
X0458942Y0301790D01*
X0458942Y0303158D02*
X0461098Y0303158D01*
X0461098Y0301790D01*
X0458942Y0301790D01*
X0458942Y0296859D02*
X0458942Y0295491D01*
X0458942Y0296859D02*
X0461098Y0296859D01*
X0461098Y0295491D01*
X0458942Y0295491D01*
X0458548Y0279143D02*
X0459916Y0279143D01*
X0459916Y0276987D01*
X0458548Y0276987D01*
X0458548Y0279143D01*
X0458548Y0278728D02*
X0459916Y0278728D01*
X0464847Y0279143D02*
X0466215Y0279143D01*
X0466215Y0276987D01*
X0464847Y0276987D01*
X0464847Y0279143D01*
X0464847Y0278728D02*
X0466215Y0278728D01*
X0477239Y0278168D02*
X0477239Y0279536D01*
X0477239Y0278168D02*
X0475083Y0278168D01*
X0475083Y0279536D01*
X0477239Y0279536D01*
X0477239Y0273237D02*
X0477239Y0271869D01*
X0475083Y0271869D01*
X0475083Y0273237D01*
X0477239Y0273237D01*
X0476658Y0298246D02*
X0478026Y0298246D01*
X0476658Y0298246D02*
X0476658Y0300402D01*
X0478026Y0300402D01*
X0478026Y0298246D01*
X0478026Y0299987D02*
X0476658Y0299987D01*
X0482958Y0298246D02*
X0484326Y0298246D01*
X0482958Y0298246D02*
X0482958Y0300402D01*
X0484326Y0300402D01*
X0484326Y0298246D01*
X0484326Y0299987D02*
X0482958Y0299987D01*
X0483538Y0321269D02*
X0482170Y0321269D01*
X0483538Y0321269D02*
X0483538Y0319113D01*
X0482170Y0319113D01*
X0482170Y0321269D01*
X0482170Y0320854D02*
X0483538Y0320854D01*
X0477239Y0321269D02*
X0475871Y0321269D01*
X0477239Y0321269D02*
X0477239Y0319113D01*
X0475871Y0319113D01*
X0475871Y0321269D01*
X0475871Y0320854D02*
X0477239Y0320854D01*
X0397712Y0222449D02*
X0397712Y0221081D01*
X0395556Y0221081D01*
X0395556Y0222449D01*
X0397712Y0222449D01*
X0397712Y0216150D02*
X0397712Y0214782D01*
X0395556Y0214782D01*
X0395556Y0216150D01*
X0397712Y0216150D01*
X0419365Y0201190D02*
X0419365Y0199822D01*
X0417209Y0199822D01*
X0417209Y0201190D01*
X0419365Y0201190D01*
X0423508Y0201190D02*
X0423508Y0199822D01*
X0423508Y0201190D02*
X0425664Y0201190D01*
X0425664Y0199822D01*
X0423508Y0199822D01*
X0423508Y0194890D02*
X0423508Y0193522D01*
X0423508Y0194890D02*
X0425664Y0194890D01*
X0425664Y0193522D01*
X0423508Y0193522D01*
X0419365Y0193522D02*
X0419365Y0194890D01*
X0419365Y0193522D02*
X0417209Y0193522D01*
X0417209Y0194890D01*
X0419365Y0194890D01*
X0427446Y0188198D02*
X0428814Y0188198D01*
X0428814Y0186042D01*
X0427446Y0186042D01*
X0427446Y0188198D01*
X0427446Y0187783D02*
X0428814Y0187783D01*
X0433745Y0188198D02*
X0435113Y0188198D01*
X0435113Y0186042D01*
X0433745Y0186042D01*
X0433745Y0188198D01*
X0433745Y0187783D02*
X0435113Y0187783D01*
X0436895Y0191947D02*
X0438263Y0191947D01*
X0436895Y0191947D02*
X0436895Y0194103D01*
X0438263Y0194103D01*
X0438263Y0191947D01*
X0438263Y0193688D02*
X0436895Y0193688D01*
X0431963Y0191947D02*
X0430595Y0191947D01*
X0430595Y0194103D01*
X0431963Y0194103D01*
X0431963Y0191947D01*
X0431963Y0193688D02*
X0430595Y0193688D01*
X0430782Y0199034D02*
X0429414Y0199034D01*
X0429414Y0201190D01*
X0430782Y0201190D01*
X0430782Y0199034D01*
X0430782Y0200775D02*
X0429414Y0200775D01*
X0435714Y0199034D02*
X0437082Y0199034D01*
X0435714Y0199034D02*
X0435714Y0201190D01*
X0437082Y0201190D01*
X0437082Y0199034D01*
X0437082Y0200775D02*
X0435714Y0200775D01*
X0464847Y0169300D02*
X0466215Y0169300D01*
X0466215Y0167144D01*
X0464847Y0167144D01*
X0464847Y0169300D01*
X0464847Y0168885D02*
X0466215Y0168885D01*
X0471147Y0169300D02*
X0472515Y0169300D01*
X0472515Y0167144D01*
X0471147Y0167144D01*
X0471147Y0169300D01*
X0471147Y0168885D02*
X0472515Y0168885D01*
X0399680Y0164969D02*
X0398312Y0164969D01*
X0399680Y0164969D02*
X0399680Y0162813D01*
X0398312Y0162813D01*
X0398312Y0164969D01*
X0398312Y0164554D02*
X0399680Y0164554D01*
X0393381Y0164969D02*
X0392013Y0164969D01*
X0393381Y0164969D02*
X0393381Y0162813D01*
X0392013Y0162813D01*
X0392013Y0164969D01*
X0392013Y0164554D02*
X0393381Y0164554D01*
X0341413Y0162213D02*
X0341413Y0160845D01*
X0339257Y0160845D01*
X0339257Y0162213D01*
X0341413Y0162213D01*
X0341413Y0155914D02*
X0341413Y0154546D01*
X0339257Y0154546D01*
X0339257Y0155914D01*
X0341413Y0155914D01*
X0308735Y0182105D02*
X0307367Y0182105D01*
X0307367Y0184261D01*
X0308735Y0184261D01*
X0308735Y0182105D01*
X0308735Y0183846D02*
X0307367Y0183846D01*
X0302436Y0182105D02*
X0301068Y0182105D01*
X0301068Y0184261D01*
X0302436Y0184261D01*
X0302436Y0182105D01*
X0302436Y0183846D02*
X0301068Y0183846D01*
X0282564Y0184073D02*
X0282564Y0185441D01*
X0284720Y0185441D01*
X0284720Y0184073D01*
X0282564Y0184073D01*
X0282564Y0179142D02*
X0282564Y0177774D01*
X0282564Y0179142D02*
X0284720Y0179142D01*
X0284720Y0177774D01*
X0282564Y0177774D01*
X0268390Y0177774D02*
X0268390Y0179142D01*
X0270546Y0179142D01*
X0270546Y0177774D01*
X0268390Y0177774D01*
X0262485Y0177774D02*
X0262485Y0179142D01*
X0264641Y0179142D01*
X0264641Y0177774D01*
X0262485Y0177774D01*
X0262485Y0184073D02*
X0262485Y0185441D01*
X0264641Y0185441D01*
X0264641Y0184073D01*
X0262485Y0184073D01*
X0268390Y0184073D02*
X0268390Y0185441D01*
X0270546Y0185441D01*
X0270546Y0184073D01*
X0268390Y0184073D01*
X0253823Y0184073D02*
X0253823Y0185441D01*
X0255979Y0185441D01*
X0255979Y0184073D01*
X0253823Y0184073D01*
X0247918Y0184073D02*
X0247918Y0185441D01*
X0250074Y0185441D01*
X0250074Y0184073D01*
X0247918Y0184073D01*
X0247918Y0179142D02*
X0247918Y0177774D01*
X0247918Y0179142D02*
X0250074Y0179142D01*
X0250074Y0177774D01*
X0247918Y0177774D01*
X0245162Y0174024D02*
X0245162Y0172656D01*
X0245162Y0174024D02*
X0247318Y0174024D01*
X0247318Y0172656D01*
X0245162Y0172656D01*
X0245162Y0167725D02*
X0245162Y0166357D01*
X0245162Y0167725D02*
X0247318Y0167725D01*
X0247318Y0166357D01*
X0245162Y0166357D01*
X0254611Y0155333D02*
X0255979Y0155333D01*
X0254611Y0155333D02*
X0254611Y0157489D01*
X0255979Y0157489D01*
X0255979Y0155333D01*
X0255979Y0157074D02*
X0254611Y0157074D01*
X0254611Y0149428D02*
X0255979Y0149428D01*
X0254611Y0149428D02*
X0254611Y0151584D01*
X0255979Y0151584D01*
X0255979Y0149428D01*
X0255979Y0151169D02*
X0254611Y0151169D01*
X0260910Y0149428D02*
X0262278Y0149428D01*
X0260910Y0149428D02*
X0260910Y0151584D01*
X0262278Y0151584D01*
X0262278Y0149428D01*
X0262278Y0151169D02*
X0260910Y0151169D01*
X0260910Y0155333D02*
X0262278Y0155333D01*
X0260910Y0155333D02*
X0260910Y0157489D01*
X0262278Y0157489D01*
X0262278Y0155333D01*
X0262278Y0157074D02*
X0260910Y0157074D01*
X0270546Y0163207D02*
X0270546Y0164575D01*
X0270546Y0163207D02*
X0268390Y0163207D01*
X0268390Y0164575D01*
X0270546Y0164575D01*
X0270546Y0169507D02*
X0270546Y0170875D01*
X0270546Y0169507D02*
X0268390Y0169507D01*
X0268390Y0170875D01*
X0270546Y0170875D01*
X0253823Y0177774D02*
X0253823Y0179142D01*
X0255979Y0179142D01*
X0255979Y0177774D01*
X0253823Y0177774D01*
X0231963Y0165963D02*
X0230595Y0165963D01*
X0230595Y0168119D01*
X0231963Y0168119D01*
X0231963Y0165963D01*
X0231963Y0167704D02*
X0230595Y0167704D01*
X0225664Y0165963D02*
X0224296Y0165963D01*
X0224296Y0168119D01*
X0225664Y0168119D01*
X0225664Y0165963D01*
X0225664Y0167704D02*
X0224296Y0167704D01*
X0226452Y0162213D02*
X0226452Y0160845D01*
X0224296Y0160845D01*
X0224296Y0162213D01*
X0226452Y0162213D01*
X0232357Y0162213D02*
X0232357Y0160845D01*
X0230201Y0160845D01*
X0230201Y0162213D01*
X0232357Y0162213D01*
X0232357Y0155914D02*
X0232357Y0154546D01*
X0230201Y0154546D01*
X0230201Y0155914D01*
X0232357Y0155914D01*
X0226452Y0155914D02*
X0226452Y0154546D01*
X0224296Y0154546D01*
X0224296Y0155914D01*
X0226452Y0155914D01*
X0293194Y0161032D02*
X0294562Y0161032D01*
X0294562Y0158876D01*
X0293194Y0158876D01*
X0293194Y0161032D01*
X0293194Y0160617D02*
X0294562Y0160617D01*
X0299493Y0161032D02*
X0300861Y0161032D01*
X0300861Y0158876D01*
X0299493Y0158876D01*
X0299493Y0161032D01*
X0299493Y0160617D02*
X0300861Y0160617D01*
X0330202Y0227380D02*
X0331570Y0227380D01*
X0330202Y0227380D02*
X0330202Y0229536D01*
X0331570Y0229536D01*
X0331570Y0227380D01*
X0331570Y0229121D02*
X0330202Y0229121D01*
X0336501Y0227380D02*
X0337869Y0227380D01*
X0336501Y0227380D02*
X0336501Y0229536D01*
X0337869Y0229536D01*
X0337869Y0227380D01*
X0337869Y0229121D02*
X0336501Y0229121D01*
X0345162Y0231711D02*
X0346530Y0231711D01*
X0345162Y0231711D02*
X0345162Y0233867D01*
X0346530Y0233867D01*
X0346530Y0231711D01*
X0346530Y0233452D02*
X0345162Y0233452D01*
X0351462Y0231711D02*
X0352830Y0231711D01*
X0351462Y0231711D02*
X0351462Y0233867D01*
X0352830Y0233867D01*
X0352830Y0231711D01*
X0352830Y0233452D02*
X0351462Y0233452D01*
X0352643Y0262420D02*
X0354011Y0262420D01*
X0352643Y0262420D02*
X0352643Y0264576D01*
X0354011Y0264576D01*
X0354011Y0262420D01*
X0354011Y0264161D02*
X0352643Y0264161D01*
X0347711Y0262420D02*
X0346343Y0262420D01*
X0346343Y0264576D01*
X0347711Y0264576D01*
X0347711Y0262420D01*
X0347711Y0264161D02*
X0346343Y0264161D01*
X0303224Y0278168D02*
X0303224Y0279536D01*
X0303224Y0278168D02*
X0301068Y0278168D01*
X0301068Y0279536D01*
X0303224Y0279536D01*
X0303224Y0284467D02*
X0303224Y0285835D01*
X0303224Y0284467D02*
X0301068Y0284467D01*
X0301068Y0285835D01*
X0303224Y0285835D01*
X0288263Y0281504D02*
X0288263Y0280136D01*
X0286107Y0280136D01*
X0286107Y0281504D01*
X0288263Y0281504D01*
X0288263Y0275205D02*
X0288263Y0273837D01*
X0286107Y0273837D01*
X0286107Y0275205D01*
X0288263Y0275205D01*
X0240625Y0270875D02*
X0240625Y0269507D01*
X0238469Y0269507D01*
X0238469Y0270875D01*
X0240625Y0270875D01*
X0240625Y0264575D02*
X0240625Y0263207D01*
X0238469Y0263207D01*
X0238469Y0264575D01*
X0240625Y0264575D01*
X0229207Y0319694D02*
X0227839Y0319694D01*
X0229207Y0319694D02*
X0229207Y0317538D01*
X0227839Y0317538D01*
X0227839Y0319694D01*
X0227839Y0319279D02*
X0229207Y0319279D01*
X0222908Y0319694D02*
X0221540Y0319694D01*
X0222908Y0319694D02*
X0222908Y0317538D01*
X0221540Y0317538D01*
X0221540Y0319694D01*
X0221540Y0319279D02*
X0222908Y0319279D01*
D17*
X0305206Y0418705D02*
X0305206Y0420889D01*
X0305206Y0418705D02*
X0301448Y0418705D01*
X0301448Y0420889D01*
X0305206Y0420889D01*
X0305206Y0420419D02*
X0301448Y0420419D01*
X0305206Y0426579D02*
X0305206Y0428763D01*
X0305206Y0426579D02*
X0301448Y0426579D01*
X0301448Y0428763D01*
X0305206Y0428763D01*
X0305206Y0428293D02*
X0301448Y0428293D01*
X0305206Y0432484D02*
X0305206Y0434668D01*
X0305206Y0432484D02*
X0301448Y0432484D01*
X0301448Y0434668D01*
X0305206Y0434668D01*
X0305206Y0434198D02*
X0301448Y0434198D01*
X0305206Y0440358D02*
X0305206Y0442542D01*
X0305206Y0440358D02*
X0301448Y0440358D01*
X0301448Y0442542D01*
X0305206Y0442542D01*
X0305206Y0442072D02*
X0301448Y0442072D01*
X0312686Y0442542D02*
X0312686Y0440358D01*
X0308928Y0440358D01*
X0308928Y0442542D01*
X0312686Y0442542D01*
X0312686Y0442072D02*
X0308928Y0442072D01*
X0312686Y0434668D02*
X0312686Y0432484D01*
X0308928Y0432484D01*
X0308928Y0434668D01*
X0312686Y0434668D01*
X0312686Y0434198D02*
X0308928Y0434198D01*
X0312686Y0428763D02*
X0312686Y0426579D01*
X0308928Y0426579D01*
X0308928Y0428763D01*
X0312686Y0428763D01*
X0312686Y0428293D02*
X0308928Y0428293D01*
X0312686Y0420889D02*
X0312686Y0418705D01*
X0308928Y0418705D01*
X0308928Y0420889D01*
X0312686Y0420889D01*
X0312686Y0420419D02*
X0308928Y0420419D01*
X0271920Y0462012D02*
X0271920Y0464196D01*
X0275678Y0464196D01*
X0275678Y0462012D01*
X0271920Y0462012D01*
X0271920Y0463726D02*
X0275678Y0463726D01*
X0271920Y0469886D02*
X0271920Y0472070D01*
X0275678Y0472070D01*
X0275678Y0469886D01*
X0271920Y0469886D01*
X0271920Y0471600D02*
X0275678Y0471600D01*
X0242214Y0436815D02*
X0240030Y0436815D01*
X0240030Y0440573D01*
X0242214Y0440573D01*
X0242214Y0436815D01*
X0242214Y0438529D02*
X0240030Y0438529D01*
X0240030Y0440243D02*
X0242214Y0440243D01*
X0234340Y0436815D02*
X0232156Y0436815D01*
X0232156Y0440573D01*
X0234340Y0440573D01*
X0234340Y0436815D01*
X0234340Y0438529D02*
X0232156Y0438529D01*
X0232156Y0440243D02*
X0234340Y0440243D01*
X0210324Y0453172D02*
X0208140Y0453172D01*
X0210324Y0453172D02*
X0210324Y0449414D01*
X0208140Y0449414D01*
X0208140Y0453172D01*
X0208140Y0451128D02*
X0210324Y0451128D01*
X0210324Y0452842D02*
X0208140Y0452842D01*
X0202450Y0453172D02*
X0200266Y0453172D01*
X0202450Y0453172D02*
X0202450Y0449414D01*
X0200266Y0449414D01*
X0200266Y0453172D01*
X0200266Y0451128D02*
X0202450Y0451128D01*
X0202450Y0452842D02*
X0200266Y0452842D01*
X0231190Y0197661D02*
X0231190Y0195477D01*
X0227432Y0195477D01*
X0227432Y0197661D01*
X0231190Y0197661D01*
X0231190Y0197191D02*
X0227432Y0197191D01*
X0231190Y0189786D02*
X0231190Y0187602D01*
X0227432Y0187602D01*
X0227432Y0189786D01*
X0231190Y0189786D01*
X0231190Y0189316D02*
X0227432Y0189316D01*
X0216802Y0168133D02*
X0216802Y0165949D01*
X0216802Y0168133D02*
X0220560Y0168133D01*
X0220560Y0165949D01*
X0216802Y0165949D01*
X0216802Y0167663D02*
X0220560Y0167663D01*
X0216802Y0160259D02*
X0216802Y0158075D01*
X0216802Y0160259D02*
X0220560Y0160259D01*
X0220560Y0158075D01*
X0216802Y0158075D01*
X0216802Y0159789D02*
X0220560Y0159789D01*
D18*
X0468248Y0285348D02*
X0471476Y0285348D01*
X0471476Y0287907D02*
X0468248Y0287907D01*
X0468248Y0290466D02*
X0471476Y0290466D01*
X0471476Y0293025D02*
X0468248Y0293025D01*
X0468248Y0306017D02*
X0471476Y0306017D01*
X0471476Y0308576D02*
X0468248Y0308576D01*
X0468248Y0311135D02*
X0471476Y0311135D01*
X0471476Y0313694D02*
X0468248Y0313694D01*
X0484784Y0313694D02*
X0488012Y0313694D01*
X0488012Y0311135D02*
X0484784Y0311135D01*
X0484784Y0308576D02*
X0488012Y0308576D01*
X0488012Y0306017D02*
X0484784Y0306017D01*
X0484784Y0293025D02*
X0488012Y0293025D01*
X0488012Y0290466D02*
X0484784Y0290466D01*
X0484784Y0287907D02*
X0488012Y0287907D01*
X0488012Y0285348D02*
X0484784Y0285348D01*
X0404114Y0454403D02*
X0404114Y0457631D01*
X0401555Y0457631D02*
X0401555Y0454403D01*
X0398996Y0454403D02*
X0398996Y0457631D01*
X0396437Y0457631D02*
X0396437Y0454403D01*
X0396437Y0470939D02*
X0396437Y0474167D01*
X0398996Y0474167D02*
X0398996Y0470939D01*
X0401555Y0470939D02*
X0401555Y0474167D01*
X0404114Y0474167D02*
X0404114Y0470939D01*
D19*
X0241853Y0491882D02*
X0241853Y0492554D01*
X0241853Y0491882D02*
X0237581Y0491882D01*
X0237581Y0492554D01*
X0241853Y0492554D01*
X0241853Y0496882D02*
X0241853Y0497554D01*
X0241853Y0496882D02*
X0237581Y0496882D01*
X0237581Y0497554D01*
X0241853Y0497554D01*
X0241853Y0501882D02*
X0241853Y0502554D01*
X0241853Y0501882D02*
X0237581Y0501882D01*
X0237581Y0502554D01*
X0241853Y0502554D01*
X0241853Y0506882D02*
X0241853Y0507554D01*
X0241853Y0506882D02*
X0237581Y0506882D01*
X0237581Y0507554D01*
X0241853Y0507554D01*
X0220253Y0507554D02*
X0220253Y0506882D01*
X0215981Y0506882D01*
X0215981Y0507554D01*
X0220253Y0507554D01*
X0220253Y0502554D02*
X0220253Y0501882D01*
X0215981Y0501882D01*
X0215981Y0502554D01*
X0220253Y0502554D01*
X0220253Y0497554D02*
X0220253Y0496882D01*
X0215981Y0496882D01*
X0215981Y0497554D01*
X0220253Y0497554D01*
X0220253Y0492554D02*
X0220253Y0491882D01*
X0215981Y0491882D01*
X0215981Y0492554D01*
X0220253Y0492554D01*
X0197777Y0306807D02*
X0197105Y0306807D01*
X0197105Y0311079D01*
X0197777Y0311079D01*
X0197777Y0306807D01*
X0197777Y0308534D02*
X0197105Y0308534D01*
X0197105Y0310261D02*
X0197777Y0310261D01*
X0192777Y0306807D02*
X0192105Y0306807D01*
X0192105Y0311079D01*
X0192777Y0311079D01*
X0192777Y0306807D01*
X0192777Y0308534D02*
X0192105Y0308534D01*
X0192105Y0310261D02*
X0192777Y0310261D01*
X0187777Y0306807D02*
X0187105Y0306807D01*
X0187105Y0311079D01*
X0187777Y0311079D01*
X0187777Y0306807D01*
X0187777Y0308534D02*
X0187105Y0308534D01*
X0187105Y0310261D02*
X0187777Y0310261D01*
X0182777Y0306807D02*
X0182105Y0306807D01*
X0182105Y0311079D01*
X0182777Y0311079D01*
X0182777Y0306807D01*
X0182777Y0308534D02*
X0182105Y0308534D01*
X0182105Y0310261D02*
X0182777Y0310261D01*
X0182777Y0285207D02*
X0182105Y0285207D01*
X0182105Y0289479D01*
X0182777Y0289479D01*
X0182777Y0285207D01*
X0182777Y0286934D02*
X0182105Y0286934D01*
X0182105Y0288661D02*
X0182777Y0288661D01*
X0187105Y0285207D02*
X0187777Y0285207D01*
X0187105Y0285207D02*
X0187105Y0289479D01*
X0187777Y0289479D01*
X0187777Y0285207D01*
X0187777Y0286934D02*
X0187105Y0286934D01*
X0187105Y0288661D02*
X0187777Y0288661D01*
X0192105Y0285207D02*
X0192777Y0285207D01*
X0192105Y0285207D02*
X0192105Y0289479D01*
X0192777Y0289479D01*
X0192777Y0285207D01*
X0192777Y0286934D02*
X0192105Y0286934D01*
X0192105Y0288661D02*
X0192777Y0288661D01*
X0197105Y0285207D02*
X0197777Y0285207D01*
X0197105Y0285207D02*
X0197105Y0289479D01*
X0197777Y0289479D01*
X0197777Y0285207D01*
X0197777Y0286934D02*
X0197105Y0286934D01*
X0197105Y0288661D02*
X0197777Y0288661D01*
D20*
X0470256Y0320191D03*
D21*
X0432853Y0419994D02*
X0432853Y0419994D01*
X0435217Y0419994D01*
X0435217Y0419994D01*
X0432853Y0419994D01*
X0432853Y0422553D02*
X0432853Y0422553D01*
X0435217Y0422553D01*
X0435217Y0422553D01*
X0432853Y0422553D01*
X0432853Y0425112D02*
X0432853Y0425112D01*
X0435217Y0425112D01*
X0435217Y0425112D01*
X0432853Y0425112D01*
X0424979Y0425112D02*
X0424979Y0425112D01*
X0427343Y0425112D01*
X0427343Y0425112D01*
X0424979Y0425112D01*
X0424979Y0422553D02*
X0424979Y0422553D01*
X0427343Y0422553D01*
X0427343Y0422553D01*
X0424979Y0422553D01*
X0424979Y0419994D02*
X0424979Y0419994D01*
X0427343Y0419994D01*
X0427343Y0419994D01*
X0424979Y0419994D01*
X0461595Y0469994D02*
X0461595Y0469994D01*
X0459231Y0469994D01*
X0459231Y0469994D01*
X0461595Y0469994D01*
X0461595Y0475112D02*
X0461595Y0475112D01*
X0459231Y0475112D01*
X0459231Y0475112D01*
X0461595Y0475112D01*
X0469469Y0475112D02*
X0469469Y0475112D01*
X0467105Y0475112D01*
X0467105Y0475112D01*
X0469469Y0475112D01*
X0469469Y0472553D02*
X0469469Y0472553D01*
X0467105Y0472553D01*
X0467105Y0472553D01*
X0469469Y0472553D01*
X0469469Y0469994D02*
X0469469Y0469994D01*
X0467105Y0469994D01*
X0467105Y0469994D01*
X0469469Y0469994D01*
X0405098Y0524127D02*
X0405098Y0524127D01*
X0405098Y0526491D01*
X0405098Y0526491D01*
X0405098Y0524127D01*
X0405098Y0525661D02*
X0405098Y0525661D01*
X0402539Y0524127D02*
X0402539Y0524127D01*
X0402539Y0526491D01*
X0402539Y0526491D01*
X0402539Y0524127D01*
X0402539Y0525661D02*
X0402539Y0525661D01*
X0399980Y0524127D02*
X0399980Y0524127D01*
X0399980Y0526491D01*
X0399980Y0526491D01*
X0399980Y0524127D01*
X0399980Y0525661D02*
X0399980Y0525661D01*
X0399980Y0532001D02*
X0399980Y0532001D01*
X0399980Y0534365D01*
X0399980Y0534365D01*
X0399980Y0532001D01*
X0399980Y0533535D02*
X0399980Y0533535D01*
X0402539Y0532001D02*
X0402539Y0532001D01*
X0402539Y0534365D01*
X0402539Y0534365D01*
X0402539Y0532001D01*
X0402539Y0533535D02*
X0402539Y0533535D01*
X0405098Y0532001D02*
X0405098Y0532001D01*
X0405098Y0534365D01*
X0405098Y0534365D01*
X0405098Y0532001D01*
X0405098Y0533535D02*
X0405098Y0533535D01*
X0424192Y0567631D02*
X0424192Y0567631D01*
X0426556Y0567631D01*
X0426556Y0567631D01*
X0424192Y0567631D01*
X0424192Y0570191D02*
X0424192Y0570191D01*
X0426556Y0570191D01*
X0426556Y0570191D01*
X0424192Y0570191D01*
X0424192Y0572750D02*
X0424192Y0572750D01*
X0426556Y0572750D01*
X0426556Y0572750D01*
X0424192Y0572750D01*
X0432066Y0572750D02*
X0432066Y0572750D01*
X0434430Y0572750D01*
X0434430Y0572750D01*
X0432066Y0572750D01*
X0432066Y0570191D02*
X0432066Y0570191D01*
X0434430Y0570191D01*
X0434430Y0570191D01*
X0432066Y0570191D01*
X0432066Y0567631D02*
X0432066Y0567631D01*
X0434430Y0567631D01*
X0434430Y0567631D01*
X0432066Y0567631D01*
X0449586Y0577276D02*
X0449586Y0577276D01*
X0449586Y0579640D01*
X0449586Y0579640D01*
X0449586Y0577276D01*
X0449586Y0578810D02*
X0449586Y0578810D01*
X0452146Y0577276D02*
X0452146Y0577276D01*
X0452146Y0579640D01*
X0452146Y0579640D01*
X0452146Y0577276D01*
X0452146Y0578810D02*
X0452146Y0578810D01*
X0454705Y0577276D02*
X0454705Y0577276D01*
X0454705Y0579640D01*
X0454705Y0579640D01*
X0454705Y0577276D01*
X0454705Y0578810D02*
X0454705Y0578810D01*
X0454705Y0585150D02*
X0454705Y0585150D01*
X0454705Y0587514D01*
X0454705Y0587514D01*
X0454705Y0585150D01*
X0454705Y0586684D02*
X0454705Y0586684D01*
X0452146Y0585150D02*
X0452146Y0585150D01*
X0452146Y0587514D01*
X0452146Y0587514D01*
X0452146Y0585150D01*
X0452146Y0586684D02*
X0452146Y0586684D01*
X0449586Y0585150D02*
X0449586Y0585150D01*
X0449586Y0587514D01*
X0449586Y0587514D01*
X0449586Y0585150D01*
X0449586Y0586684D02*
X0449586Y0586684D01*
X0353523Y0442239D02*
X0353523Y0442239D01*
X0353523Y0439875D01*
X0353523Y0439875D01*
X0353523Y0442239D01*
X0353523Y0441409D02*
X0353523Y0441409D01*
X0350964Y0442239D02*
X0350964Y0442239D01*
X0350964Y0439875D01*
X0350964Y0439875D01*
X0350964Y0442239D01*
X0350964Y0441409D02*
X0350964Y0441409D01*
X0348405Y0442239D02*
X0348405Y0442239D01*
X0348405Y0439875D01*
X0348405Y0439875D01*
X0348405Y0442239D01*
X0348405Y0441409D02*
X0348405Y0441409D01*
X0348405Y0434365D02*
X0348405Y0434365D01*
X0348405Y0432001D01*
X0348405Y0432001D01*
X0348405Y0434365D01*
X0348405Y0433535D02*
X0348405Y0433535D01*
X0350964Y0434365D02*
X0350964Y0434365D01*
X0350964Y0432001D01*
X0350964Y0432001D01*
X0350964Y0434365D01*
X0350964Y0433535D02*
X0350964Y0433535D01*
X0353523Y0434365D02*
X0353523Y0434365D01*
X0353523Y0432001D01*
X0353523Y0432001D01*
X0353523Y0434365D01*
X0353523Y0433535D02*
X0353523Y0433535D01*
X0252538Y0523143D02*
X0252538Y0523143D01*
X0254902Y0523143D01*
X0254902Y0523143D01*
X0252538Y0523143D01*
X0252538Y0525702D02*
X0252538Y0525702D01*
X0254902Y0525702D01*
X0254902Y0525702D01*
X0252538Y0525702D01*
X0252538Y0528261D02*
X0252538Y0528261D01*
X0254902Y0528261D01*
X0254902Y0528261D01*
X0252538Y0528261D01*
X0244664Y0528261D02*
X0244664Y0528261D01*
X0247028Y0528261D01*
X0247028Y0528261D01*
X0244664Y0528261D01*
X0244664Y0525702D02*
X0244664Y0525702D01*
X0247028Y0525702D01*
X0247028Y0525702D01*
X0244664Y0525702D01*
X0244664Y0523143D02*
X0244664Y0523143D01*
X0247028Y0523143D01*
X0247028Y0523143D01*
X0244664Y0523143D01*
X0242500Y0556806D02*
X0242500Y0556806D01*
X0242500Y0554442D01*
X0242500Y0554442D01*
X0242500Y0556806D01*
X0242500Y0555976D02*
X0242500Y0555976D01*
X0239941Y0556806D02*
X0239941Y0556806D01*
X0239941Y0554442D01*
X0239941Y0554442D01*
X0239941Y0556806D01*
X0239941Y0555976D02*
X0239941Y0555976D01*
X0237382Y0556806D02*
X0237382Y0556806D01*
X0237382Y0554442D01*
X0237382Y0554442D01*
X0237382Y0556806D01*
X0237382Y0555976D02*
X0237382Y0555976D01*
X0237382Y0564680D02*
X0237382Y0564680D01*
X0237382Y0562316D01*
X0237382Y0562316D01*
X0237382Y0564680D01*
X0237382Y0563850D02*
X0237382Y0563850D01*
X0239941Y0564680D02*
X0239941Y0564680D01*
X0239941Y0562316D01*
X0239941Y0562316D01*
X0239941Y0564680D01*
X0239941Y0563850D02*
X0239941Y0563850D01*
X0242500Y0564680D02*
X0242500Y0564680D01*
X0242500Y0562316D01*
X0242500Y0562316D01*
X0242500Y0564680D01*
X0242500Y0563850D02*
X0242500Y0563850D01*
X0215335Y0564678D02*
X0215335Y0564678D01*
X0215335Y0567042D01*
X0215335Y0567042D01*
X0215335Y0564678D01*
X0215335Y0566212D02*
X0215335Y0566212D01*
X0212775Y0564678D02*
X0212775Y0564678D01*
X0212775Y0567042D01*
X0212775Y0567042D01*
X0212775Y0564678D01*
X0212775Y0566212D02*
X0212775Y0566212D01*
X0210216Y0564678D02*
X0210216Y0564678D01*
X0210216Y0567042D01*
X0210216Y0567042D01*
X0210216Y0564678D01*
X0210216Y0566212D02*
X0210216Y0566212D01*
X0210216Y0572552D02*
X0210216Y0572552D01*
X0210216Y0574916D01*
X0210216Y0574916D01*
X0210216Y0572552D01*
X0210216Y0574086D02*
X0210216Y0574086D01*
X0212775Y0572552D02*
X0212775Y0572552D01*
X0212775Y0574916D01*
X0212775Y0574916D01*
X0212775Y0572552D01*
X0212775Y0574086D02*
X0212775Y0574086D01*
X0215335Y0572552D02*
X0215335Y0572552D01*
X0215335Y0574916D01*
X0215335Y0574916D01*
X0215335Y0572552D01*
X0215335Y0574086D02*
X0215335Y0574086D01*
X0178327Y0488695D02*
X0178327Y0488695D01*
X0178327Y0486331D01*
X0178327Y0486331D01*
X0178327Y0488695D01*
X0178327Y0487865D02*
X0178327Y0487865D01*
X0175768Y0488695D02*
X0175768Y0488695D01*
X0175768Y0486331D01*
X0175768Y0486331D01*
X0175768Y0488695D01*
X0175768Y0487865D02*
X0175768Y0487865D01*
X0173209Y0488695D02*
X0173209Y0488695D01*
X0173209Y0486331D01*
X0173209Y0486331D01*
X0173209Y0488695D01*
X0173209Y0487865D02*
X0173209Y0487865D01*
X0173209Y0480821D02*
X0173209Y0480821D01*
X0173209Y0478457D01*
X0173209Y0478457D01*
X0173209Y0480821D01*
X0173209Y0479991D02*
X0173209Y0479991D01*
X0175768Y0480821D02*
X0175768Y0480821D01*
X0175768Y0478457D01*
X0175768Y0478457D01*
X0175768Y0480821D01*
X0175768Y0479991D02*
X0175768Y0479991D01*
X0178327Y0480821D02*
X0178327Y0480821D01*
X0178327Y0478457D01*
X0178327Y0478457D01*
X0178327Y0480821D01*
X0178327Y0479991D02*
X0178327Y0479991D01*
D22*
X0199874Y0505714D02*
X0202448Y0505714D01*
X0199874Y0505714D02*
X0199874Y0508682D01*
X0202448Y0508682D01*
X0202448Y0505714D01*
X0202448Y0507430D02*
X0199874Y0507430D01*
X0385701Y0157501D02*
X0385701Y0154927D01*
X0385701Y0157501D02*
X0388669Y0157501D01*
X0388669Y0154927D01*
X0385701Y0154927D01*
X0385701Y0156643D02*
X0388669Y0156643D01*
D23*
X0385712Y0150010D02*
X0385712Y0149032D01*
X0385712Y0150010D02*
X0388658Y0150010D01*
X0388658Y0149032D01*
X0385712Y0149032D01*
X0395161Y0149032D02*
X0395161Y0150010D01*
X0398107Y0150010D01*
X0398107Y0149032D01*
X0395161Y0149032D01*
X0395161Y0156513D02*
X0395161Y0157491D01*
X0398107Y0157491D01*
X0398107Y0156513D01*
X0395161Y0156513D01*
X0260515Y0162812D02*
X0260515Y0163790D01*
X0263461Y0163790D01*
X0263461Y0162812D01*
X0260515Y0162812D01*
X0260515Y0170292D02*
X0260515Y0171270D01*
X0263461Y0171270D01*
X0263461Y0170292D01*
X0260515Y0170292D01*
X0251066Y0167530D02*
X0251066Y0166552D01*
X0251066Y0167530D02*
X0254012Y0167530D01*
X0254012Y0166552D01*
X0251066Y0166552D01*
X0208343Y0505725D02*
X0207365Y0505725D01*
X0207365Y0508671D01*
X0208343Y0508671D01*
X0208343Y0505725D01*
X0208343Y0507463D02*
X0207365Y0507463D01*
X0207365Y0515174D02*
X0208343Y0515174D01*
X0207365Y0515174D02*
X0207365Y0518120D01*
X0208343Y0518120D01*
X0208343Y0515174D01*
X0208343Y0516912D02*
X0207365Y0516912D01*
X0200863Y0515174D02*
X0199885Y0515174D01*
X0199885Y0518120D01*
X0200863Y0518120D01*
X0200863Y0515174D01*
X0200863Y0516912D02*
X0199885Y0516912D01*
D24*
X0299059Y0458049D02*
X0306807Y0458049D01*
X0299059Y0458049D02*
X0299059Y0465797D01*
X0306807Y0465797D01*
X0306807Y0458049D01*
X0306807Y0459749D02*
X0299059Y0459749D01*
X0299059Y0461449D02*
X0306807Y0461449D01*
X0306807Y0463149D02*
X0299059Y0463149D01*
X0299059Y0464849D02*
X0306807Y0464849D01*
X0316382Y0458049D02*
X0324130Y0458049D01*
X0316382Y0458049D02*
X0316382Y0465797D01*
X0324130Y0465797D01*
X0324130Y0458049D01*
X0324130Y0459749D02*
X0316382Y0459749D01*
X0316382Y0461449D02*
X0324130Y0461449D01*
X0324130Y0463149D02*
X0316382Y0463149D01*
X0316382Y0464849D02*
X0324130Y0464849D01*
X0336854Y0458049D02*
X0344602Y0458049D01*
X0336854Y0458049D02*
X0336854Y0465797D01*
X0344602Y0465797D01*
X0344602Y0458049D01*
X0344602Y0459749D02*
X0336854Y0459749D01*
X0336854Y0461449D02*
X0344602Y0461449D01*
X0344602Y0463149D02*
X0336854Y0463149D01*
X0336854Y0464849D02*
X0344602Y0464849D01*
X0354177Y0458049D02*
X0361925Y0458049D01*
X0354177Y0458049D02*
X0354177Y0465797D01*
X0361925Y0465797D01*
X0361925Y0458049D01*
X0361925Y0459749D02*
X0354177Y0459749D01*
X0354177Y0461449D02*
X0361925Y0461449D01*
X0361925Y0463149D02*
X0354177Y0463149D01*
X0354177Y0464849D02*
X0361925Y0464849D01*
D25*
X0330048Y0441179D02*
X0330048Y0440541D01*
X0327048Y0440541D01*
X0327048Y0441179D01*
X0330048Y0441179D01*
X0330023Y0437439D02*
X0330023Y0436801D01*
X0327023Y0436801D01*
X0327023Y0437439D01*
X0330023Y0437439D01*
X0330023Y0433699D02*
X0330023Y0433061D01*
X0327023Y0433061D01*
X0327023Y0433699D01*
X0330023Y0433699D01*
X0320575Y0433699D02*
X0320575Y0433061D01*
X0317575Y0433061D01*
X0317575Y0433699D01*
X0320575Y0433699D01*
X0320575Y0436801D02*
X0320575Y0437439D01*
X0320575Y0436801D02*
X0317575Y0436801D01*
X0317575Y0437439D01*
X0320575Y0437439D01*
X0320575Y0440541D02*
X0320575Y0441179D01*
X0320575Y0440541D02*
X0317575Y0440541D01*
X0317575Y0441179D01*
X0320575Y0441179D01*
X0263269Y0474399D02*
X0263269Y0475037D01*
X0266269Y0475037D01*
X0266269Y0474399D01*
X0263269Y0474399D01*
X0263269Y0481879D02*
X0263269Y0482517D01*
X0266269Y0482517D01*
X0266269Y0481879D01*
X0263269Y0481879D01*
X0253771Y0481879D02*
X0253771Y0482517D01*
X0256771Y0482517D01*
X0256771Y0481879D01*
X0253771Y0481879D01*
X0253771Y0478777D02*
X0253771Y0478139D01*
X0253771Y0478777D02*
X0256771Y0478777D01*
X0256771Y0478139D01*
X0253771Y0478139D01*
X0253771Y0475037D02*
X0253771Y0474399D01*
X0253771Y0475037D02*
X0256771Y0475037D01*
X0256771Y0474399D01*
X0253771Y0474399D01*
X0244740Y0576368D02*
X0244740Y0577006D01*
X0247740Y0577006D01*
X0247740Y0576368D01*
X0244740Y0576368D01*
X0244740Y0580108D02*
X0244740Y0580746D01*
X0247740Y0580746D01*
X0247740Y0580108D01*
X0244740Y0580108D01*
X0244740Y0583848D02*
X0244740Y0584486D01*
X0247740Y0584486D01*
X0247740Y0583848D01*
X0244740Y0583848D01*
X0235291Y0583848D02*
X0235291Y0584486D01*
X0238291Y0584486D01*
X0238291Y0583848D01*
X0235291Y0583848D01*
X0235291Y0580746D02*
X0235291Y0580108D01*
X0235291Y0580746D02*
X0238291Y0580746D01*
X0238291Y0580108D01*
X0235291Y0580108D01*
X0235267Y0577006D02*
X0235267Y0576368D01*
X0235267Y0577006D02*
X0238267Y0577006D01*
X0238267Y0576368D01*
X0235267Y0576368D01*
X0415063Y0561651D02*
X0415063Y0561013D01*
X0412063Y0561013D01*
X0412063Y0561651D01*
X0415063Y0561651D01*
X0415063Y0557911D02*
X0415063Y0557273D01*
X0412063Y0557273D01*
X0412063Y0557911D01*
X0415063Y0557911D01*
X0415063Y0554171D02*
X0415063Y0553533D01*
X0412063Y0553533D01*
X0412063Y0554171D01*
X0415063Y0554171D01*
X0424512Y0554171D02*
X0424512Y0553533D01*
X0421512Y0553533D01*
X0421512Y0554171D01*
X0424512Y0554171D01*
X0424512Y0557273D02*
X0424512Y0557911D01*
X0424512Y0557273D02*
X0421512Y0557273D01*
X0421512Y0557911D01*
X0424512Y0557911D01*
X0424536Y0561013D02*
X0424536Y0561651D01*
X0424536Y0561013D02*
X0421536Y0561013D01*
X0421536Y0561651D01*
X0424536Y0561651D01*
D26*
X0216978Y0315938D02*
X0214398Y0315938D01*
X0214398Y0319718D01*
X0216978Y0319718D01*
X0216978Y0315938D01*
X0216978Y0317657D02*
X0214398Y0317657D01*
X0214398Y0319376D02*
X0216978Y0319376D01*
X0209578Y0315938D02*
X0206998Y0315938D01*
X0206998Y0319718D01*
X0209578Y0319718D01*
X0209578Y0315938D01*
X0209578Y0317657D02*
X0206998Y0317657D01*
X0206998Y0319376D02*
X0209578Y0319376D01*
D27*
X0448687Y0510657D02*
X0448687Y0516339D01*
X0448687Y0510657D02*
X0443793Y0510657D01*
X0443793Y0516339D01*
X0448687Y0516339D01*
X0448687Y0512376D02*
X0443793Y0512376D01*
X0443793Y0514095D02*
X0448687Y0514095D01*
X0448687Y0515814D02*
X0443793Y0515814D01*
D28*
X0223405Y0446372D02*
X0223405Y0446372D01*
X0224981Y0446372D01*
X0224981Y0446372D01*
X0223405Y0446372D01*
X0223405Y0443813D02*
X0223405Y0443813D01*
X0224981Y0443813D01*
X0224981Y0443813D01*
X0223405Y0443813D01*
X0223405Y0441254D02*
X0223405Y0441254D01*
X0224981Y0441254D01*
X0224981Y0441254D01*
X0223405Y0441254D01*
X0214743Y0441254D02*
X0214743Y0441254D01*
X0216319Y0441254D01*
X0216319Y0441254D01*
X0214743Y0441254D01*
X0214743Y0443813D02*
X0214743Y0443813D01*
X0216319Y0443813D01*
X0216319Y0443813D01*
X0214743Y0443813D01*
X0214743Y0446372D02*
X0214743Y0446372D01*
X0216319Y0446372D01*
X0216319Y0446372D01*
X0214743Y0446372D01*
X0221634Y0183183D02*
X0221634Y0183183D01*
X0221634Y0181607D01*
X0221634Y0181607D01*
X0221634Y0183183D01*
X0221634Y0183181D02*
X0221634Y0183181D01*
X0224193Y0183183D02*
X0224193Y0183183D01*
X0224193Y0181607D01*
X0224193Y0181607D01*
X0224193Y0183183D01*
X0224193Y0183181D02*
X0224193Y0183181D01*
X0226752Y0183183D02*
X0226752Y0183183D01*
X0226752Y0181607D01*
X0226752Y0181607D01*
X0226752Y0183183D01*
X0226752Y0183181D02*
X0226752Y0183181D01*
X0226752Y0174522D02*
X0226752Y0174522D01*
X0226752Y0172946D01*
X0226752Y0172946D01*
X0226752Y0174522D01*
X0226752Y0174520D02*
X0226752Y0174520D01*
X0224193Y0174522D02*
X0224193Y0174522D01*
X0224193Y0172946D01*
X0224193Y0172946D01*
X0224193Y0174522D01*
X0224193Y0174520D02*
X0224193Y0174520D01*
X0221634Y0174522D02*
X0221634Y0174522D01*
X0221634Y0172946D01*
X0221634Y0172946D01*
X0221634Y0174522D01*
X0221634Y0174520D02*
X0221634Y0174520D01*
D29*
X0222734Y0177240D02*
X0222734Y0178890D01*
X0222734Y0177240D02*
X0221714Y0177240D01*
X0221714Y0178890D01*
X0222734Y0178890D01*
X0226671Y0178890D02*
X0226671Y0177240D01*
X0225651Y0177240D01*
X0225651Y0178890D01*
X0226671Y0178890D01*
X0220687Y0442354D02*
X0219037Y0442354D01*
X0220687Y0442354D02*
X0220687Y0441334D01*
X0219037Y0441334D01*
X0219037Y0442354D01*
X0219037Y0446291D02*
X0220687Y0446291D01*
X0220687Y0445271D01*
X0219037Y0445271D01*
X0219037Y0446291D01*
D30*
X0468163Y0486209D02*
X0488883Y0486209D01*
X0468163Y0486209D02*
X0468163Y0493543D01*
X0488883Y0493543D01*
X0488883Y0486209D01*
X0488883Y0487928D02*
X0468163Y0487928D01*
X0468163Y0489647D02*
X0488883Y0489647D01*
X0488883Y0491366D02*
X0468163Y0491366D01*
X0468163Y0493085D02*
X0488883Y0493085D01*
X0488883Y0505106D02*
X0468163Y0505106D01*
X0468163Y0512440D01*
X0488883Y0512440D01*
X0488883Y0505106D01*
X0488883Y0506825D02*
X0468163Y0506825D01*
X0468163Y0508544D02*
X0488883Y0508544D01*
X0488883Y0510263D02*
X0468163Y0510263D01*
X0468163Y0511982D02*
X0488883Y0511982D01*
D31*
X0464319Y0490412D02*
X0455247Y0490412D01*
X0464319Y0490412D02*
X0464319Y0483040D01*
X0455247Y0483040D01*
X0455247Y0490412D01*
X0455247Y0484768D02*
X0464319Y0484768D01*
X0464319Y0486496D02*
X0455247Y0486496D01*
X0455247Y0488224D02*
X0464319Y0488224D01*
X0464319Y0489952D02*
X0455247Y0489952D01*
X0444319Y0490412D02*
X0435247Y0490412D01*
X0444319Y0490412D02*
X0444319Y0483040D01*
X0435247Y0483040D01*
X0435247Y0490412D01*
X0435247Y0484768D02*
X0444319Y0484768D01*
X0444319Y0486496D02*
X0435247Y0486496D01*
X0435247Y0488224D02*
X0444319Y0488224D01*
X0444319Y0489952D02*
X0435247Y0489952D01*
X0447452Y0454979D02*
X0456524Y0454979D01*
X0456524Y0447607D01*
X0447452Y0447607D01*
X0447452Y0454979D01*
X0447452Y0449335D02*
X0456524Y0449335D01*
X0456524Y0451063D02*
X0447452Y0451063D01*
X0447452Y0452791D02*
X0456524Y0452791D01*
X0456524Y0454519D02*
X0447452Y0454519D01*
X0467452Y0454979D02*
X0476524Y0454979D01*
X0476524Y0447607D01*
X0467452Y0447607D01*
X0467452Y0454979D01*
X0467452Y0449335D02*
X0476524Y0449335D01*
X0476524Y0451063D02*
X0467452Y0451063D01*
X0467452Y0452791D02*
X0476524Y0452791D01*
X0476524Y0454519D02*
X0467452Y0454519D01*
X0179454Y0454490D02*
X0179454Y0445418D01*
X0172082Y0445418D01*
X0172082Y0454490D01*
X0179454Y0454490D01*
X0179454Y0447146D02*
X0172082Y0447146D01*
X0172082Y0448874D02*
X0179454Y0448874D01*
X0179454Y0450602D02*
X0172082Y0450602D01*
X0172082Y0452330D02*
X0179454Y0452330D01*
X0179454Y0454058D02*
X0172082Y0454058D01*
X0179454Y0465418D02*
X0179454Y0474490D01*
X0179454Y0465418D02*
X0172082Y0465418D01*
X0172082Y0474490D01*
X0179454Y0474490D01*
X0179454Y0467146D02*
X0172082Y0467146D01*
X0172082Y0468874D02*
X0179454Y0468874D01*
X0179454Y0470602D02*
X0172082Y0470602D01*
X0172082Y0472330D02*
X0179454Y0472330D01*
X0179454Y0474058D02*
X0172082Y0474058D01*
X0185247Y0182538D02*
X0194319Y0182538D01*
X0194319Y0175166D01*
X0185247Y0175166D01*
X0185247Y0182538D01*
X0185247Y0176894D02*
X0194319Y0176894D01*
X0194319Y0178622D02*
X0185247Y0178622D01*
X0185247Y0180350D02*
X0194319Y0180350D01*
X0194319Y0182078D02*
X0185247Y0182078D01*
X0205247Y0182538D02*
X0214319Y0182538D01*
X0214319Y0175166D01*
X0205247Y0175166D01*
X0205247Y0182538D01*
X0205247Y0176894D02*
X0214319Y0176894D01*
X0214319Y0178622D02*
X0205247Y0178622D01*
X0205247Y0180350D02*
X0214319Y0180350D01*
X0214319Y0182078D02*
X0205247Y0182078D01*
D32*
X0430306Y0469502D02*
X0430306Y0476302D01*
X0430306Y0469502D02*
X0421206Y0469502D01*
X0421206Y0476302D01*
X0430306Y0476302D01*
X0430306Y0471201D02*
X0421206Y0471201D01*
X0421206Y0472900D02*
X0430306Y0472900D01*
X0430306Y0474599D02*
X0421206Y0474599D01*
X0421206Y0476298D02*
X0430306Y0476298D01*
X0430324Y0486902D02*
X0430324Y0493702D01*
X0430324Y0486902D02*
X0421224Y0486902D01*
X0421224Y0493702D01*
X0430324Y0493702D01*
X0430324Y0488601D02*
X0421224Y0488601D01*
X0421224Y0490300D02*
X0430324Y0490300D01*
X0430324Y0491999D02*
X0421224Y0491999D01*
X0421224Y0493698D02*
X0430324Y0493698D01*
D33*
X0292587Y0462601D02*
X0292587Y0446285D01*
X0279421Y0446285D01*
X0279421Y0462601D01*
X0292587Y0462601D01*
X0292587Y0448079D02*
X0279421Y0448079D01*
X0279421Y0449873D02*
X0292587Y0449873D01*
X0292587Y0451667D02*
X0279421Y0451667D01*
X0279421Y0453461D02*
X0292587Y0453461D01*
X0292587Y0455255D02*
X0279421Y0455255D01*
X0279421Y0457049D02*
X0292587Y0457049D01*
X0292587Y0458843D02*
X0279421Y0458843D01*
X0279421Y0460637D02*
X0292587Y0460637D01*
X0292587Y0462431D02*
X0279421Y0462431D01*
X0292587Y0435041D02*
X0292587Y0418725D01*
X0279421Y0418725D01*
X0279421Y0435041D01*
X0292587Y0435041D01*
X0292587Y0420519D02*
X0279421Y0420519D01*
X0279421Y0422313D02*
X0292587Y0422313D01*
X0292587Y0424107D02*
X0279421Y0424107D01*
X0279421Y0425901D02*
X0292587Y0425901D01*
X0292587Y0427695D02*
X0279421Y0427695D01*
X0279421Y0429489D02*
X0292587Y0429489D01*
X0292587Y0431283D02*
X0279421Y0431283D01*
X0279421Y0433077D02*
X0292587Y0433077D01*
X0292587Y0434871D02*
X0279421Y0434871D01*
D34*
X0300543Y0408510D02*
X0307507Y0408510D01*
X0300543Y0408510D02*
X0300543Y0412974D01*
X0307507Y0412974D01*
X0307507Y0408510D01*
X0307507Y0410245D02*
X0300543Y0410245D01*
X0300543Y0411980D02*
X0307507Y0411980D01*
X0318043Y0408510D02*
X0325007Y0408510D01*
X0318043Y0408510D02*
X0318043Y0412974D01*
X0325007Y0412974D01*
X0325007Y0408510D01*
X0325007Y0410245D02*
X0318043Y0410245D01*
X0318043Y0411980D02*
X0325007Y0411980D01*
X0482591Y0516226D02*
X0482591Y0523190D01*
X0487055Y0523190D01*
X0487055Y0516226D01*
X0482591Y0516226D01*
X0482591Y0517961D02*
X0487055Y0517961D01*
X0487055Y0519696D02*
X0482591Y0519696D01*
X0482591Y0521431D02*
X0487055Y0521431D01*
X0487055Y0523166D02*
X0482591Y0523166D01*
X0482591Y0533726D02*
X0482591Y0540690D01*
X0487055Y0540690D01*
X0487055Y0533726D01*
X0482591Y0533726D01*
X0482591Y0535461D02*
X0487055Y0535461D01*
X0487055Y0537196D02*
X0482591Y0537196D01*
X0482591Y0538931D02*
X0487055Y0538931D01*
X0487055Y0540666D02*
X0482591Y0540666D01*
D35*
X0476053Y0553940D02*
X0471545Y0553940D01*
X0476053Y0553940D02*
X0476053Y0539984D01*
X0471545Y0539984D01*
X0471545Y0553940D01*
X0471545Y0541736D02*
X0476053Y0541736D01*
X0476053Y0543488D02*
X0471545Y0543488D01*
X0471545Y0545240D02*
X0476053Y0545240D01*
X0476053Y0546992D02*
X0471545Y0546992D01*
X0471545Y0548744D02*
X0476053Y0548744D01*
X0476053Y0550496D02*
X0471545Y0550496D01*
X0471545Y0552248D02*
X0476053Y0552248D01*
X0476053Y0580712D02*
X0471545Y0580712D01*
X0476053Y0580712D02*
X0476053Y0566756D01*
X0471545Y0566756D01*
X0471545Y0580712D01*
X0471545Y0568508D02*
X0476053Y0568508D01*
X0476053Y0570260D02*
X0471545Y0570260D01*
X0471545Y0572012D02*
X0476053Y0572012D01*
X0476053Y0573764D02*
X0471545Y0573764D01*
X0471545Y0575516D02*
X0476053Y0575516D01*
X0476053Y0577268D02*
X0471545Y0577268D01*
X0471545Y0579020D02*
X0476053Y0579020D01*
X0304399Y0493704D02*
X0304399Y0489196D01*
X0290443Y0489196D01*
X0290443Y0493704D01*
X0304399Y0493704D01*
X0304399Y0490948D02*
X0290443Y0490948D01*
X0290443Y0492700D02*
X0304399Y0492700D01*
X0277627Y0493704D02*
X0277627Y0489196D01*
X0263671Y0489196D01*
X0263671Y0493704D01*
X0277627Y0493704D01*
X0277627Y0490948D02*
X0263671Y0490948D01*
X0263671Y0492700D02*
X0277627Y0492700D01*
D36*
X0341602Y0252561D02*
X0344578Y0252561D01*
X0341602Y0252561D02*
X0341602Y0258687D01*
X0344578Y0258687D01*
X0344578Y0252561D01*
X0344578Y0254308D02*
X0341602Y0254308D01*
X0341602Y0256055D02*
X0344578Y0256055D01*
X0344578Y0257802D02*
X0341602Y0257802D01*
X0351051Y0252561D02*
X0354027Y0252561D01*
X0351051Y0252561D02*
X0351051Y0258687D01*
X0354027Y0258687D01*
X0354027Y0252561D01*
X0354027Y0254308D02*
X0351051Y0254308D01*
X0351051Y0256055D02*
X0354027Y0256055D01*
X0354027Y0257802D02*
X0351051Y0257802D01*
X0351051Y0237600D02*
X0354027Y0237600D01*
X0351051Y0237600D02*
X0351051Y0243726D01*
X0354027Y0243726D01*
X0354027Y0237600D01*
X0354027Y0239347D02*
X0351051Y0239347D01*
X0351051Y0241094D02*
X0354027Y0241094D01*
X0354027Y0242841D02*
X0351051Y0242841D01*
X0344578Y0237600D02*
X0341602Y0237600D01*
X0341602Y0243726D01*
X0344578Y0243726D01*
X0344578Y0237600D01*
X0344578Y0239347D02*
X0341602Y0239347D01*
X0341602Y0241094D02*
X0344578Y0241094D01*
X0344578Y0242841D02*
X0341602Y0242841D01*
M02*
